<svg width="46" height="39" viewBox="0 0 46 39" fill="none" xmlns="http://www.w3.org/2000/svg">
<path d="M18.4828 0.939999L18.1828 9.7L18.4228 16H12.4828L12.7228 10.3V7.03L9.90277 7.63L9.54277 7.36V2.62L17.6428 0.34L18.4828 0.939999ZM34.8 0.699998L34.17 5.14L33.78 5.56L30.45 5.11H28.08L28.02 6.94L29.82 7.33C31.42 7.67 32.59 8.24 33.33 9.04C34.09 9.82 34.47 10.88 34.47 12.22C34.47 13.54 34.12 14.7 33.42 15.7C32.74 16.7 31.78 17.47 30.54 18.01C29.3 18.57 27.86 18.85 26.22 18.85C24.96 18.85 23.67 18.71 22.35 18.43L22.08 14.23L22.47 13.84C23.75 14.22 25.03 14.41 26.31 14.41C27.13 14.41 27.76 14.28 28.2 14.02C28.66 13.76 28.89 13.38 28.89 12.88C28.89 12.48 28.75 12.17 28.47 11.95C28.19 11.71 27.74 11.54 27.12 11.44L23.85 10.9L23.52 10.48L23.67 1.06L24.24 0.46L26.13 0.58H30.96L34.47 0.34L34.8 0.699998ZM14.4303 31.7L14.6703 38H8.82031L9.09031 32.3L8.97031 27.65H7.68031L7.62031 28.04C7.20031 30.94 6.77031 33.12 6.33031 34.58C5.89031 36.04 5.35031 37.06 4.71031 37.64C4.07031 38.2 3.20031 38.46 2.10031 38.42L0.870312 38.39L0.0603117 33.83C0.740312 33.67 1.27031 33.39 1.65031 32.99C2.03031 32.57 2.34031 31.91 2.58031 31.01C2.82031 30.11 3.05031 28.79 3.27031 27.05L3.66031 23.9L3.63031 23.84H14.7003L14.4303 31.7ZM30.4578 32.12L23.0178 32.18C23.1978 32.88 23.5378 33.4 24.0378 33.74C24.5378 34.06 25.2278 34.22 26.1078 34.22C27.0878 34.22 28.5178 33.97 30.3978 33.47L30.8178 33.77L29.9178 37.73C28.3378 38.15 26.8678 38.36 25.5078 38.36C23.0278 38.36 21.0878 37.7 19.6878 36.38C18.3078 35.06 17.6178 33.24 17.6178 30.92C17.6178 28.62 18.2778 26.81 19.5978 25.49C20.9178 24.17 22.7278 23.51 25.0278 23.51C27.0078 23.51 28.5378 24.03 29.6178 25.07C30.7178 26.11 31.2678 27.56 31.2678 29.42C31.2678 30.02 31.2078 30.67 31.0878 31.37L30.4578 32.12ZM26.3178 28.82C26.3178 27.76 25.8678 27.23 24.9678 27.23C23.8678 27.23 23.1978 27.94 22.9578 29.36L26.2578 29.24L26.3178 28.82ZM45.9177 24.17L45.6177 27.95L42.5877 27.8H42.2877L42.1677 31.7L42.4077 38H36.5577L36.8277 32.3L36.7077 27.8H36.3777L33.3477 27.95L33.0477 27.59L33.3177 23.84H45.6177L45.9177 24.17Z" fill="#DF495E"/>
</svg>
