<svg width="76" height="76" viewBox="0 0 76 76" fill="none" xmlns="http://www.w3.org/2000/svg">
<g clip-path="url(#clip0)">
<path d="M75.201 33.956C74.832 33.543 74.199 33.512 73.789 33.88L71.827 35.641L61.187 25.091C60.795 24.703 60.163 24.704 59.773 25.097C59.384 25.489 59.386 26.122 59.779 26.511L70.337 36.979L65.11 41.67L47.726 24.062L65.006 7.71501C65.407 7.33501 65.425 6.70201 65.045 6.30101C64.664 5.89901 64.032 5.88401 63.631 6.26101L45.609 23.311C45.414 23.496 45.301 23.751 45.296 24.02C45.291 24.289 45.396 24.548 45.584 24.74L47.185 26.362L43.658 30.052L36.855 29.327C36.554 29.291 36.259 29.399 36.045 29.611L33.28 32.352L28.14 27.275L29.872 25.521C30.06 25.33 30.165 25.07 30.16 24.801C30.155 24.532 30.043 24.277 29.847 24.092L11.826 7.04301C11.426 6.66501 10.792 6.68001 10.412 7.08301C10.032 7.48401 10.05 8.11701 10.451 8.49701L22.612 20L4.80301 37.475L1.66801 34.662C1.25801 34.294 0.625014 34.327 0.256014 34.738C-0.112986 35.149 -0.0789858 35.781 0.332014 36.15L9.72101 44.577C9.91101 44.748 10.151 44.833 10.389 44.833C10.648 44.833 10.906 44.733 11.101 44.536L12.802 42.813L22.153 52.036L20.435 53.783C20.05 54.175 20.052 54.803 20.441 55.191L23.947 58.697L23.949 58.699L23.951 58.701L27.458 62.168L30.96 65.671L34.466 69.177C34.661 69.372 34.917 69.47 35.173 69.47C35.429 69.47 35.685 69.372 35.88 69.177L37.694 67.363L39.538 69.182C39.732 69.374 39.986 69.47 40.24 69.47C40.496 69.47 40.752 69.372 40.947 69.177L43.746 66.378L44.159 66.791C44.354 66.986 44.61 67.084 44.866 67.084C45.122 67.084 45.378 66.986 45.573 66.791L48.372 63.992L48.785 64.405C48.98 64.6 49.236 64.698 49.492 64.698C49.748 64.698 50.004 64.6 50.199 64.405L52.998 61.606L53.41 62.018C53.605 62.213 53.861 62.311 54.117 62.311C54.373 62.311 54.629 62.213 54.824 62.018L58.33 58.512C58.721 58.121 58.721 57.489 58.33 57.098L53.124 51.892L62.533 41.909L64.357 43.757C64.552 43.955 64.81 44.054 65.069 44.054C65.307 44.054 65.547 43.969 65.737 43.798L75.126 35.371C75.536 34.999 75.57 34.367 75.201 33.956ZM24.625 34.513C24.625 36.926 22.662 38.888 20.25 38.888C19.29 38.888 18.368 38.572 17.616 38.004L23.741 31.878C24.309 32.631 24.625 33.553 24.625 34.513ZM25.159 30.46L26.828 28.791L27.73 29.682L25.892 31.564C25.688 31.173 25.443 30.803 25.159 30.46ZM10.347 42.451L6.29401 38.813L24.066 21.375L27.732 24.843L10.347 42.451ZM16.198 39.422C16.552 39.715 16.934 39.966 17.34 40.175C17.023 40.501 16.696 40.84 16.367 41.18C15.969 41.591 15.581 41.99 15.206 42.375L14.219 41.402L16.198 39.422ZM23.577 53.439L25.679 55.512L24.646 56.567L22.556 54.477L23.577 53.439ZM28.156 60.046L26.067 57.981L27.11 56.924L29.208 58.993L28.156 60.046ZM30.632 60.398L32.738 62.475L31.665 63.548L29.573 61.456L30.632 60.398ZM35.172 67.054L33.08 64.962L34.163 63.879L36.269 65.957L35.172 67.054ZM54.116 59.894L53.704 59.482L49.667 55.445L49.666 55.444L48.439 54.217C48.048 53.826 47.416 53.826 47.025 54.217C46.634 54.608 46.634 55.24 47.025 55.631L51.584 60.189L49.492 62.281L43.814 56.603C43.423 56.212 42.791 56.212 42.4 56.603C42.009 56.994 42.009 57.626 42.4 58.017L43.629 59.246L46.958 62.576L44.866 64.668L41.583 61.386L40.416 60.219L40.415 60.218L39.188 58.991C38.797 58.6 38.165 58.6 37.774 58.991C37.383 59.382 37.383 60.014 37.774 60.405L40.069 62.7L42.332 64.963L40.235 67.06L16.63 43.779C17.009 43.39 17.402 42.985 17.803 42.57C18.392 41.962 18.972 41.363 19.488 40.839C19.74 40.869 19.993 40.888 20.25 40.888C23.766 40.888 26.625 38.028 26.625 34.513C26.625 34.25 26.605 33.99 26.573 33.732L29.154 31.088L31.861 33.761L22.421 43.122C22.218 43.323 22.111 43.601 22.127 43.887C22.143 44.173 22.279 44.437 22.503 44.615C22.736 44.802 28.212 48.949 37.72 39.313L56.208 57.802L54.116 59.894ZM51.708 50.475L38.413 37.179C38.222 36.988 37.985 36.882 37.69 36.886C37.419 36.89 37.163 37.004 36.977 37.201C30.843 43.728 26.734 43.926 24.881 43.498L37.115 31.366L41.912 31.877L41.192 32.631C40.81 33.03 40.825 33.663 41.223 34.045C41.622 34.426 42.254 34.413 42.637 34.013L48.385 28L61 40.615L51.708 50.475ZM53.457 21.766C53.457 23.489 54.859 24.891 56.582 24.891C58.305 24.891 59.707 23.489 59.707 21.766C59.707 20.043 58.305 18.641 56.582 18.641C54.859 18.641 53.457 20.043 53.457 21.766ZM57.707 21.766C57.707 22.386 57.202 22.891 56.582 22.891C55.962 22.891 55.457 22.386 55.457 21.766C55.457 21.146 55.962 20.641 56.582 20.641C57.202 20.641 57.707 21.146 57.707 21.766Z" fill="#231F20"/>
</g>
<defs>
<clipPath id="clip0">
<rect width="75.457" height="75.457" fill="white"/>
</clipPath>
</defs>
</svg>
