<svg width="415" height="638" viewBox="0 0 415 638" fill="none" xmlns="http://www.w3.org/2000/svg">
<path d="M382.5 385C365.5 378.833 319.7 370.2 272.5 385C225.3 399.8 229.5 488.833 237.5 531.5C280.5 511 371.3 484.6 390.5 543C409.7 601.4 423.833 630 428.5 637" stroke="#EF1C3C"/>
<path d="M392 358.1C392 371.5 378.3 375.1 364.9 375.1C351.5 375.1 337.8 371.4 337.8 358.1" fill="white"/>
<path d="M364.9 375.4C361.3 375.4 357.9 375.1 355 374.6C351.6 374 348.7 373.1 346.2 371.8C340.4 368.9 337.5 364.2 337.5 358H338.1C338.1 364 340.9 368.5 346.5 371.3C351 373.6 357.4 374.8 365 374.8C372.6 374.8 379 373.6 383.5 371.3C389.1 368.5 391.9 364 391.9 358H392.5C392.5 364.2 389.6 368.8 383.8 371.8C381.4 373 378.4 374 375 374.6C371.8 375.2 368.5 375.4 364.9 375.4Z" fill="#231F20"/>
<path d="M364.9 370.9C379.867 370.9 392 365.393 392 358.6C392 351.807 379.867 346.3 364.9 346.3C349.933 346.3 337.8 351.807 337.8 358.6C337.8 365.393 349.933 370.9 364.9 370.9Z" fill="white"/>
<path d="M364.9 371.2C357.6 371.2 350.8 369.9 345.6 367.6C340.4 365.2 337.5 362 337.5 358.6C337.5 355.2 340.4 352 345.6 349.6C350.8 347.3 357.6 346 364.9 346C372.2 346 379 347.3 384.2 349.6C389.4 352 392.3 355.2 392.3 358.6C392.3 362 389.4 365.2 384.2 367.6C379 369.9 372.1 371.2 364.9 371.2ZM364.9 346.6C357.7 346.6 350.9 347.9 345.8 350.2C343.3 351.3 341.4 352.6 340.1 354C338.7 355.5 338 357 338 358.6C338 360.2 338.7 361.7 340.1 363.2C341.4 364.6 343.4 365.9 345.8 367C350.9 369.3 357.7 370.6 364.9 370.6C372.1 370.6 378.9 369.3 384 367C386.5 365.9 388.4 364.6 389.7 363.2C391.1 361.7 391.8 360.2 391.8 358.6C391.8 357 391.1 355.5 389.7 354C388.4 352.6 386.4 351.3 384 350.2C378.8 347.9 372.1 346.6 364.9 346.6Z" fill="#231F20"/>
<path d="M340.1 308.4V358.4C340.1 364.2 351.2 368.9 364.9 368.9C378.6 368.9 389.7 364.2 389.7 358.4V308.4H340.1Z" fill="#EF1C3C"/>
<path d="M364.9 302.2C361.9 302.2 359.5 301 359.5 299.6C359.5 298.1 361.9 297 364.9 297C367.9 297 370.3 298.2 370.3 299.6C370.3 301 367.9 302.2 364.9 302.2ZM364.9 297C361.9 297 359.5 298.1 359.5 299.6C359.5 301 361.9 302.2 364.9 302.2C367.9 302.2 370.3 301.1 370.3 299.6C370.2 298.1 367.8 297 364.9 297Z" fill="#231F20"/>
<path d="M337.9 299.6C333.8 311.6 349.4 315.5 364.9 315.5C380.4 315.5 395.9 311.6 391.9 299.6" fill="white"/>
<path d="M364.9 315.8C358.9 315.8 353.5 315.2 349.1 314.1C344 312.8 340.4 310.8 338.5 308.2C336.8 305.8 336.5 302.9 337.6 299.5L338.1 299.7C337 302.9 337.3 305.6 338.9 307.9C342.3 312.6 351.7 315.3 364.8 315.3C377.9 315.3 387.3 312.6 390.7 307.9C392.3 305.6 392.6 302.9 391.5 299.7L392 299.5C393.1 302.8 392.8 305.8 391.1 308.2C389.2 310.8 385.7 312.8 380.5 314.1C376.3 315.2 370.8 315.8 364.9 315.8Z" fill="#231F20"/>
<path d="M364.9 310.7C379.812 310.7 391.9 305.909 391.9 300C391.9 294.09 379.812 289.3 364.9 289.3C349.988 289.3 337.9 294.09 337.9 300C337.9 305.909 349.988 310.7 364.9 310.7Z" fill="white"/>
<path d="M364.9 311C357.7 311 350.8 309.9 345.7 307.8C340.5 305.7 337.6 302.9 337.6 300C337.6 297 340.5 294.2 345.7 292.2C350.8 290.2 357.6 289 364.9 289C372.1 289 379 290.1 384.1 292.2C389.3 294.3 392.2 297.1 392.2 300C392.2 303 389.3 305.8 384.1 307.8C378.9 309.9 372.1 311 364.9 311ZM364.9 289.6C357.7 289.6 351 290.7 345.9 292.7C343.5 293.7 341.5 294.8 340.2 296.1C338.9 297.4 338.2 298.7 338.2 300.1C338.2 301.5 338.9 302.8 340.2 304.1C341.5 305.4 343.5 306.5 345.9 307.5C351 309.5 357.7 310.6 364.9 310.6C372.1 310.6 378.8 309.5 383.9 307.5C386.3 306.5 388.3 305.4 389.6 304.1C390.9 302.8 391.6 301.5 391.6 300.1C391.6 298.7 390.9 297.4 389.6 296.1C388.3 294.8 386.3 293.7 383.9 292.7C378.8 290.7 372 289.6 364.9 289.6Z" fill="#231F20"/>
<path d="M359.4 299.6C359.4 298.2 361.8 297 364.8 297L359.4 299.6Z" fill="#231F20"/>
<path d="M364.9 309.5C358.5 309.5 352.4 308.6 347.8 306.8C343.1 305 340.4 302.6 340.4 300C340.4 297.4 343 294.9 347.8 293.2C352.4 291.5 358.4 290.5 364.9 290.5C371.3 290.5 377.4 291.4 382 293.2C386.7 295 389.4 297.4 389.4 300C389.4 302.6 386.8 305.1 382 306.8C377.4 308.6 371.3 309.5 364.9 309.5ZM364.9 291.7C358.6 291.7 352.7 292.6 348.2 294.3C344 295.9 341.6 298 341.6 300.1C341.6 302.2 344 304.3 348.2 305.9C352.7 307.6 358.6 308.5 364.9 308.5C371.2 308.5 377.1 307.6 381.6 305.9C385.8 304.3 388.2 302.2 388.2 300.1C388.2 298 385.8 295.9 381.6 294.3C377.1 292.6 371.2 291.7 364.9 291.7Z" fill="#231F20"/>
<path d="M381.7 296.9C381.8 297 381.9 297 382 297.1C382.2 297.2 382.5 297.4 382.8 297.7C383.1 298 383.5 298.4 383.8 299C383.9 299.3 384 299.6 384.1 300C384.1 300.4 384 300.8 383.9 301.1C383.7 301.5 383.5 301.8 383.2 302.1C382.9 302.4 382.5 302.7 382.2 302.9C381.4 303.4 380.6 303.8 379.7 304.1C378.8 304.4 377.8 304.7 376.9 304.9C375.9 305.1 374.9 305.3 373.9 305.5C372.9 305.7 371.9 305.8 370.9 305.9C369.9 306 368.9 306 368 306.1C367.5 306.1 367.1 306.1 366.6 306.1C366.1 306.1 365.7 306.1 365.3 306.1C365.2 306.1 365.2 306.1 365.1 306.1C365 306.1 365 306.1 364.9 306.1C364.8 306.1 364.7 306.1 364.6 306.1C364.4 306.1 364.2 306.1 364 306.1C363.6 306.1 363.2 306.1 362.8 306C362.6 306 362.4 306 362.2 306C362 306 361.8 306 361.7 305.9C361.5 305.9 361.4 305.9 361.2 305.8C361 305.8 360.9 305.8 360.7 305.7C360.4 305.7 360.1 305.6 359.8 305.6C359.7 305.6 359.5 305.6 359.4 305.5C359.3 305.5 359.2 305.5 359.1 305.4C358.9 305.4 358.7 305.3 358.5 305.3C358.3 305.3 358.2 305.2 358.1 305.2C357.9 305.1 357.7 305.1 357.7 305.1C357.7 305.1 357.8 305.1 358.1 305.1C358.2 305.1 358.4 305.1 358.5 305.1C358.7 305.1 358.9 305.1 359.1 305.2C359.2 305.2 359.3 305.2 359.4 305.2C359.5 305.2 359.6 305.2 359.8 305.2C359.9 305.2 360.1 305.2 360.2 305.2C360.3 305.2 360.5 305.2 360.6 305.2C360.8 305.2 360.9 305.2 361.1 305.2C361.3 305.2 361.4 305.2 361.6 305.2C361.8 305.2 361.9 305.2 362.1 305.2C362.3 305.2 362.5 305.2 362.7 305.2C363.1 305.2 363.5 305.2 363.9 305.2C364.1 305.2 364.3 305.2 364.5 305.2C364.6 305.2 364.7 305.2 364.8 305.2C364.9 305.2 364.9 305.2 365 305.2C365.1 305.2 365.1 305.2 365.2 305.2C365.6 305.2 366.1 305.2 366.5 305.2C367 305.2 367.4 305.2 367.9 305.1C368.8 305 369.8 305 370.8 304.9C371.8 304.8 372.8 304.7 373.8 304.5C374.8 304.3 375.8 304.2 376.7 303.9C377.7 303.7 378.6 303.4 379.5 303.1C380.4 302.8 381.2 302.5 381.9 302C382.3 301.8 382.6 301.6 382.9 301.3C383.2 301 383.4 300.8 383.6 300.5C383.8 300.2 383.9 299.9 383.9 299.5C383.9 299.2 383.8 298.9 383.7 298.6C383.6 298.3 383.5 298.1 383.3 297.9C383.2 297.7 383 297.5 382.8 297.3C382.5 297 382.2 296.8 382.1 296.6C381.8 296.9 381.7 296.9 381.7 296.9Z" fill="#231F20"/>
<path d="M364.9 302.2C367.882 302.2 370.3 301.036 370.3 299.6C370.3 298.164 367.882 297 364.9 297C361.918 297 359.5 298.164 359.5 299.6C359.5 301.036 361.918 302.2 364.9 302.2Z" fill="#231F20"/>
<path d="M360.3 302C360.3 302 360.3 302 360.2 302C360.2 302 360.1 302 360.1 301.9C360 301.9 360 301.8 359.9 301.8C359.8 301.8 359.7 301.7 359.7 301.7C359.6 301.7 359.5 301.6 359.4 301.5C359.2 301.4 359 301.2 358.8 301C358.6 300.8 358.4 300.6 358.2 300.3V300.2V300.1V300V299.9V299.8C358.2 299.8 358.2 299.8 358.2 299.7V299.6V299.5V299.4V299.3V299.2C358.2 299 358.3 298.8 358.3 298.6C358.4 298.4 358.5 298.3 358.6 298.1C358.8 297.8 359.1 297.5 359.4 297.3C359.7 297.1 360 296.9 360.4 296.7C360.7 296.5 361.1 296.4 361.4 296.3C361.7 296.2 362.1 296.1 362.4 296.1C362.7 296 363 296 363.3 296C363.6 296 363.8 296 364 296C364.2 296 364.4 296 364.6 296C364.8 296 364.9 296 365 296C365.1 296 365.1 296 365.1 296C365.1 296 365.1 296 365 296C364.9 296 364.8 296 364.6 296C364.4 296 364.3 296 364 296.1C363.8 296.1 363.5 296.2 363.3 296.2C363.2 296.2 363 296.3 362.9 296.3C362.8 296.3 362.6 296.4 362.5 296.4C362.2 296.5 361.9 296.6 361.6 296.7C361.3 296.8 361 296.9 360.7 297.1C360.4 297.3 360.1 297.4 359.8 297.6C359.5 297.8 359.3 298 359.1 298.3C359 298.4 358.9 298.6 358.9 298.7C358.8 298.8 358.8 299 358.8 299.1V299.2V299.3V299.4V299.5C358.8 299.5 358.8 299.5 358.8 299.6V299.7V299.8V299.9V300C358.9 300.3 359.1 300.5 359.3 300.7C359.5 300.9 359.7 301.1 359.8 301.2C359.9 301.3 360 301.3 360 301.4C360.1 301.5 360.1 301.5 360.2 301.5C360.3 301.5 360.3 301.6 360.4 301.6C360.5 301.6 360.5 301.7 360.5 301.7C360.3 302 360.3 302 360.3 302Z" fill="#231F20"/>
<path d="M364.9 297.2C364.9 297.2 364.4 297.2 363.7 297.3C363.3 297.3 362.9 297.4 362.4 297.5C361.9 297.6 361.4 297.8 360.9 298.1C360.7 298.2 360.4 298.4 360.2 298.6C360 298.8 359.9 299 359.8 299.2C359.7 299.4 359.7 299.7 359.8 299.9C359.9 300.1 360 300.3 360.1 300.4C360.2 300.5 360.3 300.6 360.5 300.7C360.6 300.7 360.6 300.8 360.7 300.8C360.8 300.8 360.8 300.9 360.8 300.9C361 301 361.1 301.1 361.1 301.1C361.1 301.1 361 301.1 360.8 301C360.8 301 360.7 300.9 360.6 300.9C360.5 300.9 360.5 300.8 360.4 300.8C360.3 300.7 360.1 300.6 360 300.5C359.9 300.4 359.7 300.2 359.7 300C359.6 299.8 359.6 299.5 359.7 299.3C359.8 299 359.9 298.8 360.1 298.6C360.3 298.4 360.5 298.2 360.8 298.1C361.1 298 361.3 297.8 361.6 297.8C361.9 297.7 362.1 297.6 362.4 297.6C362.9 297.5 363.3 297.4 363.7 297.4C364.1 297.4 364.4 297.4 364.6 297.4C364.7 297.2 364.9 297.2 364.9 297.2Z" fill="white"/>
<path d="M340.1 310.2C340.1 310.2 340.2 310.2 340.2 310.3C340.3 310.4 340.4 310.5 340.5 310.7C340.7 311 341.1 311.5 341.7 311.9C342.2 312.4 342.9 312.9 343.7 313.3C344.5 313.8 345.5 314.2 346.5 314.6C347 314.8 347.5 315 348 315.1C348.2 315.2 348.5 315.2 348.7 315.3C348.9 315.4 349.2 315.4 349.4 315.5C350.3 315.7 351.2 315.9 351.9 316C353.3 316.3 354.2 316.4 354.2 316.5C354.2 316.6 353.3 316.5 351.8 316.3C351.1 316.2 350.2 316.1 349.3 315.8C349.1 315.8 348.8 315.7 348.6 315.6C348.4 315.5 348.1 315.5 347.9 315.4C347.4 315.3 346.9 315.1 346.3 314.9C345.2 314.5 344.3 314.1 343.4 313.6C342.6 313.1 341.9 312.6 341.3 312C340.8 311.5 340.4 311 340.2 310.6C340.1 310.4 340 310.3 340 310.2C340.1 310.3 340.1 310.2 340.1 310.2Z" fill="white"/>
<path d="M340.1 313.2C340.1 313.2 340.2 313.2 340.2 313.3C340.2 313.3 340.2 313.3 340.2 313.4C340.2 313.4 340.2 313.4 340.3 313.5C340.3 313.5 340.3 313.6 340.4 313.6L340.5 313.7C340.5 313.7 340.5 313.7 340.5 313.8L340.6 313.9C340.7 314.1 340.9 314.3 341.1 314.5C341.3 314.7 341.5 314.9 341.8 315.1C342.4 315.6 343.2 316.1 344.1 316.6C345 317.1 346.1 317.5 347.3 317.9C347.9 318.1 348.5 318.2 349 318.4C349.3 318.5 349.6 318.5 349.8 318.6C350 318.7 350.3 318.7 350.5 318.8H350.6C351.5 319 352.4 319.1 353.2 319.2C353.3 319.2 353.4 319.2 353.4 319.2C354 319.3 354.6 319.3 355 319.4C355.2 319.4 355.4 319.4 355.5 319.5C355.6 319.5 355.6 319.5 355.7 319.5C355.8 319.5 355.8 319.5 355.8 319.5C355.9 319.5 355.9 319.6 355.9 319.6C355.9 319.6 355.8 319.6 355.6 319.6C355.2 319.6 354.5 319.6 353.6 319.5C353.5 319.5 353.4 319.5 353.3 319.5C352.5 319.4 351.7 319.3 350.7 319.1C350.6 319.1 350.6 319.1 350.5 319.1C350.2 319.1 350 319 349.7 318.9C349.5 318.8 349.2 318.8 349 318.7H348.9C348.3 318.6 347.8 318.4 347.2 318.2C346.5 318 345.8 317.7 345.2 317.5C344.6 317.3 344.1 317 343.6 316.7C342.9 316.3 342.4 315.9 341.9 315.4C341.8 315.3 341.6 315.2 341.5 315C341.2 314.7 341 314.4 340.8 314.2C340.7 314.1 340.7 314 340.6 313.9L340.5 313.8C340.5 313.8 340.5 313.7 340.4 313.7C340.4 313.7 340.4 313.6 340.3 313.6C340.3 313.6 340.3 313.5 340.2 313.5C340.2 313.4 340.1 313.4 340.1 313.3C340.1 313.2 340.1 313.2 340 313.2C340.1 313.3 340.1 313.3 340.1 313.2Z" fill="white"/>
<path d="M340.1 316.1C340.1 316.1 340.2 316.1 340.2 316.2C340.2 316.2 340.2 316.2 340.2 316.3C340.2 316.3 340.2 316.4 340.3 316.4C340.3 316.4 340.3 316.5 340.4 316.5L340.5 316.6C340.5 316.6 340.5 316.6 340.5 316.7L340.6 316.8C340.7 317 340.9 317.2 341.1 317.5C341.3 317.7 341.6 318 341.9 318.2C342.6 318.8 343.4 319.3 344.5 319.8C345.5 320.3 346.7 320.8 348 321.1C348.6 321.3 349.3 321.4 349.9 321.6C350.2 321.7 350.5 321.7 350.8 321.8C351.1 321.8 351.3 321.9 351.6 321.9H351.7C352.8 322.1 353.7 322.2 354.5 322.3C354.6 322.3 354.7 322.3 354.8 322.3C355.5 322.4 356.1 322.4 356.5 322.4C356.7 322.4 356.9 322.4 357 322.4C357.1 322.4 357.1 322.4 357.2 322.4C357.3 322.4 357.3 322.4 357.3 322.5C357.4 322.5 357.4 322.6 357.4 322.6C357.4 322.6 357.3 322.6 357.1 322.7C356.7 322.7 355.9 322.8 354.9 322.7C354.8 322.7 354.7 322.7 354.6 322.7C353.8 322.7 352.8 322.6 351.7 322.4C351.6 322.4 351.6 322.4 351.5 322.4C351.2 322.4 350.9 322.3 350.6 322.3C350.3 322.2 350.1 322.2 349.8 322.1H349.7C349.1 322 348.4 321.8 347.8 321.6C346.9 321.4 346.1 321.1 345.3 320.8C344.6 320.5 343.9 320.2 343.4 319.8C342.7 319.4 342.1 318.9 341.7 318.5C341.6 318.4 341.4 318.2 341.3 318.1C341 317.8 340.8 317.5 340.6 317.2C340.5 317.1 340.5 317 340.4 316.9C340.4 316.9 340.4 316.8 340.3 316.8C340.3 316.8 340.3 316.7 340.2 316.7C340.2 316.7 340.2 316.6 340.1 316.6C340.1 316.6 340.1 316.5 340 316.5C340 316.4 339.9 316.4 339.9 316.3C339.9 316.2 339.9 316.2 339.8 316.2C340.1 316.3 340.1 316.2 340.1 316.1C340.1 316.2 340.1 316.1 340.1 316.1Z" fill="white"/>
<path d="M340.1 319.1C340.1 319.1 340.2 319.1 340.2 319.2C340.2 319.2 340.2 319.2 340.2 319.3C340.2 319.3 340.2 319.3 340.2 319.4C340.2 319.4 340.2 319.5 340.3 319.5C340.3 319.5 340.3 319.6 340.4 319.6L340.5 319.7C340.5 319.7 340.5 319.7 340.5 319.8C340.5 319.8 340.6 319.9 340.6 320C340.7 320.2 340.9 320.5 341.2 320.7C341.4 321 341.7 321.2 342 321.5C342.7 322.1 343.7 322.7 344.9 323.2C346 323.7 347.4 324.2 348.8 324.5C349.5 324.7 350.2 324.8 350.9 325C351.2 325.1 351.6 325.1 351.9 325.2C352.2 325.2 352.5 325.3 352.8 325.3H352.9C354.1 325.5 355.1 325.5 356 325.6C356.1 325.6 356.2 325.6 356.3 325.6C357.1 325.6 357.7 325.6 358.2 325.7C358.4 325.7 358.6 325.7 358.8 325.7C358.9 325.7 359 325.7 359 325.7C359 325.7 359.1 325.7 359 325.8C359.1 325.8 359.1 325.9 359 325.9C359 325.9 358.8 326 358.6 326C358.1 326.1 357.3 326.1 356.3 326.1C356.2 326.1 356.1 326.1 355.9 326.1C355 326.1 353.9 326 352.8 325.9C352.7 325.9 352.7 325.9 352.6 325.9C352.3 325.9 352 325.8 351.6 325.8C351.3 325.8 351 325.7 350.7 325.7H350.6C349.9 325.6 349.2 325.4 348.5 325.2C347.5 325 346.5 324.7 345.6 324.3C344.8 324 344 323.6 343.4 323.2C342.7 322.8 342.1 322.3 341.7 321.9C341.6 321.8 341.4 321.6 341.3 321.5C341 321.2 340.8 320.9 340.6 320.6C340.5 320.5 340.5 320.4 340.4 320.3C340.4 320.3 340.4 320.2 340.3 320.2C340.3 320.2 340.3 320.1 340.2 320.1C340.2 320.1 340.2 320 340.1 320C340.1 320 340.1 319.9 340 319.9C340 319.8 339.9 319.8 339.9 319.7C339.9 319.6 339.9 319.6 339.8 319.6C340.1 319.2 340.1 319.2 340.1 319.1Z" fill="white"/>
<path d="M340.1 322C340.1 322 340.1 322 340.2 322.1C340.2 322.1 340.2 322.1 340.2 322.2V322.3V322.4C340.2 322.4 340.2 322.5 340.3 322.5L340.4 322.6V322.7C340.4 322.8 340.5 322.8 340.5 322.9C340.6 323.1 340.9 323.4 341.1 323.7C341.4 324 341.7 324.3 342 324.6C342.8 325.2 343.9 325.9 345.1 326.4C346.4 326.9 347.8 327.4 349.3 327.8C350.1 328 350.8 328.1 351.6 328.3C352 328.4 352.3 328.4 352.7 328.5C353 328.5 353.3 328.6 353.7 328.6H353.8C355.1 328.7 356.2 328.8 357.2 328.8C357.3 328.8 357.4 328.8 357.5 328.8C358.3 328.8 359 328.8 359.6 328.8C359.9 328.8 360.1 328.8 360.2 328.8C360.3 328.8 360.4 328.8 360.4 328.8C360.4 328.8 360.4 328.8 360.4 328.9V329C360.3 329 360.2 329.1 360 329.1C359.5 329.2 358.6 329.3 357.5 329.3C357.4 329.3 357.2 329.3 357.1 329.3C356.1 329.3 355 329.3 353.7 329.2C353.6 329.2 353.6 329.2 353.5 329.2C353.2 329.2 352.8 329.1 352.5 329.1C352.2 329.1 351.9 329 351.5 329H351.4C350.7 328.9 349.9 328.7 349.2 328.5C348 328.3 346.9 327.9 345.9 327.6C344.9 327.2 344.1 326.8 343.3 326.3C342.6 325.9 342 325.4 341.5 324.9C341.4 324.8 341.2 324.6 341.1 324.5C340.8 324.2 340.6 323.9 340.4 323.6C340.3 323.5 340.3 323.4 340.2 323.3C340.2 323.3 340.2 323.2 340.1 323.2C340.1 323.2 340.1 323.1 340 323.1C340 323.1 340 323 339.9 323V322.9C339.9 322.8 339.8 322.8 339.8 322.7C339.8 322.6 339.8 322.6 339.8 322.5C340.1 322.2 340.1 322.1 340.1 322C340.1 322.1 340.1 322 340.1 322Z" fill="white"/>
<path d="M340.1 325C340.1 325 340.1 325 340.2 325.1C340.2 325.1 340.2 325.1 340.2 325.2V325.3V325.4C340.2 325.4 340.2 325.5 340.3 325.5L340.4 325.6V325.7C340.4 325.8 340.5 325.8 340.5 325.9C340.7 326.2 340.9 326.5 341.2 326.8C341.5 327.1 341.8 327.4 342.2 327.7C343.1 328.4 344.2 329 345.6 329.6C347 330.2 348.5 330.6 350.2 331C351 331.2 351.9 331.3 352.6 331.4C353 331.5 353.4 331.5 353.8 331.6C354.2 331.6 354.5 331.7 354.8 331.7H354.9C356.3 331.8 357.5 331.8 358.6 331.8C358.7 331.8 358.8 331.8 358.9 331.8C359.8 331.8 360.6 331.7 361.1 331.7C361.4 331.7 361.6 331.7 361.8 331.7C361.9 331.7 362 331.7 362 331.7C362 331.7 362 331.7 362 331.8V331.9C361.9 331.9 361.8 332 361.6 332C361 332.1 360.1 332.2 358.9 332.3C358.8 332.3 358.6 332.3 358.5 332.3C357.5 332.3 356.2 332.3 354.9 332.2C354.8 332.2 354.8 332.2 354.7 332.2C354.3 332.2 354 332.1 353.6 332.1C353.3 332.1 352.9 332 352.6 332H352.5C351.7 331.9 350.9 331.7 350.1 331.6C348.7 331.4 347.5 331 346.3 330.6C345.2 330.2 344.2 329.7 343.4 329.2C342.7 328.7 342.1 328.3 341.6 327.8C341.5 327.7 341.3 327.5 341.2 327.4C340.9 327.1 340.7 326.7 340.5 326.5C340.4 326.4 340.4 326.3 340.3 326.2C340.3 326.2 340.3 326.1 340.2 326.1C340.2 326.1 340.2 326 340.1 326V325.9V325.8C340.1 325.7 340.1 325.7 340 325.6C340 325.5 340 325.5 340 325.4C340.1 325.1 340.1 325.1 340.1 325Z" fill="white"/>
<path d="M340.1 327.9C340.1 327.9 340.1 327.9 340.2 328C340.2 328 340.2 328 340.2 328.1V328.2V328.3C340.2 328.3 340.2 328.4 340.3 328.5L340.4 328.6V328.7C340.4 328.8 340.5 328.8 340.5 328.9C340.7 329.2 340.9 329.5 341.2 329.9C341.5 330.2 341.9 330.6 342.3 330.9C343.2 331.6 344.5 332.3 346 332.9C347.5 333.5 349.1 334 350.9 334.3C351.8 334.5 352.7 334.6 353.5 334.7C353.9 334.8 354.4 334.8 354.8 334.8C355.2 334.8 355.6 334.9 355.9 334.9H356C357.5 335 358.8 335 360 335C360.1 335 360.2 335 360.4 335C361.4 335 362.2 334.9 362.8 334.8C363.1 334.8 363.4 334.7 363.5 334.7C363.6 334.7 363.7 334.7 363.8 334.7C363.8 334.7 363.8 334.7 363.7 334.8C363.7 334.8 363.7 334.9 363.6 334.9C363.5 334.9 363.4 335 363.2 335C362.6 335.1 361.6 335.3 360.3 335.3C360.2 335.3 360 335.3 359.9 335.3C358.8 335.4 357.5 335.4 356 335.3C355.9 335.3 355.8 335.3 355.8 335.3C355.4 335.3 355 335.2 354.6 335.2C354.2 335.2 353.9 335.1 353.5 335.1H353.4C352.6 335 351.7 334.9 350.8 334.7C349.3 334.4 347.9 334.1 346.6 333.6C345.4 333.2 344.3 332.6 343.4 332C342.7 331.5 342.1 331 341.6 330.5C341.5 330.4 341.3 330.2 341.2 330.1C340.9 329.8 340.7 329.4 340.5 329.1C340.4 329 340.4 328.9 340.3 328.8C340.3 328.8 340.3 328.7 340.2 328.7C340.2 328.7 340.2 328.6 340.1 328.6V328.5V328.4C340.1 328.3 340.1 328.3 340 328.2C340 328.1 340 328.1 340 328C340.1 328.1 340.1 328 340.1 327.9Z" fill="white"/>
<path d="M340.1 330.9C340.1 330.9 340.1 330.9 340.2 331V331.1V331.2V331.3C340.2 331.4 340.2 331.4 340.3 331.5C340.3 331.5 340.3 331.6 340.4 331.6V331.7C340.4 331.8 340.5 331.8 340.5 331.9C340.7 332.2 340.9 332.6 341.2 332.9C341.5 333.3 341.9 333.6 342.4 334C343.4 334.8 344.8 335.5 346.3 336.1C347.9 336.7 349.7 337.2 351.6 337.6C352.6 337.8 353.5 337.9 354.4 338C354.9 338.1 355.3 338.1 355.8 338.1C356.2 338.1 356.6 338.2 357 338.2H357.1C358.7 338.3 360.1 338.3 361.4 338.2C361.5 338.2 361.7 338.2 361.8 338.2C362.9 338.1 363.7 338 364.4 338C364.7 338 365 337.9 365.2 337.9C365.4 337.9 365.5 337.9 365.5 337.9C365.5 337.9 365.5 338 365.4 338C365.4 338 365.4 338.1 365.3 338.1C365.2 338.1 365.1 338.2 364.8 338.2C364.1 338.4 363.1 338.5 361.7 338.6C361.5 338.6 361.4 338.6 361.2 338.6C360 338.7 358.6 338.7 357.1 338.7C357 338.7 356.9 338.7 356.8 338.7C356.4 338.7 356 338.7 355.5 338.6C355.1 338.6 354.7 338.5 354.3 338.5H354.2C353.3 338.4 352.4 338.3 351.4 338.1C349.7 337.8 348.2 337.4 346.7 336.9C345.3 336.4 344.1 335.8 343.2 335.1C342.5 334.6 341.9 334.1 341.4 333.6C341.3 333.5 341.1 333.3 341 333.2C340.7 332.8 340.5 332.5 340.3 332.2C340.2 332.1 340.2 332 340.1 331.9C340.1 331.9 340.1 331.8 340 331.8C340 331.8 340 331.7 339.9 331.7V331.6V331.5C339.9 331.4 339.9 331.4 339.8 331.3C339.8 331.2 339.8 331.2 339.8 331.1C340.1 331 340.1 331 340.1 330.9Z" fill="white"/>
<path d="M340.1 333.8C340.1 333.8 340.1 333.8 340.2 333.9V334V334.1C340.2 334.1 340.2 334.2 340.2 334.3C340.2 334.4 340.2 334.4 340.3 334.5C340.3 334.5 340.3 334.6 340.4 334.6V334.7C340.4 334.8 340.5 334.9 340.5 334.9C340.7 335.2 340.9 335.6 341.3 336C341.6 336.4 342.1 336.8 342.6 337.2C343.7 338 345.1 338.8 346.8 339.4C348.5 340 350.4 340.5 352.4 340.9C353.4 341.1 354.4 341.2 355.4 341.3C355.9 341.4 356.4 341.4 356.9 341.4C357.3 341.4 357.8 341.5 358.2 341.5H358.3C360 341.6 361.6 341.5 362.9 341.4C363 341.4 363.2 341.4 363.3 341.4C364.4 341.3 365.4 341.2 366 341.1C366.4 341 366.6 341 366.8 341C367 341 367.1 341 367.1 341C367.1 341 367.1 341.1 367 341.1C367 341.1 366.9 341.2 366.8 341.2C366.7 341.2 366.5 341.3 366.3 341.3C365.6 341.5 364.5 341.7 363.1 341.8C362.9 341.8 362.8 341.8 362.6 341.8C361.3 341.9 359.9 342 358.2 341.9C358.1 341.9 358 341.9 357.9 341.9C357.5 341.9 357 341.9 356.6 341.8C356.2 341.8 355.8 341.7 355.3 341.7H355.2C354.2 341.6 353.3 341.5 352.3 341.3C350.5 341 348.7 340.6 347.2 340.1C345.7 339.6 344.4 338.9 343.4 338.2C342.7 337.7 342 337.2 341.6 336.6C341.5 336.4 341.3 336.3 341.2 336.1C340.9 335.7 340.7 335.4 340.5 335.1C340.4 335 340.4 334.9 340.3 334.8C340.3 334.7 340.3 334.7 340.2 334.7C340.2 334.7 340.2 334.6 340.1 334.6V334.5V334.4C340.1 334.3 340.1 334.3 340 334.2C340 334.1 340 334.1 340 334C340.1 334 340.1 333.9 340.1 333.8Z" fill="white"/>
<path d="M340.1 336.7C340.1 336.7 340.1 336.7 340.2 336.8V336.9V337C340.2 337.1 340.2 337.1 340.2 337.2C340.2 337.3 340.2 337.3 340.3 337.4C340.3 337.4 340.3 337.5 340.4 337.5V337.6C340.4 337.7 340.5 337.8 340.5 337.9C340.7 338.3 340.9 338.7 341.3 339.1C341.7 339.5 342.1 339.9 342.7 340.3C343.9 341.2 345.4 341.9 347.2 342.6C349 343.3 351 343.8 353.2 344.1C354.3 344.3 355.4 344.4 356.4 344.5C356.9 344.5 357.5 344.6 358 344.6C358.5 344.6 358.9 344.6 359.4 344.7C359.5 344.7 359.5 344.7 359.6 344.7C361.4 344.7 363.1 344.7 364.4 344.6C364.5 344.6 364.7 344.6 364.8 344.6C366 344.5 367 344.3 367.7 344.2C368.1 344.1 368.4 344.1 368.6 344C368.8 344 368.9 344 368.9 344C368.9 344 368.9 344.1 368.7 344.1C368.7 344.1 368.6 344.2 368.5 344.2C368.4 344.2 368.2 344.3 368 344.4C367.2 344.6 366.1 344.8 364.6 345C364.4 345 364.3 345 364.1 345.1C362.8 345.2 361.2 345.3 359.5 345.3C359.4 345.3 359.3 345.3 359.2 345.3C358.7 345.3 358.3 345.3 357.8 345.2C357.4 345.2 356.9 345.1 356.5 345.1H356.4C355.4 345 354.3 344.9 353.3 344.7C351.3 344.4 349.4 344 347.8 343.4C346.2 342.8 344.7 342.1 343.6 341.3C342.9 340.8 342.2 340.2 341.7 339.7C341.6 339.5 341.4 339.4 341.3 339.2C341 338.8 340.8 338.5 340.6 338.1C340.5 338 340.5 337.9 340.5 337.8C340.5 337.7 340.5 337.7 340.4 337.6V337.5V337.4V337.3C340.4 337.2 340.4 337.1 340.4 337.1C340.4 337 340.4 337 340.4 336.9V336.8C340.1 336.8 340.1 336.7 340.1 336.7Z" fill="white"/>
<path d="M340.1 339.7C340.1 339.7 340.1 339.7 340.2 339.8V339.9V340C340.2 340.1 340.2 340.1 340.2 340.2C340.2 340.3 340.2 340.3 340.3 340.4C340.3 340.4 340.3 340.5 340.4 340.5V340.6C340.4 340.7 340.5 340.8 340.5 340.9C340.7 341.3 341 341.7 341.3 342.2C341.7 342.6 342.2 343.1 342.8 343.5C344 344.4 345.6 345.2 347.5 345.9C349.4 346.6 351.5 347.1 353.8 347.5C354.9 347.7 356.1 347.8 357.2 347.9C357.8 347.9 358.3 348 358.9 348C359.4 348 359.9 348 360.3 348C360.4 348 360.4 348 360.5 348C362.4 348 364.2 347.9 365.6 347.8C365.8 347.8 365.9 347.8 366.1 347.8C367.4 347.7 368.4 347.5 369.2 347.4C369.6 347.3 369.9 347.3 370.1 347.2C370.3 347.2 370.4 347.1 370.4 347.2C370.4 347.2 370.4 347.3 370.2 347.3C370.2 347.3 370.1 347.4 369.9 347.5C369.8 347.6 369.6 347.6 369.4 347.7C368.6 347.9 367.4 348.2 365.8 348.4C365.6 348.4 365.4 348.4 365.2 348.5C363.8 348.7 362.1 348.8 360.3 348.8C360.2 348.8 360.1 348.8 360 348.8C359.5 348.8 359 348.8 358.5 348.8C358 348.8 357.6 348.8 357.1 348.7C357 348.7 357 348.7 356.9 348.7C355.8 348.6 354.7 348.5 353.6 348.3C351.5 348 349.4 347.5 347.6 346.9C345.8 346.3 344.3 345.5 343.1 344.7C342.3 344.2 341.7 343.6 341.2 343.1C341.1 342.9 340.9 342.8 340.8 342.6C340.5 342.2 340.3 341.8 340.1 341.5C340 341.4 340 341.3 340 341.2C340 341.1 340 341.1 339.9 341C339.9 340.9 339.9 340.9 339.9 340.9V340.8V340.7C339.9 340.6 339.9 340.5 339.9 340.5C339.9 340.4 339.9 340.4 339.9 340.3V340.2C340.1 339.7 340.1 339.7 340.1 339.7Z" fill="white"/>
<path d="M340.1 342.6C340.1 342.6 340.1 342.6 340.2 342.7V342.8V342.9C340.2 343 340.2 343 340.2 343.1C340.2 343.2 340.2 343.2 340.3 343.3C340.3 343.3 340.3 343.4 340.4 343.5V343.6C340.4 343.7 340.5 343.8 340.5 343.9C340.7 344.3 341 344.8 341.4 345.2C341.8 345.7 342.3 346.1 343 346.6C344.3 347.5 346 348.4 348 349.1C350 349.8 352.3 350.3 354.7 350.7C355.9 350.9 357.1 351 358.3 351.1C358.9 351.1 359.5 351.2 360.1 351.2C360.6 351.2 361.1 351.2 361.6 351.2C361.7 351.2 361.7 351.2 361.8 351.2C363.8 351.2 365.7 351.1 367.2 350.9C367.4 350.9 367.5 350.9 367.7 350.8C369 350.6 370.1 350.4 370.9 350.3C371.3 350.2 371.7 350.1 371.9 350.1C372.1 350.1 372.2 350 372.3 350.1C372.3 350.1 372.2 350.2 372.1 350.3C372 350.3 371.9 350.4 371.8 350.5C371.7 350.6 371.5 350.6 371.2 350.7C370.4 350.9 369.1 351.2 367.4 351.5C367.2 351.5 367 351.6 366.8 351.6C365.3 351.8 363.6 351.9 361.7 351.9C361.6 351.9 361.5 351.9 361.4 351.9C360.9 351.9 360.4 351.9 359.8 351.9C359.3 351.9 358.8 351.9 358.3 351.8C358.2 351.8 358.2 351.8 358.1 351.8C357 351.7 355.8 351.6 354.6 351.4C352.3 351.1 350.1 350.6 348.2 349.9C346.3 349.3 344.6 348.4 343.4 347.5C342.6 347 342 346.4 341.5 345.8C341.4 345.6 341.2 345.5 341.1 345.3C340.8 344.9 340.6 344.5 340.4 344.2C340.3 344.1 340.3 344 340.3 343.9C340.3 343.8 340.3 343.8 340.2 343.7C340.2 343.6 340.2 343.6 340.2 343.5V343.4V343.3C340.2 343.2 340.2 343.1 340.2 343.1C340.2 343 340.2 343 340.2 342.9V342.8C340.1 342.7 340.1 342.6 340.1 342.6Z" fill="white"/>
<path d="M340.1 345.6C340.1 345.6 340.1 345.6 340.2 345.7V345.8C340.2 345.8 340.2 345.9 340.2 346C340.2 346.1 340.2 346.1 340.2 346.2C340.2 346.3 340.2 346.4 340.3 346.4C340.3 346.4 340.3 346.5 340.4 346.6V346.7C340.4 346.8 340.5 346.9 340.5 347C340.7 347.4 341 347.9 341.4 348.4C341.8 348.9 342.4 349.4 343 349.9C344.4 350.9 346.2 351.8 348.3 352.5C350.4 353.2 352.8 353.8 355.4 354.1C356.7 354.3 357.9 354.4 359.1 354.5C359.7 354.5 360.4 354.6 361 354.6C361.5 354.6 362.1 354.6 362.6 354.6C362.7 354.6 362.7 354.6 362.8 354.6C364.9 354.6 366.9 354.4 368.5 354.2C368.7 354.2 368.8 354.2 369 354.1C370.4 353.9 371.6 353.7 372.4 353.5C372.9 353.4 373.2 353.3 373.5 353.3C373.7 353.2 373.9 353.2 373.9 353.2C373.9 353.2 373.8 353.3 373.6 353.4C373.5 353.4 373.4 353.5 373.3 353.6C373.1 353.7 372.9 353.7 372.7 353.8C371.8 354.1 370.5 354.4 368.7 354.6C368.5 354.6 368.3 354.7 368.1 354.7C366.5 354.9 364.7 355.1 362.7 355.1C362.6 355.1 362.5 355.1 362.4 355.1C361.9 355.1 361.3 355.1 360.7 355.1C360.2 355.1 359.7 355.1 359.1 355C359 355 359 355 358.9 355C357.7 354.9 356.5 354.8 355.3 354.6C352.8 354.3 350.5 353.8 348.5 353.1C346.5 352.4 344.7 351.6 343.4 350.6C342.6 350 342 349.5 341.5 348.9C341.4 348.7 341.2 348.6 341.1 348.4C340.8 348 340.6 347.6 340.5 347.3C340.4 347.2 340.4 347.1 340.4 346.9C340.4 346.8 340.4 346.8 340.3 346.7C340.3 346.6 340.3 346.6 340.3 346.5V346.4V346.3C340.3 346.2 340.3 346.1 340.3 346.1C340.3 346 340.3 346 340.3 345.9V345.8C340.1 345.6 340.1 345.6 340.1 345.6Z" fill="white"/>
<path d="M340.1 348.5C340.1 348.5 340.1 348.5 340.2 348.6V348.7C340.2 348.7 340.2 348.8 340.2 348.9C340.2 349 340.2 349 340.2 349.1C340.2 349.2 340.2 349.3 340.3 349.3C340.3 349.4 340.3 349.4 340.4 349.5C340.4 349.5 340.4 349.6 340.5 349.6C340.5 349.7 340.6 349.8 340.6 349.9C340.8 350.3 341.1 350.9 341.6 351.4C342 351.9 342.6 352.4 343.3 352.9C344.7 353.9 346.6 354.8 348.8 355.6C351 356.3 353.5 356.9 356.2 357.2C357.5 357.4 358.9 357.5 360.1 357.6C360.8 357.6 361.4 357.7 362.1 357.7C362.7 357.7 363.2 357.7 363.8 357.7C363.9 357.7 363.9 357.7 364 357.7C366.3 357.7 368.3 357.5 370 357.3C370.2 357.3 370.4 357.3 370.5 357.2C372 357 373.2 356.7 374.1 356.5C374.6 356.4 374.9 356.3 375.2 356.2C375.4 356.1 375.6 356.1 375.6 356.1C375.6 356.1 375.5 356.2 375.3 356.3C375.2 356.4 375.1 356.4 374.9 356.5C374.7 356.6 374.5 356.6 374.3 356.7C373.4 357 371.9 357.3 370.2 357.6C370 357.6 369.8 357.7 369.6 357.7C368 357.9 366.1 358.1 364 358.2C363.9 358.2 363.8 358.2 363.7 358.2C363.1 358.2 362.6 358.2 362 358.2C361.5 358.2 360.9 358.2 360.4 358.1C360.3 358.1 360.3 358.1 360.2 358.1C359 358 357.7 357.9 356.4 357.7C353.8 357.4 351.3 356.8 349.1 356.1C346.9 355.4 345 354.5 343.6 353.4C342.8 352.8 342.1 352.2 341.6 351.6C341.5 351.4 341.3 351.2 341.2 351.1C340.9 350.7 340.7 350.3 340.6 349.9C340.5 349.8 340.5 349.6 340.5 349.5C340.5 349.4 340.5 349.4 340.5 349.3C340.5 349.2 340.5 349.2 340.5 349.1C340.5 349 340.5 349 340.5 349V348.9C340.5 348.8 340.5 348.7 340.5 348.7C340.5 348.6 340.5 348.6 340.5 348.5V348.4C340.1 348.6 340.1 348.5 340.1 348.5Z" fill="white"/>
<path d="M340.1 351.5C340.1 351.5 340.1 351.5 340.1 351.6V351.7C340.1 351.8 340.1 351.8 340.1 351.9C340.1 352 340.1 352 340.1 352.1C340.1 352.2 340.1 352.3 340.2 352.4C340.2 352.5 340.2 352.5 340.3 352.6C340.3 352.6 340.3 352.7 340.4 352.8C340.4 352.9 340.5 353 340.5 353.1C340.7 353.6 341 354.1 341.5 354.6C342 355.1 342.6 355.7 343.3 356.2C344.8 357.3 346.8 358.2 349.1 359C351.4 359.8 354.1 360.3 356.9 360.7C358.3 360.9 359.7 361 361 361.1C361.7 361.1 362.4 361.2 363.1 361.2C363.7 361.2 364.3 361.2 364.9 361.2C365 361.2 365 361.2 365.1 361.2C367.5 361.1 369.6 360.9 371.4 360.7C371.6 360.7 371.8 360.6 372 360.6C373.6 360.4 374.8 360.1 375.7 359.9C376.2 359.8 376.6 359.7 376.9 359.6C377.2 359.5 377.3 359.5 377.3 359.5C377.3 359.5 377.2 359.6 377 359.7C376.9 359.8 376.8 359.8 376.6 359.9C376.4 360 376.2 360 375.9 360.1C374.9 360.4 373.4 360.8 371.6 361.1C371.4 361.1 371.2 361.2 370.9 361.2C369.2 361.5 367.2 361.7 365 361.7C364.9 361.7 364.8 361.7 364.6 361.7C364 361.7 363.4 361.7 362.8 361.7C362.2 361.7 361.7 361.7 361.1 361.7C361 361.7 361 361.7 360.9 361.7C359.6 361.6 358.3 361.5 356.9 361.4C354.1 361.1 351.5 360.5 349.2 359.7C346.9 358.9 344.9 358 343.4 356.9C342.6 356.3 341.9 355.7 341.4 355.1C341.3 354.9 341.1 354.7 341 354.6C340.7 354.2 340.5 353.8 340.4 353.4C340.3 353.3 340.3 353.1 340.3 353C340.3 352.9 340.3 352.9 340.3 352.8C340.3 352.7 340.3 352.7 340.3 352.6C340.3 352.5 340.3 352.5 340.3 352.5V352.4C340.3 352.3 340.3 352.2 340.3 352.2C340.3 352.1 340.3 352.1 340.3 352V351.9C340.1 351.5 340.1 351.5 340.1 351.5Z" fill="white"/>
<path d="M340.1 354.4C340.1 354.4 340.1 354.4 340.1 354.5V354.6C340.1 354.7 340.1 354.7 340.1 354.8C340.1 354.9 340.1 354.9 340.1 355C340.1 355.1 340.1 355.2 340.2 355.3C340.2 355.4 340.2 355.4 340.2 355.5C340.2 355.6 340.2 355.6 340.3 355.7C340.3 355.8 340.4 355.9 340.4 356C340.6 356.5 340.9 357 341.4 357.6C341.9 358.2 342.5 358.7 343.3 359.3C344.9 360.4 347 361.4 349.4 362.2C351.8 363 354.6 363.6 357.5 363.9C359 364.1 360.4 364.2 361.8 364.2C362.5 364.2 363.3 364.2 364 364.2C364.6 364.2 365.2 364.2 365.9 364.2C366 364.2 366 364.2 366.1 364.2C368.6 364.1 370.8 363.9 372.6 363.6C372.8 363.6 373 363.5 373.2 363.5C374.8 363.2 376.2 362.9 377.1 362.7C377.6 362.6 378 362.5 378.3 362.4C378.6 362.3 378.7 362.3 378.7 362.3C378.7 362.3 378.6 362.4 378.3 362.5C378.2 362.6 378 362.6 377.8 362.7C377.6 362.8 377.4 362.8 377.1 362.9C376.1 363.2 374.5 363.6 372.6 364C372.4 364 372.1 364.1 371.9 364.1C370.1 364.4 368.1 364.6 365.8 364.7C365.7 364.7 365.5 364.7 365.4 364.7C364.8 364.7 364.2 364.7 363.5 364.7C362.9 364.7 362.3 364.7 361.7 364.7C361.6 364.7 361.6 364.7 361.5 364.7C360.2 364.6 358.8 364.5 357.4 364.4C354.5 364.1 351.7 363.5 349.3 362.7C346.9 361.9 344.8 360.9 343.2 359.7C342.4 359.1 341.7 358.5 341.2 357.8C341.1 357.6 340.9 357.4 340.8 357.2C340.5 356.8 340.3 356.3 340.2 356C340.1 355.9 340.1 355.7 340.1 355.6C340.1 355.5 340.1 355.5 340.1 355.4C340.1 355.3 340.1 355.3 340.1 355.2C340.1 355.1 340.1 355.1 340.1 355C340.1 354.9 340.1 354.9 340.1 354.9C340.1 354.8 340.1 354.7 340.1 354.7C340.1 354.6 340.1 354.6 340.1 354.5V354.4C340.1 354.5 340.1 354.4 340.1 354.4Z" fill="white"/>
<path d="M340.1 357.4C340.1 357.4 340.1 357.4 340.1 357.5V357.6C340.1 357.7 340.1 357.7 340.1 357.8C340.1 357.9 340.1 358 340.1 358C340.1 358.1 340.1 358.2 340.2 358.3C340.2 358.4 340.2 358.4 340.2 358.5C340.2 358.6 340.2 358.6 340.3 358.7C340.3 358.8 340.4 358.9 340.4 359.1C340.6 359.6 341 360.2 341.5 360.8C342 361.4 342.7 362 343.5 362.6C345.1 363.7 347.3 364.8 349.9 365.6C352.4 366.4 355.3 367 358.4 367.3C359.9 367.5 361.4 367.6 362.9 367.6C364.3 367.7 365.7 367.6 367.1 367.6C369.8 367.5 372.2 367.3 374.1 366.9C376.1 366.6 377.7 366.2 378.8 365.9C379.3 365.8 379.8 365.6 380.1 365.6C380.4 365.5 380.5 365.5 380.6 365.5C380.6 365.5 380.5 365.6 380.2 365.7C380.1 365.8 379.9 365.8 379.7 365.9C379.5 366 379.3 366.1 379 366.1C377.9 366.5 376.3 366.9 374.3 367.3C372.3 367.7 369.9 368 367.2 368.1C365.9 368.2 364.4 368.2 363 368.1C361.5 368.1 360 368 358.5 367.8C355.4 367.4 352.5 366.8 349.9 366C347.3 365.2 345.1 364.1 343.5 362.9C342.7 362.3 342 361.6 341.5 361C341 360.4 340.6 359.7 340.5 359.2C340.4 359.1 340.4 358.9 340.4 358.8C340.4 358.7 340.4 358.7 340.4 358.6C340.4 358.5 340.4 358.5 340.4 358.4C340.4 358.3 340.4 358.2 340.4 358.1C340.4 358 340.4 357.9 340.4 357.8C340.4 357.7 340.4 357.7 340.4 357.6C340.4 357.5 340.4 357.5 340.4 357.5C340.1 357.4 340.1 357.4 340.1 357.4Z" fill="white"/>
<path d="M379 346.3C379 346.3 379.4 346.4 380.3 346.7C381.1 347 382.3 347.4 383.9 347.9C384.7 348.2 385.5 348.5 386.4 348.8C387.3 349.2 388.3 349.6 389.3 350C391.4 350.9 393.7 352 396 353.5C397.2 354.3 398.4 355.1 399.5 356.1C400.6 357.1 401.7 358.3 402.6 359.7C403 360.4 403.4 361.1 403.7 361.9C404 362.7 404.2 363.5 404.4 364.4C404.5 365.3 404.6 366.2 404.5 367C404.4 367.9 404.3 368.8 404 369.6C403.8 370.5 403.4 371.3 403.1 372.1C402.9 372.5 402.7 372.9 402.5 373.3C402.3 373.7 402.1 374.1 401.8 374.5C401.7 374.7 401.6 374.9 401.4 375.1L401.2 375.4L401 375.7C400.9 375.9 400.7 376.1 400.6 376.3C400.5 376.5 400.3 376.7 400.2 376.9C399.6 377.6 399 378.3 398.3 379C396.9 380.3 395.4 381.4 393.7 382.2C392 383 390.2 383.6 388.3 384C387.4 384.2 386.5 384.4 385.5 384.5C384.6 384.6 383.6 384.7 382.7 384.7C380.8 384.8 379 384.8 377.2 384.6C375.4 384.5 373.6 384.3 371.8 384C370 383.8 368.3 383.5 366.6 383.1C364.9 382.8 363.2 382.4 361.6 382.1C360 381.7 358.4 381.4 356.8 381C356 380.8 355.3 380.6 354.5 380.5C353.8 380.3 353 380.1 352.3 380C350.9 379.7 349.5 379.3 348.1 379C347.4 378.8 346.8 378.7 346.1 378.6C345.5 378.5 344.8 378.3 344.2 378.2C343 377.9 341.8 377.7 340.7 377.5C339.6 377.3 338.6 377.1 337.6 377C336.6 376.9 335.8 376.8 335 376.7C334.2 376.6 333.5 376.6 332.9 376.6C332.3 376.6 331.7 376.6 331.3 376.6C330.9 376.6 330.5 376.6 330.3 376.6C330.1 376.6 330 376.6 330 376.6V376.5C330 376.5 330.1 376.5 330.3 376.5C330.5 376.5 330.9 376.5 331.3 376.5C332.2 376.5 333.4 376.5 335 376.6C336.6 376.7 338.6 376.9 340.8 377.3C343 377.7 345.5 378.1 348.2 378.7C350.9 379.3 353.8 379.9 356.9 380.6C360 381.3 363.3 382 366.6 382.6C368.3 382.9 370 383.2 371.8 383.4C373.6 383.6 375.3 383.8 377.2 383.9C379 384 380.8 384 382.7 384C383.6 384 384.5 383.9 385.4 383.8C386.3 383.7 387.2 383.5 388.1 383.3C389 383.1 389.9 382.9 390.8 382.6C391.2 382.5 391.7 382.3 392.1 382.1C392.5 381.9 392.9 381.7 393.4 381.5C395 380.7 396.6 379.7 397.9 378.4C398.6 377.8 399.2 377.1 399.7 376.4C400.3 375.7 400.8 375 401.2 374.2C402.1 372.7 402.9 371.1 403.4 369.4C403.6 368.6 403.8 367.7 403.9 366.9C404 366.1 404 365.2 403.8 364.4C403.7 363.6 403.5 362.8 403.2 362C402.9 361.2 402.5 360.5 402.1 359.9C401.3 358.6 400.2 357.4 399.1 356.4C398 355.4 396.8 354.5 395.7 353.8C394.5 353 393.4 352.4 392.3 351.8C391.2 351.2 390.1 350.7 389.1 350.2C387.1 349.3 385.2 348.5 383.7 348C382.2 347.4 381 347 380.2 346.7C379.4 346.5 378.9 346.4 379 346.3Z" fill="#EF1C3C"/>
<path d="M344 334.889C289.113 336.72 178.9 316.577 177.15 221.355C174.962 102.327 92.3573 27.8576 1 1" stroke="#EF1C3C"/>
</svg>
