<svg width="261" height="172" viewBox="0 0 261 172" fill="none" xmlns="http://www.w3.org/2000/svg">
<g opacity="0.05">
<path d="M253.585 110.907C257.676 110.907 261 106.433 261 100.999V14.3828C261 8.9493 257.676 4.47465 253.585 4.47465C249.494 4.47465 246.17 8.9493 246.17 14.3828V40.9111C246.17 38.1624 245.275 35.989 244.124 35.989C243.037 35.989 242.079 38.2263 242.079 40.9111V47.7509H224.755C220.217 37.1396 209.414 30.108 198.419 29.7884C196.118 29.7245 194.072 29.6605 192.218 29.6605V1.0867C192.218 0.511389 191.707 0 191.132 0C190.556 0 190.045 0.447466 190.045 1.0867V29.6605C178.986 29.6605 174.256 30.7472 151.371 34.263C132.641 37.1396 111.291 43.4041 92.4335 43.2763V14.4467C92.4335 13.8714 91.9221 13.36 91.3468 13.36C90.7715 13.36 90.2601 13.8075 90.2601 14.4467V43.2763C81.8222 43.0206 73.9596 41.4225 67.0558 37.5871C54.7825 30.7472 43.4041 27.9346 35.6054 26.8479V25.6334H37.2035C38.0985 25.6334 38.8655 24.9941 38.8655 24.227C38.8655 23.5239 38.2263 22.8846 37.3953 22.8207V15.3417C38.2263 15.2777 38.8655 14.6385 38.8655 13.9353C38.8655 13.1683 38.0985 12.529 37.2035 12.529H31.1947C30.2998 12.529 29.5327 13.1683 29.5327 13.9353C29.5327 14.6385 30.1719 15.2777 31.0029 15.3417V22.7568C30.1719 22.8207 29.5327 23.46 29.5327 24.1631C29.5327 24.9302 30.2998 25.5694 31.1947 25.5694H32.7928V26.4644C31.6422 26.3365 30.6194 26.2726 29.6605 26.2087C28.3821 26.1447 27.1675 26.5922 26.2726 27.4871C25.3777 28.3821 24.8023 29.5327 24.8023 30.8112V111.099C24.8023 114.295 27.3593 116.852 30.5555 116.852C31.4504 116.852 32.3453 116.852 33.3681 116.852V147.024H32.1536C32.0257 145.17 31.3865 143.764 30.6194 143.764C29.7245 143.764 29.0213 145.554 29.0213 147.791C29.0213 150.029 29.7245 151.818 30.6194 151.818C31.3865 151.818 32.0257 150.412 32.1536 148.558H33.3681V157.444C33.3681 158.019 33.8795 158.53 34.4548 158.53C35.0301 158.53 35.5415 158.083 35.5415 157.444V146.321H39.1852C39.313 147.28 39.6965 148.047 40.0801 148.047C40.5915 148.047 41.0389 146.96 41.0389 145.618C41.0389 144.276 40.5915 143.189 40.0801 143.189C39.6326 143.189 39.313 143.892 39.1852 144.915H35.5415V116.852C36.6921 116.852 37.8428 116.852 38.9934 116.852C39.0573 116.852 39.1852 116.852 39.2491 116.852V125.162C39.2491 125.738 39.7605 126.249 40.3358 126.249C40.9111 126.249 41.4225 125.802 41.4225 125.162V116.788C46.856 116.533 48.5819 114.295 52.2256 96.7164C56.3806 76.7722 65.7774 76.0691 73.3204 74.2792C80.9273 72.4893 134.687 74.0874 152.65 76.0691C170.612 78.0507 173.425 83.1646 173.936 106.561C174.384 126.76 147.216 160.001 142.805 165.179H4.92211C2.1734 165.179 0 166.521 0 168.119C0 169.781 2.23732 171.06 4.92211 171.06H256.014C258.763 171.06 260.936 169.717 260.936 168.119C260.936 166.457 258.699 165.179 256.014 165.179H245.275C235.686 156.037 214.528 93.5202 224.116 71.5944C224.691 70.252 225.203 68.9096 225.586 67.5672H242.079V74.471C242.079 77.2197 242.974 79.3931 244.124 79.3931C245.211 79.3931 246.17 77.1558 246.17 74.471V100.999C246.106 106.497 249.494 110.907 253.585 110.907Z" fill="#231F20"/>
<path d="M209.35 41.8698C209.35 41.9337 208.774 41.678 207.688 41.2306C207.432 41.1027 207.112 41.0388 206.793 40.9109C206.473 40.7831 206.09 40.6553 205.706 40.5274C205.323 40.3996 204.875 40.2717 204.428 40.1439C204.3 40.0799 204.172 40.0799 204.108 40.016C203.98 39.9521 203.852 39.9521 203.724 39.8882C203.469 39.8242 203.213 39.7603 202.957 39.6964C200.848 39.1211 198.291 38.6736 195.223 38.4818C192.154 38.2901 188.639 38.4179 184.803 38.7375C177.068 39.4407 167.991 41.1666 157.827 42.9565C152.777 43.8514 147.408 44.7464 141.91 45.6413C136.349 46.5362 130.66 47.4312 124.715 48.1982C118.834 49.0292 113.081 49.7324 107.456 50.1799C101.83 50.6273 96.3968 50.883 91.219 50.7552C86.0412 50.6273 81.119 50.2438 76.5805 49.4128C76.0052 49.3489 75.4299 49.221 74.9185 49.0932C74.6628 49.0292 74.3432 48.9653 74.0875 48.9014C73.8318 48.8375 73.5121 48.7735 73.2565 48.7096C72.1698 48.4539 71.0831 48.1982 70.0603 47.8786C69.8046 47.8147 69.5489 47.7508 69.2932 47.6868C69.1653 47.6229 69.0375 47.6229 68.9096 47.559C68.7818 47.4951 68.654 47.4951 68.5261 47.4312C68.0147 47.2394 67.5033 47.1115 67.0559 46.9198C66.5445 46.7919 66.097 46.6001 65.6496 46.4084C65.3939 46.3445 65.2021 46.2166 64.9464 46.1527C64.6907 46.0888 64.4989 45.9609 64.2432 45.897C60.5996 44.4267 57.4673 42.7008 54.8465 41.1027C53.5041 40.2717 52.2895 39.5046 51.2028 38.8015C50.0522 38.0983 49.0294 37.4591 48.1345 36.9477C46.2807 35.861 44.7465 35.0939 43.7238 34.6464C43.4681 34.5186 43.2124 34.4547 43.0206 34.3268C42.8288 34.2629 42.6371 34.135 42.5092 34.0711C42.2535 33.9433 42.1257 33.8794 42.1257 33.8154C42.1257 33.8154 42.2535 33.8154 42.5731 33.8794C42.701 33.9433 42.8928 33.9433 43.0845 34.0072C43.2763 34.0711 43.532 34.135 43.7877 34.2629C44.8744 34.6464 46.4725 35.3496 48.3902 36.3724C49.349 36.8838 50.4357 37.4591 51.5864 38.1622C52.737 38.8015 53.9515 39.5686 55.2939 40.3356C57.9787 41.8698 61.0471 43.5318 64.6907 44.8742C64.9464 44.9381 65.1382 45.066 65.3939 45.1299C65.6495 45.1938 65.8413 45.3217 66.097 45.3856C66.5445 45.5134 67.0559 45.7052 67.5033 45.897C68.0147 46.0248 68.4622 46.2166 68.9736 46.3445C69.1014 46.4084 69.2293 46.4084 69.3571 46.4723C69.485 46.5362 69.6128 46.5362 69.7407 46.6001C69.9963 46.6641 70.252 46.728 70.5077 46.7919C71.5305 47.1115 72.5533 47.3033 73.64 47.559C73.8957 47.6229 74.1514 47.6868 74.471 47.7508C74.7267 47.8147 75.0463 47.8786 75.302 47.8786C75.8773 48.0065 76.3887 48.0704 76.964 48.1982C81.4387 48.9014 86.2969 49.2849 91.4107 49.3489C96.5246 49.4128 101.894 49.1571 107.456 48.7096C113.017 48.2622 118.77 47.4951 124.651 46.6641C130.532 45.8331 136.285 45.0021 141.783 44.1071C147.344 43.2122 152.65 42.3173 157.7 41.4863C167.863 39.7603 177.004 38.2262 184.803 37.5869C188.702 37.2673 192.282 37.2673 195.35 37.523C198.483 37.7787 201.104 38.354 203.213 38.9932C203.469 39.0572 203.724 39.185 203.98 39.2489C204.108 39.3129 204.236 39.3129 204.364 39.3768C204.492 39.4407 204.619 39.4407 204.683 39.5046C205.131 39.6964 205.578 39.8242 205.962 40.016C206.345 40.1439 206.729 40.3356 207.049 40.4635C207.368 40.5913 207.688 40.7192 207.943 40.847C208.838 41.4863 209.35 41.8059 209.35 41.8698Z" fill="white"/>
</g>
</svg>
