<svg width="82" height="82" viewBox="0 0 82 82" fill="none" xmlns="http://www.w3.org/2000/svg">
<path d="M76.1424 25.6037L67.4037 20.7482L65.1723 18.5168C64.6537 18.0028 63.9995 17.647 63.2861 17.491C62.5728 17.335 61.8298 17.3853 61.144 17.636L60.666 15.7228C60.4585 14.891 59.9787 14.1526 59.3028 13.6252C58.627 13.0978 57.7941 12.8117 56.9368 12.8125H56.375V10.0139C57.2299 9.71168 57.9505 9.11697 58.4093 8.33486C58.8681 7.55276 59.0357 6.63363 58.8824 5.73992C58.7291 4.84621 58.2648 4.03547 57.5715 3.45099C56.8783 2.86651 56.0007 2.54593 55.094 2.5459C54.1872 2.54587 53.3096 2.8664 52.6163 3.45084C51.9231 4.03528 51.4587 4.84599 51.3053 5.73969C51.152 6.63339 51.3195 7.55253 51.7783 8.33466C52.2371 9.11679 52.9576 9.71155 53.8125 10.0138V12.8125H53.2507C52.3932 12.8117 51.5602 13.0979 50.8843 13.6256C50.2084 14.1533 49.7287 14.892 49.5214 15.7241L49.0436 17.636C48.3578 17.3853 47.6148 17.335 46.9014 17.4909C46.188 17.6469 45.5338 18.0027 45.0152 18.5168L42.7837 20.7483L34.0457 25.6037C33.0472 26.1586 32.2151 26.9703 31.6357 27.9547C31.0562 28.9392 30.7504 30.0606 30.75 31.2029V37.1562H33.3125V31.2029C33.3126 30.5175 33.4961 29.8446 33.8438 29.2539C34.1915 28.6632 34.6908 28.1762 35.2901 27.8434L43.0149 23.5512L53.8125 45.1465V70.4688H42.2812V73.0312H51.25V79.4375H53.8125V73.0312H56.375V79.4375H58.9375V73.0312H67.9062C68.9253 73.0301 69.9024 72.6248 70.623 71.9042C71.3436 71.1836 71.7489 70.2066 71.75 69.1875V66.625H75.5938C76.6128 66.6239 77.5899 66.2186 78.3105 65.498C79.0311 64.7774 79.4364 63.8003 79.4375 62.7812V31.2029C79.4371 30.0607 79.1313 28.9393 78.552 27.9549C77.9727 26.9704 77.1408 26.1587 76.1424 25.6037ZM55.0938 5.125C55.3472 5.125 55.5949 5.20014 55.8056 5.34093C56.0163 5.48171 56.1805 5.68181 56.2775 5.91593C56.3744 6.15005 56.3998 6.40767 56.3504 6.6562C56.3009 6.90474 56.1789 7.13304 55.9997 7.31223C55.8205 7.49141 55.5922 7.61344 55.3437 7.66288C55.0952 7.71231 54.8376 7.68694 54.6034 7.58997C54.3693 7.49299 54.1692 7.32877 54.0284 7.11807C53.8876 6.90737 53.8125 6.65965 53.8125 6.40625C53.8128 6.06654 53.9479 5.74085 54.1881 5.50064C54.4284 5.26043 54.754 5.12533 55.0938 5.125ZM55.0938 41.9785L47.448 26.6869L49.3944 28.3089C49.8565 28.6919 50.4377 28.9017 51.0379 28.9019C51.1366 28.9023 51.2352 28.8965 51.3332 28.8844C51.6779 28.8435 52.0107 28.7332 52.3116 28.5601C52.6125 28.387 52.8751 28.1547 53.0837 27.8772L55.0936 25.1973L57.1032 27.8772C57.312 28.1546 57.5747 28.3869 57.8757 28.56C58.1766 28.7331 58.5095 28.8435 58.8543 28.8844C58.9523 28.8965 59.0509 28.9023 59.1496 28.9019C59.75 28.9017 60.3314 28.6919 60.7937 28.3089L62.7392 26.6876L55.0938 41.9785ZM63.3606 20.3286L64.7269 21.6949L59.1533 26.3407L56.9312 23.3778L61.7434 20.1685C61.9902 20.005 62.2858 19.9317 62.5804 19.9609C62.875 19.99 63.1506 20.1199 63.3606 20.3286ZM53.2507 15.375H56.9369C57.2226 15.3747 57.5002 15.47 57.7254 15.6457C57.9507 15.8214 58.1107 16.0675 58.1799 16.3447L58.8484 19.0195L55.0939 21.5223L51.3393 19.0193L52.0076 16.3459C52.0766 16.0685 52.2364 15.8221 52.4618 15.6461C52.6871 15.4702 52.9648 15.3747 53.2507 15.375ZM46.8269 20.3286C47.037 20.1199 47.3125 19.9901 47.6071 19.9609C47.9016 19.9318 48.1973 20.005 48.4441 20.1684L53.2563 23.3778L51.0342 26.3394L45.4606 21.6949L46.8269 20.3286ZM76.875 62.7812C76.8747 63.121 76.7396 63.4466 76.4994 63.6869C76.2591 63.9271 75.9335 64.0622 75.5938 64.0625H71.75V61.5H76.875V62.7812ZM71.75 58.9375V34.5937H69.1875V69.1875C69.1872 69.5272 69.0521 69.8529 68.8119 70.0931C68.5716 70.3333 68.246 70.4684 67.9062 70.4688H56.375V45.1465L67.1726 23.5513L74.8981 27.8434C75.4971 28.1764 75.9963 28.6634 76.3439 29.2541C76.6915 29.8447 76.8748 30.5176 76.875 31.2029V58.9375H71.75Z" fill="black"/>
<path d="M49.9688 52.5312C50.6764 52.5312 51.25 51.9576 51.25 51.25C51.25 50.5424 50.6764 49.9688 49.9688 49.9688C49.2611 49.9688 48.6875 50.5424 48.6875 51.25C48.6875 51.9576 49.2611 52.5312 49.9688 52.5312Z" fill="black"/>
<path d="M49.9688 58.9375C50.6764 58.9375 51.25 58.3639 51.25 57.6562C51.25 56.9486 50.6764 56.375 49.9688 56.375C49.2611 56.375 48.6875 56.9486 48.6875 57.6562C48.6875 58.3639 49.2611 58.9375 49.9688 58.9375Z" fill="black"/>
<path d="M49.9688 65.3438C50.6764 65.3438 51.25 64.7701 51.25 64.0625C51.25 63.3549 50.6764 62.7812 49.9688 62.7812C49.2611 62.7812 48.6875 63.3549 48.6875 64.0625C48.6875 64.7701 49.2611 65.3438 49.9688 65.3438Z" fill="black"/>
<path d="M6.40625 79.4375H35.875C36.8941 79.4364 37.8711 79.0311 38.5917 78.3105C39.3123 77.5899 39.7176 76.6128 39.7188 75.5938V73.0312C39.7176 72.0122 39.3123 71.0351 38.5917 70.3145C37.8711 69.5939 36.8941 69.1886 35.875 69.1875H20.5V57.6562H25.7545C26.008 58.8859 26.6162 60.0144 27.504 60.9022C28.3918 61.79 29.5203 62.3983 30.75 62.6518V66.625H33.3125V62.6518C34.7583 62.3546 36.0575 61.568 36.9911 60.4247C37.9246 59.2813 38.4355 57.8511 38.4375 56.375V44.8438C38.4364 43.8247 38.0311 42.8476 37.3105 42.127C36.5899 41.4064 35.6128 41.0011 34.5938 41H29.4688C28.4497 41.0011 27.4726 41.4064 26.752 42.127C26.0314 42.8476 25.6261 43.8247 25.625 44.8438H17.9375V39.7188H15.375V44.8438H10.25V39.7188H7.6875V44.8438H6.40625C5.38717 44.8449 4.41014 45.2502 3.68954 45.9708C2.96894 46.6914 2.56361 47.6684 2.5625 48.6875V53.8125C2.56361 54.8316 2.96894 55.8086 3.68954 56.5292C4.41014 57.2498 5.38717 57.6551 6.40625 57.6562V69.1875C5.38717 69.1886 4.41014 69.5939 3.68954 70.3145C2.96894 71.0351 2.56361 72.0122 2.5625 73.0312V75.5938C2.56361 76.6128 2.96894 77.5899 3.68954 78.3105C4.41014 79.0311 5.38717 79.4364 6.40625 79.4375ZM29.4688 43.5625H34.5938C34.9335 43.5628 35.2591 43.6979 35.4994 43.9381C35.7396 44.1784 35.8747 44.504 35.875 44.8438V56.375C35.875 57.3944 35.47 58.3721 34.7492 59.0929C34.0283 59.8138 33.0507 60.2188 32.0312 60.2188C31.0118 60.2188 30.0342 59.8138 29.3133 59.0929C28.5925 58.3721 28.1875 57.3944 28.1875 56.375V44.8438C28.1878 44.504 28.3229 44.1784 28.5631 43.9381C28.8034 43.6979 29.129 43.5628 29.4688 43.5625ZM5.125 53.8125V48.6875C5.12534 48.3478 5.26044 48.0221 5.50064 47.7819C5.74085 47.5417 6.06655 47.4066 6.40625 47.4062H25.625V55.0938H6.40625C6.06655 55.0934 5.74085 54.9583 5.50064 54.7181C5.26044 54.4779 5.12534 54.1522 5.125 53.8125ZM8.96875 57.6562H17.9375V69.1875H8.96875V57.6562ZM5.125 73.0312C5.12534 72.6915 5.26044 72.3659 5.50064 72.1256C5.74085 71.8854 6.06655 71.7503 6.40625 71.75H35.875C36.2147 71.7503 36.5404 71.8854 36.7806 72.1256C37.0208 72.3659 37.1559 72.6915 37.1562 73.0312V75.5938C37.1559 75.9335 37.0208 76.2591 36.7806 76.4994C36.5404 76.7396 36.2147 76.8747 35.875 76.875H6.40625C6.06655 76.8747 5.74085 76.7396 5.50064 76.4994C5.26044 76.2591 5.12534 75.9335 5.125 75.5938V73.0312Z" fill="#DF495E"/>
</svg>
