<svg width="47" height="60" viewBox="0 0 47 60" fill="none" xmlns="http://www.w3.org/2000/svg">
<path d="M23.5 0.505138C32.5491 0.690967 40.2365 5.89906 44.098 13.201C46.872 18.4465 47.2636 24.815 45.1671 30.3589C41.1529 40.9727 32.2534 49.952 24.0679 58.2109C23.8782 58.4023 23.6889 58.5934 23.5 58.784V35.9428C30.1966 35.6735 35.6418 30.0339 35.6418 23.4936C35.6416 16.8567 30.2197 11.6321 23.5 11.3837V0.505138Z" stroke="black"/>
<path d="M22.5 58.7463C22.3331 58.5705 22.1658 58.3944 21.9982 58.2179C14.1546 49.9599 5.62583 40.9806 1.77855 30.3654C-0.232505 24.8165 0.14342 18.4419 2.80337 13.1933C6.50271 5.89413 13.8558 0.699327 22.5 0.505607V11.3845C16.0408 11.6431 10.8643 16.8825 10.8641 23.4936C10.8641 30.0079 16.0625 35.6616 22.5 35.942V58.7463Z" stroke="black"/>
<path d="M23.75 42.0439C34.1053 42.0439 42.5 33.6493 42.5 23.2939C42.5 12.9386 34.1053 4.54395 23.75 4.54395C13.3947 4.54395 5 12.9386 5 23.2939C5 33.6493 13.3947 42.0439 23.75 42.0439Z" fill="#FFDA44"/>
<path d="M5 23.2939C5 12.9384 13.3946 4.54395 23.75 4.54395C34.1054 4.54395 42.5 12.9384 42.5 23.2939" fill="#338AF3"/>
</svg>
