<svg width="72" height="72" viewBox="0 0 72 72" fill="none" xmlns="http://www.w3.org/2000/svg">
<g clip-path="url(#clip0)">
<path d="M9.58287 27.8671V43.236L5.12257 47.7144C3.06693 49.7767 2.45464 52.8733 3.5704 55.5621C4.68671 58.2515 7.31122 60.0043 10.2226 60.0049H10.2375L15.5865 59.9928V67.7976C15.5865 70.1187 17.468 72.0001 19.7891 72.0001C22.1096 72.0001 23.9916 70.1187 23.9916 67.7976V59.5789C25.4558 58.8891 26.3908 57.4155 26.3908 55.7963C26.3908 54.1776 25.4558 52.704 23.9916 52.0142V38.9494L30.635 35.4449C31.6497 34.9096 32.3494 33.9235 32.5181 32.7891C32.6874 31.6541 32.3059 30.507 31.4908 29.6996L25.0397 23.3089C23.9179 22.1915 22.3976 21.566 20.8141 21.5704H14.4697C13.8338 21.5715 13.2237 21.3193 12.7746 20.8696L9.58287 17.6862V16.7259C9.49328 14.9748 9.6142 13.2198 9.94288 11.4978C10.2622 10.1331 10.7344 8.80898 11.3505 7.54976C11.5148 7.23372 11.6957 6.92593 11.8919 6.62802C12.6757 5.62878 13.1137 4.40145 13.1396 3.13124C12.9587 1.34437 11.4478 -0.0121339 9.65158 -4.18615e-05H9.62739C8.08181 0.00820269 6.55932 1.06241 5.34078 2.95975C4.46356 4.42288 3.80399 6.00693 3.38352 7.66024C2.5827 10.9333 2.24468 14.3026 2.37879 17.6697C2.37329 19.5797 3.13179 21.4127 4.48499 22.7604L9.58287 27.8671ZM19.7891 69.5988C18.7942 69.5988 17.9879 68.7924 17.9879 67.7976V59.9928H21.5897V67.7976C21.5897 68.7924 20.7834 69.5988 19.7891 69.5988ZM23.4667 57.0671C23.221 57.3105 22.9099 57.4771 22.5708 57.5469C22.4455 57.5738 22.3185 57.5887 22.1904 57.5914H16.787L10.2347 57.6035H10.2226C8.28188 57.6035 6.53129 56.435 5.78708 54.6421C5.04287 52.8497 5.45071 50.7847 6.8215 49.4101L11.6303 44.5854C11.7396 44.4743 11.8265 44.343 11.8858 44.199C11.9386 44.0665 11.9672 43.9253 11.9699 43.7823C11.9699 43.7681 11.9782 43.756 11.9782 43.7417V43.1832H21.5842V51.5883H17.9879V47.682C17.9879 46.9537 17.5488 46.2969 16.8754 46.0183C16.2027 45.7396 15.4277 45.894 14.9127 46.4096L10.4079 50.9144C9.89232 51.4294 9.73842 52.2039 10.0165 52.8772C10.2952 53.5505 10.952 53.9891 11.6803 53.9896H22.1904C22.3114 53.9918 22.4317 54.0045 22.5504 54.0265C23.2001 54.1595 23.7245 54.6393 23.9146 55.2747C24.1048 55.9101 23.9306 56.5988 23.4606 57.0671H23.4667ZM22.5373 34.2907L23.7728 36.3491L22.23 37.1631C22.2025 37.1774 22.1624 37.2026 22.1228 37.229L21.787 37.4016C21.1972 37.7056 20.4728 37.4775 20.1634 36.8905C20.0732 36.7206 20.0271 36.5315 20.0293 36.3392C20.0326 36.1963 20.0622 36.055 20.1167 35.9225C20.2073 35.6406 20.4085 35.407 20.674 35.2756L22.5373 34.2907ZM15.5865 51.5883H13.1297L15.5865 49.1314V51.5883ZM18.2688 23.9718L16.787 26.4419L15.3057 23.9718H18.2688ZM11.079 22.5697C11.3956 22.8758 11.7528 23.1374 12.1403 23.3463C12.1475 23.3595 12.1475 23.3754 12.1563 23.3897L15.243 28.5349C15.5684 29.0768 16.1549 29.4088 16.787 29.4088C17.4196 29.4088 18.0055 29.0768 18.3314 28.5349L21.0554 23.9949C21.9184 24.0455 22.7335 24.4082 23.3491 25.0156L29.8001 31.4045C30.0744 31.6733 30.2036 32.0569 30.1475 32.4367C30.0915 32.8171 29.8573 33.1474 29.5171 33.3255L25.9005 35.2273L24.6627 33.1672L25.9197 32.5016C26.2566 32.3241 26.4891 31.9965 26.5463 31.6194C26.6035 31.2429 26.4781 30.8609 26.2088 30.5916L23.6409 28.0232C23.5288 27.911 23.3958 27.8225 23.249 27.7626C22.8791 27.6098 22.457 27.6511 22.1239 27.8737C21.7908 28.0963 21.5902 28.47 21.5897 28.8707V32.0745L19.5654 33.1452C18.3897 33.7812 17.6482 35.0025 17.6273 36.3392C17.6263 36.9251 17.7692 37.5028 18.0445 38.02C18.7332 39.3116 20.1331 40.0608 21.5897 39.9173V40.7819H11.9842V27.3702C11.9842 27.052 11.8584 26.7475 11.6336 26.5221L6.18392 21.0637C5.28142 20.165 4.7763 18.9432 4.78015 17.6697C4.65263 14.5268 4.95988 11.3818 5.69364 8.3231C5.78653 7.99662 5.88712 7.65804 5.99869 7.31342L8.35443 8.49129C8.05543 9.29596 7.8059 10.1177 7.60803 10.9526C7.23318 12.8576 7.09027 14.8 7.18151 16.7391V17.756C7.17986 18.3496 7.41566 18.919 7.83723 19.3373L11.079 22.5697ZM9.63838 2.39802H9.64553C10.1968 2.37988 10.6717 2.78332 10.7426 3.33075C10.6283 4.06892 10.3238 4.76476 9.85934 5.34902C9.65597 5.67221 9.4702 5.98165 9.30915 6.2834L6.90779 5.08245C7.0507 4.80378 7.1969 4.52676 7.36509 4.26239C8.106 3.10046 8.95739 2.40517 9.64278 2.40132L9.63838 2.39802Z" fill="black"/>
<path d="M10.7838 13.7662C10.7838 17.4131 13.7403 20.3701 17.3877 20.3701C21.0345 20.3701 23.9916 17.4131 23.9916 13.7662C23.9916 10.1188 21.0345 7.16235 17.3877 7.16235C13.7419 7.1662 10.7876 10.1205 10.7838 13.7662ZM17.3877 9.56371C19.7082 9.56371 21.5896 11.4451 21.5896 13.7662C21.5896 16.0873 19.7082 17.9688 17.3877 17.9688C15.0666 17.9688 13.1851 16.0873 13.1851 13.7662C13.1851 11.4451 15.0666 9.56371 17.3877 9.56371Z" fill="black"/>
<path d="M49.8063 21.5706C50.6083 21.575 51.4036 21.4266 52.15 21.1336C55.2725 19.948 57.0187 16.6183 56.2173 13.3755C55.4159 10.1332 52.3204 7.99949 49.005 8.40457C45.6896 8.81021 43.1986 11.6271 43.2025 14.9667C43.1997 15.7213 43.3283 16.4705 43.5834 17.1812C44.5216 19.8123 47.0125 21.5695 49.8063 21.5706ZM49.8063 10.7642C51.8307 10.7735 53.5604 12.2245 53.922 14.2164C54.2831 16.2078 53.174 18.1744 51.2821 18.8944C50.8122 19.0796 50.3115 19.173 49.8063 19.1692C48.0261 19.1698 46.4387 18.0485 45.844 16.3705C45.683 15.9203 45.6016 15.4454 45.6038 14.9667C45.6038 13.8526 46.0468 12.7835 46.835 11.9953C47.6226 11.2072 48.6917 10.7642 49.8063 10.7642Z" fill="#DF495E"/>
<path d="M32.6555 47.3291C32.1284 47.8089 31.8415 48.4976 31.8722 49.2094C31.903 49.9217 32.2487 50.5829 32.8154 51.0155L33.9185 51.8559C33.9675 51.8999 34.0197 51.94 34.0746 51.9757C34.3148 52.1296 34.555 52.2687 34.7952 52.4105V67.7976C34.7952 70.1187 36.6766 72.0001 38.9977 72.0001C41.3183 72.0001 43.2002 70.1187 43.2002 67.7976V55.0482C44.0725 55.1405 44.9486 55.1889 45.8259 55.1927C48.5691 55.1598 51.2986 54.797 53.955 54.1122L61.9489 67.974C62.8003 69.4454 64.4541 70.2583 66.1393 70.0351C67.824 69.8114 69.2085 68.5945 69.6466 66.9522C69.9384 65.8782 69.7867 64.7317 69.2266 63.7704L62.0341 51.3068C62.2743 51.198 62.5145 51.0886 62.7151 50.9913C63.3972 50.6637 63.8847 50.0333 64.0309 49.2907C64.1771 48.5487 63.965 47.7809 63.4582 47.2186L58.4576 41.6689C59.248 41.8096 60.0631 41.6788 60.7699 41.2979C61.812 40.7406 62.5167 39.71 62.6574 38.5366L63.4357 31.8964C63.6781 29.8309 62.5634 27.8434 60.6737 26.9739L52.244 23.0846C51.1936 22.6004 50.0042 22.5114 48.8939 22.8334L44.8689 24.0031C44.6139 24.0778 44.3385 24.0377 44.1148 23.8937C43.8812 23.7425 43.7268 23.4952 43.6938 23.2193L40.4867 5.33577C40.208 3.57419 38.6943 2.2732 36.9108 2.26331C36.7739 2.26331 36.6216 2.2765 36.3765 2.30178C34.4099 2.61947 33.0661 4.4613 33.3629 6.4312L36.7838 26.2269C36.9514 27.1976 37.168 28.1594 37.4329 29.1086L39.2401 35.5515C40.0437 38.3788 39.1709 41.4172 36.9888 43.3871L32.6555 47.3291ZM40.8011 67.7976C40.8011 68.7924 39.9948 69.5987 38.9999 69.5987C38.0051 69.5987 37.1988 68.7924 37.1988 67.7976V53.5982C37.5687 53.7483 37.9408 53.8863 38.3145 54.0088H38.3217L38.3601 54.0231H38.3706C38.6685 54.1325 38.9713 54.2237 39.2703 54.3111C39.7711 54.4551 40.2822 54.5799 40.8011 54.6882V67.7976ZM67.3293 66.3388C67.1413 67.0424 66.5483 67.5634 65.8266 67.659C65.1049 67.7552 64.3959 67.4068 64.0309 66.7769L56.3465 53.4493C57.504 53.0959 58.6555 52.6924 59.8009 52.239L67.1529 64.9807C67.3914 65.3912 67.4546 65.8804 67.3293 66.3388ZM35.7329 6.0525C35.6296 5.40887 36.0594 4.79988 36.7008 4.68171C37.0278 4.63004 37.362 4.71249 37.6286 4.90926C37.8952 5.10603 38.0716 5.40173 38.1189 5.72986L41.3293 23.6117C41.4722 24.5599 42.0174 25.4003 42.8248 25.9175C43.6328 26.4341 44.6244 26.5776 45.545 26.3099L49.57 25.1414C50.1262 24.9759 50.7237 25.0183 51.2508 25.2617L59.6772 29.1493C60.6204 29.5846 61.1767 30.5778 61.0557 31.6095L60.2786 38.2469C60.2313 38.6421 59.9944 38.9895 59.6437 39.1774C59.2848 39.3693 58.8533 39.366 58.4972 39.1692C58.0509 38.9021 57.8129 38.3893 57.8964 37.8759L58.0899 36.255L58.4669 33.0611C58.5912 32.0283 58.0338 31.0335 57.0885 30.5998L52.8596 28.6546C52.3555 28.4216 51.7707 28.4381 51.281 28.7003C49.4947 27.739 47.35 27.7203 45.5472 28.6497C43.7065 27.8643 41.6354 27.8088 39.7551 28.4947L39.7458 28.4612C39.5006 27.5917 39.3006 26.71 39.145 25.8196L35.7329 6.0525ZM54.7662 37.5604L53.0338 31.3753L56.0766 32.7769L55.6979 35.9692L55.5061 37.5901C55.5061 37.6132 55.5132 37.6346 55.5121 37.6577H55.4978C55.4725 37.8946 55.4687 38.1331 55.4857 38.3706L54.7662 37.5604ZM41.5585 34.9029L40.4229 30.8581C41.7816 30.2585 43.3316 30.2678 44.6832 30.8845C45.3262 31.1297 46.0446 31.0807 46.6487 30.751C47.8584 30.1623 49.2864 30.2393 50.4258 30.9554L52.5331 38.4767C52.5331 38.4871 52.5441 38.4953 52.5474 38.5074C52.5644 38.5487 52.5836 38.5888 52.6051 38.6278C52.6452 38.7234 52.698 38.8136 52.7612 38.8955C52.7744 38.9109 52.7782 38.9312 52.7914 38.9471L61.679 48.8263C61.1866 49.0665 60.5732 49.3413 59.8537 49.6442C58.0294 50.4246 56.1524 51.0743 54.2358 51.5882C49.5964 53.0277 44.6524 53.175 39.9354 52.0142C39.676 51.9389 39.4166 51.8641 39.1132 51.7504C37.8171 51.3217 36.5804 50.7324 35.4317 49.9959L34.2714 49.1121L38.6086 45.169C41.47 42.5879 42.6127 38.6036 41.5552 34.8985L41.5585 34.9029Z" fill="#E36072"/>
</g>
<defs>
<clipPath id="clip0">
<rect width="72" height="72" fill="white"/>
</clipPath>
</defs>
</svg>
