<svg width="115" height="607" viewBox="0 0 115 607" fill="none" xmlns="http://www.w3.org/2000/svg">
<path d="M111 1C110.697 7.51003 107.185 20.5301 95.5583 20.5301C83.9317 20.5301 77.9972 27.7971 76.4833 31.4306L69.2166 44.6021C76.0291 43.2395 89.6542 42.967 89.6542 52.7775C89.6542 65.0406 75.575 83.2081 89.6542 87.75L81.9333 88.6584V103.192L89.6542 116.364L95.5583 134.077L100.1 139.073H92.3792L100.1 149.52C99.6458 153.002 97.4658 160.238 92.3792 161.329C87.2925 162.419 88.443 165.719 89.6542 167.233C86.7778 166.93 80.1166 167.506 76.4833 172.229C72.85 176.953 66.1889 181.767 63.3125 183.584C60.1333 185.249 53.5025 189.67 52.4125 194.03C51.3225 198.39 45.9027 202.508 43.3291 204.022L39.2416 208.11C36.3652 208.11 30.6125 209.563 30.6125 215.377C30.6125 221.191 32.7319 225.975 33.7916 227.64C33.7916 230.517 33.7916 237.541 33.7916 242.628C33.7916 247.715 28.3416 246.565 25.6166 245.353L21.5291 253.529C15.7158 257.889 13.0513 265.64 12.4458 268.971C10.3263 272.151 6.35994 277.782 7.44994 274.876C8.53994 271.969 4.27081 278.509 2 282.143L7.44994 289.41V295.314L17.8958 299.856V306.669H25.6166M28.3417 306.669H25.6166M25.6166 306.669L28.3417 315.753L21.5291 325.291H12.4458C8.96387 327.864 2.54505 336.009 4.725 348" stroke="#FF2748" stroke-width="2"/>
<path d="M6 368.5V392" stroke="#FF2748" stroke-width="2"/>
<path d="M6.49994 406C4.49994 407.833 1.69994 413.7 6.49994 422.5" stroke="#FF2748" stroke-width="2"/>
<path d="M15.5 431.5L29.5 447.5" stroke="#FF2748" stroke-width="2"/>
<path d="M36.5 458.5L45 468.5" stroke="#FF2748" stroke-width="2"/>
<path d="M54 478.5L63.5 491" stroke="#FF2748" stroke-width="2"/>
<path d="M74 501.5L81 510.5" stroke="#FF2748" stroke-width="2"/>
<path d="M89.5 525.5C107.5 539.667 132.7 575.5 89.5 605.5" stroke="#EF1C3C" stroke-width="2"/>
</svg>
