<svg width="64" height="121" viewBox="0 0 64 121" fill="none" xmlns="http://www.w3.org/2000/svg">
<path d="M46.4405 31.5316C53.6357 31.5316 59.4685 25.5861 59.4685 18.2519C59.4685 10.9177 53.6357 4.97217 46.4405 4.97217C39.2454 4.97217 33.4125 10.9177 33.4125 18.2519C33.4125 25.5861 39.2454 31.5316 46.4405 31.5316Z" fill="#5E5356"/>
<path d="M46 0.125977C36.1188 0.125977 28.1259 8.11898 28.1259 18.0001C28.1259 27.8812 36.1188 35.8742 46 35.8742C55.8811 35.8742 63.8741 27.8812 63.8741 18.0001C63.937 8.11898 55.8811 0.125977 46 0.125977ZM46 28.0071C40.4615 28.0071 35.993 23.5386 35.993 18.0001C35.993 12.4616 40.4615 7.93017 46 7.93017C51.5384 7.93017 56.007 12.3987 56.007 17.9372C56.007 23.4756 51.5384 28.0071 46 28.0071Z" fill="#231F20"/>
<path d="M46 36C36.0559 36 28 27.9441 28 18C28 8.05595 36.0559 0 46 0C55.944 0 64 8.05595 64 18C64 27.9441 55.944 36 46 36ZM46 0.188823C36.1818 0.188823 28.2517 8.18182 28.2517 17.9371C28.2517 27.7552 36.2447 35.6853 46 35.6853C55.8182 35.6853 63.7482 27.6923 63.7482 17.9371C63.8112 8.18182 55.8182 0.188823 46 0.188823Z" fill="#231F20"/>
<path d="M49.5244 20.1398C49.9649 20.5804 49.9649 21.2098 49.5873 21.6503C49.2097 22.028 48.5173 22.028 48.0768 21.5874L42.4754 15.986C42.0349 15.5454 42.0348 14.9161 42.4125 14.4755C42.7901 14.0979 43.4824 14.0979 43.923 14.5385L49.5244 20.1398Z" fill="white"/>
<path d="M48.8322 22.0277C48.5175 22.0277 48.2028 21.9018 47.9511 21.6501L42.3497 16.0487C42.0979 15.797 41.972 15.5452 41.972 15.2305C41.972 14.9158 42.0979 14.6012 42.2867 14.4123C42.4755 14.2235 42.7902 14.0977 43.1049 14.0977C43.4196 14.0977 43.7343 14.2235 43.986 14.4753L49.5874 20.0767C50.028 20.5172 50.0909 21.2725 49.6503 21.713C49.4615 21.9019 49.1468 22.0277 48.8322 22.0277ZM43.1678 14.2865C42.9161 14.2865 42.6643 14.3494 42.5385 14.5382C42.3496 14.727 42.2867 14.9788 42.2867 15.2305C42.2867 15.4823 42.4126 15.734 42.6014 15.9228L48.2028 21.5242C48.3916 21.7131 48.6434 21.8389 48.8951 21.8389C49.1469 21.8389 49.3986 21.776 49.5245 21.5872C49.9021 21.2096 49.8392 20.6431 49.4615 20.2655L43.8602 14.6641C43.6713 14.4124 43.4196 14.2865 43.1678 14.2865Z" fill="#231F20"/>
<path d="M43.1049 16.6787C43.9391 16.6787 44.6153 16.0024 44.6153 15.1682C44.6153 14.334 43.9391 13.6577 43.1049 13.6577C42.2706 13.6577 41.5944 14.334 41.5944 15.1682C41.5944 16.0024 42.2706 16.6787 43.1049 16.6787Z" fill="#231F20"/>
<path d="M50.2797 20.8948C50.2797 21.7129 49.5874 22.4052 48.7692 22.4052C47.9511 22.4052 47.2587 21.7129 47.2587 20.8948C47.2587 20.0766 47.9511 19.3843 48.7692 19.3843C49.6504 19.3843 50.2797 20.0766 50.2797 20.8948Z" fill="#231F20"/>
<path d="M49.5244 20.1398C49.9649 20.5804 49.9649 21.2098 49.5873 21.6503C49.2097 22.028 48.5173 22.028 48.0768 21.5874L42.4754 15.986C42.0349 15.5454 42.0348 14.9161 42.4125 14.4755C42.7901 14.0979 43.4824 14.0979 43.923 14.5385L49.5244 20.1398Z" fill="white"/>
<path d="M48.8322 22.0277C48.5175 22.0277 48.2028 21.9018 47.9511 21.6501L42.3497 16.0487C42.0979 15.797 41.972 15.5452 41.972 15.2305C41.972 14.9158 42.0979 14.6012 42.2867 14.4123C42.4755 14.2235 42.7902 14.0977 43.1049 14.0977C43.4196 14.0977 43.7343 14.2235 43.986 14.4753L49.5874 20.0767C50.028 20.5172 50.0909 21.2725 49.6503 21.713C49.4615 21.9019 49.1468 22.0277 48.8322 22.0277ZM43.1678 14.2865C42.9161 14.2865 42.6643 14.3494 42.5385 14.5382C42.3496 14.727 42.2867 14.9788 42.2867 15.2305C42.2867 15.4823 42.4126 15.734 42.6014 15.9228L48.2028 21.5242C48.3916 21.7131 48.6434 21.8389 48.8951 21.8389C49.1469 21.8389 49.3986 21.776 49.5245 21.5872C49.9021 21.2096 49.8392 20.6431 49.4615 20.2655L43.8602 14.6641C43.6713 14.4124 43.4196 14.2865 43.1678 14.2865Z" fill="#231F20"/>
<path d="M48.2028 14.4125C48.6434 13.9719 49.2728 13.9719 49.7133 14.3495C50.091 14.7272 50.0909 15.4195 49.6504 15.86L44.049 21.4614C43.6084 21.902 42.979 21.902 42.5385 21.5244C42.1609 21.1467 42.1609 20.4544 42.6014 20.0139L48.2028 14.4125Z" fill="white"/>
<path d="M43.2936 21.9018C42.9789 21.9018 42.7272 21.7759 42.4755 21.5871C42.2866 21.3983 42.1608 21.0836 42.1608 20.7689C42.1608 20.4542 42.2866 20.1395 42.5384 19.9507L48.1398 14.3493C48.3915 14.0976 48.7062 13.9717 49.0209 13.9717C49.3356 13.9717 49.5873 14.0976 49.8391 14.2864C50.2797 14.7269 50.2796 15.4822 49.7761 15.9227L44.1748 21.5241C43.923 21.7759 43.6083 21.9018 43.2936 21.9018ZM48.958 14.1605C48.7062 14.1605 48.4545 14.2864 48.2657 14.4752L42.6643 20.0766C42.4754 20.2654 42.3496 20.5171 42.3496 20.7689C42.3496 21.0206 42.4125 21.2724 42.6013 21.4612C42.7901 21.65 42.979 21.7129 43.2307 21.7129C43.4825 21.7129 43.7342 21.5871 43.923 21.3982L49.5244 15.7969C49.902 15.4192 49.902 14.7899 49.5873 14.4752C49.4615 14.2864 49.2097 14.1605 48.958 14.1605Z" fill="#231F20"/>
<path d="M43.2308 22.3427C44.065 22.3427 44.7412 21.6665 44.7412 20.8323C44.7412 19.998 44.065 19.3218 43.2308 19.3218C42.3966 19.3218 41.7203 19.998 41.7203 20.8323C41.7203 21.6665 42.3966 22.3427 43.2308 22.3427Z" fill="#231F20"/>
<path d="M48.958 13.6572C49.7762 13.6572 50.4685 14.3495 50.4685 15.1677C50.4685 15.9859 49.7762 16.6782 48.958 16.6782C48.1398 16.6782 47.4475 15.9859 47.4475 15.1677C47.4475 14.2866 48.1398 13.6572 48.958 13.6572Z" fill="#231F20"/>
<path d="M48.2028 14.4125C48.6434 13.9719 49.2728 13.9719 49.7133 14.3495C50.091 14.7272 50.0909 15.4195 49.6504 15.86L44.049 21.4614C43.6084 21.902 42.979 21.902 42.5385 21.5244C42.1609 21.1467 42.1609 20.4544 42.6014 20.0139L48.2028 14.4125Z" fill="white"/>
<path d="M43.2936 21.9018C42.9789 21.9018 42.7272 21.7759 42.4755 21.5871C42.2866 21.3983 42.1608 21.0836 42.1608 20.7689C42.1608 20.4542 42.2866 20.1395 42.5384 19.9507L48.1398 14.3493C48.3915 14.0976 48.7062 13.9717 49.0209 13.9717C49.3356 13.9717 49.5873 14.0976 49.8391 14.2864C50.2797 14.7269 50.2796 15.4822 49.7761 15.9227L44.1748 21.5241C43.923 21.7759 43.6083 21.9018 43.2936 21.9018ZM48.958 14.1605C48.7062 14.1605 48.4545 14.2864 48.2657 14.4752L42.6643 20.0766C42.4754 20.2654 42.3496 20.5171 42.3496 20.7689C42.3496 21.0206 42.4125 21.2724 42.6013 21.4612C42.7901 21.65 42.979 21.7129 43.2307 21.7129C43.4825 21.7129 43.7342 21.5871 43.923 21.3982L49.5244 15.7969C49.902 15.4192 49.902 14.7899 49.5873 14.4752C49.4615 14.2864 49.2097 14.1605 48.958 14.1605Z" fill="#231F20"/>
<path d="M33.4756 18C33.5385 18 33.6014 18.5664 33.7902 19.5105C33.9791 20.4545 34.2937 21.9021 35.1119 23.4126C35.4895 24.1678 36.056 24.986 36.6853 25.7412C37.3776 26.4965 38.1329 27.2518 39.0769 27.8811C39.5175 28.1958 40.021 28.5105 40.5874 28.7622C41.0909 29.014 41.6574 29.2657 42.2867 29.4545C42.8532 29.6434 43.4825 29.7692 44.1119 29.8951C44.7413 30.021 45.3707 30.021 46.063 30.021C46.6923 30.021 47.3846 29.958 48.014 29.8951C48.6434 29.7692 49.2728 29.6434 49.8392 29.4545C50.4056 29.2657 50.972 29.014 51.5385 28.7622C52.1049 28.5105 52.5455 28.1958 53.049 27.8811C53.993 27.2518 54.8112 26.4965 55.4406 25.7412C56.1329 24.986 56.6364 24.1678 57.014 23.4126C57.8322 21.9021 58.1469 20.4545 58.3357 19.5105C58.5245 18.5664 58.5245 18 58.6504 18C58.7133 18 58.7762 18.5664 58.7133 19.5734C58.6504 20.5804 58.3986 22.0909 57.6434 23.7273C57.2657 24.5455 56.7622 25.4266 56.0699 26.3077C55.3776 27.1259 54.5594 27.9441 53.5525 28.6993C53.049 29.0769 52.5455 29.3916 51.979 29.7063C51.4126 30.021 50.7832 30.2727 50.1539 30.4615C49.5245 30.6503 48.8322 30.8392 48.2028 30.965C47.5105 31.0909 46.8182 31.1538 46.1259 31.1538C45.4336 31.1538 44.7413 31.0909 44.049 30.965C43.3567 30.8392 42.7273 30.7133 42.0979 30.4615C41.4685 30.2727 40.8392 30.021 40.2728 29.7063C39.7063 29.3916 39.1399 29.0769 38.6993 28.6993C37.6923 28.007 36.8741 27.1888 36.1818 26.3077C35.4895 25.4895 34.986 24.6084 34.6084 23.7273C33.8532 22.028 33.6014 20.5804 33.5385 19.5734C33.2867 18.5664 33.4126 18 33.4756 18Z" fill="white"/>
<path d="M61.7971 18C61.7342 18 61.6713 17.3076 61.4825 16.1118C61.2936 14.916 60.8531 13.1538 59.8461 11.2028C59.3426 10.2587 58.6503 9.18877 57.8321 8.24472C57.0139 7.30066 56.0069 6.29367 54.8111 5.53843C54.2447 5.16081 53.6153 4.72024 52.923 4.40555C52.2307 4.09087 51.5384 3.77618 50.7832 3.52444C50.0279 3.27269 49.2727 3.08388 48.4545 2.95801C47.6363 2.83213 46.8181 2.76918 45.9999 2.76918C45.1817 2.76918 44.3636 2.83213 43.5454 2.95801C42.7272 3.08388 41.972 3.27269 41.2167 3.52444C40.4615 3.77618 39.7691 4.09087 39.0768 4.40555C38.3845 4.72024 37.7552 5.09787 37.1887 5.53843C35.9929 6.35661 34.9859 7.30066 34.1678 8.24472C33.3496 9.25171 32.6573 10.2587 32.1538 11.2028C31.1468 13.1538 30.7062 14.916 30.5174 16.1118C30.3286 17.3076 30.2657 18.0629 30.2027 18C30.1398 18 30.1398 17.8112 30.1398 17.4965C30.1398 17.3077 30.1398 17.1188 30.1398 16.8671C30.1398 16.6153 30.1398 16.3636 30.2027 16.0489C30.3286 14.7902 30.6433 12.965 31.5874 10.8251C32.0908 9.81814 32.7202 8.68528 33.6013 7.67829C34.4824 6.60836 35.4894 5.60136 36.7482 4.72024C37.3775 4.27968 38.0069 3.83912 38.7622 3.52444C39.4545 3.14681 40.2097 2.83213 41.0279 2.58038C41.8461 2.32863 42.6643 2.07688 43.4824 1.95101C44.3006 1.82514 45.1818 1.76221 46.0629 1.76221C46.944 1.76221 47.8251 1.82514 48.6433 1.95101C49.4615 2.07688 50.3426 2.32863 51.0978 2.58038C51.916 2.83213 52.6712 3.14681 53.3636 3.52444C54.0559 3.90206 54.7482 4.27968 55.3776 4.72024C56.6363 5.60136 57.6433 6.60836 58.5244 7.67829C59.3426 8.74822 60.0349 9.81814 60.5384 10.8251C61.5454 12.9021 61.86 14.7902 61.923 16.0489C61.9859 16.3636 61.9859 16.6783 61.9859 16.8671C61.9859 17.1188 61.9859 17.3077 61.9859 17.4965C61.8601 17.8112 61.8601 18 61.7971 18Z" fill="white"/>
<path d="M53.7412 10.8254C53.7412 10.8254 53.5524 10.6995 53.2377 10.3848C53.1748 10.3219 53.049 10.2589 52.986 10.133C52.8601 10.0701 52.7972 9.94424 52.6713 9.8813C52.4196 9.69249 52.1678 9.50368 51.7902 9.31487C51.6014 9.189 51.4755 9.12606 51.2867 9.00018C51.0979 8.87431 50.9091 8.81137 50.7203 8.6855C50.3426 8.43375 49.8392 8.30786 49.3986 8.11905C48.4545 7.80436 47.3217 7.61556 46.1259 7.61556C44.9301 7.61556 43.8601 7.80436 42.8531 8.11905C42.3496 8.30786 41.9091 8.43375 41.5315 8.6855C41.3427 8.81137 41.1538 8.87431 40.965 9.00018C40.7762 9.12606 40.5874 9.189 40.4615 9.31487C40.1468 9.50368 39.8321 9.75542 39.5804 9.8813C39.4545 9.94424 39.3286 10.0701 39.2657 10.133C39.1398 10.196 39.0769 10.3219 39.014 10.3848C38.6993 10.6995 38.5105 10.8254 38.5105 10.8254C38.5105 10.8254 38.6363 10.6365 38.951 10.3218C39.014 10.2589 39.1399 10.133 39.2028 10.0701C39.3287 10.0072 39.3916 9.8813 39.5175 9.81836C39.7692 9.62955 40.021 9.3778 40.3356 9.18899C40.5245 9.06311 40.6503 8.93724 40.8391 8.8743C41.0279 8.74843 41.2168 8.68549 41.4056 8.55962C41.7832 8.30787 42.2867 8.182 42.7902 7.99319C43.7972 7.6785 44.9301 7.48969 46.1259 7.42676C47.3217 7.42676 48.4545 7.6785 49.4615 7.99319C49.965 8.182 50.4056 8.37081 50.8461 8.55962C51.035 8.68549 51.2238 8.74843 51.4126 8.8743C51.6014 9.00018 51.7902 9.12605 51.9161 9.18899C52.2308 9.3778 52.5454 9.62955 52.7343 9.81836C52.8601 9.94423 52.986 10.0072 53.0489 10.0701C53.1119 10.196 53.2378 10.2589 53.3007 10.3218C53.5525 10.6365 53.7412 10.8254 53.7412 10.8254Z" fill="white"/>
<path d="M38.3846 25.3008C38.3846 25.3008 38.5734 25.4266 38.8881 25.7413C38.951 25.8043 39.0769 25.8672 39.1399 25.9931C39.2657 26.056 39.3287 26.1819 39.4546 26.2448C39.7063 26.4336 39.958 26.6225 40.3357 26.8113C40.5245 26.9371 40.6503 27.0001 40.8391 27.126C41.028 27.2518 41.2168 27.3148 41.4056 27.4406C41.7832 27.6924 42.2867 27.8183 42.7273 28.0071C43.6713 28.3218 44.8042 28.5106 46 28.5106C47.1958 28.5106 48.2657 28.3218 49.2727 28.0071C49.7762 27.8183 50.2168 27.6924 50.5944 27.4406C50.7832 27.3148 50.972 27.2518 51.1608 27.126C51.3496 27.0001 51.5384 26.9371 51.6643 26.8113C51.979 26.6225 52.2937 26.3707 52.5455 26.2448C52.6713 26.1819 52.7972 26.056 52.8601 25.9931C52.986 25.9302 53.0489 25.8043 53.1119 25.7413C53.4265 25.4266 53.6154 25.3008 53.6154 25.3008C53.6154 25.3008 53.4895 25.4896 53.1748 25.8043C53.1119 25.8672 52.986 25.9931 52.9231 26.056C52.7972 26.119 52.7342 26.2448 52.6084 26.3078C52.3566 26.4966 52.1049 26.7483 51.7902 26.9371C51.6014 27.063 51.4755 27.1889 51.2867 27.2518C51.0979 27.3777 50.9091 27.4406 50.7203 27.5665C50.3426 27.8183 49.8391 27.9441 49.3356 28.1329C48.3286 28.4476 47.1958 28.6364 46 28.6994C44.8042 28.6994 43.6713 28.4476 42.6643 28.1329C42.1608 27.9441 41.7203 27.7553 41.2797 27.5665C41.0909 27.4406 40.9021 27.3777 40.7133 27.2518C40.5245 27.126 40.3356 27.0001 40.2098 26.9371C39.8951 26.7483 39.5804 26.4966 39.3916 26.3078C39.2657 26.1819 39.1398 26.119 39.0769 26.056C39.014 25.9301 38.8881 25.8672 38.8252 25.8043C38.5105 25.4896 38.3217 25.3008 38.3846 25.3008Z" fill="white"/>
<path d="M24.0752 115.166C33.4689 115.166 41.084 107.404 41.084 97.8286C41.084 88.2534 33.4689 80.4912 24.0752 80.4912C14.6815 80.4912 7.06647 88.2534 7.06647 97.8286C7.06647 107.404 14.6815 115.166 24.0752 115.166Z" fill="#5E5356"/>
<path d="M23.4998 74.1646C10.5995 74.1646 0.164185 84.5999 0.164185 97.5002C0.164185 110.401 10.5995 120.836 23.4998 120.836C36.4002 120.836 46.8355 110.401 46.8355 97.5002C46.9177 84.5999 36.4002 74.1646 23.4998 74.1646ZM23.4998 110.565C16.269 110.565 10.4352 104.731 10.4352 97.5002C10.4352 90.2694 16.269 84.3534 23.4998 84.3534C30.7306 84.3534 36.5645 90.1873 36.5645 97.418C36.5645 104.649 30.7306 110.565 23.4998 110.565Z" fill="#231F20"/>
<path d="M23.5 121C10.5175 121 0 110.483 0 97.5C0 84.5175 10.5175 74 23.5 74C36.4825 74 47 84.5175 47 97.5C47 110.483 36.4825 121 23.5 121ZM23.5 74.2465C10.6818 74.2465 0.328641 84.6818 0.328641 97.4178C0.328641 110.236 10.764 120.589 23.5 120.589C36.3182 120.589 46.6713 110.154 46.6713 97.4178C46.7535 84.6818 36.3182 74.2465 23.5 74.2465Z" fill="#231F20"/>
<path d="M28.1009 100.293C28.6761 100.868 28.676 101.69 28.183 102.265C27.69 102.758 26.7862 102.758 26.211 102.183L18.8981 94.8702C18.3229 94.295 18.3229 93.4733 18.8159 92.8982C19.3089 92.4052 20.2127 92.4052 20.7879 92.9803L28.1009 100.293Z" fill="white"/>
<path d="M27.1974 102.758C26.7865 102.758 26.3757 102.594 26.047 102.265L18.7341 94.9525C18.4054 94.6238 18.2411 94.2951 18.2411 93.8843C18.2411 93.4735 18.4054 93.0626 18.6519 92.8161C18.8984 92.5696 19.3093 92.4053 19.7201 92.4053C20.1309 92.4053 20.5417 92.5696 20.8704 92.8983L28.1834 100.211C28.7585 100.786 28.8407 101.772 28.2655 102.348C28.019 102.594 27.6082 102.758 27.1974 102.758ZM19.8022 92.6518C19.4736 92.6518 19.1449 92.734 18.9806 92.9805C18.7341 93.227 18.6519 93.5556 18.6519 93.8843C18.6519 94.213 18.8163 94.5417 19.0628 94.7882L26.3757 102.101C26.6222 102.348 26.9509 102.512 27.2795 102.512C27.6082 102.512 27.9369 102.43 28.1012 102.183C28.5942 101.69 28.512 100.951 28.019 100.458L20.7061 93.1448C20.4596 92.8161 20.1309 92.6518 19.8022 92.6518Z" fill="#231F20"/>
<path d="M19.7201 95.7746C20.8092 95.7746 21.6921 94.8917 21.6921 93.8026C21.6921 92.7135 20.8092 91.8306 19.7201 91.8306C18.631 91.8306 17.748 92.7135 17.748 93.8026C17.748 94.8917 18.631 95.7746 19.7201 95.7746Z" fill="#231F20"/>
<path d="M29.0871 101.28C29.0871 102.348 28.1833 103.252 27.1151 103.252C26.0469 103.252 25.1431 102.348 25.1431 101.28C25.1431 100.211 26.0469 99.3076 27.1151 99.3076C28.2655 99.3076 29.0871 100.211 29.0871 101.28Z" fill="#231F20"/>
<path d="M28.1009 100.293C28.6761 100.868 28.676 101.69 28.183 102.265C27.69 102.758 26.7862 102.758 26.211 102.183L18.8981 94.8702C18.3229 94.295 18.3229 93.4733 18.8159 92.8982C19.3089 92.4052 20.2127 92.4052 20.7879 92.9803L28.1009 100.293Z" fill="white"/>
<path d="M27.1974 102.758C26.7865 102.758 26.3757 102.594 26.047 102.265L18.7341 94.9525C18.4054 94.6238 18.2411 94.2951 18.2411 93.8843C18.2411 93.4735 18.4054 93.0626 18.6519 92.8161C18.8984 92.5696 19.3093 92.4053 19.7201 92.4053C20.1309 92.4053 20.5417 92.5696 20.8704 92.8983L28.1834 100.211C28.7585 100.786 28.8407 101.772 28.2655 102.348C28.019 102.594 27.6082 102.758 27.1974 102.758ZM19.8022 92.6518C19.4736 92.6518 19.1449 92.734 18.9806 92.9805C18.7341 93.227 18.6519 93.5556 18.6519 93.8843C18.6519 94.213 18.8163 94.5417 19.0628 94.7882L26.3757 102.101C26.6222 102.348 26.9509 102.512 27.2795 102.512C27.6082 102.512 27.9369 102.43 28.1012 102.183C28.5942 101.69 28.512 100.951 28.019 100.458L20.7061 93.1448C20.4596 92.8161 20.1309 92.6518 19.8022 92.6518Z" fill="#231F20"/>
<path d="M26.3755 92.8163C26.9507 92.2411 27.7724 92.2411 28.3476 92.7341C28.8406 93.2271 28.8406 94.131 28.2654 94.7061L20.9525 102.019C20.3773 102.594 19.5556 102.594 18.9804 102.101C18.4874 101.608 18.4874 100.704 19.0626 100.129L26.3755 92.8163Z" fill="white"/>
<path d="M19.9665 102.594C19.5557 102.594 19.227 102.43 18.8983 102.184C18.6518 101.937 18.4875 101.526 18.4875 101.115C18.4875 100.704 18.6518 100.294 18.9805 100.047L26.2934 92.7342C26.6221 92.4056 27.0329 92.2412 27.4437 92.2412C27.8546 92.2412 28.1833 92.4055 28.512 92.652C29.0871 93.2272 29.0871 94.2132 28.4298 94.7884L21.1169 102.101C20.7882 102.43 20.3773 102.594 19.9665 102.594ZM27.3616 92.4877C27.0329 92.4877 26.7043 92.652 26.4578 92.8985L19.1448 100.211C18.8983 100.458 18.734 100.787 18.734 101.115C18.734 101.444 18.8162 101.773 19.0627 102.019C19.3092 102.266 19.5557 102.348 19.8844 102.348C20.213 102.348 20.5417 102.184 20.7882 101.937L28.1011 94.6241C28.5941 94.1311 28.5941 93.3094 28.1833 92.8985C28.0189 92.652 27.6903 92.4877 27.3616 92.4877Z" fill="#231F20"/>
<path d="M19.8845 103.17C20.9736 103.17 21.8565 102.287 21.8565 101.198C21.8565 100.108 20.9736 99.2256 19.8845 99.2256C18.7954 99.2256 17.9125 100.108 17.9125 101.198C17.9125 102.287 18.7954 103.17 19.8845 103.17Z" fill="#231F20"/>
<path d="M27.3615 91.8301C28.4297 91.8301 29.3336 92.7339 29.3336 93.8021C29.3336 94.8703 28.4297 95.7741 27.3615 95.7741C26.2933 95.7741 25.3895 94.8703 25.3895 93.8021C25.3895 92.6518 26.2933 91.8301 27.3615 91.8301Z" fill="#231F20"/>
<path d="M26.3755 92.8163C26.9507 92.2411 27.7724 92.2411 28.3476 92.7341C28.8406 93.2271 28.8406 94.131 28.2654 94.7061L20.9525 102.019C20.3773 102.594 19.5556 102.594 18.9804 102.101C18.4874 101.608 18.4874 100.704 19.0626 100.129L26.3755 92.8163Z" fill="white"/>
<path d="M19.9665 102.594C19.5557 102.594 19.227 102.43 18.8983 102.184C18.6518 101.937 18.4875 101.526 18.4875 101.115C18.4875 100.704 18.6518 100.294 18.9805 100.047L26.2934 92.7342C26.6221 92.4056 27.0329 92.2412 27.4437 92.2412C27.8546 92.2412 28.1833 92.4055 28.512 92.652C29.0871 93.2272 29.0871 94.2132 28.4298 94.7884L21.1169 102.101C20.7882 102.43 20.3773 102.594 19.9665 102.594ZM27.3616 92.4877C27.0329 92.4877 26.7043 92.652 26.4578 92.8985L19.1448 100.211C18.8983 100.458 18.734 100.787 18.734 101.115C18.734 101.444 18.8162 101.773 19.0627 102.019C19.3092 102.266 19.5557 102.348 19.8844 102.348C20.213 102.348 20.5417 102.184 20.7882 101.937L28.1011 94.6241C28.5941 94.1311 28.5941 93.3094 28.1833 92.8985C28.0189 92.652 27.6903 92.4877 27.3616 92.4877Z" fill="#231F20"/>
<path d="M7.14871 97.5C7.23088 97.5 7.31304 98.2395 7.55955 99.472C7.80605 100.705 8.21687 102.594 9.28505 104.566C9.77806 105.552 10.5176 106.621 11.3392 107.607C12.2431 108.593 13.2291 109.579 14.4616 110.4C15.0368 110.811 15.6942 111.222 16.4337 111.551C17.091 111.879 17.8305 112.208 18.6522 112.455C19.3917 112.701 20.2134 112.865 21.035 113.03C21.8567 113.194 22.6784 113.194 23.5823 113.194C24.4039 113.194 25.3078 113.112 26.1295 113.03C26.9511 112.865 27.7728 112.701 28.5123 112.455C29.2519 112.208 29.9913 111.879 30.7308 111.551C31.4703 111.222 32.0455 110.811 32.7029 110.4C33.9354 109.579 35.0036 108.593 35.8252 107.607C36.7291 106.621 37.3864 105.552 37.8794 104.566C38.9476 102.594 39.3585 100.705 39.605 99.472C39.8515 98.2395 39.8515 97.5 40.0158 97.5C40.098 97.5 40.1801 98.2395 40.098 99.5542C40.0158 100.869 39.6871 102.841 38.7011 104.977C38.2081 106.045 37.5508 107.196 36.6469 108.346C35.7431 109.414 34.6749 110.483 33.3602 111.469C32.7029 111.962 32.0455 112.372 31.306 112.783C30.5665 113.194 29.7449 113.523 28.9232 113.769C28.1015 114.016 27.1976 114.262 26.3759 114.427C25.4721 114.591 24.5683 114.673 23.6644 114.673C22.7606 114.673 21.8567 114.591 20.9529 114.427C20.049 114.262 19.2273 114.098 18.4057 113.769C17.584 113.523 16.7623 113.194 16.0228 112.783C15.2833 112.372 14.5438 111.962 13.9686 111.469C12.6539 110.565 11.5858 109.497 10.6819 108.346C9.77807 107.278 9.12073 106.128 8.62772 104.977C7.64171 102.759 7.31302 100.869 7.23086 99.5542C6.90218 98.2395 7.06654 97.5 7.14871 97.5Z" fill="white"/>
<path d="M44.1242 97.5001C44.042 97.5001 43.9599 96.5962 43.7134 95.035C43.4669 93.4738 42.8917 91.1732 41.577 88.626C40.9196 87.3934 40.0158 85.9966 38.9476 84.7641C37.8794 83.5315 36.5647 82.2169 35.0036 81.2308C34.264 80.7378 33.4424 80.1627 32.5385 79.7518C31.6347 79.341 30.7309 78.9301 29.7448 78.6015C28.7588 78.2728 27.7728 78.0263 26.7046 77.862C25.6364 77.6976 24.5682 77.6154 23.5001 77.6154C22.4319 77.6154 21.3637 77.6976 20.2955 77.862C19.2274 78.0263 18.2413 78.2728 17.2553 78.6015C16.2693 78.9301 15.3654 79.341 14.4616 79.7518C13.5578 80.1627 12.7361 80.6557 11.9966 81.2308C10.4354 82.299 9.1207 83.5315 8.05252 84.7641C6.98434 86.0787 6.08048 87.3934 5.42314 88.626C4.10846 91.1732 3.5333 93.4738 3.2868 95.035C3.0403 96.5962 2.95813 97.5822 2.87596 97.5001C2.79379 97.5001 2.79376 97.2536 2.79376 96.8427C2.79376 96.5962 2.79376 96.3497 2.79376 96.0211C2.79376 95.6924 2.79379 95.3637 2.87596 94.9529C3.0403 93.3095 3.45114 90.9266 4.68366 88.1329C5.341 86.8183 6.16264 85.3392 7.31299 84.0246C8.46334 82.6277 9.77803 81.313 11.4214 80.1627C12.2431 79.5875 13.0647 79.0123 14.0508 78.6015C14.9546 78.1085 15.9407 77.6976 17.0088 77.369C18.077 77.0403 19.1452 76.7116 20.2133 76.5473C21.2815 76.3829 22.4319 76.3008 23.5823 76.3008C24.7326 76.3008 25.8829 76.3829 26.9511 76.5473C28.0193 76.7116 29.1697 77.0403 30.1557 77.369C31.2239 77.6976 32.2099 78.1085 33.1137 78.6015C34.0176 79.0945 34.9214 79.5875 35.7431 80.1627C37.3864 81.313 38.7011 82.6277 39.8515 84.0246C40.9197 85.4214 41.8235 86.8183 42.4809 88.1329C43.7955 90.8445 44.2063 93.3095 44.2885 94.9529C44.3707 95.3637 44.3707 95.7746 44.3707 96.0211C44.3707 96.3497 44.3707 96.5962 44.3707 96.8427C44.2064 97.2536 44.2064 97.5001 44.1242 97.5001Z" fill="white"/>
<path d="M33.6066 88.1329C33.6066 88.1329 33.3601 87.9685 32.9493 87.5577C32.8671 87.4755 32.7028 87.3933 32.6206 87.229C32.4563 87.1468 32.3741 86.9825 32.2098 86.9003C31.8811 86.6538 31.5524 86.4073 31.0594 86.1608C30.8129 85.9965 30.6486 85.9143 30.4021 85.75C30.1556 85.5857 29.9091 85.5035 29.6626 85.3392C29.1696 85.0105 28.5122 84.8461 27.9371 84.5996C26.7046 84.1888 25.2255 83.9423 23.6643 83.9423C22.1031 83.9423 20.7063 84.1888 19.3916 84.5996C18.7343 84.8461 18.1591 85.0105 17.6661 85.3392C17.4196 85.5035 17.1731 85.5857 16.9266 85.75C16.6801 85.9143 16.4336 85.9965 16.2692 86.1608C15.8584 86.4073 15.4475 86.736 15.1189 86.9003C14.9545 86.9825 14.7902 87.1468 14.708 87.229C14.5437 87.3112 14.4615 87.4755 14.3794 87.5577C13.9685 87.9685 13.722 88.1329 13.722 88.1329C13.722 88.1329 13.8863 87.8863 14.2972 87.4755C14.3793 87.3933 14.5437 87.229 14.6259 87.1468C14.7902 87.0647 14.8724 86.9003 15.0367 86.8182C15.3654 86.5717 15.694 86.243 16.1049 85.9965C16.3514 85.8322 16.5157 85.6678 16.7622 85.5857C17.0087 85.4213 17.2552 85.3391 17.5017 85.1748C17.9948 84.8461 18.6521 84.6818 19.3094 84.4353C20.6241 84.0245 22.1031 83.778 23.6643 83.6958C25.2255 83.6958 26.7045 84.0245 28.0192 84.4353C28.6766 84.6818 29.2517 84.9283 29.8269 85.1748C30.0734 85.3391 30.3199 85.4213 30.5664 85.5857C30.813 85.75 31.0594 85.9143 31.2238 85.9965C31.6346 86.243 32.0454 86.5717 32.292 86.8182C32.4563 86.9825 32.6206 87.0647 32.7028 87.1468C32.785 87.3112 32.9493 87.3933 33.0315 87.4755C33.3602 87.8863 33.6066 88.1329 33.6066 88.1329Z" fill="white"/>
<path d="M13.5577 107.032C13.5577 107.032 13.8042 107.196 14.215 107.607C14.2972 107.689 14.4615 107.771 14.5437 107.936C14.708 108.018 14.7902 108.182 14.9545 108.264C15.2832 108.511 15.6118 108.757 16.1049 109.004C16.3514 109.168 16.5157 109.25 16.7622 109.415C17.0087 109.579 17.2552 109.661 17.5017 109.825C17.9947 110.154 18.652 110.318 19.2272 110.565C20.4597 110.976 21.9388 111.222 23.5 111.222C25.0611 111.222 26.458 110.976 27.7727 110.565C28.43 110.318 29.0052 110.154 29.4982 109.825C29.7447 109.661 29.9912 109.579 30.2377 109.415C30.4842 109.25 30.7307 109.168 30.8951 109.004C31.3059 108.757 31.7168 108.429 32.0454 108.264C32.2098 108.182 32.3741 108.018 32.4563 107.936C32.6206 107.853 32.7027 107.689 32.7849 107.607C33.1958 107.196 33.4423 107.032 33.4423 107.032C33.4423 107.032 33.278 107.278 32.8671 107.689C32.7849 107.771 32.6206 107.936 32.5384 108.018C32.3741 108.1 32.2919 108.264 32.1276 108.346C31.7989 108.593 31.4702 108.922 31.0594 109.168C30.8129 109.332 30.6486 109.497 30.4021 109.579C30.1556 109.743 29.909 109.825 29.6625 109.99C29.1695 110.318 28.5122 110.483 27.8548 110.729C26.5402 111.14 25.0611 111.387 23.5 111.469C21.9388 111.469 20.4598 111.14 19.1451 110.729C18.4877 110.483 17.9125 110.236 17.3374 109.99C17.0909 109.825 16.8444 109.743 16.5979 109.579C16.3514 109.415 16.1048 109.25 15.9405 109.168C15.5297 108.922 15.1188 108.593 14.8723 108.346C14.708 108.182 14.5437 108.1 14.4615 108.018C14.3793 107.853 14.215 107.771 14.1329 107.689C13.722 107.278 13.4755 107.032 13.5577 107.032Z" fill="white"/>
<path d="M42.2692 69.2693C46.6663 69.2693 50.2308 65.636 50.2308 61.154C50.2308 56.672 46.6663 53.0386 42.2692 53.0386C37.8722 53.0386 34.3077 56.672 34.3077 61.154C34.3077 65.636 37.8722 69.2693 42.2692 69.2693Z" fill="white"/>
<path d="M41.9998 50.0771C35.9614 50.0771 31.0768 54.9618 31.0768 61.0002C31.0768 67.0387 35.9614 71.9233 41.9998 71.9233C48.0383 71.9233 52.9229 67.0387 52.9229 61.0002C52.9614 54.9618 48.0383 50.0771 41.9998 50.0771ZM41.9998 67.1156C38.6152 67.1156 35.8845 64.3848 35.8845 61.0002C35.8845 57.6156 38.6152 54.8464 41.9998 54.8464C45.3845 54.8464 48.1152 57.5771 48.1152 60.9618C48.1152 64.3464 45.3845 67.1156 41.9998 67.1156Z" fill="#5E5356"/>
<path d="M42 72C35.9231 72 31 67.0769 31 61C31 54.9231 35.9231 50 42 50C48.0769 50 53 54.9231 53 61C53 67.0769 48.0769 72 42 72ZM42 50.1154C36 50.1154 31.1538 55 31.1538 60.9615C31.1538 66.9615 36.0385 71.8077 42 71.8077C48 71.8077 52.8461 66.9231 52.8461 60.9615C52.8846 55 48 50.1154 42 50.1154Z" fill="#5E5356"/>
<path d="M44.1539 62.3073C44.4231 62.5766 44.4231 62.9612 44.1923 63.2304C43.9616 63.4612 43.5385 63.4612 43.2692 63.192L39.8462 59.7689C39.5769 59.4996 39.5769 59.115 39.8077 58.8458C40.0385 58.615 40.4616 58.615 40.7308 58.8843L44.1539 62.3073Z" fill="#5E5356"/>
<path d="M43.7307 63.4614C43.5384 63.4614 43.3461 63.3845 43.1923 63.2306L39.7692 59.8075C39.6154 59.6537 39.5385 59.4999 39.5385 59.3075C39.5385 59.1152 39.6154 58.9229 39.7308 58.8075C39.8461 58.6922 40.0384 58.6152 40.2308 58.6152C40.4231 58.6152 40.6154 58.6922 40.7692 58.846L44.1923 62.2691C44.4615 62.5383 44.5 62.9999 44.2307 63.2691C44.1154 63.3845 43.9231 63.4614 43.7307 63.4614ZM40.2692 58.7306C40.1154 58.7306 39.9615 58.7691 39.8846 58.8845C39.7692 58.9999 39.7308 59.1537 39.7308 59.3075C39.7308 59.4614 39.8077 59.6152 39.9231 59.7306L43.3461 63.1537C43.4615 63.2691 43.6154 63.346 43.7692 63.346C43.9231 63.346 44.0769 63.3076 44.1538 63.1922C44.3846 62.9614 44.3461 62.6152 44.1154 62.3845L40.6923 58.9614C40.5769 58.8076 40.4231 58.7306 40.2692 58.7306Z" fill="#5E5356"/>
<path d="M40.2307 60.1923C40.7405 60.1923 41.1538 59.7791 41.1538 59.2693C41.1538 58.7595 40.7405 58.3462 40.2307 58.3462C39.7209 58.3462 39.3076 58.7595 39.3076 59.2693C39.3076 59.7791 39.7209 60.1923 40.2307 60.1923Z" fill="#5E5356"/>
<path d="M44.6153 62.7693C44.6153 63.2693 44.1922 63.6923 43.6922 63.6923C43.1922 63.6923 42.7691 63.2693 42.7691 62.7693C42.7691 62.2693 43.1922 61.8462 43.6922 61.8462C44.2307 61.8462 44.6153 62.2693 44.6153 62.7693Z" fill="#5E5356"/>
<path d="M44.1539 62.3073C44.4231 62.5766 44.4231 62.9612 44.1923 63.2304C43.9616 63.4612 43.5385 63.4612 43.2692 63.192L39.8462 59.7689C39.5769 59.4996 39.5769 59.115 39.8077 58.8458C40.0385 58.615 40.4616 58.615 40.7308 58.8843L44.1539 62.3073Z" fill="#5E5356"/>
<path d="M43.7307 63.4614C43.5384 63.4614 43.3461 63.3845 43.1923 63.2306L39.7692 59.8075C39.6154 59.6537 39.5385 59.4999 39.5385 59.3075C39.5385 59.1152 39.6154 58.9229 39.7308 58.8075C39.8461 58.6922 40.0384 58.6152 40.2308 58.6152C40.4231 58.6152 40.6154 58.6922 40.7692 58.846L44.1923 62.2691C44.4615 62.5383 44.5 62.9999 44.2307 63.2691C44.1154 63.3845 43.9231 63.4614 43.7307 63.4614ZM40.2692 58.7306C40.1154 58.7306 39.9615 58.7691 39.8846 58.8845C39.7692 58.9999 39.7308 59.1537 39.7308 59.3075C39.7308 59.4614 39.8077 59.6152 39.9231 59.7306L43.3461 63.1537C43.4615 63.2691 43.6154 63.346 43.7692 63.346C43.9231 63.346 44.0769 63.3076 44.1538 63.1922C44.3846 62.9614 44.3461 62.6152 44.1154 62.3845L40.6923 58.9614C40.5769 58.8076 40.4231 58.7306 40.2692 58.7306Z" fill="#5E5356"/>
<path d="M43.346 58.8076C43.6152 58.5384 43.9998 58.5384 44.269 58.7691C44.4998 58.9999 44.4998 59.423 44.2306 59.6922L40.8075 63.1153C40.5383 63.3845 40.1537 63.3845 39.8844 63.1537C39.6537 62.923 39.6537 62.4999 39.9229 62.2307L43.346 58.8076Z" fill="#5E5356"/>
<path d="M40.3461 63.3847C40.1537 63.3847 39.9999 63.3078 39.8461 63.1924C39.7307 63.077 39.6537 62.8847 39.6537 62.6924C39.6537 62.5001 39.7307 62.3078 39.8845 62.1924L43.3076 58.7693C43.4614 58.6155 43.6537 58.5386 43.846 58.5386C44.0383 58.5386 44.1922 58.6155 44.3461 58.7309C44.6153 59.0001 44.6153 59.4617 44.3076 59.7309L40.8845 63.154C40.7307 63.3078 40.5384 63.3847 40.3461 63.3847ZM43.8076 58.654C43.6537 58.654 43.4999 58.7309 43.3845 58.8463L39.9614 62.2693C39.8461 62.3847 39.7691 62.5386 39.7691 62.6924C39.7691 62.8463 39.8076 63.0001 39.923 63.1155C40.0384 63.2309 40.1538 63.2693 40.3076 63.2693C40.4614 63.2693 40.6153 63.1924 40.7307 63.077L44.1538 59.654C44.3845 59.4232 44.3845 59.0386 44.1922 58.8463C44.1153 58.7309 43.9614 58.654 43.8076 58.654Z" fill="#5E5356"/>
<path d="M40.3077 63.6538C40.8175 63.6538 41.2308 63.2405 41.2308 62.7307C41.2308 62.2209 40.8175 61.8076 40.3077 61.8076C39.7979 61.8076 39.3846 62.2209 39.3846 62.7307C39.3846 63.2405 39.7979 63.6538 40.3077 63.6538Z" fill="#5E5356"/>
<path d="M43.8075 58.3462C44.3075 58.3462 44.7306 58.7693 44.7306 59.2693C44.7306 59.7693 44.3075 60.1923 43.8075 60.1923C43.3075 60.1923 42.8844 59.7693 42.8844 59.2693C42.8844 58.7308 43.3075 58.3462 43.8075 58.3462Z" fill="#5E5356"/>
<path d="M43.346 58.8076C43.6152 58.5384 43.9998 58.5384 44.269 58.7691C44.4998 58.9999 44.4998 59.423 44.2306 59.6922L40.8075 63.1153C40.5383 63.3845 40.1537 63.3845 39.8844 63.1537C39.6537 62.923 39.6537 62.4999 39.9229 62.2307L43.346 58.8076Z" fill="#5E5356"/>
<path d="M40.3461 63.3847C40.1537 63.3847 39.9999 63.3078 39.8461 63.1924C39.7307 63.077 39.6537 62.8847 39.6537 62.6924C39.6537 62.5001 39.7307 62.3078 39.8845 62.1924L43.3076 58.7693C43.4614 58.6155 43.6537 58.5386 43.846 58.5386C44.0383 58.5386 44.1922 58.6155 44.3461 58.7309C44.6153 59.0001 44.6153 59.4617 44.3076 59.7309L40.8845 63.154C40.7307 63.3078 40.5384 63.3847 40.3461 63.3847ZM43.8076 58.654C43.6537 58.654 43.4999 58.7309 43.3845 58.8463L39.9614 62.2693C39.8461 62.3847 39.7691 62.5386 39.7691 62.6924C39.7691 62.8463 39.8076 63.0001 39.923 63.1155C40.0384 63.2309 40.1538 63.2693 40.3076 63.2693C40.4614 63.2693 40.6153 63.1924 40.7307 63.077L44.1538 59.654C44.3845 59.4232 44.3845 59.0386 44.1922 58.8463C44.1153 58.7309 43.9614 58.654 43.8076 58.654Z" fill="#5E5356"/>
<path d="M34.3462 61C34.3846 61 34.4231 61.3462 34.5385 61.9231C34.6539 62.5 34.8462 63.3846 35.3462 64.3077C35.5769 64.7692 35.9231 65.2692 36.3077 65.7308C36.7308 66.1923 37.1923 66.6538 37.7692 67.0385C38.0385 67.2308 38.3462 67.4231 38.6923 67.5769C39 67.7308 39.3462 67.8846 39.7308 68C40.077 68.1154 40.4616 68.1923 40.8462 68.2692C41.2308 68.3461 41.6154 68.3462 42.0385 68.3462C42.4231 68.3462 42.8462 68.3077 43.2308 68.2692C43.6154 68.1923 44 68.1154 44.3462 68C44.6923 67.8846 45.0385 67.7308 45.3846 67.5769C45.7308 67.4231 46 67.2308 46.3077 67.0385C46.8846 66.6538 47.3846 66.1923 47.7692 65.7308C48.1923 65.2692 48.5 64.7692 48.7308 64.3077C49.2308 63.3846 49.4231 62.5 49.5385 61.9231C49.6539 61.3462 49.6539 61 49.7308 61C49.7693 61 49.8077 61.3462 49.7692 61.9615C49.7308 62.5769 49.5769 63.5 49.1154 64.5C48.8846 65 48.5769 65.5385 48.1539 66.0769C47.7308 66.5769 47.2308 67.0769 46.6154 67.5385C46.3077 67.7692 46 67.9615 45.6539 68.1538C45.3077 68.3462 44.9231 68.5 44.5385 68.6154C44.1539 68.7308 43.7308 68.8462 43.3462 68.9231C42.9231 69 42.5 69.0385 42.0769 69.0385C41.6539 69.0385 41.2308 69 40.8077 68.9231C40.3846 68.8462 40 68.7692 39.6154 68.6154C39.2308 68.5 38.8462 68.3462 38.5 68.1538C38.1539 67.9615 37.8077 67.7692 37.5385 67.5385C36.9231 67.1154 36.4231 66.6154 36 66.0769C35.5769 65.5769 35.2693 65.0385 35.0385 64.5C34.5769 63.4615 34.4231 62.5769 34.3846 61.9615C34.2308 61.3462 34.3077 61 34.3462 61Z" fill="#5E5356"/>
<path d="M51.6538 61.0002C51.6154 61.0002 51.5769 60.5771 51.4615 59.8464C51.3462 59.1156 51.0769 58.0387 50.4615 56.8464C50.1538 56.2695 49.7308 55.6156 49.2308 55.0387C48.7308 54.4618 48.1154 53.8464 47.3846 53.3848C47.0385 53.1541 46.6538 52.8848 46.2308 52.6925C45.8077 52.5002 45.3846 52.3079 44.9231 52.1541C44.4615 52.0002 44 51.8848 43.5 51.8079C43 51.731 42.5 51.6925 42 51.6925C41.5 51.6925 41 51.731 40.5 51.8079C40 51.8848 39.5385 52.0002 39.0769 52.1541C38.6154 52.3079 38.1923 52.5002 37.7692 52.6925C37.3461 52.8848 36.9615 53.1156 36.6154 53.3848C35.8846 53.8848 35.2692 54.4618 34.7692 55.0387C34.2692 55.6541 33.8461 56.2695 33.5385 56.8464C32.9231 58.0387 32.6538 59.1156 32.5385 59.8464C32.4231 60.5771 32.3846 61.0387 32.3462 61.0002C32.3077 61.0002 32.3077 60.8848 32.3077 60.6925C32.3077 60.5771 32.3077 60.4618 32.3077 60.3079C32.3077 60.1541 32.3077 60.0002 32.3462 59.8079C32.4231 59.0387 32.6154 57.9233 33.1923 56.6156C33.5 56.0002 33.8846 55.3079 34.4231 54.6925C34.9615 54.0387 35.5769 53.4233 36.3461 52.8848C36.7308 52.6156 37.1154 52.3464 37.5769 52.1541C38 51.9233 38.4615 51.731 38.9615 51.5771C39.4615 51.4233 39.9615 51.2695 40.4615 51.1925C40.9615 51.1156 41.5 51.0771 42.0385 51.0771C42.5769 51.0771 43.1154 51.1156 43.6154 51.1925C44.1154 51.2695 44.6538 51.4233 45.1154 51.5771C45.6154 51.731 46.0769 51.9233 46.5 52.1541C46.9231 52.3848 47.3462 52.6156 47.7308 52.8848C48.5 53.4233 49.1154 54.0387 49.6538 54.6925C50.1538 55.3464 50.5769 56.0002 50.8846 56.6156C51.5 57.8848 51.6923 59.0387 51.7308 59.8079C51.7692 60.0002 51.7692 60.1925 51.7692 60.3079C51.7692 60.4618 51.7692 60.5771 51.7692 60.6925C51.6923 60.8848 51.6923 61.0002 51.6538 61.0002Z" fill="#5E5356"/>
<path d="M46.7307 56.6155C46.7307 56.6155 46.6153 56.5386 46.423 56.3463C46.3846 56.3078 46.3076 56.2693 46.2692 56.1924C46.1923 56.154 46.1538 56.077 46.0769 56.0386C45.923 55.9232 45.7692 55.8078 45.5384 55.6924C45.423 55.6155 45.3461 55.577 45.2307 55.5001C45.1153 55.4232 44.9999 55.3847 44.8846 55.3078C44.6538 55.154 44.3461 55.077 44.0769 54.9616C43.5 54.7693 42.8076 54.654 42.0769 54.654C41.3461 54.654 40.6923 54.7693 40.0769 54.9616C39.7692 55.077 39.5 55.154 39.2692 55.3078C39.1538 55.3847 39.0384 55.4232 38.923 55.5001C38.8076 55.577 38.6923 55.6155 38.6153 55.6924C38.423 55.8078 38.2307 55.9616 38.0769 56.0386C37.9999 56.077 37.923 56.154 37.8846 56.1924C37.8076 56.2309 37.7692 56.3078 37.7307 56.3463C37.5384 56.5386 37.423 56.6155 37.423 56.6155C37.423 56.6155 37.4999 56.5001 37.6922 56.3078C37.7307 56.2693 37.8076 56.1924 37.8461 56.154C37.923 56.1155 37.9615 56.0386 38.0384 56.0001C38.1923 55.8847 38.3461 55.7309 38.5384 55.6155C38.6538 55.5386 38.7307 55.4616 38.8461 55.4232C38.9615 55.3463 39.0769 55.3078 39.1923 55.2309C39.423 55.077 39.7307 55.0001 40.0384 54.8847C40.6538 54.6924 41.3461 54.577 42.0769 54.5386C42.8076 54.5386 43.4999 54.6924 44.1153 54.8847C44.423 55.0001 44.6923 55.1155 44.9615 55.2309C45.0769 55.3078 45.1923 55.3463 45.3076 55.4232C45.423 55.5001 45.5384 55.577 45.6153 55.6155C45.8076 55.7309 45.9999 55.8847 46.1153 56.0001C46.1923 56.077 46.2692 56.1155 46.3076 56.154C46.3461 56.2309 46.423 56.2693 46.4615 56.3078C46.6153 56.5001 46.7307 56.6155 46.7307 56.6155Z" fill="#5E5356"/>
<path d="M37.3462 65.4614C37.3462 65.4614 37.4616 65.5383 37.6539 65.7306C37.6923 65.7691 37.7693 65.8076 37.8077 65.8845C37.8846 65.923 37.9231 65.9999 38 66.0383C38.1539 66.1537 38.3077 66.2691 38.5385 66.3845C38.6539 66.4614 38.7308 66.4999 38.8462 66.5768C38.9615 66.6537 39.0769 66.6922 39.1923 66.7691C39.4231 66.923 39.7308 66.9999 40 67.1153C40.5769 67.3076 41.2692 67.423 42 67.423C42.7308 67.423 43.3846 67.3076 44 67.1153C44.3077 66.9999 44.5769 66.923 44.8077 66.7691C44.9231 66.6922 45.0385 66.6537 45.1539 66.5768C45.2692 66.4999 45.3846 66.4614 45.4615 66.3845C45.6539 66.2691 45.8462 66.1153 46 66.0383C46.0769 65.9999 46.1539 65.923 46.1923 65.8845C46.2693 65.846 46.3077 65.7691 46.3462 65.7306C46.5385 65.5383 46.6539 65.4614 46.6539 65.4614C46.6539 65.4614 46.5769 65.5768 46.3846 65.7691C46.3462 65.8076 46.2692 65.8845 46.2308 65.923C46.1539 65.9614 46.1154 66.0384 46.0385 66.0768C45.8846 66.1922 45.7308 66.346 45.5385 66.4614C45.4231 66.5384 45.3462 66.6153 45.2308 66.6537C45.1154 66.7307 45 66.7691 44.8846 66.846C44.6539 66.9999 44.3462 67.0768 44.0385 67.1922C43.4231 67.3845 42.7308 67.4999 42 67.5383C41.2692 67.5383 40.5769 67.3845 39.9616 67.1922C39.6539 67.0768 39.3846 66.9614 39.1154 66.846C39 66.7691 38.8846 66.7307 38.7693 66.6537C38.6539 66.5768 38.5385 66.4999 38.4615 66.4614C38.2692 66.346 38.0769 66.1922 37.9616 66.0768C37.8846 65.9999 37.8077 65.9614 37.7692 65.923C37.7308 65.846 37.6539 65.8076 37.6154 65.7691C37.4231 65.5768 37.3077 65.4614 37.3462 65.4614Z" fill="#5E5356"/>
</svg>
