<svg width="41" height="41" viewBox="0 0 41 41" fill="none" xmlns="http://www.w3.org/2000/svg">
<path d="M20.5 6.00586C22.4869 6.00586 24.1035 7.62244 24.1035 9.60938C24.1035 11.5963 22.4869 13.2129 20.5 13.2129C18.5131 13.2129 16.8965 11.5963 16.8965 9.60938C16.8965 7.62244 18.5131 6.00586 20.5 6.00586Z" fill="#E5E5E5"/>
<path d="M20.5 0C25.7986 0 30.1094 4.31077 30.1094 9.60938C30.1094 11.4265 29.5992 13.1966 28.6336 14.7284L20.5 27.707L12.3664 14.7284C11.4008 13.1966 10.8906 11.4265 10.8906 9.60938C10.8906 4.31077 15.2014 0 20.5 0ZM20.5 15.6152C23.8114 15.6152 26.5059 12.9207 26.5059 9.60938C26.5059 6.29802 23.8114 3.60352 20.5 3.60352C17.1886 3.60352 14.4941 6.29802 14.4941 9.60938C14.4941 12.9207 17.1886 15.6152 20.5 15.6152Z" fill="#D73D3D"/>
<path d="M26.346 41H14.6581L15.5818 33.7129H25.4455L26.346 41Z" fill="#E5E5E5"/>
<path d="M25.1452 31.3103H21.0681L24.4704 25.9141L25.1452 31.3103Z" fill="#E5E5E5"/>
<path d="M13.4669 31.3105H4.00359L7.00652 24.1035H14.3912L13.4669 31.3105Z" fill="#E5E5E5"/>
<path d="M36.9964 31.3105H27.566L26.6651 24.1035H33.9935L36.9964 31.3105Z" fill="#E5E5E5"/>
<path d="M19.9319 31.3105H15.8899L16.5727 25.9834L19.9319 31.3105Z" fill="#E5E5E5"/>
<path d="M27.8662 33.7129H37.9974L41 41H28.7668L27.8662 33.7129Z" fill="#E5E5E5"/>
<path d="M3.00262 33.7129H13.1591L12.2351 41H0L3.00262 33.7129Z" fill="#E5E5E5"/>
</svg>
