<svg width="25" height="25" viewBox="0 0 25 25" fill="none" xmlns="http://www.w3.org/2000/svg">
<path d="M12.5 0C5.59692 0 0 5.59694 0 12.5C0 19.403 5.59692 25 12.5 25C19.403 25 24.9998 19.4029 24.9998 12.5C24.9999 5.59694 19.403 0 12.5 0ZM19.1008 18.2389L18.0999 19.2399C17.9212 19.4184 17.398 19.5297 17.3812 19.5297C14.215 19.5573 11.1664 18.3136 8.92644 16.0735C6.68036 13.8261 5.43524 10.7666 5.46868 7.58972C5.46868 7.58828 5.58327 7.08005 5.7618 6.90322L6.76259 5.90227C7.12883 5.53433 7.83233 5.36807 8.32516 5.53294L8.53568 5.60317C9.02706 5.76789 9.54297 6.31121 9.67873 6.81176L10.1822 8.65951C10.3179 9.16151 10.1348 9.87568 9.7687 10.2419L9.10043 10.9103C9.75654 13.3392 11.6623 15.2454 14.0917 15.9031L14.7597 15.2346C15.1276 14.8666 15.8415 14.6837 16.3425 14.8192L18.1899 15.3245C18.6906 15.4621 19.2338 15.9747 19.3985 16.4659L19.4687 16.6795C19.6319 17.1709 19.467 17.8743 19.1008 18.2389Z" fill="white"/>
</svg>
