<svg width="25" height="25" viewBox="0 0 25 25" fill="none" xmlns="http://www.w3.org/2000/svg">
<g clip-path="url(#clip0)">
<path d="M12.5007 0C5.5974 0 0.00100708 5.59656 0.00100708 12.4999C0.00100708 19.403 5.5974 25 12.5007 25C19.404 25 25.0008 19.403 25.0008 12.4999C25.0008 5.59656 19.404 0 12.5007 0ZM12.501 4.39054L19.898 9.00309H5.10397L12.501 4.39054ZM19.9901 16.3687H19.9894C19.9894 17.1086 19.3898 17.7081 18.65 17.7081H6.3519C5.61206 17.7081 5.01256 17.1085 5.01256 16.3687V9.29659C5.01256 9.21834 5.02056 9.14226 5.03356 9.06751L12.101 13.4745C12.1096 13.4799 12.1189 13.4836 12.1278 13.4886C12.1371 13.4937 12.1466 13.4987 12.1561 13.5035C12.206 13.5292 12.2575 13.55 12.31 13.5636C12.3155 13.5651 12.3209 13.5657 12.3263 13.567C12.384 13.5806 12.4424 13.5891 12.5007 13.5891H12.5011C12.5015 13.5891 12.502 13.5891 12.502 13.5891C12.5603 13.5891 12.6187 13.5808 12.6764 13.567C12.6818 13.5656 12.6872 13.5651 12.6926 13.5636C12.7451 13.55 12.7964 13.5292 12.8466 13.5035C12.8561 13.4987 12.8656 13.4937 12.8749 13.4886C12.8837 13.4836 12.8931 13.4799 12.9017 13.4745L19.9691 9.06751C19.9821 9.14226 19.9901 9.21817 19.9901 9.29659V16.3687Z" fill="white"/>
</g>
<defs>
<clipPath id="clip0">
<rect width="25" height="25" fill="white"/>
</clipPath>
</defs>
</svg>
