<svg width="23" height="23" viewBox="0 0 23 23" fill="none" xmlns="http://www.w3.org/2000/svg">
<g clip-path="url(#clip0)">
<path d="M9.34375 23C6.56983 23 4.3125 20.7427 4.3125 17.9687V7.18752C4.3125 3.22455 7.53706 0 11.5 0C15.463 0 18.6875 3.22455 18.6875 7.18752L18.6861 20.125H17.2486L17.25 7.18752C17.25 4.01702 14.6706 1.43754 11.5001 1.43754C8.32957 1.43754 5.74999 4.01697 5.74999 7.18752V17.9687C5.74999 19.9502 7.36225 21.5625 9.34375 21.5625C11.3253 21.5625 12.9375 19.9503 12.9375 17.9687V7.18752C12.9375 6.39505 12.2925 5.75002 11.5 5.75002C10.7076 5.75002 10.0625 6.39505 10.0625 7.18752V18.6875H8.62503V7.18752C8.62503 5.60191 9.91441 4.31253 11.5 4.31253C13.0856 4.31253 14.375 5.60191 14.375 7.18752V17.9687C14.375 20.7427 12.1177 23 9.34375 23Z" fill="black"/>
</g>
<defs>
<clipPath id="clip0">
<rect width="23" height="23" fill="white"/>
</clipPath>
</defs>
</svg>
