<svg width="35" height="35" viewBox="0 0 35 35" fill="none" xmlns="http://www.w3.org/2000/svg">
<path d="M20.8496 17.5C20.8496 15.65 19.35 14.1504 17.5 14.1504C15.65 14.1504 14.1504 15.65 14.1504 17.5C14.1504 19.35 15.65 20.8496 17.5 20.8496C19.35 20.8496 20.8496 19.35 20.8496 17.5Z" fill="white"/>
<path d="M25.3336 23.4266C25.1725 23.8629 24.9157 24.2579 24.5819 24.582C24.2577 24.9158 23.863 25.1727 23.4264 25.3337C23.0724 25.4713 22.5404 25.6349 21.5607 25.6795C20.5009 25.7279 20.1831 25.7383 17.5 25.7383C14.8166 25.7383 14.4989 25.7281 13.4393 25.6798C12.4596 25.6349 11.9274 25.4713 11.5736 25.3337C11.137 25.1727 10.742 24.9158 10.4181 24.582C10.0843 24.2579 9.82746 23.8632 9.66618 23.4266C9.52866 23.0725 9.36497 22.5403 9.32037 21.5606C9.27204 20.501 9.26163 20.1833 9.26163 17.4999C9.26163 14.8168 9.27204 14.499 9.32037 13.4392C9.36497 12.4595 9.52866 11.9276 9.66618 11.5735C9.82746 11.1369 10.0841 10.7422 10.4179 10.418C10.742 10.0843 11.1367 9.82737 11.5733 9.66636C11.9274 9.52857 12.4596 9.36488 13.4393 9.32029C14.4989 9.27195 14.8164 9.26181 17.4997 9.26181C20.1834 9.26181 20.5011 9.27195 21.5604 9.32029C22.5402 9.36488 23.0724 9.52857 23.4264 9.66636C24.3028 10.0044 24.9955 10.6971 25.3336 11.5735C25.4711 11.9276 25.6348 12.4595 25.6796 13.4392C25.728 14.499 25.7381 14.8168 25.7381 17.4999C25.7381 20.1833 25.728 20.501 25.6796 21.5606C25.635 22.5403 25.4713 23.0725 25.3336 23.4266ZM17.5 12.3401C14.65 12.3401 12.3397 14.6502 12.3397 17.5002C12.3397 20.3502 14.65 22.6602 17.5 22.6602C20.3497 22.6602 22.6601 20.3502 22.6601 17.5002C22.6601 14.6502 20.3497 12.3401 17.5 12.3401ZM22.8641 21.6583C22.1981 21.6583 21.6582 22.1983 21.6582 22.8643C21.6582 23.5302 22.1981 24.0702 22.8641 24.0702C23.53 24.0702 24.07 23.5302 24.07 22.8643C24.0697 22.1983 23.53 21.6583 22.8641 21.6583Z" fill="white"/>
<path d="M17.5 35C7.83649 35 0 27.1635 0 17.5C0 7.83649 7.83649 0 17.5 0C27.1635 0 35 7.83649 35 17.5C35 27.1635 27.1635 35 17.5 35ZM27.4882 13.357C27.4396 12.2873 27.2695 11.557 27.0212 10.9177C26.4991 9.56791 25.4321 8.50086 24.0823 7.97882C23.4433 7.73048 22.7127 7.56065 21.6432 7.51179C20.5716 7.46292 20.2293 7.45117 17.5003 7.45117C14.771 7.45117 14.4289 7.46292 13.357 7.51179C12.2876 7.56065 11.557 7.73048 10.918 7.97882C10.2472 8.23116 9.64001 8.62663 9.13799 9.13799C8.6269 9.63974 8.23143 10.2472 7.97909 10.9177C7.73075 11.5567 7.56065 12.2873 7.51205 13.3568C7.46265 14.4286 7.45117 14.771 7.45117 17.5C7.45117 20.229 7.46265 20.5714 7.51179 21.643C7.56039 22.7127 7.73022 23.443 7.97855 24.0823C8.2309 24.7528 8.62663 25.3603 9.13799 25.862C9.63974 26.3734 10.2472 26.7688 10.9177 27.0212C11.557 27.2695 12.2873 27.4393 13.357 27.4882C14.4286 27.5371 14.771 27.5488 17.5 27.5488C20.229 27.5488 20.5714 27.5371 21.643 27.4879C22.7127 27.4393 23.443 27.2695 24.0823 27.0214C24.7528 26.7691 25.3603 26.3734 25.8623 25.862C26.3734 25.36 26.7691 24.7528 27.0212 24.0823C27.2698 23.443 27.4396 22.7127 27.4885 21.643C27.5373 20.5714 27.5488 20.229 27.5488 17.5C27.5488 14.771 27.5373 14.4286 27.4882 13.357Z" fill="white"/>
</svg>
