<svg width="192" height="86" viewBox="0 0 192 86" fill="none" xmlns="http://www.w3.org/2000/svg">
<g filter="url(#filter0_d)">
<ellipse cx="96" cy="39" rx="92" ry="39" fill="white"/>
</g>
<path fill-rule="evenodd" clip-rule="evenodd" d="M144.798 34.8105C143.824 34.8105 143.362 38.8265 143.362 43.6212C143.362 48.4159 143.824 52.4318 144.798 52.4318C145.771 52.4318 146.234 48.4159 146.234 43.6212C146.234 38.8265 145.771 34.8105 144.798 34.8105Z" fill="#FF2748"/>
<path fill-rule="evenodd" clip-rule="evenodd" d="M91.1548 30.9653C90.1813 30.9653 89.7188 34.0807 89.7188 40.3114C89.7188 46.4935 89.7188 49.8523 89.7188 50.3634C89.7188 50.8258 89.4754 51.0692 88.9887 51.0692C88.5262 51.0692 87.3336 51.0692 85.3865 51.0692C83.4881 51.0692 82.2955 51.0692 81.833 51.0692C81.3706 51.0692 81.1272 50.8258 81.1029 50.339C81.1029 49.8766 81.1029 46.5178 81.1029 40.3358C81.1029 34.105 80.6404 30.9897 79.6669 30.9897C78.6933 30.9897 78.2309 34.3484 78.2309 41.0416C78.2309 47.7348 78.2309 51.3126 78.2309 51.8237C78.2309 52.2861 78.4743 52.5295 78.9367 52.5295C79.4235 52.5295 81.5653 52.5295 85.3865 52.5295C89.232 52.5295 91.3739 52.5295 91.8606 52.5295C92.3231 52.5295 92.5665 52.2861 92.5665 51.8237C92.5665 51.3369 92.5665 47.7348 92.5665 41.0416C92.5908 34.3241 92.1284 30.9653 91.1548 30.9653Z" fill="#FF2748"/>
<path fill-rule="evenodd" clip-rule="evenodd" d="M73.0467 31.5977C72.0732 31.5977 71.5377 33.8612 71.5377 38.3638C71.5377 42.8665 71.5377 45.3734 71.5134 45.8845C71.5134 46.3956 71.27 46.639 70.8076 46.639C70.3451 46.6147 68.7388 46.6147 65.9885 46.6147C63.2139 46.6147 60.4636 46.6147 57.6646 46.6147C54.9143 46.6147 53.2836 46.6147 52.7725 46.639C52.2857 46.639 52.0423 46.3956 52.0423 45.8845C52.0423 45.3734 52.0423 42.8665 52.0423 38.3638C52.0423 33.8612 51.5312 31.5977 50.509 31.5977C49.5355 31.5977 49 34.1045 49 39.1183C49 44.1078 49.0243 46.8581 49.0243 47.3448C49.0243 47.856 49.2677 48.0994 49.7545 48.0994C50.2413 48.0994 52.2614 48.0994 55.7418 48.0994C59.2466 48.0994 60.999 49.8761 60.999 53.3565C60.999 56.8613 61.2668 58.6137 61.7535 58.6137C62.2403 58.6137 62.508 56.8613 62.508 53.3565C62.508 49.8761 64.2604 48.0994 67.7409 48.0994C71.2457 48.0994 73.2414 48.0994 73.7526 48.0994C74.2393 48.0994 74.4827 47.856 74.4827 47.3448C74.4827 46.8581 74.5071 44.1078 74.5071 39.1183C74.5557 34.1045 74.0446 31.5977 73.0467 31.5977Z" fill="#FF2748"/>
<path fill-rule="evenodd" clip-rule="evenodd" d="M119.412 45.4953C118.95 45.4953 115.445 45.4953 108.922 45.4953C102.399 45.4953 99.1136 45.0085 99.1136 44.108C99.1136 43.1588 101.45 42.672 106.123 42.672C110.796 42.672 113.376 42.6963 113.814 42.6963C114.277 42.6963 114.496 42.4773 114.496 42.0148C114.52 41.5281 114.52 39.654 114.52 36.3682C114.52 33.1068 114.058 31.5005 113.084 31.5005C112.159 31.5005 111.697 32.8878 111.697 35.7111C111.697 38.4857 111.697 40.0921 111.697 40.6275C111.697 41.0656 111.478 41.2847 111.015 41.2847C110.553 41.2847 108.484 41.2847 104.712 41.2847C100.988 41.2847 99.0892 39.654 99.0892 36.3682C99.0892 33.1068 98.6268 31.5005 97.7263 31.5005C96.7527 31.5005 96.2903 35.7111 96.2903 44.108C96.2903 52.5049 96.7527 56.7155 97.7263 56.7155C98.6511 56.7155 99.0892 55.0604 99.0892 51.799C99.0892 48.5133 101.913 46.8826 107.51 46.8826C113.108 46.8826 116.151 46.8826 116.613 46.8583C117.076 46.8583 117.295 47.0773 117.368 47.5641C117.368 48.0509 117.368 49.6816 117.368 52.4805C117.368 55.3038 117.806 56.6911 118.731 56.6911C119.68 56.6911 120.118 55.0361 120.118 51.7747C120.118 48.489 120.118 46.6392 120.118 46.1768C120.142 45.7387 119.875 45.4953 119.412 45.4953Z" fill="#FF2748"/>
<path fill-rule="evenodd" clip-rule="evenodd" d="M136.084 32.1089C135.111 32.1089 133.212 32.1089 130.34 32.1089H124.596C123.671 32.1089 123.185 32.5226 123.185 33.4719C123.185 34.348 123.185 37.4391 123.185 42.7206C123.185 48.0021 123.185 49.5841 123.185 50.5577C123.185 51.5556 123.647 52.0424 124.596 52.0424H130.34H131.801C135.597 52.0424 137.496 51.799 137.496 51.3122C137.496 50.8498 135.841 50.6064 132.506 50.6064H130.34H126.787C126.324 50.6064 126.057 50.3386 126.057 49.8519C126.057 49.3651 126.057 49.4624 126.057 47.0772C126.057 45.0328 127.517 43.8645 130.34 43.5968C130.778 43.5725 131.265 43.5481 131.801 43.5481C135.597 43.5481 137.496 42.1121 137.496 39.2158C137.496 36.3438 137.496 34.4454 137.496 33.4962C137.496 32.547 137.009 32.1089 136.084 32.1089ZM130.34 42.1121C127.517 42.1121 126.057 40.9439 126.057 38.656C126.057 36.3438 126.057 34.9078 126.057 34.3237C126.057 33.7639 126.324 33.4719 126.787 33.4719C127.225 33.4719 128.418 33.4719 130.34 33.4719H133.942C134.405 33.4719 134.648 33.7152 134.648 34.202C134.648 34.6645 134.648 36.1005 134.673 38.4857C134.648 40.9195 133.212 42.1121 130.34 42.1121Z" fill="#FF2748"/>
<path fill-rule="evenodd" clip-rule="evenodd" d="M144.724 24.3937C143.434 24.4424 142.85 25.1482 142.899 26.3895C142.948 27.6795 143.605 28.3123 144.895 28.2636C146.185 28.2149 146.769 27.5091 146.72 26.2191C146.672 24.9779 146.014 24.345 144.724 24.3937Z" fill="#FF2748"/>
<path fill-rule="evenodd" clip-rule="evenodd" d="M150.055 24.3206C148.108 22.0084 143.264 20.3534 136.401 18.4306C133.918 17.7735 131.241 16.9946 128.539 16.2401C124.596 14.8771 119.899 13.6359 115.542 13.3438C113.741 13.1004 112.013 12.9787 110.358 13.0031C103.543 13.1248 100.866 16.1671 105.904 20.2804C110.991 24.2719 115.348 25.8539 112.476 20.2073C111.21 17.7004 111.234 15.9724 112.184 14.9258C113.327 13.8793 118.025 12.2972 136.498 21.4973C142.266 26.4137 137.545 30.1132 140.855 31.2328C143.994 32.3524 147.037 31.1841 148.984 29.9185C151.174 28.4582 151.783 26.4381 150.055 24.3206ZM144.992 30.1376C142.412 30.2593 141.147 29.018 141.025 26.4867C140.903 23.9068 142.072 22.5925 144.651 22.4952C147.231 22.3735 148.546 23.5661 148.643 26.146C148.765 28.6772 147.572 30.0402 144.992 30.1376Z" fill="#FF2748"/>
<defs>
<filter id="filter0_d" x="0" y="0" width="192" height="86" filterUnits="userSpaceOnUse" color-interpolation-filters="sRGB">
<feFlood flood-opacity="0" result="BackgroundImageFix"/>
<feColorMatrix in="SourceAlpha" type="matrix" values="0 0 0 0 0 0 0 0 0 0 0 0 0 0 0 0 0 0 127 0"/>
<feOffset dy="4"/>
<feGaussianBlur stdDeviation="2"/>
<feColorMatrix type="matrix" values="0 0 0 0 0.116667 0 0 0 0 0.0213889 0 0 0 0 0.0213889 0 0 0 0.25 0"/>
<feBlend mode="normal" in2="BackgroundImageFix" result="effect1_dropShadow"/>
<feBlend mode="normal" in="SourceGraphic" in2="effect1_dropShadow" result="shape"/>
</filter>
</defs>
</svg>
