<svg width="93" height="204" viewBox="0 0 93 204" fill="none" xmlns="http://www.w3.org/2000/svg">
<path fill-rule="evenodd" clip-rule="evenodd" d="M44.1725 12.5002C44.1725 14.4449 52.3059 15.3687 62.0166 15.3687C71.7273 15.3687 79.8607 14.4449 79.8607 12.5002C79.8607 10.5555 71.7273 9.63177 62.0166 9.63177C52.3059 9.63177 44.1725 10.5555 44.1725 12.5002Z" fill="#DCDBDB" fill-opacity="0.88"/>
<path fill-rule="evenodd" clip-rule="evenodd" d="M44.1725 12.5002C44.1725 14.4449 52.3059 15.3687 62.0166 15.3687C71.7273 15.3687 79.8607 14.4449 79.8607 12.5002C79.8607 10.5555 71.7273 9.63177 62.0166 9.63177C52.3059 9.63177 44.1725 10.5555 44.1725 12.5002Z" fill="url(#paint0_linear)"/>
<path fill-rule="evenodd" clip-rule="evenodd" d="M36.385 119.653C36.385 121.598 42.6945 122.521 55.3136 122.521C67.834 122.521 74.6365 122.521 75.6717 122.521C76.6082 122.521 77.1012 123.007 77.1012 123.98C77.1012 124.904 77.1012 127.286 77.1012 131.175C77.1012 134.967 77.1012 137.35 77.1012 138.273C77.1012 139.197 76.6082 139.683 75.6224 139.732C74.6858 139.732 67.8833 139.732 55.3629 139.732C42.7438 139.732 36.4343 140.656 36.4343 142.6C36.4343 144.545 43.2368 145.469 56.7924 145.469C70.348 145.469 77.5941 145.469 78.6292 145.469C79.5658 145.469 80.0588 144.983 80.0588 144.059C80.0588 143.086 80.0588 138.808 80.0588 131.175C80.0588 123.494 80.0588 119.215 80.0588 118.243C80.0588 117.319 79.5658 116.833 78.6292 116.833C77.6434 116.833 70.348 116.833 56.7924 116.833C43.1875 116.784 36.385 117.708 36.385 119.653Z" fill="#DCDBDB" fill-opacity="0.88"/>
<path fill-rule="evenodd" clip-rule="evenodd" d="M36.385 119.653C36.385 121.598 42.6945 122.521 55.3136 122.521C67.834 122.521 74.6365 122.521 75.6717 122.521C76.6082 122.521 77.1012 123.007 77.1012 123.98C77.1012 124.904 77.1012 127.286 77.1012 131.175C77.1012 134.967 77.1012 137.35 77.1012 138.273C77.1012 139.197 76.6082 139.683 75.6224 139.732C74.6858 139.732 67.8833 139.732 55.3629 139.732C42.7438 139.732 36.4343 140.656 36.4343 142.6C36.4343 144.545 43.2368 145.469 56.7924 145.469C70.348 145.469 77.5941 145.469 78.6292 145.469C79.5658 145.469 80.0588 144.983 80.0588 144.059C80.0588 143.086 80.0588 138.808 80.0588 131.175C80.0588 123.494 80.0588 119.215 80.0588 118.243C80.0588 117.319 79.5658 116.833 78.6292 116.833C77.6434 116.833 70.348 116.833 56.7924 116.833C43.1875 116.784 36.385 117.708 36.385 119.653Z" fill="url(#paint1_linear)"/>
<path fill-rule="evenodd" clip-rule="evenodd" d="M37.6659 155.824C37.6659 157.769 42.2501 158.839 51.3694 158.839C60.4886 158.839 65.5658 158.839 66.6009 158.887C67.6361 158.887 68.129 159.373 68.129 160.297C68.0798 161.221 68.0797 164.43 68.0797 169.923C68.0797 175.466 68.0797 180.96 68.0797 186.551C68.0797 192.044 68.0798 195.302 68.129 196.323C68.129 197.295 67.6361 197.781 66.6009 197.781C65.5658 197.781 60.4886 197.781 51.3694 197.781C42.2501 197.781 37.6659 198.802 37.6659 200.844C37.6659 202.789 42.7431 203.858 52.8975 203.858C63.0025 203.858 68.5727 203.81 69.5585 203.81C70.5937 203.81 71.0866 203.324 71.0866 202.351C71.0866 201.379 71.0866 197.344 71.0866 190.391C71.0866 183.39 74.685 179.89 81.7339 179.89C88.8321 179.89 92.3813 179.355 92.3813 178.383C92.3813 177.411 88.8321 176.876 81.7339 176.876C74.685 176.876 71.0866 173.375 71.0866 166.423C71.0866 159.422 71.0866 155.435 71.0866 154.414C71.0866 153.442 70.5937 152.956 69.5585 152.956C68.5727 152.956 63.0025 152.907 52.8975 152.907C42.7431 152.81 37.6659 153.831 37.6659 155.824Z" fill="#DCDBDB" fill-opacity="0.88"/>
<path fill-rule="evenodd" clip-rule="evenodd" d="M37.6659 155.824C37.6659 157.769 42.2501 158.839 51.3694 158.839C60.4886 158.839 65.5658 158.839 66.6009 158.887C67.6361 158.887 68.129 159.373 68.129 160.297C68.0798 161.221 68.0797 164.43 68.0797 169.923C68.0797 175.466 68.0797 180.96 68.0797 186.551C68.0797 192.044 68.0798 195.302 68.129 196.323C68.129 197.295 67.6361 197.781 66.6009 197.781C65.5658 197.781 60.4886 197.781 51.3694 197.781C42.2501 197.781 37.6659 198.802 37.6659 200.844C37.6659 202.789 42.7431 203.858 52.8975 203.858C63.0025 203.858 68.5727 203.81 69.5585 203.81C70.5937 203.81 71.0866 203.324 71.0866 202.351C71.0866 201.379 71.0866 197.344 71.0866 190.391C71.0866 183.39 74.685 179.89 81.7339 179.89C88.8321 179.89 92.3813 179.355 92.3813 178.383C92.3813 177.411 88.8321 176.876 81.7339 176.876C74.685 176.876 71.0866 173.375 71.0866 166.423C71.0866 159.422 71.0866 155.435 71.0866 154.414C71.0866 153.442 70.5937 152.956 69.5585 152.956C68.5727 152.956 63.0025 152.907 52.8975 152.907C42.7431 152.81 37.6659 153.831 37.6659 155.824Z" fill="url(#paint2_linear)"/>
<path fill-rule="evenodd" clip-rule="evenodd" d="M65.812 63.2079C65.812 64.1317 65.812 71.1326 65.812 84.1621C65.812 97.1916 64.8262 103.755 63.0023 103.755C61.0799 103.755 60.0941 99.0876 60.0941 89.7531C60.0941 80.4185 60.1433 75.2651 60.1433 74.39C60.1433 73.4662 59.6997 73.0287 58.7631 73.0287C57.7773 72.9801 53.9817 72.9801 47.3271 72.9801C40.7219 72.9801 37.4685 73.9038 37.4685 75.8485C37.4685 77.6959 40.2782 78.6197 45.9962 78.6197C51.6156 78.6197 54.869 78.6197 55.9534 78.6197C56.8407 78.6197 57.2843 79.0572 57.2843 79.981C57.2843 80.9047 57.2843 85.0372 57.2843 92.5729C57.2843 100.011 53.9817 103.804 47.3271 103.804C40.7219 103.804 37.4685 104.727 37.4685 106.526C37.4685 108.471 45.9962 109.395 63.0023 109.395C80.0085 109.395 88.5362 108.471 88.5362 106.526C88.5362 104.679 85.1843 103.804 78.579 103.804C71.9244 103.804 68.6218 98.1639 68.6218 86.9819C68.6218 75.7999 68.6217 69.7227 68.5725 68.799C68.5725 67.8752 69.0161 67.4377 70.002 67.2918C70.9878 67.2918 74.2905 67.2918 79.9592 67.2918C85.6772 67.2918 88.4869 66.4167 88.4869 64.5692C88.4869 62.6731 85.1349 61.798 78.5297 61.798C71.8751 61.798 68.1288 61.798 67.1923 61.798C66.305 61.7494 65.812 62.2842 65.812 63.2079Z" fill="#DCDBDB" fill-opacity="0.88"/>
<path fill-rule="evenodd" clip-rule="evenodd" d="M65.812 63.2079C65.812 64.1317 65.812 71.1326 65.812 84.1621C65.812 97.1916 64.8262 103.755 63.0023 103.755C61.0799 103.755 60.0941 99.0876 60.0941 89.7531C60.0941 80.4185 60.1433 75.2651 60.1433 74.39C60.1433 73.4662 59.6997 73.0287 58.7631 73.0287C57.7773 72.9801 53.9817 72.9801 47.3271 72.9801C40.7219 72.9801 37.4685 73.9038 37.4685 75.8485C37.4685 77.6959 40.2782 78.6197 45.9962 78.6197C51.6156 78.6197 54.869 78.6197 55.9534 78.6197C56.8407 78.6197 57.2843 79.0572 57.2843 79.981C57.2843 80.9047 57.2843 85.0372 57.2843 92.5729C57.2843 100.011 53.9817 103.804 47.3271 103.804C40.7219 103.804 37.4685 104.727 37.4685 106.526C37.4685 108.471 45.9962 109.395 63.0023 109.395C80.0085 109.395 88.5362 108.471 88.5362 106.526C88.5362 104.679 85.1843 103.804 78.579 103.804C71.9244 103.804 68.6218 98.1639 68.6218 86.9819C68.6218 75.7999 68.6217 69.7227 68.5725 68.799C68.5725 67.8752 69.0161 67.4377 70.002 67.2918C70.9878 67.2918 74.2905 67.2918 79.9592 67.2918C85.6772 67.2918 88.4869 66.4167 88.4869 64.5692C88.4869 62.6731 85.1349 61.798 78.5297 61.798C71.8751 61.798 68.1288 61.798 67.1923 61.798C66.305 61.7494 65.812 62.2842 65.812 63.2079Z" fill="url(#paint3_linear)"/>
<path fill-rule="evenodd" clip-rule="evenodd" d="M38.7007 29.9051C38.7007 31.8498 38.7007 35.642 38.7007 41.3789L38.7007 52.8526C38.7007 54.7 39.5387 55.6724 41.4611 55.6724C43.2356 55.6724 49.4959 55.6724 60.1925 55.6724C70.8891 55.6724 74.0931 55.6724 76.0648 55.6724C78.0859 55.6724 79.0717 54.7486 79.0717 52.8526V41.3789V38.4618C79.0717 30.8775 78.5788 27.0853 77.5929 27.0853C76.6564 27.0853 76.1634 30.3913 76.1634 37.0519V41.3789V48.477C76.1634 49.4007 75.6212 49.9355 74.6354 49.9355C73.6495 49.9355 73.8467 49.9355 69.0159 49.9355C64.8753 49.9355 62.5093 47.0185 61.967 41.3789C61.9177 40.5037 61.8684 39.5314 61.8684 38.4618C61.8684 30.8775 58.9602 27.0853 53.0943 27.0853C47.2777 27.0853 43.4328 27.0853 41.5104 27.0853C39.588 27.0853 38.7007 28.0577 38.7007 29.9051ZM58.9601 41.3789C58.9601 47.0185 56.5941 49.9355 51.9605 49.9355C47.2777 49.9355 44.3694 49.9355 43.1863 49.9355C42.0526 49.9355 41.4611 49.4007 41.4611 48.477C41.4611 47.6019 41.4611 45.2196 41.4611 41.3789V34.1834C41.4611 33.2597 41.954 32.7736 42.9399 32.7736C43.8764 32.7736 46.7848 32.7735 51.6155 32.7249C56.5448 32.7735 58.9601 35.642 58.9601 41.3789Z" fill="#DCDBDB" fill-opacity="0.88"/>
<path fill-rule="evenodd" clip-rule="evenodd" d="M38.7007 29.9051C38.7007 31.8498 38.7007 35.642 38.7007 41.3789L38.7007 52.8526C38.7007 54.7 39.5387 55.6724 41.4611 55.6724C43.2356 55.6724 49.4959 55.6724 60.1925 55.6724C70.8891 55.6724 74.0931 55.6724 76.0648 55.6724C78.0859 55.6724 79.0717 54.7486 79.0717 52.8526V41.3789V38.4618C79.0717 30.8775 78.5788 27.0853 77.5929 27.0853C76.6564 27.0853 76.1634 30.3913 76.1634 37.0519V41.3789V48.477C76.1634 49.4007 75.6212 49.9355 74.6354 49.9355C73.6495 49.9355 73.8467 49.9355 69.0159 49.9355C64.8753 49.9355 62.5093 47.0185 61.967 41.3789C61.9177 40.5037 61.8684 39.5314 61.8684 38.4618C61.8684 30.8775 58.9602 27.0853 53.0943 27.0853C47.2777 27.0853 43.4328 27.0853 41.5104 27.0853C39.588 27.0853 38.7007 28.0577 38.7007 29.9051ZM58.9601 41.3789C58.9601 47.0185 56.5941 49.9355 51.9605 49.9355C47.2777 49.9355 44.3694 49.9355 43.1863 49.9355C42.0526 49.9355 41.4611 49.4007 41.4611 48.477C41.4611 47.6019 41.4611 45.2196 41.4611 41.3789V34.1834C41.4611 33.2597 41.954 32.7736 42.9399 32.7736C43.8764 32.7736 46.7848 32.7735 51.6155 32.7249C56.5448 32.7735 58.9601 35.642 58.9601 41.3789Z" fill="url(#paint4_linear)"/>
<path fill-rule="evenodd" clip-rule="evenodd" d="M23.0757 12.6459C23.1743 15.2227 24.6038 16.3895 27.1178 16.2923C29.7303 16.195 31.0119 14.8823 30.9133 12.3056C30.8148 9.72889 29.3852 8.56207 26.7727 8.6593C24.2588 8.75654 22.9771 10.0692 23.0757 12.6459Z" fill="#DCDBDB" fill-opacity="0.88"/>
<path fill-rule="evenodd" clip-rule="evenodd" d="M23.0757 12.6459C23.1743 15.2227 24.6038 16.3895 27.1178 16.2923C29.7303 16.195 31.0119 14.8823 30.9133 12.3056C30.8148 9.72889 29.3852 8.56207 26.7727 8.6593C24.2588 8.75654 22.9771 10.0692 23.0757 12.6459Z" fill="url(#paint5_linear)"/>
<path fill-rule="evenodd" clip-rule="evenodd" d="M22.9275 1.99863C18.2446 5.88803 14.8927 15.5629 10.9985 29.273C9.66763 34.232 8.09025 39.5799 6.56217 44.9764C3.80175 52.8525 1.28782 62.2357 0.696306 70.9382C0.203375 74.5359 -0.0431029 77.9877 0.00619023 81.2937C0.252656 94.9066 6.41431 100.254 14.7448 90.1907C22.8289 80.0296 26.0329 71.3271 14.5969 77.064C9.51975 79.5921 6.01996 79.5435 3.90036 77.6474C1.78075 75.3624 -1.4233 65.9792 17.2095 29.0785C27.1667 17.5562 34.6593 26.988 36.9267 20.376C39.1942 14.1044 36.8281 8.02718 34.2649 4.13779C31.3073 -0.237785 27.216 -1.4532 22.9275 1.99863ZM34.7086 12.1111C34.955 17.2645 32.4411 19.7926 27.3146 20.0357C22.0895 20.2788 19.4277 17.9451 19.2305 12.7917C18.984 7.63824 21.3994 5.01292 26.6245 4.81844C31.751 4.57536 34.5114 6.95761 34.7086 12.1111Z" fill="#DCDBDB" fill-opacity="0.88"/>
<path fill-rule="evenodd" clip-rule="evenodd" d="M22.9275 1.99863C18.2446 5.88803 14.8927 15.5629 10.9985 29.273C9.66763 34.232 8.09025 39.5799 6.56217 44.9764C3.80175 52.8525 1.28782 62.2357 0.696306 70.9382C0.203375 74.5359 -0.0431029 77.9877 0.00619023 81.2937C0.252656 94.9066 6.41431 100.254 14.7448 90.1907C22.8289 80.0296 26.0329 71.3271 14.5969 77.064C9.51975 79.5921 6.01996 79.5435 3.90036 77.6474C1.78075 75.3624 -1.4233 65.9792 17.2095 29.0785C27.1667 17.5562 34.6593 26.988 36.9267 20.376C39.1942 14.1044 36.8281 8.02718 34.2649 4.13779C31.3073 -0.237785 27.216 -1.4532 22.9275 1.99863ZM34.7086 12.1111C34.955 17.2645 32.4411 19.7926 27.3146 20.0357C22.0895 20.2788 19.4277 17.9451 19.2305 12.7917C18.984 7.63824 21.3994 5.01292 26.6245 4.81844C31.751 4.57536 34.5114 6.95761 34.7086 12.1111Z" fill="url(#paint6_linear)"/>
<defs>
<linearGradient id="paint0_linear" x1="44.1725" y1="12.5002" x2="79.8607" y2="12.5002" gradientUnits="userSpaceOnUse">
<stop stop-color="#E2E1E1"/>
<stop offset="0.0001" stop-color="#E3E3E3"/>
<stop offset="1" stop-color="white" stop-opacity="0"/>
</linearGradient>
<linearGradient id="paint1_linear" x1="36.385" y1="131.15" x2="80.0588" y2="131.15" gradientUnits="userSpaceOnUse">
<stop stop-color="#E2E1E1"/>
<stop offset="0.0001" stop-color="#E3E3E3"/>
<stop offset="1" stop-color="white" stop-opacity="0"/>
</linearGradient>
<linearGradient id="paint2_linear" x1="37.6659" y1="178.38" x2="92.3813" y2="178.38" gradientUnits="userSpaceOnUse">
<stop stop-color="#E2E1E1"/>
<stop offset="0.0001" stop-color="#E3E3E3"/>
<stop offset="1" stop-color="white" stop-opacity="0"/>
</linearGradient>
<linearGradient id="paint3_linear" x1="37.4685" y1="85.5948" x2="88.5362" y2="85.5948" gradientUnits="userSpaceOnUse">
<stop stop-color="#E2E1E1"/>
<stop offset="0.0001" stop-color="#E3E3E3"/>
<stop offset="1" stop-color="white" stop-opacity="0"/>
</linearGradient>
<linearGradient id="paint4_linear" x1="38.7007" y1="41.3788" x2="79.0717" y2="41.3788" gradientUnits="userSpaceOnUse">
<stop stop-color="#E2E1E1"/>
<stop offset="0.0001" stop-color="#E3E3E3"/>
<stop offset="1" stop-color="white" stop-opacity="0"/>
</linearGradient>
<linearGradient id="paint5_linear" x1="23.0704" y1="12.4758" x2="30.9186" y2="12.4758" gradientUnits="userSpaceOnUse">
<stop stop-color="#E2E1E1"/>
<stop offset="0.0001" stop-color="#E3E3E3"/>
<stop offset="1" stop-color="white" stop-opacity="0"/>
</linearGradient>
<linearGradient id="paint6_linear" x1="0" y1="47.7008" x2="37.8391" y2="47.7008" gradientUnits="userSpaceOnUse">
<stop stop-color="#E2E1E1"/>
<stop offset="0.0001" stop-color="#E3E3E3"/>
<stop offset="1" stop-color="white" stop-opacity="0"/>
</linearGradient>
</defs>
</svg>
