<svg width="668" height="602" viewBox="0 0 668 602" fill="none" xmlns="http://www.w3.org/2000/svg">
<path d="M1 1C6.601 1.43354 24.1918 14.0983 30.9131 8.89591C39.3146 2.39288 69.7568 22.3813 83.786 16.9203C119.72 2.93271 139.096 21.2556 162.025 16.9203C173.402 14.1745 200.672 9.7236 218.735 13.8855C236.798 18.0475 292.423 13.8855 317.978 11.2843C344.583 9.83921 402.938 11.7179 423.522 30.7934C449.251 54.6379 512.756 187.5 439.5 254.5C351.821 334.692 419.679 441.5 494.5 485.5" stroke="#EF5D60" stroke-width="2"/>
<path d="M640.5 582L667 600.5" stroke="#EF1C3C" stroke-width="2"/>
<path d="M535 520L567.5 540" stroke="#EF1C3C" stroke-width="2"/>
<path d="M590.5 554L618 569.5" stroke="#EF1C3C" stroke-width="2"/>
</svg>
