<svg width="66" height="119" viewBox="0 0 66 119" fill="none" xmlns="http://www.w3.org/2000/svg">
<path d="M30.836 111.752C14.0823 111.752 0.476562 109.725 0.476562 107.217V113.886C0.476562 116.394 14.0823 118.422 30.836 118.422C47.5897 118.422 61.1954 116.394 61.1954 113.886V107.217C61.1954 109.725 47.5897 111.752 30.836 111.752Z" fill="#5D5D5D"/>
<path d="M30.836 111.752C47.6031 111.752 61.1954 109.722 61.1954 107.217C61.1954 104.712 47.6031 102.682 30.836 102.682C14.069 102.682 0.476562 104.712 0.476562 107.217C0.476562 109.722 14.069 111.752 30.836 111.752Z" fill="#898686"/>
<path d="M30.836 30.5445C14.0823 30.5445 0.476562 28.517 0.476562 26.0093V32.6788C0.476562 35.1865 14.0823 37.214 30.836 37.214C47.5897 37.214 61.1954 35.1865 61.1954 32.6788V26.0093C61.1954 28.517 47.5897 30.5445 30.836 30.5445Z" fill="#5D5D5D"/>
<path d="M30.836 30.5446C47.6031 30.5446 61.1954 28.5141 61.1954 26.0094C61.1954 23.5046 47.6031 21.4741 30.836 21.4741C14.069 21.4741 0.476562 23.5046 0.476562 26.0094C0.476562 28.5141 14.069 30.5446 30.836 30.5446Z" fill="#898686"/>
<path d="M57.0341 106.844C53.2459 101.188 53.1925 96.4393 56.2872 86.7819C57.7811 81.7131 58.5815 76.1108 58.5815 70.1883C58.5815 64.3725 57.7811 58.8235 56.3405 53.7547C56.3405 53.7013 56.3405 53.5946 56.2872 53.5413C53.5127 44.8976 53.2459 40.149 55.9137 35.2402C50.4714 36.4141 41.2408 37.2144 30.7831 37.2144C20.3254 37.2144 11.0948 36.4141 5.65253 35.2402C8.37368 40.2023 8.05353 44.8976 5.27903 53.5413C5.27903 53.5946 5.22569 53.7013 5.22569 53.7547C3.78508 58.7701 2.98474 64.3191 2.98474 70.1883C2.98474 76.0574 3.78507 81.6598 5.27903 86.7819C8.37367 96.4927 8.37366 101.241 4.53204 106.844C4.37197 106.95 4.26526 107.11 4.26526 107.217C4.26526 108.765 16.1103 109.992 30.7298 109.992C45.3492 109.992 57.1942 108.765 57.1942 107.217C57.3009 107.11 57.1942 106.95 57.0341 106.844Z" fill="#EF5D60"/>
<path d="M38.8393 84.7005C35.2645 84.7005 31.6363 84.4338 28.0614 83.9002C18.9909 82.513 10.7208 79.6851 3.30432 75.3633C3.41103 76.6438 3.57109 77.9243 3.73116 79.1515C11.0409 83.3133 19.151 86.0878 28.0614 87.4217C31.6896 87.9552 35.2645 88.222 38.8393 88.222C45.0819 88.222 50.8977 87.6351 56.4467 86.3012C56.8202 85.074 57.0869 83.7935 57.3537 82.5129C51.4846 84.0603 45.4021 84.7005 38.8393 84.7005Z" fill="#FFABAF"/>
<path d="M38.8393 92.4375C35.2644 92.4375 31.6362 92.1707 28.0614 91.6371C19.5245 90.3566 11.6811 87.7421 4.63818 83.8472C4.85161 84.8076 5.1184 85.768 5.38518 86.7284C5.54524 87.1552 5.65196 87.5821 5.75867 87.9556C12.5349 91.4771 20.0047 93.8781 28.0614 95.1053C31.6896 95.6388 35.2644 95.9056 38.8393 95.9056C44.2816 95.9056 49.457 95.4254 54.3658 94.4116C54.5258 93.2912 54.7926 92.0106 55.1661 90.7301C49.9372 91.9573 44.5483 92.4375 38.8393 92.4375Z" fill="#FFABAF"/>
<path d="M54.0989 97.5062C49.2435 98.4667 44.1747 98.9469 38.8391 98.9469C35.2643 98.9469 31.6361 98.6801 28.0612 98.1465C20.378 96.9727 13.2283 94.7318 6.71893 91.4771C7.03907 92.8643 7.30583 94.1982 7.46589 95.372C13.7619 98.4667 20.6981 100.548 28.1146 101.668C31.7428 102.202 35.3176 102.468 38.8925 102.468C44.3881 102.468 49.5636 101.988 54.4724 100.974C54.2056 99.9073 54.0455 98.7334 54.0989 97.5062Z" fill="#FFABAF"/>
<path d="M38.8394 75.9507C35.2646 75.9507 31.6364 75.6839 28.0616 75.1503C18.9377 73.7631 10.6142 70.8819 3.19775 66.5601C3.14439 67.6805 3.09106 68.8544 3.09106 70.0282C10.5609 74.4034 18.9377 77.2846 28.0616 78.6718C31.6898 79.2054 35.2646 79.4722 38.8394 79.4722C45.7223 79.4722 52.125 78.7252 58.2609 77.0712C58.421 75.8973 58.4744 74.6701 58.5811 73.4429C52.3385 75.2037 45.829 75.9507 38.8394 75.9507Z" fill="#FFABAF"/>
<path d="M58.4206 65.5459C52.2313 67.2533 45.7753 68.0003 38.7857 68.0003C35.2108 68.0003 31.5826 67.7335 28.0078 67.1999C19.2575 65.866 11.2007 63.1449 3.9977 59.0898C3.78428 60.157 3.62423 61.2241 3.51752 62.3445C10.8806 66.5596 19.044 69.3341 28.0078 70.7214C31.636 71.255 35.2108 71.5217 38.7857 71.5217C45.8286 71.5217 52.3381 70.7747 58.5807 69.014C58.5807 67.8935 58.5273 66.7197 58.4206 65.5459Z" fill="#FFABAF"/>
<path d="M57.4606 58.2899C51.5915 59.8372 45.4022 60.4775 38.8394 60.4775C35.2646 60.4775 31.6364 60.2107 28.0616 59.6772C19.9515 58.45 12.4817 56.049 5.70549 52.4741C5.59877 52.7943 5.49208 53.1677 5.38536 53.5412C5.38536 53.5946 5.33199 53.7013 5.33199 53.7547C5.17192 54.3416 5.01187 54.9818 4.85181 55.5687C11.8414 59.4104 19.6314 61.9181 28.0616 63.252C31.6898 63.7856 35.2646 64.0523 38.8394 64.0523C45.669 64.0523 52.0183 63.3587 58.0475 61.7047C57.8875 60.5308 57.674 59.4104 57.4606 58.2899Z" fill="#FFABAF"/>
<path d="M28.0081 51.7273C20.5916 50.6068 13.6554 48.4726 7.30605 45.3779C7.14598 46.3917 6.93255 47.4588 6.66577 48.6326C13.1752 51.8873 20.2715 54.1283 27.9547 55.3021C31.5829 55.8357 35.1578 56.1024 38.7326 56.1024C44.9752 56.1024 50.791 55.5155 56.3934 54.1283C56.34 54.0216 56.34 53.8615 56.2867 53.7548C56.2867 53.7014 56.2867 53.5947 56.2333 53.5414C55.9132 52.581 55.6464 51.6739 55.433 50.8202C50.1507 51.9941 44.6018 52.5276 38.7326 52.5276C35.2111 52.581 31.6363 52.2608 28.0081 51.7273Z" fill="#FFABAF"/>
<path d="M38.8392 105.083C35.2644 105.083 31.6362 104.816 28.0613 104.282C20.6982 103.162 13.8687 101.081 7.57271 98.0396C7.57271 99.2134 7.41265 100.334 7.14587 101.401C13.5486 104.549 20.4848 106.683 28.008 107.857C31.6362 108.391 35.211 108.657 38.7858 108.657C45.1885 108.657 51.111 108.017 56.8201 106.63C56.1265 105.563 55.5396 104.549 55.1127 103.482C49.9906 104.549 44.5483 105.083 38.8392 105.083Z" fill="#FFABAF"/>
<path d="M38.8394 45.0572C35.2646 45.0572 31.6364 44.7904 28.0616 44.2569C20.3783 43.083 13.282 40.8955 6.77258 37.5874C7.19943 38.8679 7.46621 40.1485 7.57292 41.5357C13.8689 44.577 20.6985 46.6579 28.0616 47.7783C31.6897 48.3119 35.2646 48.5787 38.8394 48.5787C44.3884 48.5787 49.6173 48.0985 54.5794 47.0314C54.3126 45.8042 54.2059 44.6837 54.0992 43.5632C49.2438 44.577 44.175 45.0572 38.8394 45.0572Z" fill="#FFABAF"/>
<path d="M38.839 39.2951C35.2641 39.2951 31.6359 39.0283 28.0611 38.4947C25.4467 38.1213 22.8856 37.5877 20.4312 36.9474C15.0423 36.6807 10.4003 36.1471 6.93219 35.5068C13.3882 38.7082 20.4312 40.8958 28.0611 42.0696C31.6893 42.6031 35.2641 42.8699 38.839 42.8699C44.2279 42.8699 49.2967 42.4431 54.1521 41.4293C54.2588 40.1488 54.4722 38.9216 54.8991 37.7478C49.7769 38.8149 44.4413 39.2951 38.839 39.2951Z" fill="#FFABAF"/>
<path d="M64.2901 0.292122C62.5294 -0.454859 58.1542 5.89447 54.526 14.4847C53.7257 16.3522 53.0321 18.1663 52.4985 19.927L20.8585 103.749L58.5811 22.4348C59.3814 20.8341 60.2351 19.0733 61.0354 17.1525C64.5569 8.61561 66.0508 1.0391 64.2901 0.292122ZM56.8203 18.0596C56.0733 17.7395 56.8203 14.378 58.4743 10.4831C60.1284 6.58809 62.0492 3.7069 62.7428 3.97368C63.4898 4.29382 62.7428 7.65521 61.0888 11.5502C59.4347 15.4451 57.5139 18.3797 56.8203 18.0596Z" fill="#AFD1DD"/>
<path d="M56.7668 55.1953C49.8306 58.9302 42.1473 61.4379 33.7705 62.7185C30.1423 63.252 26.5675 63.5188 22.9926 63.5188C16.1631 63.5188 9.81372 62.7718 3.73116 61.1711C3.57109 62.2916 3.41103 63.4654 3.30432 64.5859C9.49359 66.2933 16.003 67.0403 22.9926 67.0403C26.5675 67.0403 30.1957 66.7735 33.7705 66.2399C42.4141 64.906 50.3641 62.2916 57.5138 58.2899C57.247 57.2762 57.0336 56.2624 56.7668 55.1953Z" fill="#FFD9DD"/>
<path d="M58.2074 63.252C50.8976 67.4671 42.6808 70.2416 33.7171 71.6288C30.0889 72.1624 26.514 72.4292 22.9392 72.4292C15.8429 72.4292 9.2801 71.6288 3.03748 69.8681C3.03748 69.9748 3.03748 70.0282 3.03748 70.1349C3.03748 71.2553 3.09084 72.3758 3.14419 73.4429C9.38682 75.2036 15.8962 75.9506 22.9926 75.9506C26.5674 75.9506 30.1956 75.6838 33.7704 75.1503C42.8409 73.763 51.111 70.9352 58.5275 66.6134C58.4208 65.4929 58.3674 64.3724 58.2074 63.252Z" fill="#FFD9DD"/>
<path d="M33.7701 79.5785C30.1419 80.1121 26.5671 80.3789 22.9923 80.3789C16.1094 80.3789 9.70666 79.6319 3.57074 77.9779C3.73081 79.2584 3.94425 80.4856 4.15767 81.6594C10.0802 83.2068 16.3228 83.9004 22.9923 83.9004C26.5671 83.9004 30.1953 83.6336 33.7701 83.1001C42.8406 81.7128 51.1108 78.8849 58.4739 74.6165C58.5806 73.4426 58.5806 72.2155 58.6339 70.9883C51.1641 75.3635 42.8406 78.1913 33.7701 79.5785Z" fill="#FFD9DD"/>
<path d="M33.7703 88.4895C30.1421 89.023 26.5672 89.2898 22.9924 89.2898C16.8565 89.2898 11.094 88.7029 5.59839 87.369C6.02523 88.7029 6.39873 89.9834 6.6655 91.1573C11.841 92.2777 17.2833 92.8113 22.9924 92.8113C26.5672 92.8113 30.1954 92.5445 33.7703 92.011C42.2005 90.7304 49.9371 88.1693 56.98 84.3811C57.3002 83.1005 57.5669 81.7666 57.7804 80.3794C50.524 84.4344 42.5206 87.1556 33.7703 88.4895Z" fill="#FFD9DD"/>
<path d="M33.77 99.3739C30.1418 99.9074 26.567 100.174 22.9921 100.174C17.6032 100.174 12.481 99.7474 7.57231 98.7336C7.51896 99.9074 7.30555 101.028 6.98541 102.148C12.0542 103.216 17.3898 103.749 23.0455 103.749C26.6203 103.749 30.2485 103.482 33.8234 102.949C41.1331 101.828 47.9627 99.7474 54.2053 96.7594C54.2586 95.5856 54.4721 94.3584 54.7388 92.9712C48.2294 96.0658 41.2932 98.2001 33.77 99.3739Z" fill="#FFD9DD"/>
<path d="M33.7707 53.9678C30.1425 54.5013 26.5677 54.7681 22.9929 54.7681C16.8569 54.7681 11.0945 54.1812 5.59886 52.8473C5.5455 53.0607 5.49216 53.2741 5.38545 53.4876C5.38545 53.5409 5.33208 53.6476 5.33208 53.701C5.11865 54.5013 4.90526 55.3017 4.69183 56.1554C10.4543 57.6493 16.5368 58.2896 22.9929 58.2896C26.5677 58.2896 30.1959 58.0228 33.7707 57.4893C41.614 56.3154 48.8704 54.0211 55.4865 50.6597C55.1664 49.5393 54.8996 48.5255 54.6862 47.5117C48.2835 50.6597 41.2939 52.7939 33.7707 53.9678Z" fill="#FFD9DD"/>
<path d="M33.77 45.0576C30.1418 45.5912 26.567 45.858 22.9921 45.858C17.5499 45.858 12.4277 45.3777 7.51897 44.364C7.41226 45.4311 7.25219 46.5516 6.98541 47.7788C12.0542 48.8992 17.3898 49.3794 23.0455 49.3794C26.6203 49.3794 30.2485 49.1127 33.8234 48.5791C41.1331 47.4586 47.9093 45.3778 54.1519 42.3898C54.1519 41.0559 54.312 39.8287 54.6321 38.6016C48.1761 41.8029 41.2398 43.9372 33.77 45.0576Z" fill="#FFD9DD"/>
</svg>
