<svg width="60" height="60" viewBox="0 0 60 60" fill="none" xmlns="http://www.w3.org/2000/svg">
<g clip-path="url(#clip0)">
<path d="M56.031 40.0602C55.2892 38.8468 53.9976 38.1223 52.5762 38.1223H50.5803L51.0381 17.4892C51.0489 17.0039 50.6643 16.6017 50.1789 16.5909C49.6916 16.5781 49.2915 16.9648 49.2807 17.4501L49.2163 20.3542H45.4277L45.2498 12.3375C45.2473 12.2208 45.3057 12.1433 45.3406 12.1075C45.3756 12.0717 45.4517 12.0116 45.5684 12.0116H49.0754C49.1922 12.0116 49.2683 12.0717 49.3032 12.1075C49.3383 12.1433 49.3966 12.2208 49.3941 12.3374L49.369 13.4671C49.3582 13.9524 49.7428 14.3546 50.2282 14.3654C50.2349 14.3655 50.2413 14.3656 50.248 14.3656C50.7243 14.3656 51.1157 13.9847 51.1264 13.5062L51.1514 12.3764C51.1623 11.8863 51.0042 11.42 50.7037 11.0417C51.5268 10.1824 51.9978 9.03629 51.9978 7.81388C51.9978 6.03976 50.7651 2.71392 50.0305 0.889636C49.7524 0.198336 48.977 -0.16167 48.2654 0.070248C45.0497 1.11733 43.4432 3.55546 42.8833 5.8696C39.2394 4.20633 35.346 3.36081 31.3037 3.36081C23.8425 3.36081 16.828 6.26616 11.5522 11.5419C6.27647 16.8175 3.37088 23.8321 3.37088 31.2932C3.37076 37.7131 5.58717 43.9756 9.61203 48.9268C9.78571 49.1405 10.0391 49.2514 10.2945 49.2513C10.4893 49.2513 10.6854 49.1869 10.8484 49.0544C11.2251 48.7482 11.2822 48.1947 10.976 47.818C7.2052 43.1792 5.12872 37.3106 5.12872 31.2932C5.12884 24.3016 7.8515 17.7285 12.7952 12.7848C17.739 7.84119 24.312 5.11865 31.3038 5.11865C35.1989 5.11865 38.9465 5.9535 42.4425 7.5999C42.5115 7.63236 42.5799 7.66611 42.6479 7.70021C42.6474 7.73806 42.6461 7.7765 42.6461 7.814C42.6461 9.03652 43.1171 10.1826 43.9402 11.042C43.6396 11.4203 43.4816 11.8864 43.4924 12.3767L43.6895 21.256C42.3758 22.2058 40.7647 22.7074 39.0114 22.7074C34.2769 22.7074 30.4249 26.5593 30.4249 31.2938C30.4249 36.0284 34.2768 39.8804 39.0114 39.8804H39.5704C40.056 39.8804 40.4494 39.4869 40.4494 39.0015C40.4494 38.5161 40.056 38.1226 39.5704 38.1226H39.0114C35.246 38.1226 32.1827 35.0592 32.1827 31.2938C32.1827 27.5284 35.246 24.4652 39.0114 24.4652C40.7233 24.4652 42.3306 24.0651 43.7349 23.3006L44.0638 38.1226H43.5548C43.0692 38.1226 42.6758 38.5161 42.6758 39.0015C42.6758 39.4869 43.0692 39.8804 43.5548 39.8804H52.5761C53.3804 39.8804 54.1113 40.2904 54.5312 40.9772C54.9495 41.6617 54.9814 42.4958 54.6163 43.2088C52.4512 47.4358 49.1738 51.0008 45.1382 53.5184C40.9952 56.103 36.2118 57.4689 31.3037 57.4689C31.298 57.4689 31.2923 57.4689 31.2866 57.4689C24.7159 57.4647 18.4424 55.0339 13.622 50.6243C13.2637 50.2965 12.7078 50.3214 12.3802 50.6796C12.0525 51.0378 12.0773 51.5937 12.4355 51.9214C17.5806 56.6278 24.2749 59.2223 31.2855 59.2267H31.3038C36.0147 59.2267 40.6192 58.0462 44.7155 55.801L44.7441 57.4663C44.7682 58.8634 45.9247 60.0002 47.322 60.0002C48.7195 60.0002 49.8758 58.8634 49.8999 57.4662L49.9928 52.0536C52.5188 49.7788 54.6207 47.0559 56.1807 44.0102C56.8274 42.7478 56.7714 41.2713 56.031 40.0602ZM50.2401 7.814C50.2401 8.80214 49.7469 9.71118 48.9197 10.2539H45.724C44.8969 9.71106 44.4037 8.80214 44.4037 7.814C44.4037 7.64502 44.4203 7.00235 44.6338 6.18308H49.9754C50.1403 6.84063 50.2401 7.40888 50.2401 7.814ZM48.5185 1.84321C48.8462 2.67173 49.1759 3.56776 49.4579 4.42512H45.3618C45.9615 3.41917 46.9346 2.43208 48.5185 1.84321ZM45.822 38.1224L45.4667 22.1122H49.1773L48.8221 38.1224H45.822ZM48.1423 57.4359C48.1346 57.8806 47.7667 58.2422 47.322 58.2422C46.8774 58.2422 46.5093 57.8804 46.5017 57.4359L46.4559 54.7634C47.0573 54.3745 47.6417 53.9628 48.2093 53.5308L48.1423 57.4359Z" fill="black"/>
<path d="M14.358 19.7358C11.5647 19.7358 9.29218 22.0084 9.29218 24.8017C9.29218 27.595 11.5647 29.8676 14.358 29.8676C17.1514 29.8676 19.4239 27.595 19.4239 24.8017C19.4239 22.0084 17.1514 19.7358 14.358 19.7358ZM14.358 28.1097C12.5341 28.1097 11.05 26.6258 11.05 24.8017C11.05 22.9776 12.534 21.4937 14.358 21.4937C16.1821 21.4937 17.6661 22.9776 17.6661 24.8017C17.6661 26.6258 16.182 28.1097 14.358 28.1097Z" fill="black"/>
<path d="M14.358 42.8519C17.1514 42.8519 19.4239 40.5794 19.4239 37.7861C19.4239 34.9928 17.1514 32.7202 14.358 32.7202C11.5647 32.7202 9.29218 34.9928 9.29218 37.7861C9.29218 40.5794 11.5647 42.8519 14.358 42.8519ZM14.358 34.4782C16.182 34.4782 17.6661 35.9621 17.6661 37.7862C17.6661 39.6102 16.1821 41.0942 14.358 41.0942C12.534 41.0942 11.05 39.6102 11.05 37.7862C11.05 35.9621 12.5341 34.4782 14.358 34.4782Z" fill="#FF2748"/>
<path d="M23.2078 10.3359C20.4145 10.3359 18.1418 12.6085 18.1418 15.4018C18.1418 18.1951 20.4145 20.4677 23.2078 20.4677C26.0011 20.4677 28.2737 18.1951 28.2737 15.4018C28.2737 12.6085 26.0011 10.3359 23.2078 10.3359ZM23.2078 18.7097C21.3838 18.7097 19.8997 17.2257 19.8997 15.4017C19.8997 13.5776 21.3837 12.0937 23.2078 12.0937C25.0318 12.0937 26.5158 13.5776 26.5158 15.4017C26.5158 17.2257 25.0318 18.7097 23.2078 18.7097Z" fill="#FF2748"/>
<path d="M23.2078 42.1204C20.4145 42.1204 18.1418 44.3929 18.1418 47.1862C18.1418 49.9796 20.4145 52.2521 23.2078 52.2521C26.0011 52.2521 28.2737 49.9796 28.2737 47.1862C28.2737 44.3929 26.0011 42.1204 23.2078 42.1204ZM23.2078 50.4941C21.3838 50.4941 19.8997 49.0102 19.8997 47.1861C19.8997 45.3621 21.3837 43.8781 23.2078 43.8781C25.0318 43.8781 26.5158 45.3621 26.5158 47.1861C26.5158 49.0102 25.0318 50.4941 23.2078 50.4941Z" fill="black"/>
<path d="M40.8315 13.791C40.8315 10.9976 38.5589 8.7251 35.7656 8.7251C32.9723 8.7251 30.6997 10.9976 30.6997 13.791C30.6997 16.5843 32.9723 18.8568 35.7656 18.8568C38.5589 18.8568 40.8315 16.5843 40.8315 13.791ZM32.4577 13.791C32.4577 11.9669 33.9417 10.4829 35.7657 10.4829C37.5898 10.4829 39.0737 11.9669 39.0737 13.791C39.0737 15.615 37.5898 17.099 35.7657 17.099C33.9417 17.099 32.4577 15.615 32.4577 13.791Z" fill="black"/>
<path d="M35.7657 53.8627C38.559 53.8627 40.8316 51.5901 40.8316 48.7968C40.8316 46.0035 38.559 43.731 35.7657 43.731C32.9724 43.731 30.6999 46.0035 30.6999 48.7968C30.6999 51.5901 32.9724 53.8627 35.7657 53.8627ZM35.7657 45.4889C37.5897 45.4889 39.0737 46.9729 39.0737 48.7969C39.0737 50.621 37.5898 52.105 35.7657 52.105C33.9417 52.105 32.4577 50.621 32.4577 48.7969C32.4577 46.9729 33.9417 45.4889 35.7657 45.4889Z" fill="#FF2748"/>
</g>
<defs>
<clipPath id="clip0">
<rect width="60" height="60" fill="white"/>
</clipPath>
</defs>
</svg>
