<svg width="66" height="66" viewBox="0 0 66 66" fill="none" xmlns="http://www.w3.org/2000/svg">
<path d="M63.6353 35.3647L50.8334 22.5627C50.5468 22.2743 50.2058 22.0456 49.8302 21.89C49.4545 21.7344 49.0517 21.655 48.6451 21.6563H30.9375V23.7188H36.0938V39.1875H38.1562V23.7188H48.6451C48.7807 23.7187 48.915 23.7453 49.0402 23.7971C49.1655 23.849 49.2794 23.925 49.3752 24.0209L51.1356 25.7813H46.4062C45.8592 25.7813 45.3346 25.9986 44.9478 26.3854C44.561 26.7722 44.3438 27.2968 44.3438 27.8438V37.125C44.3438 37.672 44.561 38.1966 44.9478 38.5834C45.3346 38.9702 45.8592 39.1875 46.4062 39.1875H61.875V47.4375C61.875 47.711 61.7663 47.9733 61.573 48.1667C61.3796 48.3601 61.1173 48.4688 60.8438 48.4688H58.6987C58.4522 46.7519 57.5949 45.1814 56.2841 44.0455C54.9734 42.9095 53.297 42.2842 51.5625 42.2842C49.828 42.2842 48.1516 42.9095 46.8409 44.0455C45.5301 45.1814 44.6728 46.7519 44.4263 48.4688H29.8237C29.5772 46.7519 28.7199 45.1814 27.4091 44.0455C26.0984 42.9095 24.422 42.2842 22.6875 42.2842C20.953 42.2842 19.2766 42.9095 17.9659 44.0455C16.6551 45.1814 15.7978 46.7519 15.5512 48.4688H13.4062C13.1327 48.4688 12.8704 48.3601 12.677 48.1667C12.4836 47.9733 12.375 47.711 12.375 47.4375V38.1563H10.3125V47.4375C10.3125 48.258 10.6384 49.0449 11.2186 49.6251C11.7988 50.2053 12.5857 50.5313 13.4062 50.5313H15.5512C15.7763 52.0993 16.5126 53.5493 17.6457 54.6563H2.0625V56.7188H51.5625C53.2965 56.7154 54.9716 56.0886 56.2817 54.9526C57.5919 53.8166 58.4498 52.2473 58.6987 50.5313H60.8438C61.6643 50.5313 62.4512 50.2053 63.0314 49.6251C63.6115 49.0449 63.9375 48.258 63.9375 47.4375V36.0938C63.9374 35.8203 63.8288 35.558 63.6353 35.3647ZM17.5312 49.5C17.5312 48.4802 17.8337 47.4833 18.4002 46.6354C18.9668 45.7874 19.7721 45.1265 20.7143 44.7363C21.6565 44.346 22.6932 44.2439 23.6934 44.4428C24.6936 44.6418 25.6124 45.1329 26.3335 45.854C27.0546 46.5751 27.5457 47.4939 27.7447 48.4941C27.9436 49.4943 27.8415 50.531 27.4513 51.4732C27.061 52.4154 26.4001 53.2207 25.5522 53.7873C24.7042 54.3539 23.7073 54.6563 22.6875 54.6563C21.3205 54.6546 20.0099 54.1109 19.0433 53.1442C18.0767 52.1776 17.5329 50.867 17.5312 49.5ZM27.7293 54.6563C28.8624 53.5493 29.5987 52.0993 29.8237 50.5313H44.4263C44.6513 52.0993 45.3876 53.5493 46.5207 54.6563H27.7293ZM51.5625 54.6563C50.5427 54.6563 49.5458 54.3539 48.6978 53.7873C47.8499 53.2207 47.189 52.4154 46.7987 51.4732C46.4085 50.531 46.3064 49.4943 46.5053 48.4941C46.7043 47.4939 47.1954 46.5751 47.9165 45.854C48.6376 45.1329 49.5564 44.6418 50.5566 44.4428C51.5568 44.2439 52.5935 44.346 53.5357 44.7363C54.4779 45.1265 55.2832 45.7874 55.8498 46.6354C56.4163 47.4833 56.7188 48.4802 56.7188 49.5C56.7171 50.867 56.1733 52.1776 55.2067 53.1442C54.2401 54.1109 52.9295 54.6546 51.5625 54.6563ZM46.4062 37.125V27.8438H53.1981L61.875 36.5207V37.125H46.4062Z" fill="black"/>
<path d="M23.7188 48.4688H21.6562V50.5312H23.7188V48.4688Z" fill="black"/>
<path d="M52.5938 48.4688H50.5312V50.5312H52.5938V48.4688Z" fill="black"/>
<path d="M7.21875 45.375H2.0625V47.4375H7.21875V45.375Z" fill="black"/>
<path d="M7.21875 41.25H4.125V43.3125H7.21875V41.25Z" fill="black"/>
<path d="M7.21875 37.125H5.15625V39.1875H7.21875V37.125Z" fill="black"/>
<path d="M15.4688 36.0937C18.1203 36.0937 20.7122 35.3075 22.9169 33.8344C25.1215 32.3613 26.8398 30.2675 27.8545 27.8178C28.8692 25.3682 29.1347 22.6726 28.6174 20.0721C28.1001 17.4715 26.8233 15.0828 24.9484 13.2079C23.0735 11.333 20.6847 10.0561 18.0842 9.53885C15.4836 9.02157 12.7881 9.28706 10.3384 10.3017C7.88873 11.3164 5.79496 13.0347 4.32186 15.2394C2.84876 17.444 2.0625 20.036 2.0625 22.6875C2.06659 26.2418 3.48035 29.6494 5.99362 32.1626C8.50689 34.6759 11.9144 36.0896 15.4688 36.0937ZM15.4688 11.3438C17.7123 11.3438 19.9055 12.0091 21.771 13.2555C23.6365 14.502 25.0904 16.2736 25.949 18.3464C26.8076 20.4192 27.0322 22.7001 26.5945 24.9006C26.1568 27.101 25.0764 29.1223 23.49 30.7087C21.9035 32.2952 19.8823 33.3756 17.6818 33.8133C15.4813 34.251 13.2005 34.0263 11.1277 33.1678C9.05489 32.3092 7.28323 30.8552 6.03677 28.9897C4.7903 27.1243 4.125 24.9311 4.125 22.6875C4.12855 19.68 5.32483 16.7968 7.45143 14.6702C9.57802 12.5436 12.4613 11.3473 15.4688 11.3438Z" fill="black"/>
<path d="M15.4688 31.9688C15.7422 31.9687 16.0045 31.86 16.1978 31.6666C16.862 31.0025 22.6875 25.0491 22.6875 20.625C22.6875 18.7105 21.927 16.8744 20.5732 15.5206C19.2194 14.1668 17.3833 13.4062 15.4688 13.4062C13.5542 13.4062 11.7181 14.1668 10.3643 15.5206C9.01055 16.8744 8.25 18.7105 8.25 20.625C8.25 25.0491 14.0755 31.0025 14.7397 31.6666C14.933 31.86 15.1953 31.9687 15.4688 31.9688ZM15.4688 15.4688C16.8358 15.4704 18.1463 16.0142 19.113 16.9808C20.0796 17.9474 20.6234 19.258 20.625 20.625C20.625 23.2712 17.3797 27.3601 15.4688 29.4432C13.5578 27.3601 10.3125 23.2712 10.3125 20.625C10.3141 19.258 10.8579 17.9474 11.8245 16.9808C12.7912 16.0142 14.1017 15.4704 15.4688 15.4688Z" fill="#FF2748"/>
<path d="M18.5625 20.625C18.5625 20.0131 18.3811 19.415 18.0411 18.9062C17.7012 18.3974 17.218 18.0009 16.6527 17.7667C16.0874 17.5326 15.4653 17.4713 14.8652 17.5907C14.2651 17.7101 13.7138 18.0047 13.2811 18.4374C12.8485 18.8701 12.5538 19.4213 12.4344 20.0214C12.3151 20.6216 12.3763 21.2436 12.6105 21.8089C12.8447 22.3742 13.2412 22.8574 13.75 23.1974C14.2587 23.5373 14.8569 23.7187 15.4688 23.7187C16.2893 23.7187 17.0762 23.3928 17.6564 22.8126C18.2366 22.2324 18.5625 21.4455 18.5625 20.625ZM14.4375 20.625C14.4375 20.421 14.498 20.2217 14.6113 20.0521C14.7246 19.8825 14.8857 19.7503 15.0741 19.6722C15.2625 19.5942 15.4699 19.5738 15.6699 19.6136C15.87 19.6534 16.0537 19.7516 16.198 19.8958C16.3422 20.04 16.4404 20.2238 16.4802 20.4238C16.52 20.6239 16.4996 20.8312 16.4215 21.0196C16.3434 21.2081 16.2113 21.3691 16.0417 21.4825C15.8721 21.5958 15.6727 21.6562 15.4688 21.6562C15.1952 21.6562 14.9329 21.5476 14.7395 21.3542C14.5461 21.1608 14.4375 20.8985 14.4375 20.625Z" fill="#FF2748"/>
<path d="M45.375 41.25H41.25V43.3125H45.375V41.25Z" fill="black"/>
</svg>
