<svg width="60" height="60" viewBox="0 0 60 60" fill="none" xmlns="http://www.w3.org/2000/svg">
<g clip-path="url(#clip0)">
<path d="M8.36942 27.0292C8.77676 27.2927 9.32063 27.1764 9.58454 26.7689C11.7124 23.4816 11.8164 22.2527 16.1836 7.50938H33.425L35.481 29.5812C35.526 30.0641 35.9538 30.4195 36.4374 30.3745C36.9206 30.3295 37.2758 29.9013 37.2308 29.418L34.6465 1.67355C34.6453 1.66078 34.6439 1.64812 34.642 1.63535C34.5138 0.703125 33.707 0 32.7652 0H17.9913C17.1457 0 16.415 0.545156 16.1728 1.35785C9.90211 22.527 10.0833 22.7639 8.10914 25.8141C7.84547 26.2214 7.96196 26.7655 8.36942 27.0292ZM17.8575 1.85836C17.8754 1.79801 17.9293 1.75746 17.9913 1.75746H32.7652C32.83 1.75746 32.8859 1.80293 32.8992 1.8648L33.2613 5.75215H16.7041L17.8575 1.85836Z" fill="black"/>
<path d="M28.6962 23.4593C28.2895 23.7241 28.1747 24.2686 28.4395 24.6751C28.7043 25.0818 29.2487 25.1967 29.6554 24.9318C30.205 24.5738 31.3233 24.0121 31.3233 22.541V11.9061C31.3233 11.1001 30.6676 10.4443 29.8615 10.4443H18.8483C18.0423 10.4443 17.3865 11.1001 17.3865 11.9061V22.541C17.3865 23.3577 17.7951 24.1116 18.4794 24.5572L23.0414 27.5291C23.4332 27.7843 23.8873 27.9192 24.3547 27.9192C25.2312 27.9192 25.6565 27.5368 26.7102 26.8504C27.1168 26.5855 27.2317 26.0411 26.9669 25.6345C26.702 25.228 26.1576 25.1129 25.751 25.3779L24.7091 26.0566C24.4981 26.1942 24.2121 26.1943 24.0008 26.0566L19.4388 23.0848C19.2543 22.9646 19.1441 22.7613 19.1441 22.5411V12.2017H29.566V22.541C29.5661 22.9744 29.2539 23.0961 28.6962 23.4593Z" fill="#EF1C3C"/>
<path d="M52.95 55.0112C55.3848 51.8167 53.0609 47.2715 49.1201 47.2715C46.4116 47.2715 44.2982 49.4672 44.2982 52.0875C44.2982 56.7067 50.1758 58.6516 52.95 55.0112ZM46.6822 50.2349C47.7274 48.8636 49.6518 48.6489 50.9729 49.6555C53.2829 51.4157 52.0553 55.1521 49.1144 55.1521C46.5746 55.1521 45.158 52.2351 46.6822 50.2349Z" fill="black"/>
<path d="M53.5794 37.2848C53.7626 36.8354 53.5468 36.3226 53.0974 36.1394C52.6483 35.9562 52.1352 36.1719 51.952 36.6213C51.488 37.7598 50.3508 38.5247 49.1224 38.5247C47.415 38.5247 46.0555 37.1319 46.0555 35.4678C46.0555 32.2929 50.2807 31.2374 51.7987 33.9848C52.0333 34.4096 52.5681 34.5636 52.9928 34.329C53.4176 34.0943 53.5715 33.5597 53.3369 33.135C50.9455 28.8067 44.2982 30.4753 44.2982 35.4678C44.2982 38.0912 46.4407 40.282 49.1224 40.282C51.0875 40.2821 52.837 39.1056 53.5794 37.2848Z" fill="black"/>
<path d="M53.9025 41.7423C57.3735 39.0972 58.0627 34.1203 55.3531 30.6233C56.3726 29.6037 57.22 28.9911 57.22 27.5968C57.22 25.1377 54.2193 23.8427 52.4428 25.6188L50.3852 27.6764C45.0442 26.8081 40.4693 31.4197 41.3279 36.7345L38.2097 39.1112L38.128 39.0489L37.557 32.9177C37.5118 32.4345 37.0839 32.0798 36.6006 32.1243C36.1173 32.1693 35.7622 32.5975 35.8071 33.0808L36.2282 37.6012C34.839 36.5426 30.1259 32.8232 27.8025 31.8814L21.9101 29.4901C20.1602 28.781 18.2856 30.0493 18.2856 31.933C18.2856 32.7773 18.6705 33.5548 19.3417 34.0659L35.4184 46.3167H32.9714C32.486 46.3167 32.0927 46.7101 32.0927 47.1953C32.0927 47.6806 32.4861 48.074 32.9714 48.074H37.2042C37.2093 48.1289 38.0692 57.3403 38.0692 57.3953C38.0692 57.7991 37.7395 58.1275 37.3344 58.1275H11.5747C11.237 58.1275 10.9439 57.8987 10.862 57.571L8.48942 48.074H12.3509C12.8361 48.074 13.2295 47.6806 13.2295 47.1953C13.2295 46.7101 12.8361 46.3167 12.3509 46.3167H8.05055C4.75102 33.1088 4.55192 32.3376 4.54266 32.305C4.54266 32.2857 4.54758 32.2379 4.58895 32.2018C5.75332 31.1912 6.41309 30.6505 7.33395 29.6593C7.6643 29.3037 7.64391 28.7478 7.28836 28.4175C6.93293 28.087 6.37688 28.1076 6.04653 28.463C3.91278 30.759 2.7852 30.8893 2.7852 32.3056C2.7852 32.6019 2.36461 30.8073 9.15715 57.9971C9.435 59.1087 10.4292 59.885 11.5748 59.885H37.3342C38.7084 59.885 39.8264 58.7682 39.8264 57.3953C39.8264 57.2258 39.8757 57.8078 39.0641 49.0948L41.3236 50.8166C40.8737 53.6064 41.9122 56.5246 44.3307 58.3686H44.3306C49.5601 62.3564 57.0127 58.5603 57.0127 52.0957C57.0127 46.2917 51.0073 42.5358 45.8223 44.9125L44.1942 43.6719L45.6889 42.5763C48.2584 43.8116 51.4334 43.6238 53.9025 41.7423ZM53.6856 26.8616C54.3451 26.202 55.4625 26.6811 55.4625 27.5969C55.4625 28.1401 55.2137 28.2772 54.1275 29.3634C53.5665 28.9026 52.9527 28.5275 52.3044 28.2427L53.6856 26.8616ZM41.8492 38.5468C42.3265 39.6719 43.0801 40.7175 44.1014 41.5607L42.7365 42.5612L39.6591 40.216L41.8492 38.5468ZM46.1776 46.6996C50.2114 44.4974 55.2551 47.3826 55.2551 52.0958C55.2551 57.1196 49.4616 60.0713 45.3961 56.9712C42.1148 54.4694 41.974 49.2063 46.1776 46.6996ZM44.2168 45.8988C43.1654 46.7354 42.3566 47.8092 41.8467 49.0059L20.4064 32.668C19.598 32.0523 20.248 30.7127 21.2495 31.1187L27.1418 33.5101C29.1955 34.3425 32.4415 36.9253 44.2168 45.8988ZM45.3973 30.5813C48.0902 28.5292 51.9487 29.0525 53.9989 31.7429C57.2801 36.0488 53.7375 42.2812 48.2959 41.5451C42.9229 40.8195 41.04 33.9018 45.3973 30.5813Z" fill="black"/>
<path d="M14.9871 47.1953C14.9871 47.6806 15.3805 48.074 15.8658 48.074H20.9037C21.3891 48.074 21.7824 47.6806 21.7824 47.1953C21.7824 46.71 21.389 46.3167 20.9037 46.3167H15.8658C15.3804 46.3167 14.9871 46.71 14.9871 47.1953Z" fill="#EF1C3C"/>
<path d="M29.4562 48.074C29.9416 48.074 30.3349 47.6806 30.3349 47.1953C30.3349 46.71 29.9415 46.3167 29.4562 46.3167H24.4183C23.933 46.3167 23.5397 46.71 23.5397 47.1953C23.5397 47.6806 23.9331 48.074 24.4183 48.074H29.4562Z" fill="#EF1C3C"/>
<path d="M38.1963 44.8354C38.7827 44.8354 39.258 44.36 39.258 43.7736C39.258 43.1873 38.7827 42.7119 38.1963 42.7119C37.6099 42.7119 37.1346 43.1873 37.1346 43.7736C37.1346 44.36 37.6099 44.8354 38.1963 44.8354Z" fill="black"/>
</g>
<defs>
<clipPath id="clip0">
<rect width="60" height="60" fill="white"/>
</clipPath>
</defs>
</svg>
