<svg width="77" height="59" viewBox="0 0 77 59" fill="none" xmlns="http://www.w3.org/2000/svg">
<path d="M77 58H64.3207C65.9087 56.4518 67.1907 54.4922 68.0725 52.265C68.9543 50.0378 69.4136 47.5995 69.4167 45.129V30.4194C69.4167 29.9317 69.2569 29.464 68.9725 29.1192C68.688 28.7744 68.3023 28.5806 67.9 28.5806C67.4978 28.5806 67.112 28.7744 66.8276 29.1192C66.5431 29.464 66.3834 29.9317 66.3834 30.4194V41.4516H12.9513C12.5491 41.4516 12.1633 41.6453 11.8789 41.9902C11.5944 42.335 11.4346 42.8027 11.4346 43.2903C11.4346 43.778 11.5944 44.2457 11.8789 44.5905C12.1633 44.9353 12.5491 45.129 12.9513 45.129H66.3834C66.3834 48.5426 65.2648 51.8164 63.2738 54.2302C61.2828 56.644 58.5824 58 55.7667 58H2.6835C2.79075 56.1335 3.05501 54.2852 3.47216 52.4839H59.4219C59.8241 52.4839 60.2099 52.2902 60.4943 51.9453C60.7787 51.6005 60.9385 51.1328 60.9385 50.6452C60.9385 50.1575 60.7787 49.6898 60.4943 49.345C60.2099 49.0002 59.8241 48.8065 59.4219 48.8065H4.60966C6.37847 43.893 9.29011 39.711 12.9884 36.772C16.6867 33.833 21.0114 32.2644 25.4334 32.2581H57.2834C58.0879 32.2581 58.8594 31.8706 59.4283 31.181C59.9971 30.4913 60.3167 29.556 60.3167 28.5806V13.871C60.3167 12.8957 59.9971 11.9603 59.4283 11.2706C58.8594 10.581 58.0879 10.1935 57.2834 10.1935H26.9501C25.6059 10.1923 24.3002 9.64994 23.2378 8.65154C22.1754 7.65314 21.4167 6.25527 21.0806 4.67742H60.3167C61.9257 4.67742 63.4688 5.4523 64.6065 6.8316C65.7442 8.2109 66.3834 10.0816 66.3834 12.0323V23.0645C66.3834 23.5522 66.5431 24.0199 66.8276 24.3647C67.112 24.7095 67.4978 24.9032 67.9 24.9032C68.3023 24.9032 68.688 24.7095 68.9725 24.3647C69.2569 24.0199 69.4167 23.5522 69.4167 23.0645V12.0323C69.4167 9.10632 68.4579 6.30022 66.7514 4.23127C65.0448 2.16232 62.7302 1 60.3167 1H19.3668C18.9645 1 18.5788 1.19372 18.2943 1.53855C18.0099 1.88337 17.8501 2.35105 17.8501 2.83871C17.8501 5.76465 18.8089 8.57074 20.5154 10.6397C22.222 12.7086 24.5366 13.871 26.9501 13.871H57.2834V28.5806H51.2167V23.0645C51.2167 22.5769 51.0569 22.1092 50.7725 21.7644C50.4881 21.4195 50.1023 21.2258 49.7001 21.2258H37.5668C37.1645 21.2258 36.7787 21.4195 36.4943 21.7644C36.2099 22.1092 36.0501 22.5769 36.0501 23.0645V28.5806H25.4334C20.0311 28.5843 14.7661 30.6452 10.382 34.4723C5.99784 38.2994 2.71605 43.6993 1 49.9097" stroke="black" stroke-width="2"/>
</svg>
