<svg width="79" height="66" viewBox="0 0 79 66" fill="none" xmlns="http://www.w3.org/2000/svg">
<g clip-path="url(#clip0)">
<path d="M37.2839 22.2321C36.893 21.8549 36.6595 21.2607 36.6595 20.6423C36.6595 20.4244 36.6874 20.2084 36.7433 20.0014L37.8694 15.8271C37.9962 15.3575 37.7179 14.8736 37.2482 14.7468C36.7785 14.62 36.2947 14.8983 36.1683 15.368L35.0422 19.5428C34.9461 19.8994 34.8971 20.2697 34.8971 20.6423C34.8971 21.746 35.3215 22.7878 36.0612 23.501C38.0026 25.3724 39.1163 28.1546 39.1163 31.1338V32.7638C39.1163 33.5668 38.5867 34.22 37.9362 34.22H22.0441C21.3932 34.22 20.864 33.5668 20.864 32.7638V31.1338C20.864 28.1546 21.9773 25.3724 23.9186 23.501C24.6584 22.7878 25.0827 21.746 25.0827 20.6423C25.0827 20.2692 25.0342 19.8989 24.9381 19.5423L22.029 8.75836C21.7685 7.79156 21.9265 6.74192 22.4515 5.95045C22.8484 5.35261 23.4059 4.97724 24.0221 4.89302L27.0273 4.48286C27.8966 4.3643 28.5521 3.61311 28.5521 2.73558L28.553 1.76238L31.4278 1.7633V2.73558C31.4278 3.61311 32.0833 4.36384 32.9526 4.4824L35.9578 4.89302C36.5739 4.97679 37.1315 5.35261 37.5284 5.94999C38.0534 6.74192 38.2118 7.79156 37.9509 8.75836L37.5979 10.0671C37.4711 10.5372 37.749 11.0206 38.2191 11.1474C38.6892 11.2742 39.1722 10.9959 39.299 10.5262L39.6524 9.21704C40.0428 7.76868 39.7979 6.18345 38.9964 4.97587C38.3157 3.95003 37.3214 3.30046 36.1963 3.14711L33.1901 2.73558V1.7633C33.1901 0.791013 32.3991 0 31.4268 0H28.553C27.5807 0 26.7897 0.791013 26.7897 1.7633L26.7888 2.73696L23.7836 3.14711C22.6584 3.30046 21.6642 3.95003 20.9835 4.97587C20.1824 6.18345 19.937 7.76868 20.328 9.21704L23.2366 20.0014C23.2924 20.2084 23.3208 20.4244 23.3208 20.6423C23.3208 21.2607 23.0873 21.8549 22.696 22.2321C20.4117 24.434 19.1016 27.6786 19.1016 31.1338V32.7638C19.1016 34.5381 20.4218 35.9819 22.0441 35.9819H25.9387V37.9805C25.9387 38.6717 26.5013 39.2339 27.1921 39.2339H27.3665V45.4681C27.3665 45.9547 27.7606 46.3493 28.2472 46.3493C28.7338 46.3493 29.1284 45.9547 29.1284 45.4681V39.2339H30.8514V54.9859H29.1284V50.872C29.1284 50.3854 28.7338 49.9908 28.2472 49.9908C27.7606 49.9908 27.3665 50.3854 27.3665 50.872V54.9859H24.1594C22.7971 54.9859 21.6884 56.0946 21.6884 57.4569V58.7469C21.6884 59.4381 22.2506 60.0002 22.9418 60.0002H37.0381C37.7293 60.0002 38.2914 59.4381 38.2914 58.7469V57.4569C38.2914 56.0946 37.1827 54.9859 35.8204 54.9859H32.6138V39.2339H32.7878C33.479 39.2339 34.0411 38.6717 34.0411 37.9805V35.9819H37.9358C39.5585 35.9819 40.8783 34.5381 40.8783 32.7638V31.1338C40.8783 27.6786 39.5681 24.434 37.2839 22.2321ZM27.7011 37.4715V35.9819H32.2792V37.4715H27.7011ZM35.8204 56.7483C36.2114 56.7483 36.5295 57.066 36.5295 57.4569V58.2378H23.4508V57.4569C23.4508 57.066 23.7685 56.7483 24.1594 56.7483H35.8204Z" fill="#FF2748"/>
</g>
<g clip-path="url(#clip1)">
<path d="M56.2839 28.2321C55.893 27.8549 55.6595 27.2607 55.6595 26.6423C55.6595 26.4244 55.6874 26.2084 55.7433 26.0014L56.8694 21.8271C56.9962 21.3575 56.7179 20.8736 56.2482 20.7468C55.7785 20.62 55.2947 20.8983 55.1683 21.368L54.0422 25.5428C53.9461 25.8994 53.8971 26.2697 53.8971 26.6423C53.8971 27.746 54.3215 28.7878 55.0612 29.501C57.0026 31.3724 58.1163 34.1546 58.1163 37.1338V38.7638C58.1163 39.5668 57.5867 40.22 56.9362 40.22H41.0441C40.3932 40.22 39.864 39.5668 39.864 38.7638V37.1338C39.864 34.1546 40.9773 31.3724 42.9186 29.501C43.6584 28.7878 44.0827 27.746 44.0827 26.6423C44.0827 26.2692 44.0342 25.8989 43.9381 25.5423L41.029 14.7584C40.7685 13.7916 40.9265 12.7419 41.4515 11.9504C41.8484 11.3526 42.4059 10.9772 43.0221 10.893L46.0273 10.4829C46.8966 10.3643 47.5521 9.61311 47.5521 8.73558L47.553 7.76238L50.4278 7.7633V8.73558C50.4278 9.61311 51.0833 10.3638 51.9526 10.4824L54.9578 10.893C55.5739 10.9768 56.1315 11.3526 56.5284 11.95C57.0534 12.7419 57.2118 13.7916 56.9509 14.7584L56.5979 16.0671C56.4711 16.5372 56.749 17.0206 57.2191 17.1474C57.6892 17.2742 58.1722 16.9959 58.299 16.5262L58.6524 15.217C59.0428 13.7687 58.7979 12.1834 57.9964 10.9759C57.3157 9.95003 56.3214 9.30046 55.1963 9.14711L52.1901 8.73558V7.7633C52.1901 6.79101 51.3991 6 50.4268 6H47.553C46.5807 6 45.7897 6.79101 45.7897 7.7633L45.7888 8.73696L42.7836 9.14711C41.6584 9.30046 40.6642 9.95003 39.9835 10.9759C39.1824 12.1834 38.937 13.7687 39.328 15.217L42.2366 26.0014C42.2924 26.2084 42.3208 26.4244 42.3208 26.6423C42.3208 27.2607 42.0873 27.8549 41.696 28.2321C39.4117 30.434 38.1016 33.6786 38.1016 37.1338V38.7638C38.1016 40.5381 39.4218 41.9819 41.0441 41.9819H44.9387V43.9805C44.9387 44.6717 45.5013 45.2339 46.1921 45.2339H46.3665V51.4681C46.3665 51.9547 46.7606 52.3493 47.2472 52.3493C47.7338 52.3493 48.1284 51.9547 48.1284 51.4681V45.2339H49.8514V60.9859H48.1284V56.872C48.1284 56.3854 47.7338 55.9908 47.2472 55.9908C46.7606 55.9908 46.3665 56.3854 46.3665 56.872V60.9859H43.1594C41.7971 60.9859 40.6884 62.0946 40.6884 63.4569V64.7469C40.6884 65.4381 41.2506 66.0002 41.9418 66.0002H56.0381C56.7293 66.0002 57.2914 65.4381 57.2914 64.7469V63.4569C57.2914 62.0946 56.1827 60.9859 54.8204 60.9859H51.6138V45.2339H51.7878C52.479 45.2339 53.0411 44.6717 53.0411 43.9805V41.9819H56.9358C58.5585 41.9819 59.8783 40.5381 59.8783 38.7638V37.1338C59.8783 33.6786 58.5681 30.434 56.2839 28.2321ZM46.7011 43.4715V41.9819H51.2792V43.4715H46.7011ZM54.8204 62.7483C55.2114 62.7483 55.5295 63.066 55.5295 63.4569V64.2378H42.4508V63.4569C42.4508 63.066 42.7685 62.7483 43.1594 62.7483H54.8204Z" fill="black"/>
</g>
<defs>
<clipPath id="clip0">
<rect width="60" height="60" fill="white"/>
</clipPath>
<clipPath id="clip1">
<rect width="60" height="60" fill="white" transform="translate(19 6)"/>
</clipPath>
</defs>
</svg>
