<svg width="70" height="67" viewBox="0 0 70 67" fill="none" xmlns="http://www.w3.org/2000/svg">
<path d="M30.625 29.3125L30.625 58.625L0 58.625L0 28.8937C0 8.79375 19.6875 6.28125 19.6875 6.28125L22.3125 12.1437C22.3125 12.1437 13.5625 13.4 11.8125 20.1C10.0625 25.125 13.5625 29.3125 13.5625 29.3125L30.625 29.3125Z" fill="#161616"/>
<path d="M70 29.3125V58.625L39.375 58.625V28.8937C39.375 8.79375 59.0625 6.28125 59.0625 6.28125L61.6875 12.1437C61.6875 12.1437 52.9375 13.4 51.1875 20.1C49.4375 25.125 52.9375 29.3125 52.9375 29.3125L70 29.3125Z" fill="#161616"/>
</svg>
