<svg width="50" height="46" viewBox="0 0 50 46" fill="none" xmlns="http://www.w3.org/2000/svg">
<path d="M49.7302 12.474C49.7187 12.4618 49.7068 12.45 49.6946 12.4384L39.3733 3.26502C39.2791 3.17917 39.1692 3.11258 39.0495 3.06879L31.5833 0.400165C31.0739 0.215226 30.5111 0.478287 30.3262 0.987607C30.2929 1.07946 30.2735 1.17574 30.2686 1.27336C30.2686 1.4892 29.9448 6.46344 24.9706 6.54193C19.9669 6.46344 19.6529 1.4892 19.6431 1.27336C19.6142 0.732272 19.1521 0.317139 18.611 0.346081C18.518 0.35111 18.4262 0.36926 18.3382 0.400165L10.8818 3.09823C10.7621 3.14201 10.6522 3.2086 10.558 3.29445L0.305359 12.4384C-0.0874544 12.8116 -0.103397 13.4327 0.269794 13.8255C0.281322 13.8376 0.293218 13.8495 0.305359 13.861L8.46823 22.1122V44.6778C8.46823 45.2196 8.90752 45.6589 9.44934 45.6589H40.5506C41.0925 45.6589 41.5318 45.2196 41.5318 44.6778V22.1122L49.6946 13.861C50.0874 13.4878 50.1034 12.8669 49.7302 12.474ZM41.5023 19.316V14.7637C41.5023 14.2218 41.063 13.7825 40.5212 13.7825C39.9794 13.7825 39.5401 14.2218 39.5401 14.7637V43.6476H10.3912V14.7637C10.3912 14.2218 9.95191 13.7825 9.41009 13.7825C8.86827 13.7825 8.42898 14.2218 8.42898 14.7637V19.3258L2.39513 13.2135L11.7353 4.85442L17.8771 2.6371C18.638 6.55739 22.4328 9.1187 26.3531 8.35785C29.2482 7.79592 31.5119 5.53225 32.0738 2.6371L38.2156 4.85442L47.5264 13.2135L41.5023 19.316Z" fill="black"/>
<path fill-rule="evenodd" clip-rule="evenodd" d="M35.4458 24.2799C35.2108 24.2799 35.0991 25.2494 35.0991 26.4069C35.0991 27.5644 35.2108 28.5339 35.4458 28.5339C35.6808 28.5339 35.7925 27.5644 35.7925 26.4069C35.7925 25.2494 35.6808 24.2799 35.4458 24.2799Z" fill="#DA4646"/>
<path fill-rule="evenodd" clip-rule="evenodd" d="M22.4957 23.3515C22.2607 23.3515 22.1491 24.1036 22.1491 25.6078C22.1491 27.1002 22.1491 27.9111 22.1491 28.0345C22.1491 28.1461 22.0903 28.2049 21.9728 28.2049C21.8612 28.2049 21.5732 28.2049 21.1032 28.2049C20.6449 28.2049 20.357 28.2049 20.2453 28.2049C20.1337 28.2049 20.0749 28.1461 20.0691 28.0286C20.0691 27.917 20.0691 27.1061 20.0691 25.6137C20.0691 24.1095 19.9574 23.3574 19.7224 23.3574C19.4874 23.3574 19.3757 24.1682 19.3757 25.7841C19.3757 27.3999 19.3757 28.2636 19.3757 28.387C19.3757 28.4987 19.4345 28.5574 19.5461 28.5574C19.6636 28.5574 20.1807 28.5574 21.1032 28.5574C22.0316 28.5574 22.5486 28.5574 22.6661 28.5574C22.7778 28.5574 22.8365 28.4987 22.8365 28.387C22.8365 28.2695 22.8365 27.3999 22.8365 25.7841C22.8424 24.1623 22.7308 23.3515 22.4957 23.3515Z" fill="#DA4646"/>
<path fill-rule="evenodd" clip-rule="evenodd" d="M18.1241 23.5043C17.8891 23.5043 17.7598 24.0507 17.7598 25.1377C17.7598 26.2247 17.7598 26.8299 17.7539 26.9533C17.7539 27.0767 17.6952 27.1355 17.5835 27.1355C17.4719 27.1296 17.0841 27.1296 16.4201 27.1296C15.7503 27.1296 15.0863 27.1296 14.4106 27.1296C13.7467 27.1296 13.353 27.1296 13.2296 27.1355C13.1121 27.1355 13.0533 27.0767 13.0533 26.9533C13.0533 26.8299 13.0533 26.2247 13.0533 25.1377C13.0533 24.0507 12.9299 23.5043 12.6831 23.5043C12.4481 23.5043 12.3188 24.1095 12.3188 25.3199C12.3188 26.5244 12.3247 27.1884 12.3247 27.3059C12.3247 27.4293 12.3835 27.488 12.501 27.488C12.6185 27.488 13.1062 27.488 13.9464 27.488C14.7925 27.488 15.2156 27.917 15.2156 28.7572C15.2156 29.6033 15.2802 30.0264 15.3977 30.0264C15.5153 30.0264 15.5799 29.6033 15.5799 28.7572C15.5799 27.917 16.0029 27.488 16.8432 27.488C17.6893 27.488 18.1711 27.488 18.2945 27.488C18.412 27.488 18.4708 27.4293 18.4708 27.3059C18.4708 27.1884 18.4766 26.5244 18.4766 25.3199C18.4884 24.1095 18.365 23.5043 18.1241 23.5043Z" fill="#DA4646"/>
<path fill-rule="evenodd" clip-rule="evenodd" d="M29.3173 26.8595C29.2057 26.8595 28.3596 26.8595 26.7849 26.8595C25.2102 26.8595 24.4169 26.742 24.4169 26.5246C24.4169 26.2954 24.981 26.1779 26.1092 26.1779C27.2373 26.1779 27.8601 26.1838 27.9659 26.1838C28.0775 26.1838 28.1304 26.1309 28.1304 26.0192C28.1363 25.9017 28.1363 25.4493 28.1363 24.6561C28.1363 23.8687 28.0247 23.4809 27.7896 23.4809C27.5663 23.4809 27.4547 23.8158 27.4547 24.4974C27.4547 25.1673 27.4547 25.5551 27.4547 25.6843C27.4547 25.7901 27.4018 25.843 27.2902 25.843C27.1785 25.843 26.6791 25.843 25.7684 25.843C24.8694 25.843 24.4111 25.4493 24.4111 24.6561C24.4111 23.8687 24.2994 23.4809 24.082 23.4809C23.847 23.4809 23.7354 24.4974 23.7354 26.5246C23.7354 28.5517 23.847 29.5682 24.082 29.5682C24.3053 29.5682 24.4111 29.1686 24.4111 28.3813C24.4111 27.5881 25.0927 27.1944 26.4441 27.1944C27.7955 27.1944 28.53 27.1944 28.6416 27.1885C28.7533 27.1885 28.8061 27.2414 28.8238 27.3589C28.8238 27.4764 28.8238 27.8701 28.8238 28.5458C28.8238 29.2274 28.9295 29.5623 29.1528 29.5623C29.382 29.5623 29.4877 29.1628 29.4877 28.3754C29.4877 27.5822 29.4877 27.1356 29.4877 27.024C29.4936 26.9182 29.429 26.8595 29.3173 26.8595Z" fill="#DA4646"/>
<path fill-rule="evenodd" clip-rule="evenodd" d="M33.3422 23.6278C33.1072 23.6278 32.6489 23.6278 31.9555 23.6278H30.5689C30.3456 23.6278 30.2281 23.7277 30.2281 23.9568C30.2281 24.1684 30.2281 24.9146 30.2281 26.1896C30.2281 27.4647 30.2281 27.8466 30.2281 28.0816C30.2281 28.3225 30.3397 28.44 30.5689 28.44H31.9555H32.3081C33.2247 28.44 33.683 28.3813 33.683 28.2638C33.683 28.1521 33.2834 28.0934 32.4785 28.0934H31.9555H31.0977C30.986 28.0934 30.9214 28.0287 30.9214 27.9112C30.9214 27.7937 30.9214 27.8172 30.9214 27.2414C30.9214 26.7478 31.2739 26.4658 31.9555 26.4012C32.0613 26.3953 32.1788 26.3894 32.3081 26.3894C33.2247 26.3894 33.683 26.0427 33.683 25.3435C33.683 24.6502 33.683 24.1919 33.683 23.9627C33.683 23.7336 33.5655 23.6278 33.3422 23.6278ZM31.9555 26.0427C31.2739 26.0427 30.9214 25.7607 30.9214 25.2084C30.9214 24.6502 30.9214 24.3035 30.9214 24.1625C30.9214 24.0273 30.986 23.9568 31.0977 23.9568C31.2034 23.9568 31.4913 23.9568 31.9555 23.9568H32.8251C32.9368 23.9568 32.9955 24.0156 32.9955 24.1331C32.9955 24.2447 32.9955 24.5914 33.0014 25.1672C32.9955 25.7548 32.6489 26.0427 31.9555 26.0427Z" fill="#DA4646"/>
<path fill-rule="evenodd" clip-rule="evenodd" d="M35.4282 21.765C35.1168 21.7767 34.9757 21.9471 34.9875 22.2468C34.9992 22.5582 35.1579 22.711 35.4693 22.6992C35.7807 22.6875 35.9217 22.5171 35.91 22.2057C35.8982 21.906 35.7396 21.7532 35.4282 21.765Z" fill="#DA4646"/>
<path fill-rule="evenodd" clip-rule="evenodd" d="M36.7149 21.7475C36.2449 21.1893 35.0756 20.7897 33.4186 20.3255C32.8193 20.1669 32.173 19.9789 31.5207 19.7967C30.5689 19.4677 29.4349 19.168 28.3831 19.0975C27.9483 19.0387 27.5311 19.0094 27.1316 19.0152C25.4863 19.0446 24.84 19.7791 26.0563 20.7721C27.2843 21.7357 28.3361 22.1176 27.6427 20.7545C27.3372 20.1493 27.3431 19.7321 27.5722 19.4794C27.8484 19.2268 28.9824 18.8448 33.4421 21.0659C34.8347 22.2528 33.6948 23.1459 34.4939 23.4162C35.2519 23.6865 35.9863 23.4044 36.4564 23.0989C36.9852 22.7463 37.1321 22.2586 36.7149 21.7475ZM35.4928 23.1518C34.8699 23.1811 34.5644 22.8815 34.535 22.2704C34.5056 21.6476 34.7877 21.3303 35.4105 21.3068C36.0333 21.2774 36.3506 21.5653 36.3741 22.1881C36.4035 22.7992 36.1156 23.1283 35.4928 23.1518Z" fill="#DA4646"/>
</svg>
