<svg width="71" height="45" viewBox="0 0 71 45" fill="none" xmlns="http://www.w3.org/2000/svg">
<path d="M69.7059 5.18795V2H50.2941V5.18795C49.4366 7.42206 49 9.77145 49 12.1732V12.3194C49 12.9523 49.031 13.5939 49.0932 14.2252L51.5882 39.7271V43H58.0588V39.7233L59.9425 17.2639C59.9476 17.2032 60.0524 17.2039 60.0575 17.2633L61.9412 39.7233V43H68.4118V39.7271L70.9068 14.2258C70.969 13.5939 71 12.9523 71 12.3194V12.1732C71 9.77145 70.5634 7.42271 69.7059 5.18795ZM69.7059 12.1738V12.3201C69.7059 12.9094 69.6768 13.5064 69.6193 14.0944L69.165 18.7373L67.2968 20.6463L67.7486 14.7999L69.7021 12.0052C69.7027 12.0608 69.7059 12.117 69.7059 12.1738ZM66.7521 27.7025L68.4582 25.9585L67.1793 39.0323H65.8766L66.7521 27.7025ZM68.6617 23.8801L66.9085 25.6715L67.1404 22.676L68.9618 20.8145L68.6617 23.8801ZM51.5882 3.32258H68.4118V4.64516H51.5882V3.32258ZM54.1234 39.0323H52.8207L51.5494 26.0412L53.2539 27.7829L54.1234 39.0323ZM51.3462 23.9634L51.0461 20.8978L52.8656 22.7573L53.0972 25.7529L51.3462 23.9634ZM50.8429 18.8193L50.3801 14.0937C50.3232 13.5057 50.2941 12.9087 50.2941 12.3194V12.1732C50.2941 12.1163 50.2973 12.0608 50.2979 12.004L52.2514 14.7986L52.7095 20.7257L50.8429 18.8193ZM56.7647 41.6774H52.8824V40.3548H56.7647V41.6774ZM60 15.8871C59.2929 15.8871 58.7138 16.4299 58.6528 17.1509L56.8178 39.0323H55.4219L53.5139 14.3298L50.4372 9.92741C50.6041 8.57706 50.9232 7.25319 51.3908 5.96774H58.6547L58.5242 6.13436C57.389 7.58319 56.7647 9.40238 56.7647 11.2581H58.0588C58.0588 9.70139 58.583 8.1757 59.5333 6.96097L60 6.36523L60.4667 6.96097C61.417 8.1757 61.9412 9.70139 61.9412 11.2581H63.2353C63.2353 9.40238 62.611 7.58319 61.4767 6.13436L61.3466 5.96774H68.6105C69.0775 7.25254 69.3966 8.57706 69.564 9.92741L66.4873 14.3298L64.5787 39.0323H63.1828L61.3478 17.1503C61.2862 16.4299 60.7071 15.8871 60 15.8871ZM67.1176 41.6774H63.2353V40.3548H67.1176V41.6774Z" fill="black"/>
<mask id="path-2-inside-1" fill="white">
<path d="M42.843 41.3138L43.0046 41.2676C43.4035 41.1537 43.6345 40.7382 43.5208 40.3393L37.0822 17.8055C36.3483 15.243 34.1781 13.3502 31.5396 12.9715L30.884 12.8784L31.5286 8.36562C31.5286 8.34107 31.5275 8.31643 31.5251 8.29197C31.5302 8.2544 31.5323 8.21656 31.5315 8.17864C31.5296 8.1606 31.5206 8.1452 31.5174 8.12761C31.4986 8.04067 31.4669 7.95699 31.4232 7.87947C31.4136 7.86328 31.4112 7.8441 31.4004 7.82853L27.4892 2.24189C26.6012 0.977301 25.2014 0.167884 23.6625 0.0291246C23.6444 0.0292126 23.6274 0.0245491 23.6093 0.0259569C23.4677 0.0144303 23.3267 0 23.1834 0H19.8207C19.5339 0.00281567 19.2478 0.0293885 18.9654 0.0796306C18.9308 0.0840301 18.8967 0.0908053 18.8631 0.100044C17.3848 0.37466 16.0938 1.26644 15.3135 2.5517L12.1209 7.87287C12.1152 7.8822 12.1144 7.89338 12.1092 7.90288C12.0882 7.94476 12.0712 7.98858 12.0585 8.03372C12.0457 8.06733 12.0355 8.10191 12.0279 8.13702C12.0263 8.1467 12.0209 8.15488 12.0197 8.16474C12.018 8.20284 12.0193 8.24102 12.0237 8.27886C12.0212 8.30772 12.0203 8.33667 12.0212 8.36562L12.6664 12.878L12.0094 12.9719C9.37127 13.3505 7.20135 15.2429 6.46752 17.8051L0.0289642 40.3392C-0.0847184 40.7381 0.146342 41.1536 0.5452 41.2675L0.706837 41.3137L0.296629 42.5415C0.164204 42.9384 0.203272 43.3727 0.404592 43.7395C0.605912 44.1063 0.951008 44.3727 1.3569 44.4743L2.95172 44.8731C3.07209 44.9033 3.19571 44.9185 3.31978 44.9186C3.9204 44.9185 4.46268 44.5592 4.69682 44.0061L5.28802 42.6225L5.80109 42.769C6.17583 42.876 6.57012 42.6786 6.70888 42.3144L11.263 30.3595V40.5C11.2681 41.7412 12.0318 42.8532 13.1885 43.3036L13.6886 43.4961C18.8927 45.5013 24.6562 45.5013 29.8604 43.4961L30.3619 43.3032C31.5183 42.8528 32.2817 41.7411 32.2867 40.5001V30.3597L36.8408 42.3146C36.9797 42.6786 37.3739 42.876 37.7486 42.7692L38.2617 42.6226L38.8529 44.0063C39.087 44.5593 39.6293 44.9186 40.2299 44.9188C40.354 44.9188 40.4776 44.9035 40.598 44.8733L42.1935 44.4745C42.5992 44.3726 42.9442 44.1062 43.1453 43.7394C43.3464 43.3726 43.3854 42.9385 43.2531 42.5417L42.843 41.3138ZM30.3228 14.2663C30.4346 14.313 30.5516 14.3461 30.6713 14.3647L30.672 14.365L31.3275 14.4582C33.3795 14.7527 35.0672 16.2249 35.6375 18.2179L36.44 21.0262L35.8296 21.0277L35.3859 19.6892C34.7595 17.7975 33.4049 16.2335 31.6222 15.3432L30.1975 14.64L30.3228 14.2663ZM26.2587 3.10313L29.144 7.22474L27.5996 6.96737L25.1519 2.06688C25.5878 2.33305 25.9644 2.68571 26.2587 3.10313ZM25.3165 9.63777C25.1313 9.71195 24.9532 9.79791 24.7783 9.88863V8.04894C25.0116 8.08035 25.2457 8.09734 25.4785 8.13614L28.0141 8.55884L25.3165 9.63777ZM27.7816 10.2693V10.8378L24.7995 12.6269L24.1869 12.2184C24.2957 12.0964 24.4112 11.9804 24.5327 11.871C24.5467 11.8581 24.56 11.846 24.573 11.8321C24.9582 11.4934 25.3983 11.2228 25.8744 11.0321L27.7816 10.2693ZM19.5999 1.51633C19.6736 1.51193 19.7465 1.50172 19.8207 1.50172H23.1834L23.1915 1.50225L25.7688 6.66231L25.7248 6.65501C23.4376 6.27965 21.1078 6.23829 18.8086 6.53235C18.7956 6.53174 18.7847 6.52496 18.7715 6.52496C18.7181 6.52962 18.6654 6.54027 18.6145 6.55664C18.3514 6.59166 18.0873 6.61137 17.8249 6.6551L16.9618 6.79896L19.5999 1.51633ZM18.0207 8.14459V9.79738C17.8998 9.73342 17.7806 9.66663 17.6548 9.61067L15.3554 8.58893L18.0207 8.14459ZM16.6011 3.32451C16.8454 2.92002 17.1641 2.56543 17.5403 2.27964L15.131 7.10385L14.2448 7.25149L16.6011 3.32451ZM7.91213 18.2176C8.48248 16.2249 10.1699 14.753 12.2214 14.4585L12.8784 14.3647C12.997 14.3464 13.1129 14.3138 13.2235 14.2678L13.3462 14.6374L11.9245 15.3446C10.1423 16.2355 8.78869 17.7998 8.1629 19.6913L7.71926 21.0236H7.11028L7.91213 18.2176ZM3.31538 43.4163L1.72057 43.0174L2.1518 41.7266L3.83214 42.2067L3.31538 43.4163ZM7.24473 36.6898L6.37152 35.5255C6.2127 35.3125 6.17759 35.0319 6.27913 34.7864L9.31847 27.4924C9.43488 27.2125 9.70827 27.0302 10.0114 27.0304H10.9244L7.24473 36.6898ZM15.0173 42.3772C14.753 42.2874 14.4892 42.1949 14.2276 42.0943L13.7275 41.9022C13.1493 41.6767 12.7675 41.1208 12.7648 40.5002V39.6195L13.9233 40.3148C14.6002 40.7233 15.0149 41.4554 15.0173 42.246V42.3772ZM18.7715 43.2792C18.0128 43.1683 17.2609 43.0161 16.5189 42.8231V42.246C16.5151 40.9283 15.8242 39.7081 14.696 39.0271L12.7647 37.868V26.2796C12.7646 25.9174 12.5058 25.6068 12.1495 25.5412C12.1048 25.5329 12.0594 25.5288 12.0138 25.5288H10.0113C9.10158 25.5271 8.28072 26.0745 7.93255 26.915L4.89321 34.2086C4.58797 34.9451 4.6933 35.7879 5.17038 36.4267L6.61244 38.3494L5.55093 41.1359L1.67939 40.0298L6.68116 22.5254H7.71917C8.3644 22.522 8.93677 22.1105 9.14531 21.4999L9.58746 20.1657C10.088 18.6526 11.1707 17.4011 12.596 16.6879L14.0104 15.9844C14.6802 15.6492 15.0053 14.8755 14.7759 14.1626L14.2275 12.5257C14.1984 12.4462 14.1558 12.3724 14.1015 12.3075L13.6998 9.49637L17.0447 10.9829C18.2284 11.5092 19.1284 12.5195 19.515 13.756L20.6279 17.3168C19.3963 23.796 18.7747 30.3765 18.7716 36.9718V43.2792H18.7715ZM22.5257 43.4811C21.7746 43.5075 21.0228 43.4934 20.2732 43.4389V36.9718C20.2758 30.4188 20.8979 23.8808 22.131 17.4449L22.5257 16.182V43.4811ZM23.2765 10.9991C22.9831 11.2969 22.7218 11.6248 22.4971 11.9772C22.4942 11.9814 22.4896 11.9833 22.4867 11.9876C22.4837 11.9921 22.4837 11.9977 22.4808 12.0022C22.1978 12.4448 21.974 12.9226 21.8151 13.4233L21.3994 14.7527L20.9477 13.3082C20.6656 12.4131 20.1774 11.5969 19.5223 10.9249V7.9555C20.7697 7.82932 22.0255 7.80794 23.2765 7.89144V10.9991ZM30.785 40.5001C30.7824 41.1206 30.4009 41.6763 29.823 41.9018L29.3214 42.0943C29.06 42.1949 28.7966 42.2874 28.5324 42.3772V42.2461C28.5348 41.4554 28.9495 40.7234 29.6264 40.3148L30.785 39.6195V40.5001ZM36.3773 36.8796L32.6254 27.0304H33.7525C34.056 27.03 34.3298 27.2125 34.4461 27.4927L37.4847 34.7864C37.5862 35.0319 37.5511 35.3128 37.3923 35.5258L36.3773 36.8796ZM40.2344 43.4159L39.7178 42.2066L41.398 41.7265L41.8292 43.0174L40.2344 43.4159ZM37.9987 41.1359L37.0094 38.539L38.5933 36.4266C39.0704 35.7879 39.1757 34.945 38.8705 34.2085L35.832 26.9152C35.4838 26.0743 34.6626 25.5268 33.7525 25.5287H31.7507V25.5716C31.638 25.5334 31.5178 25.5229 31.4003 25.5411C31.0439 25.6067 30.7852 25.9172 30.785 26.2795V37.8679L28.8537 39.027C27.7256 39.7081 27.0346 40.9283 27.0308 42.2459V42.823C26.0443 43.0786 25.0406 43.262 24.0274 43.3718V13.9049C24.4999 14.1977 25.0964 14.2014 25.5724 13.9145L28.5552 12.1247C29.0059 11.852 29.2818 11.3642 29.2833 10.8374V9.66874L29.858 9.43883L29.448 12.3085C29.394 12.3732 29.3514 12.4467 29.3222 12.5257L28.7701 14.1737C28.5463 14.8826 28.8704 15.649 29.5349 15.9823L30.9508 16.6865C32.3768 17.3991 33.4602 18.6504 33.9616 20.1636L34.4088 21.5128C34.5088 21.8023 34.696 22.0537 34.9448 22.2324C35.2002 22.4242 35.5112 22.527 35.8305 22.5254H36.8686L41.8703 40.0298L37.9987 41.1359Z"/>
</mask>
<path d="M42.843 41.3138L43.0046 41.2676C43.4035 41.1537 43.6345 40.7382 43.5208 40.3393L37.0822 17.8055C36.3483 15.243 34.1781 13.3502 31.5396 12.9715L30.884 12.8784L31.5286 8.36562C31.5286 8.34107 31.5275 8.31643 31.5251 8.29197C31.5302 8.2544 31.5323 8.21656 31.5315 8.17864C31.5296 8.1606 31.5206 8.1452 31.5174 8.12761C31.4986 8.04067 31.4669 7.95699 31.4232 7.87947C31.4136 7.86328 31.4112 7.8441 31.4004 7.82853L27.4892 2.24189C26.6012 0.977301 25.2014 0.167884 23.6625 0.0291246C23.6444 0.0292126 23.6274 0.0245491 23.6093 0.0259569C23.4677 0.0144303 23.3267 0 23.1834 0H19.8207C19.5339 0.00281567 19.2478 0.0293885 18.9654 0.0796306C18.9308 0.0840301 18.8967 0.0908053 18.8631 0.100044C17.3848 0.37466 16.0938 1.26644 15.3135 2.5517L12.1209 7.87287C12.1152 7.8822 12.1144 7.89338 12.1092 7.90288C12.0882 7.94476 12.0712 7.98858 12.0585 8.03372C12.0457 8.06733 12.0355 8.10191 12.0279 8.13702C12.0263 8.1467 12.0209 8.15488 12.0197 8.16474C12.018 8.20284 12.0193 8.24102 12.0237 8.27886C12.0212 8.30772 12.0203 8.33667 12.0212 8.36562L12.6664 12.878L12.0094 12.9719C9.37127 13.3505 7.20135 15.2429 6.46752 17.8051L0.0289642 40.3392C-0.0847184 40.7381 0.146342 41.1536 0.5452 41.2675L0.706837 41.3137L0.296629 42.5415C0.164204 42.9384 0.203272 43.3727 0.404592 43.7395C0.605912 44.1063 0.951008 44.3727 1.3569 44.4743L2.95172 44.8731C3.07209 44.9033 3.19571 44.9185 3.31978 44.9186C3.9204 44.9185 4.46268 44.5592 4.69682 44.0061L5.28802 42.6225L5.80109 42.769C6.17583 42.876 6.57012 42.6786 6.70888 42.3144L11.263 30.3595V40.5C11.2681 41.7412 12.0318 42.8532 13.1885 43.3036L13.6886 43.4961C18.8927 45.5013 24.6562 45.5013 29.8604 43.4961L30.3619 43.3032C31.5183 42.8528 32.2817 41.7411 32.2867 40.5001V30.3597L36.8408 42.3146C36.9797 42.6786 37.3739 42.876 37.7486 42.7692L38.2617 42.6226L38.8529 44.0063C39.087 44.5593 39.6293 44.9186 40.2299 44.9188C40.354 44.9188 40.4776 44.9035 40.598 44.8733L42.1935 44.4745C42.5992 44.3726 42.9442 44.1062 43.1453 43.7394C43.3464 43.3726 43.3854 42.9385 43.2531 42.5417L42.843 41.3138ZM30.3228 14.2663C30.4346 14.313 30.5516 14.3461 30.6713 14.3647L30.672 14.365L31.3275 14.4582C33.3795 14.7527 35.0672 16.2249 35.6375 18.2179L36.44 21.0262L35.8296 21.0277L35.3859 19.6892C34.7595 17.7975 33.4049 16.2335 31.6222 15.3432L30.1975 14.64L30.3228 14.2663ZM26.2587 3.10313L29.144 7.22474L27.5996 6.96737L25.1519 2.06688C25.5878 2.33305 25.9644 2.68571 26.2587 3.10313ZM25.3165 9.63777C25.1313 9.71195 24.9532 9.79791 24.7783 9.88863V8.04894C25.0116 8.08035 25.2457 8.09734 25.4785 8.13614L28.0141 8.55884L25.3165 9.63777ZM27.7816 10.2693V10.8378L24.7995 12.6269L24.1869 12.2184C24.2957 12.0964 24.4112 11.9804 24.5327 11.871C24.5467 11.8581 24.56 11.846 24.573 11.8321C24.9582 11.4934 25.3983 11.2228 25.8744 11.0321L27.7816 10.2693ZM19.5999 1.51633C19.6736 1.51193 19.7465 1.50172 19.8207 1.50172H23.1834L23.1915 1.50225L25.7688 6.66231L25.7248 6.65501C23.4376 6.27965 21.1078 6.23829 18.8086 6.53235C18.7956 6.53174 18.7847 6.52496 18.7715 6.52496C18.7181 6.52962 18.6654 6.54027 18.6145 6.55664C18.3514 6.59166 18.0873 6.61137 17.8249 6.6551L16.9618 6.79896L19.5999 1.51633ZM18.0207 8.14459V9.79738C17.8998 9.73342 17.7806 9.66663 17.6548 9.61067L15.3554 8.58893L18.0207 8.14459ZM16.6011 3.32451C16.8454 2.92002 17.1641 2.56543 17.5403 2.27964L15.131 7.10385L14.2448 7.25149L16.6011 3.32451ZM7.91213 18.2176C8.48248 16.2249 10.1699 14.753 12.2214 14.4585L12.8784 14.3647C12.997 14.3464 13.1129 14.3138 13.2235 14.2678L13.3462 14.6374L11.9245 15.3446C10.1423 16.2355 8.78869 17.7998 8.1629 19.6913L7.71926 21.0236H7.11028L7.91213 18.2176ZM3.31538 43.4163L1.72057 43.0174L2.1518 41.7266L3.83214 42.2067L3.31538 43.4163ZM7.24473 36.6898L6.37152 35.5255C6.2127 35.3125 6.17759 35.0319 6.27913 34.7864L9.31847 27.4924C9.43488 27.2125 9.70827 27.0302 10.0114 27.0304H10.9244L7.24473 36.6898ZM15.0173 42.3772C14.753 42.2874 14.4892 42.1949 14.2276 42.0943L13.7275 41.9022C13.1493 41.6767 12.7675 41.1208 12.7648 40.5002V39.6195L13.9233 40.3148C14.6002 40.7233 15.0149 41.4554 15.0173 42.246V42.3772ZM18.7715 43.2792C18.0128 43.1683 17.2609 43.0161 16.5189 42.8231V42.246C16.5151 40.9283 15.8242 39.7081 14.696 39.0271L12.7647 37.868V26.2796C12.7646 25.9174 12.5058 25.6068 12.1495 25.5412C12.1048 25.5329 12.0594 25.5288 12.0138 25.5288H10.0113C9.10158 25.5271 8.28072 26.0745 7.93255 26.915L4.89321 34.2086C4.58797 34.9451 4.6933 35.7879 5.17038 36.4267L6.61244 38.3494L5.55093 41.1359L1.67939 40.0298L6.68116 22.5254H7.71917C8.3644 22.522 8.93677 22.1105 9.14531 21.4999L9.58746 20.1657C10.088 18.6526 11.1707 17.4011 12.596 16.6879L14.0104 15.9844C14.6802 15.6492 15.0053 14.8755 14.7759 14.1626L14.2275 12.5257C14.1984 12.4462 14.1558 12.3724 14.1015 12.3075L13.6998 9.49637L17.0447 10.9829C18.2284 11.5092 19.1284 12.5195 19.515 13.756L20.6279 17.3168C19.3963 23.796 18.7747 30.3765 18.7716 36.9718V43.2792H18.7715ZM22.5257 43.4811C21.7746 43.5075 21.0228 43.4934 20.2732 43.4389V36.9718C20.2758 30.4188 20.8979 23.8808 22.131 17.4449L22.5257 16.182V43.4811ZM23.2765 10.9991C22.9831 11.2969 22.7218 11.6248 22.4971 11.9772C22.4942 11.9814 22.4896 11.9833 22.4867 11.9876C22.4837 11.9921 22.4837 11.9977 22.4808 12.0022C22.1978 12.4448 21.974 12.9226 21.8151 13.4233L21.3994 14.7527L20.9477 13.3082C20.6656 12.4131 20.1774 11.5969 19.5223 10.9249V7.9555C20.7697 7.82932 22.0255 7.80794 23.2765 7.89144V10.9991ZM30.785 40.5001C30.7824 41.1206 30.4009 41.6763 29.823 41.9018L29.3214 42.0943C29.06 42.1949 28.7966 42.2874 28.5324 42.3772V42.2461C28.5348 41.4554 28.9495 40.7234 29.6264 40.3148L30.785 39.6195V40.5001ZM36.3773 36.8796L32.6254 27.0304H33.7525C34.056 27.03 34.3298 27.2125 34.4461 27.4927L37.4847 34.7864C37.5862 35.0319 37.5511 35.3128 37.3923 35.5258L36.3773 36.8796ZM40.2344 43.4159L39.7178 42.2066L41.398 41.7265L41.8292 43.0174L40.2344 43.4159ZM37.9987 41.1359L37.0094 38.539L38.5933 36.4266C39.0704 35.7879 39.1757 34.945 38.8705 34.2085L35.832 26.9152C35.4838 26.0743 34.6626 25.5268 33.7525 25.5287H31.7507V25.5716C31.638 25.5334 31.5178 25.5229 31.4003 25.5411C31.0439 25.6067 30.7852 25.9172 30.785 26.2795V37.8679L28.8537 39.027C27.7256 39.7081 27.0346 40.9283 27.0308 42.2459V42.823C26.0443 43.0786 25.0406 43.262 24.0274 43.3718V13.9049C24.4999 14.1977 25.0964 14.2014 25.5724 13.9145L28.5552 12.1247C29.0059 11.852 29.2818 11.3642 29.2833 10.8374V9.66874L29.858 9.43883L29.448 12.3085C29.394 12.3732 29.3514 12.4467 29.3222 12.5257L28.7701 14.1737C28.5463 14.8826 28.8704 15.649 29.5349 15.9823L30.9508 16.6865C32.3768 17.3991 33.4602 18.6504 33.9616 20.1636L34.4088 21.5128C34.5088 21.8023 34.696 22.0537 34.9448 22.2324C35.2002 22.4242 35.5112 22.527 35.8305 22.5254H36.8686L41.8703 40.0298L37.9987 41.1359Z" fill="black" stroke="white" stroke-width="0.5" mask="url(#path-2-inside-1)"/>
<path d="M17.2827 28.5247L17.2826 28.5248L15.3644 29.8035C15.1724 29.9315 14.9256 29.9436 14.7221 29.8348C14.5186 29.7258 14.3915 29.5136 14.3914 29.2828C14.3914 29.2828 14.3914 29.2828 14.3914 29.2828L14.3914 23.2762C14.3924 22.5162 15.0083 21.9003 15.7683 21.8994L16.5189 21.8994C17.2789 21.9003 17.8948 22.5162 17.8956 23.2763V27.3794V27.3795C17.8962 27.8398 17.666 28.2698 17.2827 28.5247ZM16.5883 27.4834L16.644 27.4463V27.3794V23.2761V23.1511H16.519H15.7682H15.6432V23.2761V27.8798V28.1134L15.8375 27.9839L16.5883 27.4834Z" fill="black" stroke="white" stroke-width="0.25"/>
</svg>
