<svg width="97" height="74" viewBox="0 0 97 74" fill="none" xmlns="http://www.w3.org/2000/svg">
<g clip-path="url(#clip0)">
<path d="M88.0637 32.5219C87.5859 31.7111 86.8409 31.0918 85.9564 30.7702C85.0719 30.4486 84.103 30.4449 83.2161 30.7595L77.6749 32.7315L78.5876 31.1731C79.192 30.1409 79.4684 28.9494 79.3802 27.7566C79.292 26.5637 78.8433 25.4258 78.0936 24.4938C77.344 23.5618 76.3287 22.8797 75.1825 22.5378C74.0363 22.196 72.8132 22.2106 71.6755 22.5797L68.1229 23.7323C67.3364 23.988 66.6124 24.4059 65.9977 24.9591C65.383 25.5122 64.8912 26.1883 64.5542 26.9434L62.0744 32.5099C61.8764 32.9566 61.543 33.3298 61.1213 33.5766L50.4424 39.8545L34.6989 46.4839C34.516 46.5609 34.3692 46.7047 34.2885 46.886L33.3347 49.0269C33.293 49.1206 33.2701 49.2216 33.2674 49.3242C33.2647 49.4268 33.2822 49.5288 33.3189 49.6246C33.3557 49.7204 33.4109 49.808 33.4815 49.8825C33.5521 49.9569 33.6367 50.0167 33.7304 50.0585L35.8714 51.0122C36.028 51.082 36.2033 51.0983 36.3702 51.0586L52.5921 47.196L64.5757 45.7349C64.9343 45.6922 65.298 45.7325 65.6386 45.8526C65.9791 45.9728 66.2876 46.1696 66.54 46.4278L68.4085 48.3501C69.3868 49.3592 70.622 50.0822 71.9809 50.441C73.3397 50.7999 74.7708 50.7812 76.1198 50.3868L77.919 49.8632C80.2092 49.199 82.3268 48.0425 84.1236 46.4747C85.9204 44.9069 87.3531 42.9657 88.3216 40.7866L88.5053 40.3742C89.0606 39.1243 89.3102 37.7602 89.2334 36.3947C89.1566 35.0292 88.7556 33.7017 88.0637 32.5219ZM61.9132 34.9236C62.6159 34.5122 63.1717 33.8902 63.5017 33.1457L65.9815 27.5793C66.2292 27.0241 66.5908 26.5271 67.0427 26.1204C67.4946 25.7138 68.0269 25.4065 68.605 25.2185L72.1577 24.0659C72.9941 23.7946 73.8932 23.7838 74.7359 24.0351C75.5786 24.2865 76.3249 24.788 76.8761 25.4732C77.4272 26.1583 77.7571 26.9949 77.8219 27.8718C77.8868 28.7488 77.6835 29.6247 77.2392 30.3835L75.3875 33.5457L65.1193 37.2001C64.772 37.3232 64.4007 37.3632 64.0352 37.3167L58.9521 36.6644L61.9132 34.9236ZM36.2656 49.4773L35.0799 48.9491L35.59 47.804L50.2821 41.6174L51.4806 45.8545L36.2656 49.4773ZM86.8943 40.1507C86.0181 42.1223 84.7218 43.8787 83.0961 45.2972C81.4704 46.7156 79.5546 47.762 77.4824 48.363L75.6832 48.8865C74.6066 49.2013 73.4645 49.2162 72.38 48.9298C71.2955 48.6434 70.3098 48.0664 69.529 47.2611L67.6605 45.3388C67.2397 44.9083 66.7257 44.5803 66.158 44.38C65.5904 44.1798 64.9843 44.1127 64.3866 44.1839L53.0237 45.5693L51.7093 40.9222L56.7525 37.9574L63.8363 38.8665C64.4455 38.944 65.0644 38.8774 65.6432 38.6721L83.7399 32.2315C84.2846 32.0383 84.8795 32.0407 85.4227 32.2381C85.9658 32.4356 86.4233 32.8159 86.7167 33.3138C87.2828 34.279 87.6109 35.3652 87.6737 36.4824C87.7365 37.5996 87.5324 38.7158 87.078 39.7384L86.8943 40.1507Z" fill="black"/>
<path d="M80.6147 35.3778L72.7458 38.3965C72.1294 38.6329 71.5781 39.0124 71.1372 39.5037C70.6964 39.995 70.3785 40.5841 70.21 41.2223C70.0414 41.8605 70.0269 42.5297 70.1677 43.1746C70.3085 43.8196 70.6005 44.4218 71.0197 44.9317C71.5468 45.577 72.2561 46.0485 73.0551 46.2848C73.8541 46.5212 74.7057 46.5113 75.4991 46.2566L77.9942 45.4641C79.4472 45.002 80.7859 44.2377 81.9225 43.2214C83.059 42.205 83.9676 40.9596 84.5886 39.5671C84.8401 39.0025 84.9185 38.3761 84.814 37.7669C84.7094 37.1577 84.4266 36.5933 84.0012 36.1448C83.5759 35.6964 83.0271 35.3842 82.4243 35.2477C81.8215 35.1112 81.1918 35.1564 80.6147 35.3778L80.6147 35.3778ZM77.5212 43.975L75.026 44.7674C74.3806 44.9725 73.6806 44.9179 73.0747 44.6153C72.4688 44.3127 72.0047 43.786 71.7808 43.1468C71.5569 42.5076 71.5909 41.8064 71.8755 41.1918C72.1602 40.5773 72.6731 40.0979 73.3054 39.8553L81.1743 36.8366C81.4629 36.7259 81.7778 36.7033 82.0792 36.7715C82.3806 36.8398 82.655 36.9959 82.8676 37.2201C83.0803 37.4444 83.2217 37.7266 83.274 38.0312C83.3263 38.3358 83.287 38.649 83.1613 38.9313C82.6302 40.1223 81.8531 41.1875 80.881 42.0567C79.9089 42.926 78.7639 43.5797 77.5212 43.9749L77.5212 43.975Z" fill="black"/>
<path d="M67.8465 32.708C68.0612 32.9359 68.3187 33.1192 68.6043 33.2474C68.8842 33.371 69.1858 33.4379 69.4917 33.444C69.7976 33.4502 70.1017 33.3955 70.3863 33.2832L73.481 32.0961C73.7688 31.9866 74.032 31.8211 74.2554 31.6092C74.4788 31.3973 74.658 31.1432 74.7825 30.8616L75.5274 29.1894C75.716 28.766 75.7749 28.2961 75.6965 27.8393C75.6181 27.3824 75.406 26.959 75.0869 26.6227C74.7679 26.2864 74.3564 26.0522 73.9043 25.9498C73.4522 25.8474 72.9799 25.8814 72.5471 26.0474L69.4524 27.2346C69.1646 27.3441 68.9014 27.5096 68.678 27.7215C68.4546 27.9334 68.2755 28.1875 68.1509 28.4691L67.406 30.1412C67.2125 30.5637 67.151 31.0347 67.2296 31.4927C67.3081 31.9507 67.5232 32.3743 67.8465 32.708ZM69.5782 29.1049C69.6197 29.011 69.6794 28.9263 69.7539 28.8557C69.8284 28.7851 69.9161 28.7299 70.012 28.6934L73.1067 27.5062C73.251 27.4509 73.4084 27.4396 73.5591 27.4737C73.7098 27.5078 73.847 27.5859 73.9533 27.698C74.0597 27.8101 74.1304 27.9512 74.1565 28.1035C74.1826 28.2558 74.163 28.4124 74.1001 28.5536L73.3552 30.2257C73.3137 30.3196 73.254 30.4043 73.1795 30.475C73.1051 30.5456 73.0173 30.6008 72.9214 30.6373L69.8267 31.8244C69.6824 31.8798 69.525 31.8911 69.3743 31.857C69.2236 31.8228 69.0864 31.7448 68.9801 31.6326C68.8738 31.5205 68.8031 31.3794 68.7769 31.2271C68.7508 31.0748 68.7704 30.9182 68.8333 30.7771L69.5782 29.1049Z" fill="black"/>
<path d="M55.471 43.4935C56.2592 43.8446 57.1829 43.4903 57.5341 42.702C57.8852 41.9138 57.5309 40.9901 56.7426 40.6389C55.9544 40.2877 55.0307 40.6421 54.6795 41.4304C54.3283 42.2186 54.6827 43.1423 55.471 43.4935Z" fill="black"/>
</g>
<path d="M49.5646 13.39C49.5437 13.3625 49.5219 13.3358 49.4967 13.311L46.7933 10.6289C41.9574 5.83119 35.543 3.1323 28.733 3.02854L28.6353 3.0274C28.6323 3.0274 28.6289 3.0274 28.6258 3.0274C28.3538 3.0274 28.0979 3.13268 27.9041 3.32456C27.7084 3.51873 27.6004 3.77737 27.6004 4.05317V10.0789C27.6004 10.4836 27.9285 10.8117 28.3328 10.8117C28.7376 10.8117 29.0656 10.4836 29.0656 10.0789V4.50139C35.3633 4.68602 41.2799 7.22317 45.7614 11.6692L46.8734 12.7728H22.6818C19.0555 12.7728 15.5208 13.4808 12.1753 14.8773C8.85161 16.2648 5.87958 18.2621 3.34167 20.8142C3.33099 20.8248 3.32107 20.8367 3.31115 20.8481C1.16386 22.5853 0 24.7265 0 27.0001V37.0842C0 39.8041 1.66549 42.3355 4.68902 44.2119C7.6042 46.0205 11.4647 47.0165 15.5601 47.0165H15.5876H15.5918C15.5937 47.0165 15.5956 47.0161 15.5975 47.0161C19.6788 47.01 23.5248 46.0148 26.4308 44.2119C29.4547 42.3355 31.1199 39.8041 31.1199 37.0842V27.0001C31.1199 26.2917 31.0062 25.5966 30.7857 24.9222H48.22C49.2015 24.9222 49.9999 24.1238 49.9999 23.1423V14.5527C49.9999 14.1083 49.8351 13.702 49.5646 13.39ZM29.6546 37.0842C29.6546 39.2784 28.2352 41.3677 25.658 42.9668C25.5447 43.0374 25.4272 43.1045 25.3105 43.1724V39.2422C25.3105 38.8378 24.9824 38.5097 24.578 38.5097C24.1733 38.5097 23.8452 38.8378 23.8452 39.2422V43.9167C22.9026 44.334 21.8872 44.6754 20.8175 44.9363V43.6142C20.8175 43.2098 20.4895 42.8818 20.0847 42.8818C19.6804 42.8818 19.3523 43.2098 19.3523 43.6142V45.2373C18.3727 45.4025 17.3599 45.5051 16.3242 45.5387V41.2933C16.3242 40.889 15.9965 40.5609 15.5918 40.5609C15.1874 40.5609 14.8594 40.889 14.8594 41.2933V45.541C13.8241 45.5105 12.8113 45.4101 11.8313 45.248V43.6142C11.8313 43.2094 11.5032 42.8818 11.0988 42.8818C10.6941 42.8818 10.366 43.2098 10.366 43.6142V44.9516C9.29716 44.6945 8.28169 44.3573 7.33832 43.9445V39.2422C7.33832 38.8378 7.01026 38.5097 6.60552 38.5097C6.20078 38.5097 5.8731 38.8378 5.8731 39.2422V43.2098C5.73424 43.1305 5.59577 43.0504 5.46149 42.9668C2.88429 41.3681 1.46522 39.2788 1.46522 37.0842V31.2443C2.24723 32.3093 3.33061 33.2848 4.68902 34.1278C7.60382 35.9363 11.4647 36.9324 15.5597 36.9324C19.6552 36.9324 23.5157 35.9363 26.4305 34.1278C27.7893 33.2848 28.8722 32.3093 29.6546 31.2443V37.0842ZM25.658 32.8827C22.9721 34.5493 19.3859 35.4671 15.5601 35.4671C11.734 35.4671 8.1478 34.5493 5.46187 32.8827C2.88429 31.2836 1.46522 29.1946 1.46522 26.9997C1.46522 24.8051 2.88467 22.7162 5.46187 21.117C8.1478 19.4504 11.734 18.5326 15.5601 18.5326C19.3859 18.5326 22.9721 19.4504 25.658 21.117C28.2356 22.7162 29.6546 24.8051 29.6546 26.9997C29.6546 29.1946 28.2356 31.2836 25.658 32.8827ZM48.5347 23.1423C48.5347 23.3158 48.3935 23.4574 48.22 23.4574H47.0923V21.9303C47.0923 21.5256 46.7643 21.1979 46.3595 21.1979C45.9548 21.1979 45.6271 21.5256 45.6271 21.9303V23.4574H42.599V19.1212C42.599 18.7165 42.271 18.3884 41.8666 18.3884C41.4619 18.3884 41.1342 18.7165 41.1342 19.1212V23.4574H38.1061V21.9303C38.1061 21.5256 37.778 21.1979 37.3733 21.1979C36.9689 21.1979 36.6409 21.5256 36.6409 21.9303V23.4574H33.6131V19.1212C33.6131 18.7165 33.2851 18.3884 32.8803 18.3884C32.476 18.3884 32.1479 18.7165 32.1479 19.1212V23.4574H30.1185C29.3277 22.1176 28.0826 20.8969 26.4308 19.8723C23.516 18.0634 19.6552 17.0674 15.5601 17.0674C13.4811 17.0674 11.4628 17.3249 9.59776 17.8143C13.5395 15.5041 18.0759 14.238 22.6818 14.238H48.22C48.3935 14.238 48.5347 14.3792 48.5347 14.5527V23.1423Z" fill="black"/>
<path d="M15.5601 22.2733C14.0811 22.2733 12.6647 22.5613 11.4635 23.1056C11.095 23.2731 10.9317 23.7072 11.0988 24.0757C11.2659 24.4438 11.7 24.6071 12.0685 24.44C13.0809 23.9811 14.2883 23.7385 15.5601 23.7385C18.6523 23.7385 21.2646 25.2319 21.2646 27C21.2646 28.7678 18.6523 30.2616 15.5601 30.2616C12.4679 30.2616 9.85561 28.7678 9.85561 27C9.85561 26.7761 9.89795 26.5518 9.98187 26.3332C10.1268 25.9556 9.93838 25.5318 9.56073 25.3868C9.18307 25.2415 8.75926 25.4303 8.6143 25.808C8.46553 26.1948 8.39038 26.5957 8.39038 27C8.39038 29.6505 11.5398 31.7265 15.5601 31.7265C19.5804 31.7265 22.7298 29.6505 22.7298 27C22.7298 24.3496 19.5804 22.2733 15.5601 22.2733Z" fill="black"/>
<defs>
<clipPath id="clip0">
<rect width="50" height="50" fill="white" transform="translate(50.3466 7) rotate(24.0122)"/>
</clipPath>
</defs>
</svg>
