<svg width="50" height="44" viewBox="0 0 50 44" fill="none" xmlns="http://www.w3.org/2000/svg">
<path d="M35.3061 3.71725C35.593 -0.749037 29.2077 -1.46786 28.7487 3.08468C24.7569 3.69808 18.011 5.64369 14.3552 11.7681C10.929 17.5186 10.0273 25.2532 9.84702 27.1796C5.74046 30.6491 2.1175 33.2561 0.478155 35.0867C-0.0670947 35.6995 -0.15698 36.6818 0.26504 37.4156C0.486451 37.8152 0.834713 38.0953 1.23299 38.1942C1.63127 38.2931 2.04683 38.2026 2.38799 37.9428C2.58472 37.7894 4.46177 36.5051 9.31423 37.3102C18.0438 38.7574 16.1421 44.0192 25.4864 43.0608C33.6012 42.1982 38.4946 35.3933 39.7405 33.4765C41.2897 33.5627 42.8061 33.6778 44.3307 33.9078C45.3662 34.1867 46.4523 34.0377 47.4045 33.4861C48.2316 32.8567 48.7917 31.8465 48.9454 30.7066C49.2382 28.8486 49.3619 26.9595 49.3143 25.0711C49.2979 14.145 44.0274 6.97591 35.3061 3.71725ZM18.9864 27.1125C19.4782 22.2533 21.8306 7.11967 31.8307 4.77152C39.4372 9.7841 35.7405 26.8154 34.6749 31.0996C28.4618 30.0453 22.2569 27.8313 18.9864 27.1125ZM33.6585 3.15177C32.633 2.77463 31.5449 2.69243 30.4864 2.91216C30.9372 1.46494 33.429 1.68537 33.6585 3.18052V3.15177ZM15.7405 12.8702C18.2569 8.63399 22.5847 6.60212 26.1421 5.62452C19.5847 11.1547 17.806 22.5696 17.3634 26.8729C15.4629 26.5625 13.5396 26.4886 11.6257 26.6525C11.9044 23.9976 12.9126 17.6049 15.7405 12.8702ZM25.3388 41.1343C16.6831 42.0928 18.7815 36.9268 9.54374 35.3838C5.49456 34.7129 3.21586 35.3838 2.16668 35.9109C3.93718 34.1761 7.3798 31.6651 10.9782 28.6268C18.6257 27.285 27.511 32.6714 37.7077 33.419C34.5798 37.7449 30.1537 40.5058 25.3388 41.1343ZM47.3389 30.2945C47.0028 32.1539 46.1667 32.2976 44.5438 32.0484C40.9618 31.5021 39.0028 31.6746 36.3471 31.3392C38.2323 23.6718 39.6258 11.9693 35.3717 5.76828C41.2569 8.13561 45.6995 12.4773 47.1667 19.6847C47.7987 23.1766 47.8571 26.7771 47.3389 30.2945Z" fill="black"/>
</svg>
