<svg width="50" height="50" viewBox="0 0 50 50" fill="none" xmlns="http://www.w3.org/2000/svg">
<path d="M42.8698 0.65405C42.8114 0.519713 42.7237 0.412243 42.6068 0.304774C42.4899 0.197305 42.373 0.116705 42.2269 0.0629705C41.847 -0.0713658 41.3795 0.00923436 41.058 0.304774C35.7104 5.22148 -0.174694 39.3429 0.000640347 39.4773C0.146752 39.6116 37.2007 6.69919 42.6068 1.72874C42.9283 1.4332 43.0159 1.00332 42.8698 0.65405ZM35.9149 6.45738C35.8564 6.40365 40.795 1.54067 41.5548 0.84212C41.6132 0.788385 41.7886 0.734654 41.9639 0.895858C42.1393 1.05706 42.0808 1.24513 42.0224 1.272C41.2626 1.97055 35.9733 6.51112 35.9149 6.45738Z" fill="#231F20"/>
<path d="M35.2428 37.4893C35.2428 43.7225 28.2879 45.442 21.4791 45.442C14.6703 45.442 7.71533 43.7225 7.71533 37.4893" fill="white"/>
<path d="M21.4789 45.5763C19.6379 45.5763 17.943 45.442 16.4235 45.2002C14.6993 44.9315 13.209 44.5016 11.9817 43.9105C9.05944 42.5403 7.56909 40.3909 7.56909 37.4893H7.86132C7.86132 40.2835 9.29321 42.3791 12.0986 43.6956C14.3779 44.7703 17.6216 45.3076 21.4789 45.3076C25.3363 45.3076 28.58 44.7434 30.8593 43.6956C33.6646 42.3791 35.0965 40.2835 35.0965 37.4893H35.3888C35.3888 40.3909 33.8984 42.5403 30.9762 43.9105C29.7489 44.4748 28.2585 44.9315 26.5344 45.2002C25.0148 45.442 23.2907 45.5763 21.4789 45.5763Z" fill="#231F20"/>
<path d="M21.4791 43.4806C29.0806 43.4806 35.2428 40.9065 35.2428 37.731C35.2428 34.5556 29.0806 31.9814 21.4791 31.9814C13.8776 31.9814 7.71533 34.5556 7.71533 37.731C7.71533 40.9065 13.8776 43.4806 21.4791 43.4806Z" fill="white"/>
<path d="M21.4789 43.6145C17.7969 43.6145 14.3195 43.0234 11.6895 41.9219C9.03022 40.8203 7.56909 39.3426 7.56909 37.7575C7.56909 36.1723 9.03022 34.6946 11.6895 33.593C14.3195 32.4915 17.7677 31.9004 21.4789 31.9004C25.161 31.9004 28.6384 32.4915 31.2684 33.593C33.9277 34.6946 35.3888 36.1723 35.3888 37.7575C35.3888 39.3426 33.9277 40.8203 31.2684 41.9219C28.6384 42.9966 25.161 43.6145 21.4789 43.6145ZM21.4789 32.1153C17.8261 32.1153 14.3779 32.7064 11.8063 33.7811C10.5498 34.2916 9.58544 34.9095 8.91333 35.5812C8.21199 36.2529 7.86132 36.9783 7.86132 37.7306C7.86132 38.4829 8.21199 39.1814 8.91333 39.88C9.58544 40.5517 10.579 41.1427 11.8063 41.6801C14.3779 42.7548 17.8261 43.3459 21.4789 43.3459C25.1317 43.3459 28.58 42.7548 31.1515 41.6801C32.4081 41.1696 33.3724 40.5517 34.0445 39.88C34.7459 39.2083 35.0965 38.4829 35.0965 37.7306C35.0965 36.9783 34.7459 36.2798 34.0445 35.5812C33.3724 34.9095 32.3789 34.3184 31.1515 33.7811C28.5507 32.7064 25.1317 32.1153 21.4789 32.1153Z" fill="#231F20"/>
<path d="M8.91333 14.3027V37.5967C8.91333 40.3103 14.524 42.4865 21.4789 42.4865C28.4046 42.4865 34.0445 40.2834 34.0445 37.5967V14.3027H8.91333Z" fill="#231F20"/>
<path d="M21.4791 11.401C19.9595 11.401 18.7322 10.8636 18.7322 10.1651C18.7322 9.49341 19.9595 8.9292 21.4791 8.9292C22.9986 8.9292 24.226 9.46655 24.226 10.1651C24.226 10.8636 22.9986 11.401 21.4791 11.401ZM21.4791 8.98293C19.9887 8.98293 18.7614 9.52028 18.7614 10.1651C18.7614 10.8099 19.9887 11.3473 21.4791 11.3473C22.9694 11.3473 24.1968 10.8099 24.1968 10.1651C24.1968 9.52028 22.9694 8.98293 21.4791 8.98293Z" fill="#231F20"/>
<path d="M7.77375 10.1919C5.72819 15.8072 13.6182 17.6341 21.4498 17.6341C29.2814 17.6341 37.2006 15.8072 35.1259 10.1919" fill="white"/>
<path d="M21.4789 17.7416C18.4398 17.7416 15.6929 17.4729 13.472 16.9625C10.8712 16.3445 9.05941 15.431 8.1243 14.1951C7.24763 13.0667 7.1015 11.7233 7.65673 10.165L7.91974 10.2456C7.36451 11.7233 7.51063 13.013 8.32886 14.0608C10.053 16.2639 14.8454 17.5267 21.4497 17.5267C28.0832 17.5267 32.8756 16.2639 34.5705 14.0608C35.3887 13.013 35.5348 11.7233 34.9796 10.2456L35.2426 10.165C35.8271 11.7233 35.6517 13.0936 34.7751 14.1951C33.8107 15.431 31.9989 16.3445 29.4274 16.9625C27.2649 17.4729 24.518 17.7416 21.4789 17.7416Z" fill="#231F20"/>
<path d="M21.4791 15.4043C29.0321 15.4043 35.1551 13.1669 35.1551 10.407C35.1551 7.64704 29.0321 5.40967 21.4791 5.40967C13.926 5.40967 7.80298 7.64704 7.80298 10.407C7.80298 13.1669 13.926 15.4043 21.4791 15.4043Z" fill="white"/>
<path d="M21.4789 15.5113C17.7969 15.5113 14.3487 15.0009 11.7479 14.0336C9.11786 13.0664 7.65674 11.7768 7.65674 10.3797C7.65674 8.98259 9.11786 7.69297 11.7479 6.72575C14.3487 5.78539 17.7969 5.24805 21.4789 5.24805C25.1609 5.24805 28.6092 5.75853 31.21 6.72575C33.84 7.69297 35.3011 8.98259 35.3011 10.3797C35.3011 11.7768 33.84 13.0664 31.21 14.0336C28.6092 15.0009 25.1609 15.5113 21.4789 15.5113ZM21.4789 5.51672C17.8261 5.51672 14.4071 6.0272 11.8648 6.96755C10.6374 7.42429 9.64386 7.93477 8.97174 8.52585C8.29963 9.11693 7.94896 9.73488 7.94896 10.3797C7.94896 11.0245 8.29963 11.6425 8.97174 12.2335C9.64386 12.8246 10.6082 13.3351 11.8648 13.7918C14.4363 14.7322 17.8554 15.2427 21.4789 15.2427C25.1317 15.2427 28.5507 14.7322 31.0931 13.7918C32.3204 13.3351 33.314 12.8246 33.9861 12.2335C34.6582 11.6425 35.0089 11.0245 35.0089 10.3797C35.0089 9.73488 34.6582 9.11693 33.9861 8.52585C33.314 7.93477 32.3496 7.42429 31.0931 6.96755C28.5215 6.05406 25.1025 5.51672 21.4789 5.51672Z" fill="#231F20"/>
<path d="M18.7322 10.1919C18.7322 9.52026 19.9595 8.98291 21.4791 8.98291L18.7322 10.1919Z" fill="#231F20"/>
<path d="M21.4791 14.8398C18.2062 14.8398 15.1378 14.41 12.8 13.6039C10.4038 12.771 9.05957 11.6426 9.05957 10.4067C9.05957 9.17084 10.3746 8.04241 12.8 7.20953C15.1086 6.40351 18.2062 5.97363 21.4791 5.97363C24.752 5.97363 27.8203 6.40351 30.1581 7.20953C32.5543 8.04241 33.8986 9.17084 33.8986 10.4067C33.8986 11.6426 32.5835 12.771 30.1581 13.6039C27.8203 14.3831 24.752 14.8398 21.4791 14.8398ZM21.4791 6.51098C18.2646 6.51098 15.2547 6.94085 13.0046 7.72001C10.8714 8.44542 9.64402 9.43951 9.64402 10.4336C9.64402 11.4277 10.8714 12.3949 13.0046 13.1472C15.2547 13.9263 18.2646 14.3562 21.4791 14.3562C24.6935 14.3562 27.7034 13.9263 29.9535 13.1472C32.0868 12.4218 33.3141 11.4277 33.3141 10.4336C33.3141 9.43951 32.0868 8.47229 29.9535 7.72001C27.6742 6.91399 24.6935 6.51098 21.4791 6.51098Z" fill="#231F20"/>
<path d="M30.0118 8.9292C30.0118 8.9292 30.0118 8.9292 30.0411 8.95607C30.0703 8.98294 30.0995 8.98293 30.1579 9.0098C30.2456 9.06354 30.4209 9.171 30.5671 9.30534C30.7424 9.43968 30.9177 9.62775 31.0638 9.89642C31.1223 10.0308 31.1807 10.192 31.1807 10.3532C31.1807 10.5144 31.1515 10.7024 31.0638 10.8905C30.9762 11.0517 30.8301 11.2129 30.684 11.3473C30.5378 11.4816 30.3625 11.6159 30.1579 11.7234C29.7781 11.9383 29.3397 12.1264 28.8722 12.2876C28.4046 12.4488 27.937 12.5831 27.4403 12.6906C26.9435 12.7981 26.4467 12.8787 25.9207 12.9593C25.4239 13.0399 24.8979 13.0936 24.4012 13.1205C23.9044 13.1742 23.4076 13.2011 22.9108 13.2011C22.677 13.2011 22.4433 13.2011 22.2095 13.228C21.9757 13.228 21.7419 13.228 21.5373 13.228C21.5081 13.228 21.4789 13.228 21.4497 13.228C21.4205 13.228 21.3912 13.228 21.362 13.228C21.3036 13.228 21.2451 13.228 21.1867 13.228C21.0698 13.228 20.9821 13.228 20.8652 13.228C20.6607 13.228 20.4561 13.2011 20.2516 13.2011C20.1639 13.2011 20.047 13.1742 19.9594 13.1742C19.8717 13.1742 19.784 13.1474 19.6963 13.1474C19.6087 13.1474 19.521 13.1205 19.4334 13.1205C19.3457 13.1205 19.258 13.0936 19.1996 13.0936C19.0534 13.0668 18.9073 13.0668 18.7612 13.0399C18.7028 13.0399 18.6444 13.013 18.5567 13.013C18.4982 13.013 18.4398 12.9862 18.3813 12.9862C18.2644 12.9593 18.1768 12.9593 18.0891 12.9324C18.0014 12.9056 17.943 12.9056 17.8846 12.8787C17.7677 12.8518 17.7092 12.8518 17.7092 12.8518C17.7092 12.8518 17.7677 12.8518 17.8846 12.8787C17.943 12.8787 18.0307 12.8787 18.1183 12.9056C18.206 12.9056 18.2937 12.9324 18.4106 12.9324C18.469 12.9324 18.5275 12.9324 18.5859 12.9593C18.6443 12.9593 18.7028 12.9593 18.7905 12.9593C18.8489 12.9593 18.9366 12.9593 18.995 12.9862C19.0535 12.9862 19.1411 12.9862 19.2288 12.9862C19.3165 12.9862 19.3749 12.9862 19.4626 12.9862C19.5502 12.9862 19.6379 12.9862 19.7256 12.9862C19.8132 12.9862 19.9009 12.9862 19.9886 12.9862C20.0762 12.9862 20.1639 12.9862 20.2808 12.9862C20.4853 12.9862 20.6607 12.9862 20.8652 12.9862C20.9821 12.9862 21.0698 12.9862 21.1867 12.9862C21.2451 12.9862 21.3036 12.9862 21.362 12.9862C21.3912 12.9862 21.4205 12.9862 21.4497 12.9862C21.4789 12.9862 21.5081 12.9862 21.5373 12.9862C21.7711 12.9862 21.9757 12.9862 22.2095 12.9593C22.4433 12.9593 22.677 12.9324 22.9108 12.9324C23.3784 12.9056 23.8751 12.8787 24.3719 12.825C24.8687 12.7712 25.3655 12.7175 25.8915 12.6369C26.3883 12.5563 26.885 12.4757 27.3818 12.3682C27.8786 12.2607 28.3462 12.1533 28.7845 12.0189C29.2228 11.8846 29.6612 11.7234 30.0118 11.5085C30.1872 11.401 30.3625 11.2935 30.5086 11.186C30.6547 11.0786 30.7716 10.9442 30.8593 10.783C30.947 10.6487 30.9762 10.4875 30.9762 10.3532C30.9762 10.192 30.9469 10.0576 30.8885 9.92329C30.8301 9.78895 30.7716 9.68148 30.684 9.57401C30.5963 9.46654 30.5378 9.38594 30.4502 9.30534C30.3041 9.14414 30.1579 9.06353 30.0703 8.98293C30.0703 8.95607 30.0118 8.9292 30.0118 8.9292Z" fill="#231F20"/>
<path d="M24.226 10.1919C24.226 10.8636 22.9986 11.401 21.4791 11.401C19.9595 11.401 18.7322 10.8636 18.7322 10.1919C18.7322 9.52026 19.9595 8.98291 21.4791 8.98291C22.9986 8.98291 24.226 9.52026 24.226 10.1919Z" fill="#231F20"/>
<path d="M19.1705 11.3474C19.1705 11.3474 19.1413 11.3474 19.1121 11.3205C19.0829 11.3205 19.0536 11.2937 19.0244 11.2937C18.9952 11.2937 18.966 11.2668 18.9367 11.2668C18.9075 11.2399 18.8491 11.2399 18.8198 11.213C18.7906 11.1862 18.7322 11.1593 18.6737 11.1324C18.5861 11.0787 18.4692 10.9981 18.3523 10.9175C18.2354 10.8369 18.1477 10.7294 18.0601 10.5682L18.0308 10.5414V10.5145C18.0308 10.4876 18.0016 10.4876 18.0016 10.4608C18.0016 10.4339 18.0016 10.4339 17.9724 10.407V10.3802V10.3533C17.9724 10.3264 17.9724 10.2996 17.9724 10.2996C17.9724 10.2727 17.9724 10.2458 17.9724 10.2458V10.219V10.1921C17.9724 10.1652 17.9724 10.1652 17.9724 10.1384C17.9724 10.0578 18.0016 9.95029 18.0308 9.86969C18.0601 9.78908 18.1185 9.70848 18.177 9.62788C18.2938 9.49354 18.44 9.35921 18.5861 9.25174C18.7322 9.14427 18.9075 9.06367 19.0829 8.98306C19.2582 8.90246 19.4335 8.84873 19.5796 8.82186C19.755 8.76813 19.9011 8.74126 20.0764 8.71439C20.2225 8.68752 20.3979 8.66066 20.5147 8.66066C20.6609 8.66066 20.7778 8.63379 20.8946 8.63379C21.0115 8.63379 21.0992 8.63379 21.1869 8.63379C21.2745 8.63379 21.333 8.63379 21.3622 8.63379C21.3914 8.63379 21.4206 8.63379 21.4206 8.63379C21.4206 8.63379 21.3914 8.63379 21.3622 8.63379C21.333 8.63379 21.2453 8.63379 21.1869 8.66066C21.0992 8.66066 21.0115 8.68753 20.8946 8.68753C20.7778 8.71439 20.6609 8.71439 20.5147 8.74126C20.4563 8.74126 20.3686 8.76813 20.3102 8.76813C20.2518 8.79499 20.1641 8.795 20.0764 8.82186C19.9303 8.84873 19.755 8.90247 19.6089 8.9562C19.4627 9.00993 19.2874 9.06367 19.1413 9.14427C18.9952 9.22487 18.8198 9.30547 18.6737 9.38607C18.5276 9.46668 18.4107 9.60101 18.2939 9.70848C18.2354 9.76221 18.2062 9.84282 18.177 9.89655C18.1477 9.95029 18.1185 10.0309 18.1185 10.1115C18.1185 10.1384 18.1185 10.1384 18.1185 10.1652V10.1921V10.219C18.1185 10.2458 18.1185 10.2458 18.1185 10.2727C18.1185 10.2996 18.1185 10.2996 18.1185 10.3264V10.3533V10.3802C18.1185 10.407 18.1185 10.407 18.1185 10.4339C18.1185 10.4608 18.1185 10.4608 18.1477 10.4876V10.5145V10.5414C18.2062 10.6757 18.2938 10.7832 18.3815 10.8638C18.4692 10.9444 18.5569 11.025 18.6445 11.1056C18.6737 11.1324 18.7322 11.1593 18.7614 11.1862C18.7906 11.213 18.8491 11.2399 18.8783 11.2668C18.9075 11.2936 18.9367 11.2936 18.966 11.3205C18.9952 11.3474 19.0244 11.3474 19.0244 11.3474C19.1705 11.3205 19.1705 11.3474 19.1705 11.3474Z" fill="#231F20"/>
<path d="M21.479 9.09035C21.479 9.09035 21.2452 9.09034 20.8653 9.14408C20.69 9.17095 20.4562 9.19781 20.2224 9.25155C19.9887 9.30528 19.7257 9.38588 19.4627 9.52022C19.3458 9.57395 19.2289 9.65456 19.1412 9.73516C19.0536 9.81576 18.9659 9.92323 18.9367 10.0307C18.9075 10.1382 18.9075 10.2456 18.9367 10.3262C18.9659 10.4068 19.0243 10.4874 19.0828 10.568C19.1412 10.6218 19.1997 10.6755 19.2581 10.7292C19.2873 10.7561 19.3166 10.7561 19.3458 10.783C19.375 10.8098 19.4042 10.8099 19.4335 10.8367C19.5211 10.8905 19.5796 10.9173 19.5796 10.9173C19.5796 10.9173 19.5211 10.8905 19.4335 10.8636C19.4042 10.8636 19.375 10.8367 19.3458 10.8367C19.3166 10.8099 19.2873 10.8098 19.2581 10.783C19.1997 10.7561 19.112 10.7024 19.0536 10.6218C18.9951 10.568 18.9074 10.4874 18.8782 10.38C18.849 10.2725 18.8198 10.165 18.8782 10.0307C18.9074 9.92323 18.9951 9.81576 19.112 9.70829C19.1997 9.62769 19.3458 9.54709 19.4627 9.46649C19.5796 9.41275 19.7257 9.35901 19.8426 9.30528C19.9594 9.25155 20.1056 9.22468 20.2224 9.19781C20.4562 9.14408 20.69 9.11721 20.8946 9.09035C21.0991 9.06348 21.2452 9.06348 21.3621 9.06348C21.4206 9.09034 21.479 9.09035 21.479 9.09035Z" fill="white"/>
<path d="M8.91351 15.1621C8.91351 15.1621 8.94272 15.189 8.97194 15.2158C9.00116 15.2427 9.05961 15.3233 9.11805 15.377C9.23494 15.5114 9.4395 15.7263 9.7025 15.9413C9.9655 16.1562 10.3162 16.398 10.7545 16.6129C11.1636 16.8279 11.6604 17.016 12.1864 17.204C12.4494 17.2846 12.7124 17.3652 12.9462 17.4458C13.0631 17.4727 13.2092 17.4996 13.3261 17.5533C13.443 17.5802 13.5599 17.607 13.6767 17.6339C14.1443 17.7414 14.5826 17.822 14.9333 17.8757C15.6639 18.01 16.1022 18.0638 16.1022 18.1175C16.1022 18.1444 15.6346 18.1175 14.9041 18.0369C14.5242 17.9832 14.1151 17.9294 13.6183 17.822C13.5014 17.7951 13.3845 17.7682 13.2384 17.7414C13.1215 17.7145 12.9754 17.6876 12.8585 17.6608C12.5955 17.607 12.3325 17.5264 12.0695 17.419C11.5435 17.2309 11.0467 17.0428 10.6084 16.801C10.1701 16.5592 9.81939 16.3174 9.55639 16.0756C9.29339 15.8338 9.11806 15.592 9.00117 15.4308C8.94273 15.3502 8.9135 15.2696 8.88428 15.2427C8.9135 15.189 8.91351 15.1621 8.91351 15.1621Z" fill="white"/>
<path d="M8.91333 16.5327C8.91333 16.5327 8.94254 16.5596 8.97176 16.5864C8.97176 16.5864 8.97177 16.5865 9.00099 16.6133C9.00099 16.6133 9.00099 16.6402 9.03021 16.6402L9.05944 16.6671C9.05944 16.6939 9.08866 16.6939 9.08866 16.7208C9.11788 16.7477 9.11788 16.7477 9.14711 16.7745C9.14711 16.7745 9.1471 16.8014 9.17632 16.8014C9.17632 16.8283 9.20555 16.8283 9.23477 16.8551C9.29321 16.9357 9.38089 17.0432 9.49778 17.1238C9.58544 17.2313 9.70232 17.3119 9.84843 17.4193C10.1407 17.6611 10.5498 17.9029 11.0173 18.1448C11.4849 18.3597 12.0401 18.5746 12.6246 18.7358C12.9168 18.8164 13.209 18.897 13.5012 18.9508C13.6473 18.9776 13.7935 19.0045 13.9103 19.0314C14.0272 19.0582 14.1441 19.0851 14.261 19.112H14.2902C14.7578 19.1926 15.2254 19.2732 15.576 19.3269C15.6052 19.3269 15.6637 19.3269 15.6929 19.3538C16.0143 19.3806 16.2773 19.4344 16.4819 19.4344C16.5696 19.4344 16.6572 19.4612 16.7157 19.4612C16.7449 19.4612 16.7741 19.4612 16.8034 19.4612C16.8326 19.4612 16.8618 19.4881 16.8618 19.4881C16.9202 19.515 16.9202 19.515 16.9202 19.515C16.9202 19.515 16.8618 19.5418 16.7741 19.5418C16.5696 19.5418 16.2189 19.5418 15.7806 19.515C15.7221 19.515 15.6929 19.515 15.6345 19.515C15.2546 19.4881 14.787 19.4344 14.2902 19.3538C14.261 19.3538 14.2318 19.3538 14.2026 19.3269C14.0565 19.3 13.9396 19.2732 13.7934 19.2463C13.6766 19.2194 13.5304 19.1926 13.4136 19.1657H13.3843C13.0921 19.112 12.7999 19.0314 12.5077 18.9508C12.157 18.8433 11.8063 18.7358 11.4849 18.6015C11.1927 18.494 10.9297 18.3597 10.6959 18.2254C10.3744 18.0373 10.0822 17.8492 9.81922 17.6343C9.76077 17.5805 9.6731 17.5268 9.61466 17.4731C9.46854 17.3387 9.35165 17.2044 9.26398 17.0969C9.23476 17.0432 9.20554 17.0163 9.17632 16.9895C9.17632 16.9626 9.14711 16.9626 9.14711 16.9357C9.14711 16.9089 9.11787 16.9089 9.11787 16.882C9.11787 16.8551 9.08866 16.8551 9.08866 16.8283C9.08866 16.8014 9.05944 16.8014 9.05944 16.7745C9.03022 16.7477 9.03021 16.7208 9.03021 16.6939C9.03021 16.667 9.00099 16.6402 9.00099 16.6402C9.00099 16.6133 9.00098 16.6133 8.97176 16.6133C8.91332 16.5596 8.91333 16.5327 8.91333 16.5327Z" fill="white"/>
<path d="M8.91333 17.9028C8.91333 17.9028 8.94254 17.9297 8.97176 17.9566C8.97176 17.9566 8.97177 17.9834 9.00099 17.9834C9.00099 17.9834 9.00099 18.0103 9.03021 18.0103C9.03021 18.0103 9.05944 18.0372 9.05944 18.064C9.05944 18.0909 9.08866 18.0909 9.08866 18.1178C9.11788 18.1446 9.11788 18.1446 9.14711 18.1715C9.14711 18.1715 9.1471 18.1984 9.17632 18.1984C9.20554 18.2253 9.20555 18.2521 9.23477 18.2521C9.29321 18.3327 9.38089 18.4402 9.49778 18.5745C9.61467 18.682 9.73155 18.7895 9.87766 18.8969C10.2283 19.1656 10.6667 19.4074 11.1927 19.6492C11.7187 19.891 12.3323 20.106 12.9752 20.2672C13.2967 20.3478 13.6181 20.4284 13.9396 20.4821C14.0857 20.509 14.261 20.5358 14.4071 20.5627C14.5532 20.5896 14.6701 20.6164 14.8162 20.6164C14.8455 20.6164 14.8455 20.6164 14.8747 20.6164C15.4007 20.697 15.8975 20.7508 16.3066 20.7776C16.3358 20.7776 16.3942 20.7776 16.4235 20.7776C16.7741 20.8045 17.0663 20.8314 17.3001 20.8314C17.417 20.8314 17.5047 20.8314 17.5631 20.8582C17.5924 20.8582 17.6508 20.8582 17.6508 20.8582C17.68 20.8582 17.68 20.8851 17.68 20.8851C17.7093 20.912 17.7385 20.912 17.7092 20.912C17.7092 20.912 17.6508 20.9388 17.5339 20.9388C17.3294 20.9657 16.9495 20.9657 16.4235 20.9388C16.365 20.9388 16.3066 20.9388 16.2481 20.9388C15.839 20.912 15.3422 20.8851 14.787 20.8045C14.7578 20.8045 14.7286 20.8045 14.6994 20.8045C14.5532 20.7776 14.4071 20.7508 14.261 20.7508C14.1149 20.7239 13.998 20.697 13.8519 20.6702C13.8227 20.6702 13.8227 20.6702 13.7934 20.6702C13.472 20.6164 13.1506 20.5358 12.8291 20.4552C12.3908 20.3478 11.9524 20.2134 11.5726 20.0791C11.2219 19.9448 10.8712 19.7836 10.6082 19.6223C10.2576 19.4343 9.96533 19.2193 9.73155 19.0044C9.67311 18.9507 9.58544 18.8969 9.52699 18.8163C9.38088 18.682 9.26399 18.5477 9.17632 18.4133C9.1471 18.3596 9.11788 18.3327 9.08866 18.279C9.08866 18.2521 9.05944 18.2521 9.05944 18.2253C9.05944 18.1984 9.03021 18.1984 9.03021 18.1715C9.03021 18.1446 9.00099 18.1446 9.00099 18.1178C9.00099 18.0909 8.97176 18.0909 8.97176 18.064C8.94254 18.0372 8.94255 18.0103 8.94255 17.9834C8.94255 17.9566 8.91333 17.9297 8.91333 17.9028C8.91333 17.876 8.91333 17.876 8.91333 17.876C8.91333 17.9297 8.91333 17.9297 8.91333 17.9028Z" fill="white"/>
<path d="M8.91333 19.2998C8.91333 19.2998 8.94254 19.3267 8.97176 19.3535V19.3804C8.97176 19.3804 8.97177 19.4073 9.00099 19.4073C9.00099 19.4341 9.03021 19.4341 9.03021 19.461C9.03021 19.4879 9.05944 19.4879 9.05944 19.5147C9.05944 19.5416 9.08865 19.5685 9.11787 19.5685C9.11787 19.5685 9.11788 19.5953 9.14711 19.5953C9.17633 19.6222 9.17633 19.6491 9.20555 19.6759C9.264 19.7834 9.38089 19.8909 9.49778 20.0252C9.61467 20.1327 9.76078 20.267 9.93611 20.4014C10.316 20.67 10.8128 20.9656 11.3972 21.2074C11.9817 21.4492 12.6538 21.6641 13.3551 21.8253C13.7058 21.9059 14.0565 21.9865 14.4071 22.0403C14.5825 22.0671 14.7578 22.094 14.9331 22.1209C15.0792 22.1477 15.2253 22.1746 15.3715 22.1746C15.4007 22.1746 15.4007 22.1746 15.4299 22.1746C16.0144 22.2552 16.5696 22.2821 17.0079 22.3089C17.0663 22.3089 17.0956 22.3089 17.154 22.3089C17.5339 22.3358 17.8554 22.3358 18.1184 22.3358C18.2353 22.3358 18.3521 22.3358 18.4106 22.3358C18.469 22.3358 18.4982 22.3358 18.5275 22.3358C18.5567 22.3358 18.5567 22.3627 18.5567 22.3627C18.5859 22.3895 18.5859 22.3895 18.5859 22.4164C18.5567 22.4433 18.4983 22.4433 18.4106 22.4433C18.1768 22.4701 17.7677 22.497 17.2125 22.497C17.154 22.497 17.0956 22.497 17.0371 22.497C16.5696 22.497 16.0436 22.4701 15.4591 22.3895C15.4299 22.3895 15.4007 22.3895 15.3715 22.3895C15.2253 22.3627 15.05 22.3627 14.8747 22.3358C14.7286 22.3089 14.5825 22.2821 14.4071 22.2552C14.3779 22.2552 14.3779 22.2552 14.3487 22.2552C13.998 22.2015 13.6473 22.1209 13.2967 22.0403C12.7707 21.9328 12.2739 21.7985 11.8063 21.6373C11.368 21.4761 10.9881 21.3148 10.6667 21.0999C10.316 20.9118 10.0238 20.6969 9.79 20.482C9.73156 20.4282 9.64389 20.3476 9.58544 20.2939C9.43933 20.1596 9.32244 19.9984 9.23477 19.8909C9.20555 19.8371 9.17633 19.8103 9.14711 19.7565C9.14711 19.7297 9.11787 19.7297 9.11787 19.7028C9.11787 19.6759 9.08866 19.6759 9.08866 19.6491C9.08866 19.6222 9.05944 19.6222 9.05944 19.5953C9.05944 19.5685 9.03021 19.5685 9.03021 19.5416C9.00099 19.5147 9.00099 19.4879 9.00099 19.461C9.00099 19.4341 8.97176 19.4073 8.97176 19.3804C8.97176 19.3535 8.97176 19.3535 8.97176 19.3267C8.91332 19.2998 8.91333 19.2998 8.91333 19.2998Z" fill="white"/>
<path d="M8.91343 20.6699C8.91343 20.6699 8.94264 20.6968 8.97186 20.7237V20.7505C8.97186 20.7505 8.97187 20.7774 9.00109 20.8043C9.00109 20.8311 9.03031 20.8311 9.03031 20.858C9.03031 20.8849 9.05954 20.8849 9.05954 20.9117C9.05954 20.9386 9.08875 20.9655 9.11797 20.9655C9.11797 20.9655 9.11798 20.9923 9.1472 20.9923C9.17643 21.0192 9.17643 21.0461 9.20565 21.0729C9.29332 21.1804 9.38098 21.3147 9.52709 21.4491C9.64398 21.5834 9.81931 21.7177 9.99464 21.8521C10.4038 22.1476 10.959 22.4432 11.5727 22.7118C12.2155 22.9536 12.9461 23.1954 13.7059 23.3566C14.0858 23.4373 14.4657 23.5179 14.8456 23.5716C15.0501 23.5985 15.2254 23.6253 15.4008 23.6522C15.5761 23.6791 15.7222 23.6791 15.8976 23.7059C15.9268 23.7059 15.9268 23.7059 15.956 23.7059C16.5989 23.7597 17.1834 23.7865 17.6801 23.8134C17.7386 23.8134 17.797 23.8134 17.8262 23.8134C18.2646 23.8134 18.6152 23.8134 18.8782 23.8134C19.0244 23.8134 19.112 23.8134 19.1997 23.8134C19.2581 23.8134 19.2874 23.8134 19.3166 23.8134C19.3458 23.8134 19.3458 23.8403 19.3166 23.8403C19.3458 23.8671 19.3458 23.8671 19.3166 23.894C19.2874 23.9209 19.2289 23.9209 19.112 23.9209C18.849 23.9477 18.4107 24.0015 17.8262 24.0015C17.7678 24.0015 17.7094 24.0015 17.6217 24.0015C17.1249 24.0015 16.5404 23.9746 15.8976 23.9209C15.8683 23.9209 15.8391 23.9209 15.7807 23.9209C15.6053 23.894 15.43 23.894 15.2547 23.8671C15.0793 23.8403 14.9332 23.8134 14.7579 23.8134C14.7287 23.8134 14.7287 23.8134 14.6994 23.8134C14.3196 23.7597 13.9397 23.6791 13.5598 23.5985C12.9461 23.491 12.3909 23.3298 11.8649 23.1686C11.3681 23.0074 10.9298 22.7924 10.5791 22.5775C10.2284 22.3626 9.9362 22.1476 9.6732 21.9327C9.61476 21.8789 9.52709 21.7983 9.46864 21.7446C9.32253 21.5834 9.20564 21.4491 9.11797 21.3147C9.08875 21.261 9.05953 21.2341 9.03031 21.1804C9.03031 21.1535 9.00109 21.1267 9.00109 21.1267C9.00109 21.0998 8.97186 21.0998 8.97186 21.0729C8.97186 21.0461 8.94264 21.0461 8.94264 21.0192C8.94264 20.9923 8.91343 20.9923 8.91343 20.9655C8.91343 20.9386 8.8842 20.9117 8.8842 20.8849C8.8842 20.858 8.85498 20.8311 8.85498 20.8043C8.85498 20.7774 8.85498 20.7774 8.85498 20.7505C8.91343 20.6699 8.91343 20.6699 8.91343 20.6699Z" fill="white"/>
<path d="M8.91351 22.04C8.91351 22.04 8.94272 22.0669 8.97194 22.0938V22.1206C8.97194 22.1206 8.97195 22.1475 9.00117 22.1744C9.00117 22.2012 9.03039 22.2012 9.03039 22.2281C9.03039 22.255 9.05962 22.2818 9.05962 22.3087C9.05962 22.3356 9.08884 22.3624 9.08884 22.3624C9.08884 22.3624 9.08883 22.3893 9.11805 22.3893C9.14727 22.4162 9.14728 22.443 9.1765 22.4699C9.26417 22.6042 9.35185 22.7386 9.49796 22.8729C9.64407 23.0073 9.8194 23.1685 10.024 23.3028C10.4623 23.6252 11.0467 23.9207 11.7481 24.1894C12.4494 24.4581 13.2384 24.673 14.0566 24.8342C14.4657 24.9148 14.9041 24.9954 15.284 25.0492C15.4885 25.076 15.6931 25.1029 15.8976 25.1298C16.073 25.1566 16.2483 25.1566 16.4236 25.1835C16.4529 25.1835 16.4529 25.1835 16.4821 25.1835C17.1834 25.2372 17.8263 25.2641 18.3523 25.2372C18.4108 25.2372 18.4692 25.2372 18.5277 25.2372C18.9952 25.2372 19.3751 25.2104 19.6673 25.1835C19.8134 25.1835 19.9303 25.1566 20.018 25.1566C20.0764 25.1566 20.1349 25.1566 20.1349 25.1566C20.1641 25.1566 20.1641 25.1835 20.1349 25.2104C20.1641 25.2372 20.1349 25.2372 20.1057 25.2641C20.0764 25.291 19.9888 25.291 19.9011 25.3178C19.6089 25.3716 19.1413 25.4253 18.5277 25.4253C18.4692 25.4253 18.3815 25.4253 18.3231 25.4253C17.7971 25.4522 17.1542 25.4253 16.4821 25.3984C16.4529 25.3984 16.3944 25.3984 16.3652 25.3984C16.1899 25.3984 15.9853 25.3716 15.81 25.3447C15.6346 25.3178 15.4593 25.3178 15.284 25.291C15.2548 25.291 15.2548 25.291 15.2255 25.291C14.8164 25.2372 14.4073 25.1835 13.9982 25.076C13.3261 24.9686 12.654 24.8074 12.0695 24.5924C11.5143 24.4044 11.0175 24.1625 10.6084 23.9207C10.2577 23.7058 9.93628 23.4909 9.7025 23.2491C9.64405 23.1953 9.5564 23.1147 9.49796 23.061C9.35185 22.8998 9.23495 22.7655 9.14729 22.6311C9.11806 22.5774 9.08884 22.5505 9.05962 22.4968C9.05962 22.4699 9.03039 22.443 9.03039 22.443C9.03039 22.4162 9.00117 22.4162 9.00117 22.3893C9.00117 22.3624 8.97194 22.3624 8.97194 22.3356C8.97194 22.3087 8.94273 22.3087 8.94273 22.2818C8.94273 22.255 8.91351 22.2281 8.91351 22.2012C8.91351 22.1744 8.88428 22.1475 8.88428 22.1206C8.88428 22.0938 8.88428 22.0938 8.88428 22.0669C8.9135 22.04 8.91351 22.04 8.91351 22.04Z" fill="white"/>
<path d="M8.91333 23.4106C8.91333 23.4106 8.94254 23.4375 8.97176 23.4644V23.4912C8.97176 23.5181 8.97177 23.5181 9.00099 23.545C9.00099 23.5718 9.03021 23.5719 9.03021 23.5987C9.03021 23.6256 9.05944 23.6524 9.05944 23.6793C9.05944 23.7062 9.08866 23.7331 9.08866 23.7331C9.08866 23.7599 9.08865 23.7599 9.11787 23.7868C9.14709 23.8137 9.1471 23.8405 9.17632 23.8943C9.26399 24.0286 9.38088 24.1898 9.52699 24.351C9.6731 24.5122 9.87767 24.6734 10.0822 24.8346C10.5498 25.1839 11.1927 25.5063 11.9524 25.775C12.683 26.0436 13.5597 26.2854 14.4656 26.4467C14.9331 26.5273 15.3715 26.6079 15.8098 26.6616C16.0436 26.6885 16.2481 26.7153 16.4819 26.7153C16.6865 26.7422 16.8618 26.7422 17.0371 26.7691C17.0664 26.7691 17.0664 26.7691 17.0956 26.7691C17.8554 26.8228 18.5275 26.8228 19.1119 26.7959C19.1704 26.7959 19.2288 26.7959 19.2873 26.7959C19.784 26.7691 20.1931 26.7422 20.5146 26.7153C20.6607 26.6885 20.8068 26.6885 20.8945 26.6885C20.9529 26.6885 21.0114 26.6885 21.0406 26.6885C21.0698 26.6885 21.0406 26.7153 21.0114 26.7422C21.0114 26.7691 21.0114 26.7691 20.9529 26.7959C20.9237 26.8228 20.836 26.8228 20.7191 26.8497C20.3977 26.9034 19.9009 26.984 19.258 27.0109C19.1704 27.0109 19.1119 27.0109 19.0243 27.0109C18.469 27.0377 17.7969 27.0377 17.0664 27.0109C17.0371 27.0109 16.9787 27.0109 16.9495 27.0109C16.7449 27.0109 16.5404 26.984 16.3358 26.9571C16.1605 26.9303 15.9559 26.9303 15.7806 26.9034C15.7514 26.9034 15.7514 26.9034 15.7221 26.9034C15.2838 26.8497 14.8455 26.7959 14.4071 26.7153C13.6473 26.6079 12.9168 26.4198 12.2739 26.2048C11.631 25.9899 11.0758 25.7481 10.6374 25.4526C10.2868 25.2376 9.96533 24.9958 9.73155 24.754C9.67311 24.6734 9.58544 24.6197 9.52699 24.5391C9.38088 24.3779 9.26399 24.2167 9.17632 24.0823C9.1471 24.0286 9.11788 23.9749 9.08866 23.948C9.08866 23.9211 9.05944 23.8943 9.05944 23.8943C9.05944 23.8674 9.03021 23.8405 9.03021 23.8405C9.03021 23.8137 9.00099 23.8137 9.00099 23.7868C9.00099 23.7599 8.97176 23.7599 8.97176 23.7331C8.97176 23.7062 8.94255 23.6793 8.94255 23.6525C8.94255 23.6256 8.91333 23.5987 8.91333 23.5718C8.91333 23.545 8.91333 23.545 8.91333 23.5181C8.91333 23.4375 8.91333 23.4106 8.91333 23.4106Z" fill="white"/>
<path d="M8.91351 24.7808C8.91351 24.7808 8.94273 24.8076 8.94273 24.8345V24.8614C8.94273 24.8882 8.94272 24.8882 8.97194 24.9151C8.97194 24.942 9.00117 24.9688 9.00117 24.9688C9.00117 24.9957 9.03039 25.0226 9.03039 25.0494C9.03039 25.0763 9.05962 25.1032 9.05962 25.1032C9.05962 25.13 9.08884 25.13 9.08884 25.1569C9.11806 25.1838 9.11806 25.2106 9.14729 25.2644C9.23495 25.3987 9.35184 25.5868 9.52717 25.748C9.70251 25.9092 9.90706 26.0973 10.1408 26.2585C10.6668 26.6077 11.339 26.957 12.128 27.2526C12.917 27.5481 13.8229 27.763 14.8164 27.9242C15.3132 28.0048 15.7808 28.0854 16.2483 28.1123C16.4821 28.1392 16.7159 28.166 16.9497 28.166C17.1542 28.1929 17.3588 28.1929 17.5633 28.1929C17.5925 28.1929 17.6218 28.1929 17.6218 28.1929C18.44 28.2198 19.1705 28.2198 19.7842 28.1929C19.8427 28.1929 19.9011 28.1929 19.9888 28.1929C20.5148 28.166 20.9531 28.1123 21.3038 28.0854C21.4791 28.0586 21.596 28.0586 21.7129 28.0317C21.8006 28.0317 21.8298 28.0048 21.859 28.0317C21.8882 28.0317 21.859 28.0586 21.8006 28.0854C21.8006 28.1123 21.7713 28.1123 21.7421 28.1392C21.6837 28.166 21.6252 28.166 21.5083 28.1929C21.1869 28.2735 20.6317 28.3541 19.9596 28.381C19.8719 28.381 19.8134 28.381 19.7258 28.4078C19.1121 28.4347 18.4108 28.4616 17.6218 28.4347C17.5925 28.4347 17.5341 28.4347 17.5049 28.4347C17.3003 28.4347 17.0665 28.4078 16.862 28.4078C16.6574 28.381 16.4529 28.381 16.2483 28.3541C16.2191 28.3541 16.1899 28.3541 16.1899 28.3541C15.7223 28.3004 15.2548 28.2466 14.7872 28.166C13.9397 28.0317 13.1508 27.8705 12.4202 27.6287C11.7189 27.4138 11.1052 27.1182 10.6376 26.8227C10.2577 26.6077 9.9655 26.3659 9.7025 26.1241C9.64405 26.0435 9.5564 25.9898 9.49796 25.9092C9.35185 25.748 9.23495 25.5868 9.14729 25.4524C9.11806 25.3987 9.08884 25.345 9.05962 25.3181C9.05962 25.2912 9.03039 25.2644 9.03039 25.2375C9.03039 25.2106 9.00117 25.1838 9.00117 25.1838C9.00117 25.1569 8.97194 25.1569 8.97194 25.13C8.97194 25.1032 8.97195 25.1032 8.94273 25.0763C8.94273 25.0494 8.91351 25.0226 8.91351 24.9688C8.91351 24.942 8.9135 24.9151 8.88428 24.8882C8.88428 24.8614 8.88428 24.8614 8.88428 24.8345C8.9135 24.8076 8.91351 24.7808 8.91351 24.7808Z" fill="white"/>
<path d="M8.91353 26.1514C8.91353 26.1514 8.94274 26.1782 8.94274 26.2051C8.94274 26.2051 8.94274 26.232 8.94274 26.2588C8.94274 26.2857 8.94274 26.2857 8.97196 26.3126C8.97196 26.3394 9.00119 26.3663 9.00119 26.3932C9.00119 26.42 9.03041 26.4469 9.03041 26.4738C9.03041 26.5006 9.05964 26.5275 9.05964 26.5544C9.05964 26.5812 9.08885 26.5812 9.08885 26.6081C9.11808 26.635 9.11808 26.6887 9.1473 26.7156C9.23497 26.8768 9.35186 27.038 9.52719 27.2261C9.70252 27.4141 9.90708 27.6022 10.1701 27.7634C10.7253 28.1395 11.4559 28.4888 12.3033 28.7844C13.1508 29.0799 14.1151 29.3217 15.1671 29.4829C15.6931 29.5635 16.1899 29.6172 16.6867 29.671C16.9497 29.6978 17.1834 29.7247 17.4464 29.7247C17.6802 29.7247 17.8848 29.7516 18.0893 29.7516C18.1186 29.7516 18.1478 29.7516 18.1478 29.7516C19.0245 29.7784 19.7842 29.7516 20.4564 29.7247C20.5148 29.7247 20.6025 29.7247 20.6609 29.6978C21.2453 29.6441 21.7129 29.5904 22.0343 29.5635C22.2097 29.5366 22.3558 29.5098 22.4727 29.5098C22.5604 29.4829 22.6188 29.4829 22.6188 29.5098C22.648 29.5098 22.6188 29.5366 22.5603 29.5635C22.5603 29.5904 22.5311 29.6172 22.4727 29.6172C22.4142 29.6441 22.3266 29.671 22.2097 29.671C21.859 29.7516 21.2746 29.8322 20.5732 29.9128C20.4856 29.9128 20.3979 29.9397 20.3102 29.9397C19.6673 29.9934 18.9076 30.0203 18.0893 29.9934C18.0309 29.9934 18.0017 29.9934 17.9432 29.9934C17.7094 29.9934 17.5049 29.9665 17.2711 29.9665C17.0666 29.9665 16.8328 29.9397 16.6282 29.9128C16.599 29.9128 16.5698 29.9128 16.5698 29.9128C16.073 29.8591 15.5762 29.8053 15.0794 29.7247C14.1443 29.5904 13.2677 29.4023 12.5079 29.1605C11.7481 28.9187 11.076 28.6232 10.55 28.2739C10.1701 28.0321 9.84863 27.7903 9.61485 27.5485C9.55641 27.4679 9.46874 27.4141 9.41029 27.3335C9.26418 27.1723 9.14731 27.0111 9.05964 26.8499C9.03042 26.7962 9.00118 26.7424 8.97196 26.6887C8.97196 26.6618 8.94274 26.635 8.94274 26.6081C8.94274 26.5812 8.91353 26.5544 8.91353 26.5544C8.91353 26.5275 8.88429 26.5275 8.88429 26.5006C8.88429 26.4738 8.8843 26.4738 8.85508 26.4469C8.85508 26.42 8.82585 26.3663 8.82585 26.3394C8.82585 26.3126 8.82585 26.2857 8.79663 26.2588C8.79663 26.232 8.79663 26.232 8.79663 26.2051C8.91352 26.1782 8.91353 26.1514 8.91353 26.1514Z" fill="white"/>
<path d="M8.91333 27.5215C8.91333 27.5215 8.94255 27.5483 8.94255 27.5752C8.94255 27.5752 8.94255 27.6021 8.94255 27.629C8.94255 27.6558 8.94254 27.6558 8.97176 27.6827C8.97176 27.7095 9.00099 27.7364 9.00099 27.7633C9.00099 27.7902 9.03021 27.817 9.03021 27.8439C9.03021 27.8708 9.05944 27.8976 9.05944 27.9245C9.05944 27.9514 9.08866 27.9514 9.08866 27.9782C9.11788 28.0051 9.11788 28.0588 9.14711 28.0857C9.23477 28.2469 9.38087 28.435 9.55621 28.623C9.73154 28.8111 9.96533 28.9992 10.2576 29.2141C10.842 29.6171 11.631 29.9933 12.5369 30.2888C13.4428 30.5843 14.4656 30.8262 15.576 31.0142C16.1312 31.0948 16.6572 31.1486 17.1833 31.2023C17.4463 31.2292 17.7385 31.2292 18.0015 31.256C18.2353 31.256 18.469 31.2829 18.7028 31.2829C18.732 31.2829 18.7613 31.2829 18.7905 31.2829C19.7256 31.3098 20.5438 31.256 21.2451 31.2023C21.3328 31.2023 21.3913 31.2023 21.4497 31.1754C22.0634 31.1217 22.5602 31.0411 22.9108 31.0142C23.1154 30.9874 23.2615 30.9605 23.3784 30.9336C23.4661 30.9068 23.5245 30.9068 23.5537 30.9068C23.5829 30.9068 23.5537 30.9336 23.4661 30.9605C23.4368 30.9874 23.4076 31.0142 23.3492 31.0142C23.2907 31.0411 23.2031 31.068 23.0862 31.0948C22.7063 31.1754 22.1218 31.2829 21.362 31.3635C21.2744 31.3635 21.1867 31.3904 21.099 31.3904C20.4269 31.4441 19.6379 31.4978 18.7612 31.471C18.7028 31.471 18.6736 31.471 18.6151 31.471C18.3814 31.471 18.1476 31.471 17.8846 31.4441C17.6508 31.4441 17.4462 31.4172 17.2125 31.3904C17.1832 31.3904 17.154 31.3904 17.1248 31.3904C16.5988 31.3366 16.0728 31.2829 15.5468 31.2023C14.5532 31.068 13.5889 30.853 12.7415 30.5844C11.9232 30.3157 11.1927 29.9933 10.6374 29.6171C10.2575 29.3753 9.9361 29.1335 9.70232 28.8648C9.64387 28.7842 9.55622 28.7036 9.49778 28.6499C9.35167 28.4887 9.23477 28.3006 9.17632 28.1663C9.1471 28.1126 9.11788 28.0588 9.08866 28.0051C9.08866 27.9782 9.05944 27.9514 9.05944 27.9245C9.05944 27.8976 9.03021 27.8708 9.03021 27.8708C9.03021 27.8439 9.03022 27.817 9.00099 27.817C9.00099 27.7902 9.00098 27.7902 8.97176 27.7633C8.97176 27.7364 8.94255 27.6827 8.94255 27.6558C8.94255 27.629 8.94255 27.6021 8.94255 27.5752C8.94255 27.5483 8.94255 27.5484 8.94255 27.5215C8.91332 27.5484 8.91333 27.5215 8.91333 27.5215Z" fill="white"/>
<path d="M8.91343 28.8916C8.91343 28.8916 8.94264 28.9185 8.94264 28.9453C8.94264 28.9453 8.94264 28.9722 8.94264 28.9991C8.94264 29.0259 8.94264 29.0528 8.97186 29.0528C8.97186 29.0797 9.00109 29.1065 9.00109 29.1334C9.00109 29.1603 9.03031 29.1871 9.03031 29.2409C9.03031 29.2677 9.05954 29.2946 9.05954 29.3215C9.05954 29.3483 9.08876 29.3484 9.08876 29.3752C9.11798 29.4021 9.11798 29.4558 9.1472 29.5096C9.23487 29.6976 9.38098 29.8857 9.58554 30.1006C9.7901 30.3156 10.0239 30.5036 10.3453 30.7186C10.959 31.1485 11.7772 31.5246 12.7415 31.8201C13.7059 32.1425 14.7871 32.3843 15.956 32.5456C16.5405 32.6262 17.0957 32.6799 17.6509 32.7336C17.9431 32.7605 18.2354 32.7605 18.4984 32.7874C18.7614 32.7874 18.9951 32.8142 19.2289 32.8142C19.2581 32.8142 19.2874 32.8142 19.3166 32.8142C20.2809 32.8142 21.1868 32.7874 21.9174 32.7068C22.005 32.7068 22.0635 32.6799 22.1511 32.6799C22.794 32.6262 23.32 32.5456 23.6999 32.465C23.9045 32.4381 24.0798 32.4112 24.1675 32.3843C24.2551 32.3575 24.3428 32.3575 24.3428 32.3575C24.3428 32.3575 24.3136 32.3843 24.2552 32.4112C24.2259 32.4381 24.1967 32.465 24.109 32.4918C24.0506 32.5187 23.9629 32.5456 23.8168 32.5724C23.4077 32.6799 22.794 32.7874 22.005 32.8948C21.9174 32.8948 21.8297 32.9217 21.7128 32.9217C20.9823 33.0023 20.164 33.056 19.2289 33.056C19.1705 33.056 19.1412 33.056 19.0828 33.056C18.8198 33.056 18.586 33.056 18.323 33.0292C18.0892 33.0292 17.8555 33.0023 17.5925 33.0023C17.5632 33.0023 17.534 33.0023 17.5048 33.0023C16.9496 32.9754 16.3943 32.8948 15.8391 32.8142C14.7579 32.6799 13.7351 32.465 12.8292 32.1694C11.9233 31.9007 11.1343 31.5246 10.5499 31.1485C10.17 30.9067 9.84854 30.638 9.58554 30.3693C9.49787 30.2887 9.43942 30.2081 9.38098 30.1544C9.23487 29.9663 9.11799 29.8051 9.05954 29.6439C9.03032 29.5902 9.00109 29.5364 9.00109 29.4827C9.00109 29.4558 8.97186 29.429 8.97186 29.4021C8.97186 29.3752 8.94264 29.3483 8.94264 29.3215C8.94264 29.2946 8.94265 29.2677 8.91343 29.2677C8.91343 29.2409 8.91342 29.214 8.8842 29.214C8.8842 29.1871 8.85498 29.1334 8.85498 29.1065C8.85498 29.0797 8.85498 29.0528 8.85498 29.0259C8.85498 28.9991 8.85498 28.9991 8.85498 28.9722C8.91343 28.9185 8.91343 28.8916 8.91343 28.8916Z" fill="white"/>
<path d="M8.91351 30.2886C8.91351 30.2886 8.94273 30.3154 8.94273 30.3423C8.94273 30.3692 8.94273 30.3692 8.94273 30.396C8.94273 30.4229 8.94272 30.4498 8.97194 30.4766C8.97194 30.5035 9.00117 30.5304 9.00117 30.5572C9.00117 30.5841 9.03039 30.611 9.03039 30.6647C9.03039 30.6916 9.05962 30.7185 9.05962 30.7453C9.05962 30.7722 9.08884 30.7991 9.08884 30.7991C9.11806 30.8528 9.11806 30.8797 9.14729 30.9334C9.23495 31.1215 9.38106 31.3364 9.58562 31.5513C9.79018 31.7663 10.0532 31.9812 10.3746 32.1962C11.0175 32.626 11.8942 33.029 12.917 33.3514C13.9397 33.6738 15.0794 33.9157 16.3068 34.1037C16.9204 34.1843 17.5341 34.2381 18.1185 34.2918C18.4108 34.3187 18.7322 34.3187 19.0244 34.3455C19.2874 34.3455 19.5504 34.3455 19.8134 34.3724C19.8427 34.3724 19.8719 34.3724 19.9011 34.3724C20.9239 34.3724 21.859 34.3187 22.648 34.2381C22.7357 34.2381 22.8233 34.2112 22.8818 34.2112C23.5539 34.1306 24.1091 34.05 24.5182 33.9694C24.7228 33.9157 24.8981 33.8888 25.015 33.8619C25.1319 33.8351 25.1903 33.8351 25.1903 33.8351C25.1903 33.8351 25.1611 33.8619 25.0735 33.9157C25.0442 33.9425 24.9858 33.9694 24.9274 33.9963C24.8689 34.0231 24.752 34.05 24.6351 34.0769C24.1968 34.1843 23.5539 34.3187 22.7064 34.4261C22.6188 34.4261 22.5019 34.453 22.4142 34.453C21.6544 34.5336 20.7778 34.6142 19.8134 34.6142C19.755 34.6142 19.6966 34.6142 19.6673 34.6142C19.4043 34.6142 19.1413 34.6142 18.8783 34.6142C18.6445 34.6142 18.3815 34.5873 18.1185 34.5873C18.0893 34.5873 18.0601 34.5873 18.0309 34.5873C17.4756 34.5605 16.862 34.5067 16.2775 34.4261C15.1086 34.2918 13.9982 34.05 13.0339 33.7545C12.0695 33.4589 11.2221 33.0828 10.5792 32.6529C10.1993 32.4111 9.84861 32.1424 9.61484 31.8737C9.52717 31.7931 9.46872 31.7125 9.41028 31.6319C9.26416 31.4439 9.14728 31.2827 9.08884 31.1215C9.05961 31.0677 9.03039 31.014 9.03039 30.9603C9.03039 30.9334 9.00117 30.9065 9.00117 30.8797C9.00117 30.8528 8.97194 30.8259 8.97194 30.7991C8.97194 30.7722 8.97195 30.7453 8.94273 30.7453C8.94273 30.7185 8.94273 30.6916 8.91351 30.6916C8.91351 30.6647 8.88428 30.611 8.88428 30.5841C8.88428 30.5572 8.88428 30.5304 8.88428 30.5035C8.88428 30.4766 8.88428 30.4766 8.88428 30.4498C8.9135 30.2886 8.91351 30.2886 8.91351 30.2886Z" fill="white"/>
<path d="M8.91351 31.6592C8.91351 31.6592 8.94273 31.686 8.94273 31.7129C8.94273 31.7398 8.94273 31.7398 8.94273 31.7666C8.94273 31.7935 8.94272 31.8204 8.97194 31.8472C8.97194 31.8741 9.00117 31.901 9.00117 31.9279C9.00117 31.9547 9.03039 32.0085 9.03039 32.0353C9.03039 32.0622 9.05962 32.0891 9.05962 32.1159C9.05962 32.1428 9.08884 32.1697 9.08884 32.1697C9.11806 32.2234 9.11806 32.2503 9.14729 32.304C9.23495 32.4921 9.41028 32.7339 9.61484 32.9488C9.81939 33.1906 10.1116 33.4055 10.4623 33.6205C11.1636 34.0772 12.0695 34.4802 13.1508 34.8295C14.232 35.1519 15.4301 35.4206 16.7159 35.5818C17.3588 35.6624 18.0016 35.7161 18.6153 35.743C18.9368 35.7699 19.2582 35.7699 19.5504 35.7699C19.8427 35.7699 20.1057 35.7699 20.3687 35.7699C20.3979 35.7699 20.4271 35.7699 20.4563 35.7699C21.5376 35.7699 22.5311 35.6893 23.3493 35.6087C23.437 35.6087 23.5247 35.5818 23.6123 35.5818C24.3429 35.5012 24.9273 35.3937 25.3365 35.3131C25.5702 35.2594 25.7456 35.2325 25.8625 35.2057C25.9794 35.1788 26.0378 35.1788 26.067 35.1788C26.067 35.1788 26.0378 35.2057 25.9209 35.2594C25.8917 35.2863 25.8332 35.3131 25.7456 35.34C25.6579 35.3669 25.5702 35.3937 25.4534 35.4206C24.9858 35.5549 24.3137 35.6893 23.437 35.8236C23.3493 35.8505 23.2325 35.8505 23.1156 35.8773C22.3266 35.9848 21.3914 36.0385 20.3979 36.0654C20.3394 36.0654 20.281 36.0654 20.2225 36.0654C19.9595 36.0654 19.6673 36.0654 19.3751 36.0654C19.1121 36.0654 18.8491 36.0385 18.5861 36.0385C18.5569 36.0385 18.5277 36.0385 18.4984 36.0385C17.914 36.0117 17.2711 35.9579 16.6574 35.8773C15.4009 35.743 14.232 35.5012 13.18 35.1788C12.1572 34.8564 11.2513 34.4534 10.5792 33.9966C10.1701 33.728 9.84862 33.4593 9.58562 33.1906C9.49795 33.11 9.43951 33.0294 9.38106 32.9488C9.23495 32.7607 9.11807 32.5727 9.05962 32.4115C9.0304 32.3577 9.00117 32.304 9.00117 32.2503C9.00117 32.2234 8.97194 32.1965 8.97194 32.1697C8.97194 32.1428 8.94273 32.1159 8.94273 32.0891C8.94273 32.0622 8.94273 32.0353 8.91351 32.0353C8.91351 32.0085 8.91351 31.9816 8.91351 31.9816C8.91351 31.9547 8.88428 31.901 8.88428 31.8741C8.88428 31.8472 8.88428 31.8204 8.88428 31.7935C8.88428 31.7666 8.88428 31.7666 8.88428 31.7398C8.9135 31.6592 8.91351 31.6592 8.91351 31.6592Z" fill="white"/>
<path d="M8.91351 33.0293C8.91351 33.0293 8.94273 33.0562 8.94273 33.083C8.94273 33.1099 8.94273 33.1099 8.94273 33.1368C8.94273 33.1636 8.94272 33.1905 8.97194 33.2174C8.97194 33.2442 9.00117 33.2711 9.00117 33.3248C9.00117 33.3517 9.03039 33.4054 9.03039 33.4323C9.03039 33.4592 9.05962 33.486 9.05962 33.5129C9.05962 33.5398 9.08884 33.5666 9.08884 33.5935C9.11806 33.6472 9.11806 33.701 9.14729 33.7278C9.23495 33.9428 9.41029 34.1846 9.64407 34.4264C9.87785 34.6682 10.1701 34.91 10.5207 35.1518C11.2513 35.6354 12.2156 36.0653 13.3261 36.3877C14.4365 36.737 15.7223 37.0057 17.0958 37.1669C17.7679 37.2475 18.44 37.3012 19.0829 37.3281C19.4335 37.3549 19.755 37.3549 20.0764 37.3549C20.3687 37.3549 20.6609 37.3549 20.9239 37.3549C20.9531 37.3549 20.9823 37.3549 21.0115 37.3549C22.1512 37.3281 23.174 37.2475 24.0507 37.14C24.1383 37.14 24.226 37.1131 24.3137 37.1131C25.0735 37.0056 25.6871 36.8982 26.1255 36.8176C26.3592 36.7638 26.5638 36.737 26.6807 36.7101C26.7976 36.6832 26.8853 36.6832 26.8853 36.6832C26.8853 36.6832 26.8268 36.7101 26.7391 36.7638C26.6807 36.7907 26.6222 36.8176 26.5346 36.8444C26.4469 36.8713 26.33 36.8982 26.2131 36.9519C25.7456 37.0862 25.015 37.2475 24.1091 37.3818C23.9922 37.4087 23.9046 37.4087 23.7877 37.4355C22.9694 37.543 22.0051 37.6236 20.9239 37.6505C20.8654 37.6505 20.807 37.6505 20.7486 37.6505C20.4563 37.6505 20.1641 37.6505 19.8719 37.6505C19.6089 37.6505 19.3167 37.6505 19.0536 37.6236C19.0244 37.6236 18.9952 37.6236 18.966 37.6236C18.3523 37.5967 17.6802 37.543 17.0373 37.4624C15.7223 37.3012 14.4657 37.0594 13.3553 36.7101C12.2448 36.3608 11.3097 35.9578 10.5792 35.4474C10.1701 35.1787 9.84862 34.91 9.58562 34.6145C9.49795 34.5339 9.43951 34.4533 9.38106 34.3727C9.23495 34.1846 9.11807 33.9965 9.05962 33.8353C9.0304 33.7816 9.00117 33.7278 9.00117 33.6741C9.00117 33.6472 8.97194 33.6204 8.97194 33.5935C8.97194 33.5666 8.94273 33.5398 8.94273 33.5129C8.94273 33.486 8.94273 33.4592 8.91351 33.4323C8.91351 33.4054 8.91351 33.3786 8.91351 33.3786C8.91351 33.3248 8.9135 33.298 8.88428 33.2711C8.88428 33.2442 8.88428 33.2174 8.88428 33.1905C8.88428 33.1636 8.88428 33.1636 8.88428 33.1368C8.9135 33.0293 8.91351 33.0293 8.91351 33.0293Z" fill="white"/>
<path d="M8.91333 34.3994C8.91333 34.3994 8.91332 34.4263 8.94255 34.4532C8.94255 34.48 8.94255 34.48 8.94255 34.5069C8.94255 34.5338 8.94254 34.5606 8.97176 34.5875C8.97176 34.6144 8.97177 34.6412 9.00099 34.695C9.00099 34.7218 9.03021 34.7756 9.03021 34.8293C9.03021 34.8562 9.05944 34.883 9.05944 34.9099C9.05944 34.9368 9.08866 34.9636 9.08866 34.9905C9.11788 35.0442 9.11788 35.098 9.14711 35.1517C9.26399 35.3666 9.41011 35.6084 9.64389 35.8771C9.87767 36.1189 10.1991 36.3876 10.579 36.6294C11.3388 37.113 12.3616 37.5698 13.5305 37.919C14.6994 38.2683 16.0436 38.537 17.4755 38.6982C18.1768 38.7788 18.8781 38.8325 19.5503 38.8594C19.9009 38.8863 20.2516 38.8863 20.6023 38.8863C20.8945 38.8863 21.2159 38.8863 21.5082 38.8863C21.5374 38.8863 21.5666 38.8863 21.5958 38.8863C22.7939 38.8594 23.8752 38.7788 24.7811 38.6444C24.8687 38.6444 24.9564 38.6176 25.0733 38.6176C25.8623 38.5101 26.5052 38.3758 26.9727 38.2683C27.2357 38.2146 27.4111 38.1608 27.5572 38.134C27.7033 38.1071 27.7617 38.0802 27.7617 38.1071C27.7617 38.1071 27.7033 38.134 27.5864 38.1877C27.528 38.2146 27.4695 38.2414 27.3818 38.2683C27.2942 38.2952 27.1773 38.322 27.0604 38.3758C26.5636 38.5101 25.8038 38.6982 24.8687 38.8325C24.7518 38.8594 24.6349 38.8594 24.5181 38.8863C23.6414 39.0206 22.6478 39.1012 21.5374 39.1281C21.4789 39.1281 21.4205 39.1281 21.362 39.1281C21.0698 39.1281 20.7484 39.1281 20.4269 39.1281C20.1347 39.1281 19.8425 39.1281 19.5503 39.1012C19.521 39.1012 19.4918 39.1012 19.4626 39.1012C18.8197 39.0743 18.1476 39.0206 17.4462 38.94C16.0436 38.7788 14.6994 38.5101 13.5305 38.1608C12.3616 37.8116 11.3388 37.3548 10.579 36.8443C10.1699 36.5757 9.81922 36.2801 9.58544 35.9846C9.49777 35.904 9.43933 35.8234 9.38088 35.7428C9.23477 35.5547 9.11789 35.3398 9.05944 35.1786C9.03022 35.1248 9.00099 35.0711 9.00099 35.0174C9.00099 34.9905 8.97176 34.9636 8.97176 34.9368C8.97176 34.9099 8.97177 34.883 8.94255 34.8562C8.94255 34.8293 8.94255 34.8024 8.91333 34.7756C8.91333 34.7487 8.91333 34.7218 8.91333 34.7218C8.91333 34.6681 8.91333 34.6412 8.91333 34.6144C8.91333 34.5875 8.91333 34.5606 8.91333 34.5338C8.91333 34.5069 8.91333 34.5069 8.91333 34.48C8.91333 34.4263 8.91333 34.3994 8.91333 34.3994Z" fill="white"/>
<path d="M8.91333 35.7695C8.91333 35.7695 8.91332 35.7964 8.94255 35.8233C8.94255 35.8501 8.94255 35.8501 8.94255 35.877C8.94255 35.9039 8.94254 35.9307 8.97176 35.9576C8.97176 35.9845 8.97177 36.0382 9.00099 36.0651C9.00099 36.0919 9.03021 36.1457 9.03021 36.1994C9.03021 36.2263 9.05944 36.2531 9.05944 36.28C9.05944 36.3069 9.08866 36.3337 9.08866 36.3606C9.11788 36.4143 9.11788 36.4681 9.14711 36.5218C9.26399 36.7368 9.43933 37.0054 9.6731 37.2741C9.9361 37.5428 10.2575 37.8114 10.6374 38.0532C11.4264 38.5637 12.5077 39.0205 13.735 39.3966C14.9624 39.7728 16.365 40.0414 17.8554 40.2026C18.5859 40.2832 19.3165 40.337 20.0178 40.3638C20.3977 40.3907 20.7484 40.3907 21.099 40.3907C21.4205 40.3907 21.7419 40.3907 22.0342 40.3907C22.0634 40.3907 22.0926 40.3907 22.151 40.3907C23.4076 40.3638 24.518 40.2564 25.4824 40.122C25.5701 40.0952 25.6869 40.0952 25.7746 40.0683C26.5928 39.934 27.265 39.7996 27.7617 39.6922C28.0247 39.6384 28.2293 39.5847 28.3754 39.5578C28.5215 39.531 28.58 39.5041 28.6092 39.5309C28.6092 39.5309 28.5507 39.5578 28.4046 39.6116C28.3462 39.6384 28.2585 39.6653 28.1708 39.6922C28.0832 39.719 27.9663 39.7728 27.8202 39.7996C27.2942 39.9608 26.5052 40.1489 25.5408 40.3101C25.4239 40.337 25.3071 40.337 25.1902 40.3638C24.2843 40.4982 23.2323 40.6056 22.0926 40.6325C22.0342 40.6325 21.9757 40.6325 21.888 40.6325C21.5666 40.6325 21.2452 40.6325 20.9237 40.6325C20.6315 40.6325 20.3393 40.6325 20.0178 40.6056C19.9886 40.6056 19.9594 40.6056 19.9301 40.6056C19.258 40.5788 18.5567 40.525 17.8261 40.4444C16.3358 40.2832 14.9331 40.0146 13.7058 39.6384C12.4784 39.2623 11.3972 38.7787 10.6082 38.2413C10.1991 37.9727 9.84844 37.6771 9.58544 37.3816C9.49777 37.301 9.43933 37.2204 9.38088 37.1129C9.23477 36.898 9.11789 36.7099 9.05944 36.5487C9.03022 36.4949 9.00099 36.4143 9.00099 36.3606C9.00099 36.3337 8.97176 36.3069 8.97176 36.28C8.97176 36.2531 8.97177 36.2263 8.94255 36.1994C8.94255 36.1725 8.94255 36.1457 8.94255 36.1188C8.94255 36.0919 8.94255 36.0651 8.94255 36.0382C8.94255 35.9845 8.94255 35.9576 8.94255 35.9307C8.94255 35.9039 8.94255 35.877 8.94255 35.8501C8.94255 35.8233 8.94255 35.8233 8.94255 35.7964C8.91332 35.7964 8.91333 35.7695 8.91333 35.7695Z" fill="white"/>
<path d="M8.91333 37.1396C8.91333 37.1396 8.91332 37.1665 8.94255 37.1934C8.94255 37.2203 8.94255 37.2202 8.94255 37.2471C8.94255 37.274 8.94254 37.3009 8.97176 37.3277C8.97176 37.3546 8.97177 37.4083 9.00099 37.4352C9.00099 37.4889 9.03021 37.5158 9.03021 37.5695C9.03021 37.5964 9.03022 37.6233 9.05944 37.6501C9.05944 37.677 9.08866 37.7039 9.08866 37.7307C9.11788 37.7845 9.11788 37.8382 9.14711 37.8919C9.26399 38.1337 9.43932 38.4024 9.70232 38.6711C9.96532 38.9398 10.316 39.2353 10.7251 39.504C11.5433 40.0413 12.6538 40.5249 13.9396 40.8742C15.2253 41.2503 16.6865 41.519 18.2352 41.6802C19.0243 41.7608 19.784 41.8146 20.5146 41.8414C21.2451 41.8683 21.9465 41.8683 22.6478 41.8414C23.9921 41.7877 25.2194 41.6802 26.2129 41.5459C27.2357 41.3847 28.0247 41.2235 28.58 41.0891C28.843 41.0085 29.0767 40.9817 29.2229 40.9279C29.369 40.9011 29.4566 40.8742 29.4566 40.9011C29.4566 40.9011 29.3982 40.9548 29.2521 41.0085C29.1936 41.0354 29.106 41.0623 28.9891 41.0891C28.8722 41.116 28.7553 41.1697 28.6384 41.1966C28.0832 41.3578 27.2942 41.5727 26.2714 41.734C25.2486 41.8952 24.0213 42.0564 22.677 42.1101C22.0049 42.137 21.2744 42.137 20.5438 42.137C19.8133 42.1101 19.0243 42.0564 18.2352 41.9758C16.6572 41.8146 15.1961 41.519 13.8811 41.1429C12.5661 40.7399 11.4557 40.2563 10.6082 39.6652C10.1991 39.3696 9.84844 39.0741 9.58544 38.7786C9.32244 38.483 9.14711 38.1875 9.05944 37.9188C9.03022 37.8651 9.03022 37.7845 9.00099 37.7307C9.00099 37.7039 9.00098 37.677 8.97176 37.6501C8.97176 37.6233 8.97177 37.5964 8.94255 37.5695C8.94255 37.5158 8.91333 37.4621 8.91333 37.4352C8.91333 37.3815 8.91333 37.3546 8.91333 37.3277C8.91333 37.3009 8.91333 37.274 8.91333 37.2471C8.91333 37.2202 8.91333 37.1934 8.91333 37.1665C8.91333 37.1665 8.91333 37.1396 8.91333 37.1396Z" fill="white"/>
<path d="M28.6386 31.9814C28.6386 31.9814 28.8723 32.0352 29.2814 32.1695C29.6905 32.3039 30.3042 32.4651 31.0932 32.7337C31.4731 32.8681 31.9114 33.0024 32.379 33.1636C32.8466 33.3248 33.3433 33.5129 33.8693 33.7278C34.9213 34.1577 36.0902 34.6682 37.2884 35.3667C37.8728 35.716 38.4865 36.119 39.0709 36.6026C39.6554 37.0862 40.1814 37.6236 40.6489 38.2684C40.8827 38.5908 41.058 38.9401 41.2334 39.3162C41.3795 39.6924 41.4964 40.0685 41.5548 40.4715C41.6133 40.8745 41.6425 41.2775 41.584 41.7074C41.5548 42.1104 41.4672 42.5403 41.3503 42.9433C41.2334 43.3463 41.058 43.7493 40.8827 44.1255C40.795 44.3135 40.6781 44.5016 40.5905 44.6897C40.4736 44.8777 40.3567 45.0658 40.2398 45.2539C40.1814 45.3345 40.1229 45.442 40.0645 45.5226L39.9768 45.6569L39.8892 45.7912C39.8307 45.8718 39.743 45.9793 39.6846 46.0599C39.6261 46.1405 39.5385 46.2211 39.48 46.3286C39.1878 46.6778 38.8664 47.0002 38.5157 47.2958C37.8144 47.8869 37.0253 48.3973 36.1487 48.8004C35.272 49.1765 34.3661 49.472 33.431 49.6601C32.9634 49.7407 32.4959 49.8213 32.0283 49.875C31.5608 49.9288 31.0932 49.9556 30.6257 49.9825C29.6906 50.0094 28.7554 50.0094 27.8203 49.9557C26.8852 49.9019 25.9793 49.7945 25.0734 49.687C24.1675 49.5795 23.2908 49.4452 22.4142 49.284C21.5375 49.1496 20.7193 48.9616 19.8718 48.8004C19.0536 48.6392 18.2354 48.478 17.4464 48.2899C17.0665 48.2093 16.6574 48.1287 16.2775 48.0481C15.8976 47.9675 15.5177 47.8869 15.167 47.8063C14.4365 47.6451 13.7351 47.4839 13.0338 47.3495C12.6831 47.2689 12.3617 47.2152 12.0402 47.1346C11.7188 47.0809 11.3974 47.0003 11.0759 46.9465C10.4622 46.839 9.84858 46.7316 9.29336 46.6241C8.73813 46.5435 8.21212 46.4629 7.71534 46.3823C7.21856 46.3286 6.78024 46.2748 6.37112 46.248C5.96201 46.2211 5.61134 46.1942 5.28989 46.1674C4.96845 46.1674 4.70545 46.1405 4.47167 46.1405C4.26711 46.1405 4.09178 46.1405 3.97489 46.1405C3.858 46.1405 3.79956 46.1405 3.79956 46.1405V46.1136C3.79956 46.1136 3.858 46.1136 3.97489 46.1136C4.09178 46.1136 4.26711 46.0868 4.47167 46.0868C4.91001 46.0868 5.5529 46.0868 6.37112 46.1405C7.18935 46.1942 8.18291 46.3017 9.29336 46.4629C10.4038 46.6241 11.6896 46.8659 13.063 47.1346C14.4365 47.4033 15.9268 47.7257 17.4756 48.0481C19.0536 48.3705 20.6901 48.6929 22.4142 48.9884C23.2616 49.1228 24.1675 49.2571 25.0442 49.3646C25.9501 49.472 26.856 49.5526 27.7619 49.6064C28.6678 49.6601 29.6029 49.6601 30.538 49.6332C31.0056 49.6064 31.4731 49.5795 31.9407 49.5258C32.4082 49.472 32.8758 49.3914 33.3141 49.3108C33.7817 49.2302 34.22 49.0959 34.6583 48.9616C34.8921 48.881 35.0967 48.8272 35.3012 48.7466C35.5058 48.666 35.7396 48.5854 35.9441 48.478C36.7916 48.1018 37.5514 47.6182 38.2235 47.054C38.5449 46.7584 38.8664 46.4629 39.1586 46.1405C39.4508 45.8181 39.6846 45.4688 39.9184 45.1195C40.3859 44.421 40.7658 43.6687 41.0288 42.8896C41.1457 42.5134 41.2334 42.1104 41.2626 41.7074C41.2918 41.3044 41.2918 40.9283 41.2334 40.5521C41.1749 40.176 41.058 39.7998 40.9119 39.4506C40.7658 39.1013 40.5905 38.752 40.3567 38.4565C39.9184 37.8385 39.3924 37.3012 38.8371 36.8176C38.2819 36.3608 37.6975 35.9578 37.113 35.5817C36.5286 35.2324 35.9441 34.91 35.3889 34.6413C34.8337 34.3726 34.2785 34.1308 33.7525 33.9159C32.7297 33.486 31.7945 33.1367 31.0348 32.8681C30.275 32.5994 29.6613 32.4113 29.2522 32.277C28.8431 32.1427 28.6093 32.0621 28.6093 32.0621L28.6386 31.9814Z" fill="#231F20"/>
<path d="M49.9999 21.8255C49.9999 21.8255 49.9999 21.7717 49.9999 21.6643C49.9999 21.5568 49.9999 21.3956 49.9707 21.2075C49.9415 20.8045 49.883 20.2134 49.7369 19.4612C49.5908 18.7089 49.3571 17.8223 49.0356 16.8013C48.8895 16.2908 48.6849 15.7535 48.4804 15.1893C48.2758 14.625 48.042 14.034 47.779 13.4429C47.516 12.8249 47.253 12.207 46.9316 11.5622C46.6394 10.9174 46.2887 10.2725 45.938 9.60087C45.5874 8.92918 45.2075 8.2575 44.7984 7.55895C44.3893 6.88727 43.9509 6.18872 43.4834 5.49017C43.2496 5.1409 42.9866 4.81849 42.7528 4.46922C42.4898 4.14681 42.2268 3.79754 41.9346 3.502C41.7885 3.34079 41.6423 3.20645 41.467 3.07212C41.2917 2.93778 41.1456 2.80344 40.941 2.72284C40.8533 2.66911 40.7657 2.64224 40.678 2.61538C40.6488 2.61538 40.5903 2.61538 40.5611 2.61538C40.5319 2.61538 40.5027 2.64224 40.4735 2.64224C40.415 2.66911 40.3566 2.74971 40.3273 2.83031C40.2981 2.91092 40.2689 3.01839 40.2397 3.09899C40.2104 3.28706 40.1812 3.502 40.1812 3.71693C40.1812 3.93187 40.1812 4.14681 40.2105 4.33488C40.2397 4.76476 40.2981 5.19463 40.3858 5.59764C40.5319 6.4574 40.7364 7.29028 40.9702 8.12317C41.204 8.95605 41.4378 9.78894 41.6716 10.6218C41.9346 11.4547 42.1683 12.2876 42.4313 13.0936C42.9281 14.7325 43.4249 16.3446 43.9217 17.9297C44.4185 19.488 44.886 21.0195 45.3244 22.4434C45.7627 23.8674 46.1718 25.2376 46.5517 26.5004C46.9024 27.7631 47.1946 28.9184 47.3407 29.9931C47.3992 30.5305 47.4284 31.0141 47.3991 31.4708C47.3699 31.9276 47.253 32.3574 47.1362 32.7067C47.0193 33.0829 46.8439 33.3784 46.727 33.6471C46.5809 33.9157 46.464 34.1307 46.3471 34.3188C46.2303 34.5068 46.1718 34.6412 46.1134 34.7218C46.0549 34.8024 46.0257 34.8561 46.0257 34.8561C46.0257 34.8561 46.0549 34.8024 46.1134 34.7218C46.1718 34.6412 46.2303 34.48 46.3471 34.3188C46.4348 34.1307 46.5517 33.9157 46.6978 33.6471C46.8147 33.3784 46.9608 33.056 47.0777 32.7067C47.1946 32.3574 47.2823 31.9276 47.3115 31.4708C47.3407 31.0141 47.3115 30.5305 47.2238 29.9931C47.1946 29.7244 47.1361 29.4558 47.0777 29.1871C47.0193 28.9184 46.9608 28.6229 46.8731 28.3542C46.727 27.79 46.5517 27.1721 46.3764 26.5541C46.201 25.9362 45.9965 25.2645 45.7627 24.5928C45.5581 23.9211 45.3244 23.2226 45.0906 22.4972C44.623 21.0732 44.1263 19.5686 43.6295 18.0103C43.3665 17.2312 43.1327 16.4252 42.8697 15.6191C42.6067 14.8131 42.3437 14.0071 42.1099 13.1742C41.8469 12.3413 41.6131 11.5353 41.3501 10.7024C41.0871 9.86954 40.8534 9.03665 40.6196 8.1769C40.3858 7.31715 40.2105 6.48426 40.0351 5.62451C39.9475 5.19463 39.889 4.76476 39.8598 4.33488C39.8306 4.11994 39.8306 3.905 39.8306 3.69007C39.8306 3.47513 39.8598 3.26019 39.889 3.01838C39.9182 2.91092 39.9474 2.80345 40.0059 2.66911C40.0351 2.61537 40.0643 2.56164 40.1228 2.50791C40.1812 2.45417 40.2104 2.40044 40.2981 2.37357C40.3566 2.31984 40.4442 2.29297 40.5319 2.29297C40.6196 2.29297 40.678 2.29297 40.7657 2.29297C40.9118 2.31984 41.0287 2.37357 41.1456 2.42731C41.2625 2.48104 41.3501 2.56164 41.4378 2.61538C41.5255 2.69598 41.6131 2.74971 41.7008 2.83031C41.8761 2.99152 42.0222 3.12585 42.1976 3.28706C42.4898 3.60946 42.782 3.95874 43.045 4.28115C43.308 4.63042 43.5418 4.9797 43.7756 5.3021C44.7107 6.6992 45.4997 8.0963 46.201 9.43966C46.5517 10.1113 46.8731 10.783 47.1654 11.4278C47.4576 12.0727 47.7206 12.7175 47.9836 13.3085C48.2174 13.9265 48.4512 14.5176 48.6557 15.0818C48.8603 15.646 49.0356 16.1833 49.1817 16.6938C49.4739 17.7148 49.6785 18.6283 49.7954 19.3806C49.9123 20.1328 49.9707 20.7239 49.9707 21.1269C49.9707 21.3419 49.9707 21.4762 49.9707 21.5837C49.9999 21.7717 49.9999 21.8255 49.9999 21.8255Z" fill="#231F20"/>
</svg>
