<svg width="50" height="50" viewBox="0 0 50 50" fill="none" xmlns="http://www.w3.org/2000/svg">
<g clip-path="url(#clip0)">
<path d="M48.0204 11.0323L25.3185 0.0727264C25.1172 -0.0243439 24.8828 -0.0243439 24.6817 0.0727264L1.97961 11.0323C1.72648 11.1545 1.56564 11.4108 1.56564 11.6919V38.308C1.56564 38.589 1.72648 38.8454 1.97961 38.9675L24.6816 49.9271C24.7821 49.9756 24.8911 50 25 50C25.1089 50 25.2178 49.9756 25.3185 49.9271L48.0204 38.9675C48.2735 38.8454 48.4344 38.589 48.4344 38.308V11.692C48.4344 11.4107 48.2735 11.1546 48.0204 11.0323ZM25 1.54568L46.0173 11.6919L39.9248 14.6331C39.8862 14.6037 39.8455 14.5765 39.8008 14.555L18.9263 4.4778L25 1.54568ZM17.2722 5.30593L38.2589 15.4374L33.9606 17.5125L12.9825 7.38513L17.2722 5.30593ZM38.7499 16.8268V24.4973L34.735 26.4356V18.7651L38.7499 16.8268ZM46.9695 37.8484L25.7324 48.1005V23.1111L30.7982 20.6656C31.1624 20.4897 31.3152 20.0519 31.1393 19.6876C30.9634 19.3234 30.5256 19.1705 30.1612 19.3465L25 21.8382L22.9692 20.8577C22.6048 20.6816 22.167 20.8345 21.9911 21.1988C21.8153 21.5631 21.968 22.0009 22.3322 22.1768L24.2676 23.1111V48.1005L3.03049 37.8482V12.8588L19.2024 20.6659C19.305 20.7155 19.4135 20.7389 19.5202 20.7389C19.7925 20.7389 20.054 20.5864 20.1803 20.3248C20.3562 19.9605 20.2034 19.5226 19.8392 19.3467L3.98273 11.6919L11.2586 8.17937L33.26 18.8008C33.2632 18.8052 33.2668 18.8092 33.2701 18.8136V27.6026C33.2701 27.8547 33.3997 28.0889 33.6132 28.223C33.7318 28.2974 33.867 28.335 34.0027 28.335C34.1112 28.335 34.2201 28.3109 34.321 28.2622L39.8008 25.6168C40.0539 25.4946 40.2148 25.2383 40.2148 24.9572V16.1198L46.9695 12.8589V37.8484Z" fill="black"/>
<path d="M9.07482 35.0077L5.74328 33.3994C5.37883 33.2234 4.94113 33.3763 4.76525 33.7405C4.58937 34.1048 4.74211 34.5427 5.10637 34.7186L8.43791 36.3269C8.54055 36.3765 8.64904 36.3999 8.75578 36.3999C9.02805 36.3999 9.28957 36.2474 9.41584 35.9858C9.59181 35.6214 9.43908 35.1837 9.07482 35.0077Z" fill="black"/>
<path d="M12.1409 33.0119L5.74784 29.9256C5.38349 29.7497 4.94569 29.9024 4.76981 30.2668C4.59403 30.6311 4.74677 31.0689 5.11102 31.2448L11.5041 34.3312C11.6067 34.3807 11.7152 34.4042 11.822 34.4042C12.0942 34.4042 12.3558 34.2517 12.482 33.99C12.6579 33.6256 12.5052 33.1877 12.1409 33.0119Z" fill="black"/>
</g>
<defs>
<clipPath id="clip0">
<rect width="50" height="50" fill="white"/>
</clipPath>
</defs>
</svg>
