<svg width="50" height="50" viewBox="0 0 50 50" fill="none" xmlns="http://www.w3.org/2000/svg">
<path d="M43.75 7.8125H34.375V4.6875C34.375 4.48047 34.293 4.28125 34.1461 4.13516L31.0211 1.01016C30.8719 0.860937 30.6719 0.789062 30.4688 0.789062V0.78125H19.5312V0.788281C19.3281 0.788281 19.1281 0.860156 18.9789 1.01016L15.8539 4.13516C15.707 4.28125 15.625 4.48047 15.625 4.6875V7.8125H6.25C3.23516 7.8125 0.78125 10.2656 0.78125 13.2812V22.6562C0.78125 23.0875 1.13047 23.4375 1.5625 23.4375H8.59375V48.4375C8.59375 48.8695 8.94297 49.2188 9.375 49.2188H40.625C41.057 49.2188 41.4062 48.8695 41.4062 48.4375V23.4375H48.4375C48.8695 23.4375 49.2188 23.0875 49.2188 22.6562V13.2812C49.2188 10.2656 46.7648 7.8125 43.75 7.8125ZM47.6562 13.2812V18.75H41.568C41.9078 15.518 42.8078 12.3453 44.2211 9.42266C46.1508 9.65859 47.6562 11.2891 47.6562 13.2812ZM31.25 3.44844L32.8125 5.01094V11.7188H31.25V3.44844ZM25 14.5203L22.4273 11.9477C22.2812 11.8008 22.0828 11.7188 21.875 11.7188H20.3125V5.46875H29.6875V11.7188H28.125C27.9172 11.7188 27.7188 11.8008 27.5727 11.9477L25 14.5203ZM29.6875 3.90625H20.3125V2.34375H29.6875V3.90625ZM17.1875 5.01094L18.75 3.44844V11.7188H17.1875V5.01094ZM16.4062 13.2812H21.5516L24.2188 15.9484V23.4375H25.7812V15.9484L28.4484 13.2812H33.5938C34.0258 13.2812 34.375 12.9312 34.375 12.5V9.375H42.5211C40.7742 13.2203 39.8438 17.4437 39.8438 21.6672V38.2812H34.5312C30.5719 38.2812 26.6625 36.9516 23.5227 34.5367C20.1125 31.9141 15.8648 30.4688 11.5625 30.4688H10.1562V21.6672C10.1562 17.4437 9.22578 13.2203 7.47891 9.375H15.625V12.5C15.625 12.9312 15.9742 13.2812 16.4062 13.2812ZM10.1562 32.0312H11.5625C15.5219 32.0312 19.4312 33.3609 22.5711 35.7758C25.9813 38.3984 30.2289 39.8438 34.5312 39.8438H39.8438V44.5312H34.5312C30.5719 44.5312 26.6625 43.2016 23.5227 40.7867C20.1125 38.1641 15.8648 36.7188 11.5625 36.7188H10.1562V32.0312ZM5.77891 9.42266C7.19219 12.3453 8.09219 15.518 8.43281 18.75H2.34375V13.2812C2.34375 11.2891 3.84922 9.65859 5.77891 9.42266ZM2.34375 21.875V20.3125H8.55391C8.57578 20.7641 8.59375 21.2156 8.59375 21.6672V21.875H2.34375ZM10.1562 47.6562V38.2812H11.5625C15.5219 38.2812 19.4312 39.6109 22.5711 42.0258C25.9813 44.6484 30.2289 46.0938 34.5312 46.0938H39.8438V47.6562H10.1562ZM41.4062 21.875V21.6672C41.4062 21.2156 41.4242 20.7633 41.4461 20.3125H47.6562V21.875H41.4062Z" fill="black"/>
<path d="M21.0938 17.1875H22.6562V18.75H21.0938V17.1875Z" fill="black"/>
<path d="M21.0938 20.3125H22.6562V21.875H21.0938V20.3125Z" fill="black"/>
<path d="M32.0312 28.125H35.1562C36.8797 28.125 38.2812 26.7234 38.2812 25V19.5312C38.2812 19.1 37.932 18.75 37.5 18.75H29.6875C29.2555 18.75 28.9062 19.1 28.9062 19.5312V25C28.9062 26.7234 30.3078 28.125 32.0312 28.125ZM30.4688 20.3125H36.7188V25C36.7188 25.8617 36.018 26.5625 35.1562 26.5625H32.0312C31.1695 26.5625 30.4688 25.8617 30.4688 25V20.3125Z" fill="black"/>
</svg>
