<svg width="50" height="56" viewBox="0 0 50 56" fill="none" xmlns="http://www.w3.org/2000/svg">
<g clip-path="url(#clip0)">
<path d="M49.9631 24.8724C49.8203 24.0822 49.2937 23.4891 48.589 23.3243L44.7903 22.437L49.2353 18.992C49.8273 18.5332 50.1062 17.7574 49.9632 16.9672C49.8204 16.1769 49.2938 15.5839 48.5892 15.4192L41.0486 13.6579C40.6529 13.5656 40.2648 13.8499 40.1821 14.2935C40.0995 14.737 40.3535 15.1715 40.7496 15.2639L48.2901 17.0253C48.462 17.0655 48.5127 17.2102 48.5277 17.293C48.5428 17.3758 48.5462 17.5312 48.4019 17.6431L41.6181 22.9006L33.1705 17.2433C32.6197 16.8745 31.9325 16.8684 31.3765 17.2277L16.7526 26.6786L1.71004 23.1651C1.53817 23.125 1.48749 22.9803 1.47245 22.8976C1.45751 22.8149 1.454 22.6595 1.59833 22.5476L17.7793 10.0072C17.8481 9.95396 17.9343 9.93449 18.016 9.95352L37.1398 14.4207C37.5357 14.5135 37.9237 14.2287 38.0063 13.7851C38.0889 13.3416 37.8348 12.9072 37.4388 12.8147L18.315 8.34752C17.8421 8.23684 17.343 8.35014 16.9457 8.65813L0.764863 21.1985C0.172893 21.6573 -0.106003 22.4332 0.0369602 23.2234C0.179924 24.0136 0.706467 24.6066 1.41113 24.7712L5.21011 25.6585L0.764961 29.1035C0.17299 29.5623 -0.105906 30.3382 0.0369602 31.1284C0.179826 31.9186 0.706369 32.5116 1.41113 32.6762L5.21011 33.5635L0.764961 37.0085C0.17299 37.4672 -0.105906 38.2431 0.0369602 39.0332C0.179826 39.8234 0.706369 40.4165 1.41113 40.5812L31.6855 47.6525C31.8041 47.6802 31.9244 47.6938 32.0444 47.6938C32.4024 47.6938 32.757 47.5724 33.0547 47.3419L42.3336 40.1507C42.6662 39.8929 42.7493 39.382 42.5192 39.0094C42.289 38.6368 41.8328 38.5437 41.5002 38.8016L32.2213 45.9928C32.1527 46.0459 32.0661 46.0657 31.9845 46.0465L1.71014 38.9753C1.53827 38.9352 1.48749 38.7904 1.47255 38.7077C1.45761 38.625 1.4541 38.4696 1.59843 38.3577L7.18816 34.0256L16.6879 36.2445C16.7384 36.2564 16.7886 36.262 16.8382 36.262C17.1777 36.262 17.4823 35.9961 17.5544 35.6091C17.637 35.1656 17.3829 34.7311 16.9869 34.6385L1.71014 31.0703C1.53827 31.0302 1.48749 30.8855 1.47255 30.8028C1.45761 30.7201 1.4541 30.5646 1.59843 30.4527L7.18816 26.1206L16.727 28.3485C16.8086 28.3674 16.8904 28.3708 16.9726 28.3587L26.8396 26.8968C26.8516 27.3395 27.1752 27.6921 27.5709 27.6921C27.5742 27.6921 27.5775 27.6921 27.5809 27.6921C27.9853 27.6859 28.3089 27.3139 28.3034 26.8608L28.3023 26.7729C28.3019 26.7417 28.2997 26.7112 28.2963 26.6809L39.2293 25.0611C39.2241 25.1024 39.2207 25.1443 39.2211 25.1873L39.2221 25.2752C39.2273 25.7246 39.5541 26.085 39.9543 26.085C39.9574 26.085 39.9607 26.085 39.9639 26.085C40.3684 26.0792 40.6921 25.7072 40.6869 25.2543L40.6859 25.1664C40.6847 25.0555 40.6636 24.9501 40.6269 24.8542L41.7429 24.6889C41.8582 24.6718 41.9681 24.6243 42.0636 24.5502L43.1285 23.7249L48.2898 24.9303C48.4616 24.9705 48.5124 25.1153 48.5274 25.198C48.5424 25.2807 48.5459 25.4361 48.4016 25.548L32.2212 38.0878C32.1526 38.141 32.0664 38.1605 31.9845 38.1416L20.5757 35.4768C20.18 35.3842 19.7919 35.6688 19.7092 36.1123C19.6267 36.5558 19.8807 36.9903 20.2766 37.0828L31.6855 39.7476C31.8041 39.7753 31.9244 39.7889 32.0444 39.7889C32.4025 39.7889 32.7571 39.6675 33.0547 39.4369L43.1283 31.6297L48.2899 32.8353C48.4617 32.8755 48.5125 33.0202 48.5274 33.1029C48.5424 33.1856 48.5459 33.3411 48.4016 33.453L44.4433 36.5206C44.1107 36.7784 44.0276 37.2894 44.2578 37.6619C44.4 37.892 44.6284 38.0155 44.8607 38.0155C45.0044 38.0155 45.1496 37.9682 45.2768 37.8697L49.235 34.8021C49.827 34.3432 50.1059 33.5674 49.963 32.7773C49.8202 31.9871 49.2936 31.3939 48.5889 31.2293L44.7899 30.342L49.235 26.8971C49.827 26.4383 50.106 25.6625 49.9631 24.8724ZM32.1085 18.6485C32.2045 18.5864 32.3235 18.5875 32.4187 18.6512L39.4666 23.3713L20.4389 26.1903L32.1085 18.6485Z" fill="black"/>
<path d="M29.211 31.7441C29.2076 31.7441 29.2043 31.7441 29.201 31.7441C28.7965 31.7503 28.473 32.1224 28.4784 32.5754L28.4795 32.6633C28.4849 33.1126 28.8117 33.4727 29.2117 33.4727C29.2151 33.4727 29.2184 33.4727 29.2217 33.4727C29.6262 33.4666 29.9497 33.0945 29.9443 32.6415L29.9432 32.5535C29.9377 32.1042 29.6109 31.7441 29.211 31.7441Z" fill="black"/>
<path d="M29.2048 36.2459C29.208 36.2459 29.2112 36.2459 29.2144 36.2459C29.6189 36.2401 29.9426 35.8681 29.9374 35.4152L29.9365 35.3273C29.9313 34.8742 29.6006 34.5074 29.1948 34.5175C28.7903 34.5233 28.4665 34.8952 28.4717 35.3482L28.4727 35.4361C28.4778 35.8855 28.8046 36.2459 29.2048 36.2459Z" fill="black"/>
<path d="M30.4185 34.8197L30.4965 34.8186C30.901 34.8128 31.2247 34.4408 31.2195 33.9878C31.2143 33.5348 30.8817 33.1709 30.4777 33.1781L30.3996 33.1792C29.9952 33.185 29.6714 33.557 29.6767 34.01C29.6819 34.4594 30.0087 34.8198 30.4089 34.8198C30.4121 34.8197 30.4154 34.8197 30.4185 34.8197Z" fill="black"/>
<path d="M27.9966 33.1705L27.9186 33.1717C27.5141 33.1778 27.1907 33.5499 27.1962 34.003C27.2016 34.4522 27.5284 34.8123 27.9284 34.8123C27.9317 34.8123 27.9351 34.8123 27.9384 34.8123L28.0165 34.8111C28.421 34.805 28.7444 34.4329 28.7389 33.9797C28.7335 33.5267 28.4011 33.1651 27.9966 33.1705Z" fill="black"/>
<path d="M34.7194 28.0504C34.3149 28.0562 33.9912 28.4281 33.9963 28.8811L33.9973 28.969C34.0025 29.4184 34.3293 29.7788 34.7295 29.7788C34.7327 29.7788 34.7359 29.7788 34.7391 29.7788C35.1436 29.773 35.4673 29.401 35.4622 28.9481L35.4612 28.8602C35.4559 28.4073 35.1244 28.0401 34.7194 28.0504Z" fill="black"/>
<path d="M34.7125 30.8236C34.308 30.8294 33.9843 31.2014 33.9895 31.6543L33.9905 31.7422C33.9956 32.1916 34.3225 32.552 34.7227 32.552C34.7258 32.552 34.729 32.552 34.7323 32.552C35.1368 32.5462 35.4605 32.1742 35.4553 31.7213L35.4543 31.6334C35.4491 31.1805 35.1183 30.8187 34.7125 30.8236Z" fill="black"/>
<path d="M35.9369 31.1258L36.0149 31.1246C36.4194 31.1185 36.743 30.7464 36.7375 30.2934C36.732 29.8403 36.397 29.4784 35.9953 29.4841L35.9173 29.4853C35.5128 29.4914 35.1893 29.8635 35.1947 30.3166C35.2001 30.7659 35.527 31.1258 35.927 31.1258C35.9303 31.1259 35.9336 31.1259 35.9369 31.1258Z" fill="black"/>
<path d="M33.437 29.4778C33.0326 29.4836 32.7088 29.8555 32.7141 30.3086C32.7193 30.758 33.0461 31.1184 33.4463 31.1184C33.4495 31.1184 33.4527 31.1184 33.4559 31.1184L33.5339 31.1173C33.9384 31.1115 34.2621 30.7395 34.2569 30.2865C34.2517 29.8335 33.9219 29.4693 33.5151 29.4768L33.437 29.4778Z" fill="black"/>
<path d="M39.2144 27.9605L39.2154 28.0484C39.2206 28.4979 39.5474 28.8582 39.9476 28.8582C39.9508 28.8582 39.954 28.8582 39.9572 28.8582C40.3617 28.8524 40.6854 28.4805 40.6803 28.0275L40.6793 27.9396C40.6741 27.4866 40.3429 27.1231 39.9376 27.1298C39.533 27.1355 39.2093 27.5075 39.2144 27.9605Z" fill="black"/>
<path d="M41.1518 27.432C41.155 27.432 41.1581 27.432 41.1614 27.432L41.2394 27.431C41.6439 27.4252 41.9676 27.0532 41.9623 26.6001C41.9572 26.1471 41.6214 25.7812 41.2206 25.7904L41.1425 25.7915C40.738 25.7973 40.4143 26.1693 40.4196 26.6223C40.4247 27.0717 40.7516 27.432 41.1518 27.432Z" fill="black"/>
<path d="M38.74 25.7828L38.662 25.7839C38.2575 25.7897 37.9338 26.1616 37.939 26.6147C37.9442 27.0641 38.2711 27.4245 38.6713 27.4245C38.6745 27.4245 38.6776 27.4245 38.6808 27.4245L38.7588 27.4234C39.1633 27.4176 39.4871 27.0456 39.4818 26.5926C39.4766 26.1394 39.1412 25.7744 38.74 25.7828Z" fill="black"/>
<path d="M22.0522 29.6575C22.0489 29.6575 22.0456 29.6575 22.0423 29.6575C21.6378 29.6636 21.3142 30.0357 21.3197 30.4887L21.3208 30.5766C21.3262 31.026 21.653 31.386 22.053 31.386C22.0563 31.386 22.0596 31.386 22.063 31.386C22.4675 31.3799 22.791 31.0078 22.7855 30.5548L22.7845 30.4668C22.7791 30.0175 22.4522 29.6575 22.0522 29.6575Z" fill="black"/>
<path d="M22.036 32.4307C21.6315 32.4365 21.3078 32.8083 21.313 33.2614L21.3139 33.3493C21.3191 33.7987 21.646 34.1591 22.0462 34.1591C22.0493 34.1591 22.0525 34.1591 22.0557 34.1591C22.4602 34.1533 22.784 33.7814 22.7788 33.3284L22.7778 33.2405C22.7725 32.7875 22.4389 32.427 22.036 32.4307Z" fill="black"/>
<path d="M23.2604 32.7329L23.3384 32.7317C23.7429 32.7256 24.0664 32.3535 24.061 31.9005C24.0555 31.4474 23.721 31.0821 23.3188 31.0912L23.2408 31.0924C22.8363 31.0985 22.5127 31.4706 22.5182 31.9237C22.5236 32.373 22.8504 32.7329 23.2504 32.7329C23.2536 32.7329 23.2571 32.7329 23.2604 32.7329Z" fill="black"/>
<path d="M20.7604 31.0849C20.356 31.0907 20.0322 31.4626 20.0375 31.9157C20.0427 32.3651 20.3695 32.7255 20.7697 32.7255C20.7729 32.7255 20.7761 32.7255 20.7793 32.7255L20.8573 32.7244C21.2618 32.7186 21.5855 32.3466 21.5803 31.8936C21.5751 31.4404 21.2436 31.0808 20.8385 31.0839L20.7604 31.0849Z" fill="black"/>
<path d="M26.8309 29.5676L26.8319 29.6555C26.837 30.105 27.1639 30.4653 27.5641 30.4653C27.5672 30.4653 27.5704 30.4653 27.5737 30.4653C27.9782 30.4596 28.3019 30.0876 28.2967 29.6346L28.2957 29.5467C28.2906 29.0937 27.9569 28.7314 27.554 28.7369C27.1495 28.7426 26.8258 29.1146 26.8309 29.5676Z" fill="black"/>
<path d="M28.8371 27.3974L28.759 27.3985C28.3545 27.4043 28.0308 27.7763 28.0361 28.2293C28.0413 28.6788 28.3681 29.0391 28.7683 29.0391C28.7715 29.0391 28.7747 29.0391 28.7779 29.0391L28.8559 29.0381C29.2604 29.0323 29.5841 28.6603 29.5789 28.2072C29.5737 27.7541 29.2383 27.3926 28.8371 27.3974Z" fill="black"/>
<path d="M26.356 27.3898L26.278 27.391C25.8735 27.3971 25.55 27.7692 25.5555 28.2223C25.561 28.6715 25.8877 29.0316 26.2877 29.0316C26.2911 29.0316 26.2945 29.0316 26.2978 29.0316L26.3758 29.0304C26.7803 29.0243 27.1037 28.6522 27.0983 28.199C27.0927 27.746 26.7594 27.3842 26.356 27.3898Z" fill="black"/>
<path d="M15.4802 29.9553C15.4835 29.9553 15.4869 29.9553 15.4902 29.9553C15.8947 29.9492 16.2182 29.5771 16.2127 29.1241L16.2117 29.0361C16.2062 28.5831 15.8781 28.2216 15.4695 28.2269C15.065 28.233 14.7414 28.6051 14.7469 29.0581L14.748 29.1461C14.7535 29.5953 15.0802 29.9553 15.4802 29.9553Z" fill="black"/>
<path d="M15.4735 32.7286C15.4766 32.7286 15.4798 32.7286 15.483 32.7286C15.8875 32.7228 16.2113 32.3508 16.2061 31.8978L16.2051 31.8099C16.1999 31.3605 15.8731 31.0001 15.4729 31.0001C15.4698 31.0001 15.4665 31.0001 15.4633 31.0001C15.0588 31.0059 14.7351 31.3779 14.7403 31.8308L14.7412 31.9187C14.7464 32.3682 15.0733 32.7286 15.4735 32.7286Z" fill="black"/>
<path d="M16.6872 31.3024L16.7652 31.3013C17.1697 31.2955 17.4934 30.9235 17.4882 30.4704C17.483 30.0174 17.15 29.6513 16.7464 29.6607L16.6683 29.6618C16.2638 29.6676 15.9401 30.0396 15.9454 30.4926C15.9506 30.9421 16.2774 31.3025 16.6776 31.3025C16.6808 31.3024 16.684 31.3024 16.6872 31.3024Z" fill="black"/>
<path d="M14.1873 29.6543C13.7828 29.6604 13.4592 30.0325 13.4647 30.4855C13.4701 30.9349 13.7969 31.2948 14.1969 31.2948C14.2003 31.2948 14.2037 31.2948 14.207 31.2948L14.285 31.2936C14.6895 31.2875 15.0131 30.9154 15.0076 30.4624C15.0021 30.0093 14.6684 29.6486 14.2654 29.6531L14.1873 29.6543Z" fill="black"/>
<path d="M8.61453 28.853C8.61785 28.853 8.62117 28.853 8.6245 28.853C9.02899 28.8469 9.35252 28.4748 9.34705 28.0217L9.34598 27.9338C9.34051 27.4808 9.01121 27.1156 8.60379 27.1245C8.1993 27.1307 7.87576 27.5028 7.88123 27.9558L7.88231 28.0437C7.88778 28.4929 8.21453 28.853 8.61453 28.853Z" fill="black"/>
<path d="M8.60782 31.6262C8.61114 31.6262 8.61446 31.6262 8.61778 31.6262C9.02227 31.6201 9.34581 31.248 9.34034 30.795L9.33927 30.707C9.3338 30.254 9.00538 29.8909 8.59708 29.8978C8.19259 29.9039 7.86905 30.276 7.87452 30.729L7.87559 30.8169C7.88096 31.2661 8.20782 31.6262 8.60782 31.6262Z" fill="black"/>
<path d="M9.82194 30.1999L9.89996 30.1987C10.3045 30.1926 10.628 29.8205 10.6225 29.3674C10.6171 28.9144 10.2852 28.549 9.88034 28.5582L9.80231 28.5594C9.39782 28.5655 9.07428 28.9376 9.07975 29.3906C9.08512 29.8399 9.41198 30.1999 9.81198 30.1999C9.8153 30.2 9.81871 30.2 9.82194 30.1999Z" fill="black"/>
<path d="M7.32212 28.5518C6.91763 28.5576 6.5939 28.9296 6.59917 29.3826C6.60435 29.8321 6.9312 30.1925 7.3314 30.1925C7.33462 30.1925 7.33774 30.1925 7.34097 30.1925L7.41899 30.1914C7.82349 30.1856 8.14722 29.8136 8.14194 29.3605C8.13677 28.9075 7.80102 28.5456 7.40015 28.5508L7.32212 28.5518Z" fill="black"/>
</g>
<defs>
<clipPath id="clip0">
<rect width="50" height="56" fill="white"/>
</clipPath>
</defs>
</svg>
