<svg width="906" height="358" viewBox="0 0 906 358" fill="none" xmlns="http://www.w3.org/2000/svg">
<path d="M114 229.5C113.667 235.167 110.3 247.8 99.5 253" stroke="#EF1C3C" stroke-width="2"/>
<path d="M86 265.5L61 281" stroke="#EF1C3C" stroke-width="2"/>
<path d="M36.5 299C26 302.667 4.2 312.7 1 323.5" stroke="#EF1C3C" stroke-width="2"/>
<path d="M176 223.717C196.333 239.027 252.3 265.053 313.5 246.681C390 223.717 392 169.259 451 169.259C510 169.259 647.5 278.175 736 223.717C806.8 180.151 889.333 37.0865 906.5 1" stroke="#EF1C3C" stroke-width="2"/>
<path d="M818.102 197.523C812.763 194.137 806.666 194.332 803.357 195.008C800.048 195.685 795.528 197.758 793.766 200.363C792.005 202.968 790.643 206.638 788.675 211.209C786.707 215.781 778.839 221.822 772.907 224.963C767.003 228.189 755.982 230.608 755.982 230.608L643.661 250.743C643.316 250.795 643.056 251.104 643.055 251.509C643.054 251.915 643.34 252.232 643.714 252.401C649.458 254.825 664.829 259.901 688.445 257.484C716.404 254.64 753.458 249.036 759.499 248.13C760.017 248.052 760.507 247.754 760.738 247.359C763.597 243.014 780.517 218.42 800.612 220.402C822.691 222.626 824.358 212.518 824.884 209.604C825.409 206.689 823.499 200.944 818.102 197.523ZM819.84 203.158C826.455 213.239 814.741 216.842 812.669 217.423C810.597 218.004 799.463 219.809 795.026 212.597C790.646 205.422 796.353 200.785 801.65 198.865C805.104 197.537 815.574 196.596 819.84 203.158Z" fill="#231F20"/>
<path d="M845.628 266.069C842.079 259.446 835.448 256.11 829.004 252.791C822.56 249.471 806.921 242.276 801.924 239.543C796.899 236.744 791.86 236.152 784.873 238.28C777.939 240.392 776.122 241.459 772.973 240.951C769.824 240.443 768.738 240.701 764.839 233.818C760.939 226.935 748.797 218.822 748.797 218.822L674.275 179.819C672.664 178.989 670.927 178.565 669.306 178.692L648.626 179.855C648.334 179.871 648.124 180.081 648.104 180.454C648.137 180.811 648.276 181.136 648.599 181.331L706.618 215.455L759.4 245.306C759.4 245.306 764.125 249.222 772.171 249.853C780.299 250.532 781.278 253.242 786.026 258.472C790.746 263.637 802.794 275.448 816.587 280.564C830.38 285.68 837.58 286.569 842.578 283.286C847.628 279.986 849.176 272.691 845.628 266.069ZM843.466 271.789C843.635 279.882 838.5 279.905 832.75 279.749C826.973 279.528 815.714 277.822 803.415 268.362C791.088 258.838 786.705 253.203 789.922 245.473C793.138 237.743 806.355 246.41 816.717 251.618C824.147 255.004 843.229 261.297 843.466 271.789Z" fill="#231F20"/>
<path d="M744.56 218.166C744.64 218.214 743.625 222.04 742.284 226.755C740.944 231.47 739.85 235.248 739.77 235.2C739.691 235.152 740.705 231.326 742.046 226.612C743.335 221.913 744.481 218.119 744.56 218.166Z" fill="white"/>
<path d="M758.919 225.916C758.919 225.916 759.027 226.168 759.216 226.609C759.27 226.736 759.323 226.862 759.377 226.988C759.431 227.114 759.512 227.303 759.514 227.445C759.597 227.775 759.655 228.185 759.583 228.563C759.56 228.783 759.51 228.941 759.408 229.114C759.358 229.272 759.283 229.508 759.26 229.728C759.136 230.122 758.986 230.594 758.888 231.051C758.589 231.996 758.29 232.941 757.941 234.043C757.267 236.169 756.669 238.058 756.193 239.412C755.969 240.121 755.794 240.672 755.642 241.003C755.518 241.396 755.416 241.569 755.416 241.569C755.416 241.569 755.439 241.349 755.563 240.955C755.688 240.562 755.863 240.011 756.035 239.318C756.432 237.916 757.083 236.011 757.704 233.901C758.028 232.877 758.352 231.854 758.652 230.909C758.801 230.437 758.926 230.043 759.103 229.634C759.177 229.397 759.227 229.24 759.329 229.067C759.379 228.909 759.454 228.673 759.504 228.516C759.576 228.138 759.545 227.791 759.489 227.523C759.487 227.382 759.406 227.192 759.353 227.066C759.299 226.94 759.245 226.814 759.191 226.688C758.975 226.184 758.867 225.932 758.919 225.916Z" fill="white"/>
<path d="M751.927 231.572C753.057 231.228 753.498 229.836 752.911 228.463C752.323 227.09 750.931 226.257 749.801 226.602C748.671 226.946 748.231 228.338 748.818 229.711C749.405 231.084 750.797 231.917 751.927 231.572Z" fill="white"/>
<path d="M727.1 114.918C736.893 114.918 744.832 106.825 744.832 96.8428C744.832 86.8601 736.893 78.7676 727.1 78.7676C717.306 78.7676 709.367 86.8601 709.367 96.8428C709.367 106.825 717.306 114.918 727.1 114.918Z" fill="white"/>
<path d="M726.5 72.1714C713.051 72.1714 702.171 83.0508 702.171 96.5C702.171 109.949 713.051 120.829 726.5 120.829C739.949 120.829 750.829 109.949 750.829 96.5C750.914 83.0508 739.949 72.1714 726.5 72.1714ZM726.5 110.121C718.961 110.121 712.879 104.039 712.879 96.5C712.879 88.9616 718.961 82.7938 726.5 82.7938C734.038 82.7938 740.121 88.8759 740.121 96.4144C740.121 103.953 734.038 110.121 726.5 110.121Z" fill="#231F20"/>
<path d="M726.5 121C712.965 121 702 110.035 702 96.5C702 82.965 712.965 72 726.5 72C740.035 72 751 82.965 751 96.5C751 110.035 740.035 121 726.5 121ZM726.5 72.257C713.136 72.257 702.343 83.1364 702.343 96.4143C702.343 109.778 713.222 120.572 726.5 120.572C739.864 120.572 750.657 109.692 750.657 96.4143C750.743 83.1364 739.864 72.257 726.5 72.257Z" fill="#231F20"/>
<path d="M731.297 99.4123C731.897 100.012 731.897 100.869 731.383 101.468C730.869 101.982 729.927 101.982 729.327 101.383L721.703 93.7585C721.103 93.1588 721.103 92.3022 721.617 91.7025C722.131 91.1886 723.073 91.1886 723.673 91.7882L731.297 99.4123Z" fill="white"/>
<path d="M730.355 101.982C729.927 101.982 729.498 101.811 729.156 101.468L721.531 93.8441C721.189 93.5014 721.017 93.1588 721.017 92.7304C721.017 92.3021 721.189 91.8738 721.446 91.6168C721.703 91.3598 722.131 91.1885 722.559 91.1885C722.988 91.1885 723.416 91.3598 723.759 91.7025L731.383 99.3266C731.982 99.9262 732.068 100.954 731.468 101.554C731.211 101.811 730.783 101.982 730.355 101.982ZM722.645 91.4455C722.302 91.4455 721.96 91.5311 721.788 91.7881C721.531 92.0451 721.446 92.3878 721.446 92.7304C721.446 93.0731 721.617 93.4158 721.874 93.6728L729.498 101.297C729.755 101.554 730.098 101.725 730.441 101.725C730.783 101.725 731.126 101.64 731.297 101.383C731.811 100.869 731.725 100.098 731.211 99.5836L723.587 91.9595C723.33 91.6168 722.988 91.4455 722.645 91.4455Z" fill="#231F20"/>
<path d="M722.559 94.7007C723.695 94.7007 724.615 93.7803 724.615 92.6448C724.615 91.5093 723.695 90.5889 722.559 90.5889C721.424 90.5889 720.503 91.5093 720.503 92.6448C720.503 93.7803 721.424 94.7007 722.559 94.7007Z" fill="#231F20"/>
<path d="M732.325 100.441C732.325 101.554 731.383 102.497 730.269 102.497C729.156 102.497 728.213 101.554 728.213 100.441C728.213 99.3271 729.156 98.3848 730.269 98.3848C731.469 98.3848 732.325 99.3271 732.325 100.441Z" fill="#231F20"/>
<path d="M731.297 99.4123C731.897 100.012 731.897 100.869 731.383 101.468C730.869 101.982 729.927 101.982 729.327 101.383L721.703 93.7585C721.103 93.1588 721.103 92.3022 721.617 91.7025C722.131 91.1886 723.073 91.1886 723.673 91.7882L731.297 99.4123Z" fill="white"/>
<path d="M730.355 101.982C729.927 101.982 729.498 101.811 729.156 101.468L721.531 93.8441C721.189 93.5014 721.017 93.1588 721.017 92.7304C721.017 92.3021 721.189 91.8738 721.446 91.6168C721.703 91.3598 722.131 91.1885 722.559 91.1885C722.988 91.1885 723.416 91.3598 723.759 91.7025L731.383 99.3266C731.982 99.9262 732.068 100.954 731.468 101.554C731.211 101.811 730.783 101.982 730.355 101.982ZM722.645 91.4455C722.302 91.4455 721.96 91.5311 721.788 91.7881C721.531 92.0451 721.446 92.3878 721.446 92.7304C721.446 93.0731 721.617 93.4158 721.874 93.6728L729.498 101.297C729.755 101.554 730.098 101.725 730.441 101.725C730.783 101.725 731.126 101.64 731.297 101.383C731.811 100.869 731.725 100.098 731.211 99.5836L723.587 91.9595C723.33 91.6168 722.988 91.4455 722.645 91.4455Z" fill="#231F20"/>
<path d="M729.498 91.6173C730.098 91.0177 730.955 91.0177 731.554 91.5317C732.068 92.0456 732.068 92.9879 731.469 93.5876L723.844 101.212C723.245 101.811 722.388 101.811 721.788 101.297C721.274 100.783 721.275 99.8411 721.874 99.2414L729.498 91.6173Z" fill="white"/>
<path d="M722.816 101.811C722.388 101.811 722.046 101.64 721.703 101.383C721.446 101.126 721.275 100.698 721.275 100.269C721.275 99.841 721.446 99.4127 721.789 99.1557L729.413 91.5316C729.755 91.1889 730.184 91.0176 730.612 91.0176C731.04 91.0176 731.383 91.1889 731.726 91.4459C732.325 92.0455 732.325 93.0735 731.64 93.6732L724.016 101.297C723.673 101.64 723.245 101.811 722.816 101.811ZM730.526 91.2746C730.184 91.2746 729.841 91.4459 729.584 91.7029L721.96 99.327C721.703 99.584 721.532 99.9267 721.532 100.269C721.532 100.612 721.617 100.955 721.874 101.212C722.131 101.469 722.388 101.554 722.731 101.554C723.073 101.554 723.416 101.383 723.673 101.126L731.297 93.5018C731.811 92.9879 731.811 92.1312 731.383 91.7029C731.212 91.4459 730.869 91.2746 730.526 91.2746Z" fill="#231F20"/>
<path d="M722.731 102.411C723.866 102.411 724.787 101.49 724.787 100.355C724.787 99.2193 723.866 98.2988 722.731 98.2988C721.595 98.2988 720.675 99.2193 720.675 100.355C720.675 101.49 721.595 102.411 722.731 102.411Z" fill="#231F20"/>
<path d="M730.526 90.5889C731.64 90.5889 732.582 91.5312 732.582 92.6448C732.582 93.7584 731.64 94.7007 730.526 94.7007C729.413 94.7007 728.47 93.7584 728.47 92.6448C728.47 91.4455 729.413 90.5889 730.526 90.5889Z" fill="#231F20"/>
<path d="M729.498 91.6173C730.098 91.0177 730.955 91.0177 731.554 91.5317C732.068 92.0456 732.068 92.9879 731.469 93.5876L723.844 101.212C723.245 101.811 722.388 101.811 721.788 101.297C721.274 100.783 721.275 99.8411 721.874 99.2414L729.498 91.6173Z" fill="white"/>
<path d="M722.816 101.811C722.388 101.811 722.046 101.64 721.703 101.383C721.446 101.126 721.275 100.698 721.275 100.269C721.275 99.841 721.446 99.4127 721.789 99.1557L729.413 91.5316C729.755 91.1889 730.184 91.0176 730.612 91.0176C731.04 91.0176 731.383 91.1889 731.726 91.4459C732.325 92.0455 732.325 93.0735 731.64 93.6732L724.016 101.297C723.673 101.64 723.245 101.811 722.816 101.811ZM730.526 91.2746C730.184 91.2746 729.841 91.4459 729.584 91.7029L721.96 99.327C721.703 99.584 721.532 99.9267 721.532 100.269C721.532 100.612 721.617 100.955 721.874 101.212C722.131 101.469 722.388 101.554 722.731 101.554C723.073 101.554 723.416 101.383 723.673 101.126L731.297 93.5018C731.811 92.9879 731.811 92.1312 731.383 91.7029C731.212 91.4459 730.869 91.2746 730.526 91.2746Z" fill="#231F20"/>
<path d="M709.453 96.5C709.538 96.5 709.624 97.271 709.881 98.5559C710.138 99.8409 710.566 101.811 711.68 103.867C712.194 104.895 712.965 106.009 713.822 107.037C714.764 108.065 715.792 109.093 717.077 109.949C717.677 110.378 718.362 110.806 719.133 111.149C719.818 111.491 720.589 111.834 721.446 112.091C722.217 112.348 723.073 112.519 723.93 112.691C724.787 112.862 725.643 112.862 726.586 112.862C727.442 112.862 728.385 112.776 729.241 112.691C730.098 112.519 730.955 112.348 731.726 112.091C732.497 111.834 733.267 111.491 734.038 111.149C734.809 110.806 735.409 110.378 736.094 109.949C737.379 109.093 738.493 108.065 739.35 107.037C740.292 106.009 740.977 104.895 741.491 103.867C742.605 101.811 743.033 99.8409 743.29 98.5559C743.547 97.271 743.547 96.5 743.719 96.5C743.804 96.5 743.89 97.271 743.804 98.6416C743.719 100.012 743.376 102.068 742.348 104.295C741.834 105.409 741.149 106.608 740.206 107.808C739.264 108.921 738.15 110.035 736.78 111.063C736.094 111.577 735.409 112.005 734.638 112.434C733.867 112.862 733.011 113.205 732.154 113.462C731.297 113.719 730.355 113.976 729.498 114.147C728.556 114.318 727.614 114.404 726.671 114.404C725.729 114.404 724.787 114.318 723.844 114.147C722.902 113.976 722.045 113.804 721.189 113.462C720.332 113.205 719.476 112.862 718.705 112.434C717.934 112.005 717.163 111.577 716.563 111.063C715.192 110.121 714.079 109.007 713.136 107.808C712.194 106.694 711.509 105.495 710.995 104.295C709.967 101.983 709.624 100.012 709.538 98.6416C709.196 97.271 709.367 96.5 709.453 96.5Z" fill="white"/>
<path d="M748.002 96.4998C747.916 96.4998 747.83 95.5575 747.573 93.9299C747.316 92.3023 746.717 89.9037 745.346 87.2481C744.661 85.9631 743.718 84.5068 742.605 83.2219C741.491 81.9369 740.121 80.5663 738.493 79.5383C737.722 79.0243 736.865 78.4246 735.923 77.9963C734.981 77.568 734.038 77.1397 733.01 76.797C731.982 76.4544 730.954 76.1974 729.841 76.0261C728.727 75.8547 727.614 75.769 726.5 75.769C725.386 75.769 724.273 75.8547 723.159 76.0261C722.045 76.1974 721.017 76.4544 719.989 76.797C718.961 77.1397 718.019 77.568 717.077 77.9963C716.135 78.4246 715.278 78.9386 714.507 79.5383C712.879 80.6519 711.509 81.9369 710.395 83.2219C709.281 84.5925 708.339 85.9631 707.654 87.2481C706.283 89.9037 705.683 92.3023 705.426 93.9299C705.169 95.5575 705.084 96.5855 704.998 96.4998C704.913 96.4998 704.912 96.2428 704.912 95.8145C704.912 95.5575 704.912 95.3005 704.912 94.9579C704.912 94.6152 704.913 94.2725 704.998 93.8442C705.169 92.1309 705.598 89.6467 706.883 86.7341C707.568 85.3635 708.425 83.8215 709.624 82.4509C710.823 80.9946 712.194 79.6239 713.907 78.4246C714.764 77.825 715.621 77.2253 716.648 76.797C717.591 76.283 718.619 75.8547 719.732 75.5121C720.846 75.1694 721.96 74.8267 723.073 74.6554C724.187 74.4841 725.386 74.3984 726.586 74.3984C727.785 74.3984 728.984 74.4841 730.098 74.6554C731.211 74.8267 732.411 75.1694 733.439 75.5121C734.552 75.8547 735.58 76.283 736.523 76.797C737.465 77.311 738.407 77.825 739.264 78.4246C740.977 79.6239 742.348 80.9946 743.547 82.4509C744.661 83.9072 745.603 85.3635 746.288 86.7341C747.659 89.561 748.087 92.1309 748.173 93.8442C748.259 94.2725 748.259 94.7009 748.259 94.9579C748.259 95.3005 748.259 95.5575 748.259 95.8145C748.087 96.2428 748.087 96.4998 748.002 96.4998Z" fill="white"/>
<path d="M737.037 86.7343C737.037 86.7343 736.78 86.5629 736.351 86.1346C736.266 86.0489 736.094 85.9633 736.009 85.792C735.837 85.7063 735.752 85.535 735.58 85.4493C735.238 85.1923 734.895 84.9353 734.381 84.6783C734.124 84.507 733.953 84.4213 733.696 84.25C733.439 84.0787 733.182 83.993 732.925 83.8217C732.411 83.479 731.725 83.3077 731.126 83.0507C729.841 82.6224 728.299 82.3654 726.671 82.3654C725.044 82.3654 723.587 82.6224 722.217 83.0507C721.531 83.3077 720.932 83.479 720.418 83.8217C720.161 83.993 719.904 84.0787 719.647 84.25C719.39 84.4213 719.133 84.507 718.961 84.6783C718.533 84.9353 718.105 85.278 717.762 85.4493C717.591 85.535 717.42 85.7063 717.334 85.792C717.163 85.8776 717.077 86.0489 716.991 86.1346C716.563 86.5629 716.306 86.7343 716.306 86.7343C716.306 86.7343 716.477 86.4773 716.906 86.0489C716.991 85.9633 717.163 85.7919 717.248 85.7063C717.42 85.6206 717.505 85.4493 717.677 85.3636C718.019 85.1066 718.362 84.764 718.79 84.507C719.047 84.3357 719.218 84.1643 719.475 84.0787C719.732 83.9073 719.989 83.8217 720.246 83.6503C720.76 83.3077 721.446 83.1364 722.131 82.8794C723.502 82.4511 725.044 82.1941 726.671 82.1084C728.299 82.1084 729.841 82.4511 731.211 82.8794C731.897 83.1364 732.496 83.3934 733.096 83.6503C733.353 83.8217 733.61 83.9073 733.867 84.0787C734.124 84.25 734.381 84.4213 734.552 84.507C734.981 84.764 735.409 85.1066 735.666 85.3636C735.837 85.535 736.009 85.6206 736.094 85.7063C736.18 85.8776 736.351 85.9633 736.437 86.0489C736.78 86.4773 737.037 86.7343 737.037 86.7343Z" fill="white"/>
<path d="M716.135 106.437C716.135 106.437 716.392 106.608 716.82 107.037C716.906 107.122 717.077 107.208 717.163 107.379C717.334 107.465 717.42 107.636 717.591 107.722C717.934 107.979 718.276 108.236 718.79 108.493C719.047 108.664 719.218 108.75 719.475 108.921C719.732 109.093 719.989 109.178 720.246 109.35C720.76 109.692 721.446 109.864 722.045 110.121C723.33 110.549 724.872 110.806 726.5 110.806C728.128 110.806 729.584 110.549 730.954 110.121C731.64 109.864 732.239 109.692 732.753 109.35C733.01 109.178 733.267 109.093 733.524 108.921C733.781 108.75 734.038 108.664 734.21 108.493C734.638 108.236 735.066 107.893 735.409 107.722C735.58 107.636 735.752 107.465 735.837 107.379C736.009 107.294 736.094 107.122 736.18 107.037C736.608 106.608 736.865 106.437 736.865 106.437C736.865 106.437 736.694 106.694 736.266 107.122C736.18 107.208 736.009 107.379 735.923 107.465C735.752 107.551 735.666 107.722 735.495 107.808C735.152 108.065 734.809 108.407 734.381 108.664C734.124 108.836 733.953 109.007 733.696 109.093C733.439 109.264 733.182 109.35 732.925 109.521C732.411 109.864 731.725 110.035 731.04 110.292C729.67 110.72 728.128 110.977 726.5 111.063C724.872 111.063 723.33 110.72 721.96 110.292C721.274 110.035 720.675 109.778 720.075 109.521C719.818 109.35 719.561 109.264 719.304 109.093C719.047 108.921 718.79 108.75 718.619 108.664C718.19 108.407 717.762 108.065 717.505 107.808C717.334 107.636 717.163 107.551 717.077 107.465C716.991 107.294 716.82 107.208 716.734 107.122C716.306 106.694 716.049 106.437 716.135 106.437Z" fill="white"/>
<path d="M523.781 207.145C528.378 207.145 532.105 203.347 532.105 198.661C532.105 193.975 528.378 190.177 523.781 190.177C519.185 190.177 515.458 193.975 515.458 198.661C515.458 203.347 519.185 207.145 523.781 207.145Z" fill="white"/>
<path d="M523.5 187.08C517.187 187.08 512.08 192.187 512.08 198.5C512.08 204.813 517.187 209.919 523.5 209.919C529.813 209.919 534.92 204.813 534.92 198.5C534.96 192.187 529.813 187.08 523.5 187.08ZM523.5 204.893C519.962 204.893 517.107 202.038 517.107 198.5C517.107 194.961 519.962 192.066 523.5 192.066C527.038 192.066 529.893 194.921 529.893 198.459C529.893 201.998 527.038 204.893 523.5 204.893Z" fill="#231F20"/>
<path d="M523.5 210C517.147 210 512 204.853 512 198.5C512 192.147 517.147 187 523.5 187C529.853 187 535 192.147 535 198.5C535 204.853 529.853 210 523.5 210ZM523.5 187.121C517.227 187.121 512.161 192.227 512.161 198.46C512.161 204.733 517.267 209.799 523.5 209.799C529.773 209.799 534.839 204.692 534.839 198.46C534.879 192.227 529.773 187.121 523.5 187.121Z" fill="#231F20"/>
<path d="M525.752 199.867C526.033 200.149 526.033 200.551 525.792 200.832C525.551 201.074 525.108 201.074 524.827 200.792L521.248 197.214C520.967 196.932 520.967 196.53 521.208 196.248C521.449 196.007 521.892 196.007 522.173 196.289L525.752 199.867Z" fill="white"/>
<path d="M525.309 201.073C525.108 201.073 524.907 200.993 524.746 200.832L521.168 197.253C521.007 197.093 520.927 196.932 520.927 196.731C520.927 196.53 521.007 196.329 521.128 196.208C521.248 196.087 521.449 196.007 521.65 196.007C521.851 196.007 522.052 196.087 522.213 196.248L525.792 199.827C526.073 200.108 526.114 200.591 525.832 200.872C525.711 200.993 525.51 201.073 525.309 201.073ZM521.69 196.127C521.53 196.127 521.369 196.168 521.288 196.288C521.168 196.409 521.128 196.57 521.128 196.731C521.128 196.891 521.208 197.052 521.329 197.173L524.907 200.752C525.028 200.872 525.189 200.953 525.35 200.953C525.51 200.953 525.671 200.912 525.752 200.792C525.993 200.551 525.953 200.189 525.711 199.947L522.133 196.369C522.012 196.208 521.851 196.127 521.69 196.127Z" fill="#231F20"/>
<path d="M521.65 197.656C522.183 197.656 522.615 197.224 522.615 196.691C522.615 196.158 522.183 195.726 521.65 195.726C521.117 195.726 520.685 196.158 520.685 196.691C520.685 197.224 521.117 197.656 521.65 197.656Z" fill="#231F20"/>
<path d="M526.234 200.35C526.234 200.873 525.792 201.315 525.269 201.315C524.747 201.315 524.304 200.873 524.304 200.35C524.304 199.827 524.747 199.385 525.269 199.385C525.832 199.385 526.234 199.827 526.234 200.35Z" fill="#231F20"/>
<path d="M525.752 199.867C526.033 200.149 526.033 200.551 525.792 200.832C525.551 201.074 525.108 201.074 524.827 200.792L521.248 197.214C520.967 196.932 520.967 196.53 521.208 196.248C521.449 196.007 521.892 196.007 522.173 196.289L525.752 199.867Z" fill="white"/>
<path d="M525.309 201.073C525.108 201.073 524.907 200.993 524.746 200.832L521.168 197.253C521.007 197.093 520.927 196.932 520.927 196.731C520.927 196.53 521.007 196.329 521.128 196.208C521.248 196.087 521.449 196.007 521.65 196.007C521.851 196.007 522.052 196.087 522.213 196.248L525.792 199.827C526.073 200.108 526.114 200.591 525.832 200.872C525.711 200.993 525.51 201.073 525.309 201.073ZM521.69 196.127C521.53 196.127 521.369 196.168 521.288 196.288C521.168 196.409 521.128 196.57 521.128 196.731C521.128 196.891 521.208 197.052 521.329 197.173L524.907 200.752C525.028 200.872 525.189 200.953 525.35 200.953C525.51 200.953 525.671 200.912 525.752 200.792C525.993 200.551 525.953 200.189 525.711 199.947L522.133 196.369C522.012 196.208 521.851 196.127 521.69 196.127Z" fill="#231F20"/>
<path d="M524.907 196.208C525.189 195.927 525.591 195.927 525.872 196.168C526.114 196.409 526.114 196.851 525.832 197.133L522.254 200.712C521.972 200.993 521.57 200.993 521.289 200.752C521.047 200.511 521.047 200.068 521.329 199.787L524.907 196.208Z" fill="white"/>
<path d="M521.771 200.993C521.57 200.993 521.409 200.913 521.248 200.792C521.128 200.672 521.047 200.47 521.047 200.269C521.047 200.068 521.128 199.867 521.288 199.747L524.867 196.168C525.028 196.007 525.229 195.927 525.43 195.927C525.631 195.927 525.792 196.007 525.953 196.128C526.234 196.409 526.234 196.892 525.912 197.173L522.334 200.752C522.173 200.913 521.972 200.993 521.771 200.993ZM525.39 196.047C525.229 196.047 525.068 196.128 524.947 196.248L521.369 199.827C521.248 199.948 521.168 200.109 521.168 200.269C521.168 200.43 521.208 200.591 521.329 200.712C521.449 200.832 521.57 200.873 521.731 200.873C521.892 200.873 522.052 200.792 522.173 200.672L525.752 197.093C525.993 196.852 525.993 196.449 525.792 196.248C525.711 196.128 525.551 196.047 525.39 196.047Z" fill="#231F20"/>
<path d="M521.731 201.275C522.264 201.275 522.696 200.843 522.696 200.31C522.696 199.777 522.264 199.345 521.731 199.345C521.198 199.345 520.766 199.777 520.766 200.31C520.766 200.843 521.198 201.275 521.731 201.275Z" fill="#231F20"/>
<path d="M525.39 195.726C525.913 195.726 526.355 196.168 526.355 196.691C526.355 197.213 525.913 197.656 525.39 197.656C524.867 197.656 524.425 197.213 524.425 196.691C524.425 196.128 524.867 195.726 525.39 195.726Z" fill="#231F20"/>
<path d="M524.907 196.208C525.189 195.927 525.591 195.927 525.872 196.168C526.114 196.409 526.114 196.851 525.832 197.133L522.254 200.712C521.972 200.993 521.57 200.993 521.289 200.752C521.047 200.511 521.047 200.068 521.329 199.787L524.907 196.208Z" fill="white"/>
<path d="M521.771 200.993C521.57 200.993 521.409 200.913 521.248 200.792C521.128 200.672 521.047 200.47 521.047 200.269C521.047 200.068 521.128 199.867 521.288 199.747L524.867 196.168C525.028 196.007 525.229 195.927 525.43 195.927C525.631 195.927 525.792 196.007 525.953 196.128C526.234 196.409 526.234 196.892 525.912 197.173L522.334 200.752C522.173 200.913 521.972 200.993 521.771 200.993ZM525.39 196.047C525.229 196.047 525.068 196.128 524.947 196.248L521.369 199.827C521.248 199.948 521.168 200.109 521.168 200.269C521.168 200.43 521.208 200.591 521.329 200.712C521.449 200.832 521.57 200.873 521.731 200.873C521.892 200.873 522.052 200.792 522.173 200.672L525.752 197.093C525.993 196.852 525.993 196.449 525.792 196.248C525.711 196.128 525.551 196.047 525.39 196.047Z" fill="#231F20"/>
<path d="M515.498 198.5C515.538 198.5 515.579 198.862 515.699 199.465C515.82 200.068 516.021 200.993 516.544 201.958C516.785 202.441 517.147 202.963 517.549 203.446C517.991 203.928 518.474 204.411 519.077 204.813C519.358 205.014 519.68 205.215 520.042 205.376C520.364 205.537 520.726 205.698 521.128 205.818C521.49 205.939 521.892 206.019 522.294 206.1C522.696 206.18 523.098 206.18 523.54 206.18C523.942 206.18 524.385 206.14 524.787 206.1C525.189 206.019 525.591 205.939 525.953 205.818C526.315 205.698 526.677 205.537 527.038 205.376C527.4 205.215 527.682 205.014 528.004 204.813C528.607 204.411 529.129 203.928 529.531 203.446C529.974 202.963 530.295 202.441 530.537 201.958C531.059 200.993 531.261 200.068 531.381 199.465C531.502 198.862 531.502 198.5 531.582 198.5C531.622 198.5 531.663 198.862 531.622 199.505C531.582 200.149 531.421 201.114 530.939 202.159C530.698 202.682 530.376 203.245 529.934 203.808C529.491 204.33 528.969 204.853 528.325 205.336C528.004 205.577 527.682 205.778 527.32 205.979C526.958 206.18 526.556 206.341 526.154 206.462C525.752 206.582 525.309 206.703 524.907 206.783C524.465 206.864 524.023 206.904 523.58 206.904C523.138 206.904 522.696 206.864 522.254 206.783C521.811 206.703 521.409 206.622 521.007 206.462C520.605 206.341 520.203 206.18 519.841 205.979C519.479 205.778 519.117 205.577 518.836 205.336C518.192 204.893 517.67 204.371 517.227 203.808C516.785 203.285 516.463 202.722 516.222 202.159C515.74 201.073 515.579 200.149 515.538 199.505C515.378 198.862 515.458 198.5 515.498 198.5Z" fill="white"/>
<path d="M533.593 198.5C533.552 198.5 533.512 198.058 533.392 197.294C533.271 196.53 532.989 195.404 532.346 194.157C532.024 193.554 531.582 192.871 531.059 192.268C530.537 191.664 529.893 191.021 529.129 190.539C528.767 190.297 528.365 190.016 527.923 189.815C527.481 189.614 527.038 189.413 526.556 189.252C526.073 189.091 525.591 188.97 525.068 188.89C524.545 188.81 524.023 188.769 523.5 188.769C522.977 188.769 522.454 188.81 521.932 188.89C521.409 188.97 520.927 189.091 520.444 189.252C519.961 189.413 519.519 189.614 519.077 189.815C518.635 190.016 518.232 190.257 517.871 190.539C517.107 191.061 516.463 191.664 515.941 192.268C515.418 192.911 514.975 193.554 514.654 194.157C514.01 195.404 513.729 196.53 513.608 197.294C513.488 198.058 513.447 198.54 513.407 198.5C513.367 198.5 513.367 198.379 513.367 198.178C513.367 198.058 513.367 197.937 513.367 197.776C513.367 197.615 513.367 197.455 513.407 197.254C513.488 196.449 513.689 195.283 514.292 193.916C514.614 193.273 515.016 192.549 515.579 191.906C516.142 191.222 516.785 190.579 517.589 190.016C517.991 189.734 518.393 189.453 518.876 189.252C519.318 189.011 519.801 188.81 520.323 188.649C520.846 188.488 521.369 188.327 521.892 188.247C522.414 188.166 522.977 188.126 523.54 188.126C524.103 188.126 524.666 188.166 525.189 188.247C525.711 188.327 526.274 188.488 526.757 188.649C527.28 188.81 527.762 189.011 528.204 189.252C528.647 189.493 529.089 189.734 529.491 190.016C530.295 190.579 530.939 191.222 531.502 191.906C532.024 192.589 532.467 193.273 532.788 193.916C533.432 195.243 533.633 196.449 533.673 197.254C533.713 197.455 533.713 197.656 533.713 197.776C533.713 197.937 533.713 198.058 533.713 198.178C533.633 198.379 533.633 198.5 533.593 198.5Z" fill="white"/>
<path d="M528.446 193.916C528.446 193.916 528.325 193.836 528.124 193.635C528.084 193.595 528.003 193.555 527.963 193.474C527.883 193.434 527.843 193.354 527.762 193.313C527.601 193.193 527.44 193.072 527.199 192.951C527.079 192.871 526.998 192.831 526.878 192.75C526.757 192.67 526.636 192.63 526.516 192.549C526.274 192.388 525.953 192.308 525.671 192.187C525.068 191.986 524.344 191.866 523.58 191.866C522.816 191.866 522.133 191.986 521.489 192.187C521.168 192.308 520.886 192.388 520.645 192.549C520.524 192.63 520.404 192.67 520.283 192.75C520.163 192.831 520.042 192.871 519.961 192.951C519.76 193.072 519.559 193.233 519.399 193.313C519.318 193.354 519.238 193.434 519.197 193.474C519.117 193.514 519.077 193.595 519.037 193.635C518.836 193.836 518.715 193.916 518.715 193.916C518.715 193.916 518.795 193.796 518.996 193.595C519.037 193.555 519.117 193.474 519.157 193.434C519.238 193.394 519.278 193.313 519.358 193.273C519.519 193.152 519.68 192.992 519.881 192.871C520.002 192.791 520.082 192.71 520.203 192.67C520.323 192.59 520.444 192.549 520.565 192.469C520.806 192.308 521.128 192.228 521.449 192.107C522.093 191.906 522.816 191.785 523.58 191.745C524.344 191.745 525.068 191.906 525.711 192.107C526.033 192.228 526.315 192.348 526.596 192.469C526.717 192.549 526.837 192.59 526.958 192.67C527.079 192.75 527.199 192.831 527.28 192.871C527.481 192.992 527.682 193.152 527.802 193.273C527.883 193.354 527.963 193.394 528.003 193.434C528.044 193.514 528.124 193.555 528.164 193.595C528.325 193.796 528.446 193.916 528.446 193.916Z" fill="white"/>
<path d="M518.635 203.164C518.635 203.164 518.755 203.244 518.956 203.446C518.997 203.486 519.077 203.526 519.117 203.606C519.198 203.647 519.238 203.727 519.318 203.767C519.479 203.888 519.64 204.008 519.881 204.129C520.002 204.21 520.082 204.25 520.203 204.33C520.323 204.411 520.444 204.451 520.565 204.531C520.806 204.692 521.128 204.772 521.409 204.893C522.012 205.094 522.736 205.215 523.5 205.215C524.264 205.215 524.948 205.094 525.591 204.893C525.913 204.772 526.194 204.692 526.435 204.531C526.556 204.451 526.677 204.411 526.797 204.33C526.918 204.25 527.038 204.21 527.119 204.129C527.32 204.008 527.521 203.848 527.682 203.767C527.762 203.727 527.843 203.647 527.883 203.606C527.963 203.566 528.004 203.486 528.044 203.446C528.245 203.244 528.365 203.164 528.365 203.164C528.365 203.164 528.285 203.285 528.084 203.486C528.044 203.526 527.963 203.606 527.923 203.647C527.843 203.687 527.802 203.767 527.722 203.807C527.561 203.928 527.4 204.089 527.199 204.21C527.079 204.29 526.998 204.37 526.878 204.411C526.757 204.491 526.636 204.531 526.516 204.612C526.275 204.772 525.953 204.853 525.631 204.974C524.988 205.175 524.264 205.295 523.5 205.335C522.736 205.335 522.012 205.175 521.369 204.974C521.047 204.853 520.766 204.732 520.484 204.612C520.364 204.531 520.243 204.491 520.122 204.411C520.002 204.33 519.881 204.25 519.801 204.21C519.6 204.089 519.399 203.928 519.278 203.807C519.198 203.727 519.117 203.687 519.077 203.647C519.037 203.566 518.956 203.526 518.916 203.486C518.715 203.285 518.594 203.164 518.635 203.164Z" fill="white"/>
</svg>
