<svg width="63" height="59" viewBox="0 0 63 59" fill="none" xmlns="http://www.w3.org/2000/svg">
<g clip-path="url(#clip0)">
<path d="M34.0998 16.4055L34.0679 16.4541C33.6277 17.1158 33.4838 17.924 33.6639 18.7209C32.144 18.366 30.573 18.8398 29.7916 20.0303C29.3185 20.7634 29.2014 21.6646 29.4677 22.5291C28.0936 22.3522 26.7564 22.8493 26.0527 23.9215L26.0188 23.9732C25.6316 24.5418 25.4759 25.2299 25.5769 25.9243L17.9559 21.3493C16.1143 20.2437 13.7877 20.6064 12.78 22.1417C11.7735 23.6752 12.4465 25.8295 14.2863 26.9352L29.3984 36.0251L27.8647 36.1545C26.4969 36.2541 25.2787 36.8782 24.5007 37.8775C23.7443 38.8597 23.4862 40.1177 23.7884 41.3539L23.9751 42.3796C24.0355 42.7105 24.3352 42.9745 24.6949 43.014L42.7922 44.9951C46.0999 45.3566 49.1413 44.0921 50.7188 41.6887L55.4323 34.5076L55.4252 34.5033C57.8151 30.8623 56.1635 25.7555 51.7587 23.106C49.7877 21.9208 48.3137 21.0451 47.1233 20.3289C43.9387 18.412 42.7609 17.7089 39.2452 15.6082C37.4053 14.5088 35.1047 14.8745 34.0998 16.4055ZM46.3484 21.4998C47.5391 22.2162 49.0135 23.1037 50.9843 24.2892C54.6608 26.5006 56.0559 30.7456 54.0859 33.7469L49.395 40.8936C48.1037 42.8609 45.595 43.8932 42.8595 43.5941L25.3821 41.6829L25.2935 41.2062C25.2915 41.1943 25.2879 41.1818 25.2854 41.17C25.0696 40.312 25.2442 39.4366 25.7675 38.7526C26.3115 38.0589 27.1613 37.6277 28.1135 37.5613L31.7491 37.2578C32.0676 37.2317 32.3186 37.0215 32.3765 36.7335C32.4345 36.4455 32.2866 36.141 32.0074 35.9734L15.0472 25.7773C13.9366 25.1098 13.5182 23.8276 14.1037 22.9355C14.6892 22.0434 16.0795 21.847 17.1912 22.5144L27.4213 28.6557C27.4569 28.6771 27.4918 28.7 27.528 28.7218C27.5435 28.7311 27.5603 28.7392 27.5755 28.7483L31.9494 31.374C32.3149 31.5934 32.7825 31.5105 32.9936 31.1888C33.2048 30.867 33.0797 30.4283 32.7142 30.2089L28.2084 27.504C27.1365 26.8605 26.772 25.6368 27.3424 24.7678L27.3764 24.7161C27.9623 23.8234 29.3336 23.6113 30.4453 24.2786L34.4476 26.6813C34.8131 26.9007 35.2806 26.8178 35.4918 26.496C35.7029 26.1743 35.5778 25.7356 35.2123 25.5162L32.0722 23.6311C30.9602 22.9636 30.5199 21.7134 31.109 20.8159C31.6947 19.9236 33.063 19.7592 34.1753 20.427L37.1377 22.2053C37.5032 22.4247 37.9707 22.3418 38.1819 22.0201C38.3931 21.6983 38.268 21.2596 37.9025 21.0402L36.2983 20.0772C35.1863 19.4097 34.8056 18.1414 35.3915 17.2487L35.4235 17.2001C36.0079 16.3098 37.3693 16.1155 38.4792 16.7786C41.9924 18.8777 43.1661 19.5843 46.3484 21.4998Z" fill="#FF2748"/>
<path d="M13.3595 28.9585C13.5707 28.6368 13.4456 28.198 13.0801 27.9786C10.5608 26.4531 9.70407 23.4228 11.163 21.2C12.6222 18.977 15.848 18.3979 18.3797 19.9046C18.7452 20.124 19.2127 20.041 19.4239 19.7193C19.635 19.3976 19.5099 18.9588 19.1444 18.7394C15.8819 16.7959 11.7229 17.5413 9.84196 20.407C7.96123 23.2723 9.06693 27.1786 12.3153 29.1438C12.6808 29.3632 13.1483 29.2802 13.3595 28.9585Z" fill="#FF2748"/>
</g>
<defs>
<clipPath id="clip0">
<rect width="41.4252" height="45.8878" fill="white" transform="matrix(0.548729 -0.836 0.857373 0.514696 0.505493 34.6313)"/>
</clipPath>
</defs>
</svg>
