<svg width="35" height="35" viewBox="0 0 35 35" fill="none" xmlns="http://www.w3.org/2000/svg">
<path d="M17.5 0C7.83499 0 0 7.83499 0 17.5C0 27.165 7.83499 35 17.5 35C27.165 35 35 27.165 35 17.5C35 7.83499 27.165 0 17.5 0Z" fill="white"/>
<path d="M27.9606 19.7474C28.6169 14.2226 27.6453 10.7347 25.8926 9.15711L25.8935 9.15619C23.0647 6.46211 13.5112 6.06336 10.1268 9.27719C8.60701 10.8493 8.07168 13.1565 8.01301 16.0129C7.95435 18.8701 7.88468 24.2225 12.8723 25.6745H12.8768L12.8723 27.8919C12.8723 27.8919 12.8383 28.7903 13.4122 28.9709C14.0685 29.1835 14.3655 28.7664 16.4069 26.3281C19.8206 26.6242 22.4423 25.9459 22.7402 25.8469C23.4295 25.6159 27.3299 25.0998 27.9606 19.7474ZM16.7433 24.7679C16.7433 24.7679 14.5828 27.462 13.9108 28.1614C13.6908 28.3888 13.4498 28.3677 13.4534 27.9167C13.4534 27.6206 13.4699 24.2354 13.4699 24.2354C9.24135 23.0235 9.49068 18.4659 9.53651 16.0816C9.58235 13.6964 10.0187 11.743 11.3057 10.4276C14.2748 7.64369 22.6503 8.26611 24.7843 10.2718C27.3932 12.5845 26.4646 19.1185 26.4701 19.3413C25.9338 23.8091 22.7732 24.0924 22.192 24.2858C21.9436 24.3683 19.6382 24.9614 16.7433 24.7679V24.7679Z" fill="black"/>
<path d="M17.9387 10.9512C17.5858 10.9512 17.5858 11.5012 17.9387 11.5058C20.6768 11.5268 22.9318 13.4353 22.9565 16.9361C22.9565 17.3055 23.4974 17.3009 23.4928 16.9315H23.4919C23.4625 13.1594 21.0004 10.9723 17.9387 10.9512V10.9512Z" fill="black"/>
<path d="M21.5402 16.3563C21.532 16.7211 22.0719 16.7386 22.0765 16.3691C22.1214 14.2892 20.839 12.576 18.4291 12.3954C18.0762 12.3697 18.0395 12.9243 18.3915 12.95C20.4815 13.1086 21.5824 14.5349 21.5402 16.3563V16.3563Z" fill="black"/>
<path d="M20.9627 18.7212C20.5099 18.459 20.0488 18.6222 19.8581 18.8797L19.4594 19.3958C19.2568 19.658 18.8782 19.6232 18.8782 19.6232C16.1154 18.8926 15.3766 16.0014 15.3766 16.0014C15.3766 16.0014 15.3426 15.61 15.5956 15.4001L16.0943 14.9876C16.3436 14.7896 16.5013 14.3129 16.2474 13.8445C15.5691 12.6189 15.1135 12.1963 14.8816 11.8718C14.6377 11.5666 14.2711 11.4978 13.8897 11.7041H13.8815C13.0886 12.1679 12.2205 13.036 12.4982 13.9297C12.9721 14.8721 13.843 17.876 16.6186 20.1457C17.9231 21.2191 19.9874 22.3191 20.8637 22.573L20.872 22.5858C21.7355 22.8737 22.5751 21.9717 23.0234 21.1549V21.1485C23.2223 20.7534 23.1563 20.3794 22.8657 20.1347C22.3506 19.6323 21.5732 19.0777 20.9627 18.7212Z" fill="black"/>
<path d="M18.8068 14.4409C19.6877 14.4922 20.1149 14.9524 20.1607 15.8975C20.1772 16.2669 20.7135 16.2412 20.697 15.8718C20.6383 14.638 19.9948 13.9505 18.8361 13.8863C18.4832 13.8652 18.4502 14.4198 18.8068 14.4409V14.4409Z" fill="black"/>
</svg>
