<svg width="35" height="35" viewBox="0 0 35 35" fill="none" xmlns="http://www.w3.org/2000/svg">
<path d="M9.19345 18.7914H10.5809V26.301H11.8936V18.7914H13.3068V17.5615H9.19345V18.7914Z" fill="white"/>
<path d="M20.2925 19.7094C19.8585 19.7094 19.4536 19.9464 19.0729 20.4155V17.561H17.8932V26.3008H19.0729V25.6699C19.4679 26.1573 19.8725 26.3907 20.2925 26.3907C20.7619 26.3907 21.0777 26.1436 21.2352 25.6588C21.3144 25.3828 21.3548 24.9492 21.3548 24.3466V21.7535C21.3548 21.1369 21.3144 20.7066 21.2352 20.4448C21.0781 19.9564 20.7615 19.7094 20.2925 19.7094ZM20.1743 24.4389C20.1743 25.0276 20.0017 25.3176 19.6609 25.3176C19.4672 25.3176 19.2699 25.2249 19.0726 25.0272V21.0585C19.2699 20.8634 19.4672 20.771 19.6609 20.771C20.0014 20.771 20.1743 21.0725 20.1743 21.6597V24.4389Z" fill="white"/>
<path d="M15.6914 24.7657C15.4297 25.1356 15.1823 25.3178 14.9453 25.3178C14.7877 25.3178 14.6978 25.2251 14.6692 25.0418C14.6585 25.0038 14.6585 24.8599 14.6585 24.5834V19.7891H13.4783V24.9376C13.4783 25.3977 13.518 25.7085 13.5825 25.9061C13.701 26.2362 13.9631 26.3909 14.3426 26.3909C14.777 26.3909 15.2224 26.1288 15.6914 25.591V26.3014H16.8723V19.7891H15.6914V24.7657Z" fill="white"/>
<path d="M16.7044 13.7731C17.0886 13.7731 17.273 13.4684 17.273 12.8597V10.0915C17.273 9.48247 17.0886 9.1792 16.7044 9.1792C16.3198 9.1792 16.1351 9.48283 16.1351 10.0915V12.8597C16.1351 13.4687 16.3198 13.7731 16.7044 13.7731Z" fill="white"/>
<path d="M17.5 0C7.83499 0 0 7.83499 0 17.5C0 27.165 7.83499 35 17.5 35C27.165 35 35 27.165 35 17.5C35 7.83499 27.165 0 17.5 0ZM19.4464 8.18517H20.6355V13.0304C20.6355 13.31 20.6355 13.455 20.6498 13.4941C20.676 13.6788 20.7698 13.7734 20.9295 13.7734C21.1679 13.7734 21.4182 13.5886 21.6828 13.2151V8.18517H22.8751V14.7659H21.6828V14.0483C21.208 14.5926 20.7554 14.8565 20.3204 14.8565C19.9366 14.8565 19.6716 14.7007 19.552 14.3677C19.4861 14.1683 19.4464 13.8536 19.4464 13.3892V8.18517ZM14.9428 10.331C14.9428 9.62742 15.0624 9.11325 15.3159 8.78061C15.6456 8.33054 16.11 8.10568 16.7044 8.10568C17.3016 8.10568 17.7657 8.33054 18.0954 8.78061C18.3454 9.11289 18.465 9.62742 18.465 10.331V12.6354C18.465 13.3351 18.3454 13.8539 18.0954 14.183C17.7657 14.632 17.3016 14.8565 16.7044 14.8565C16.11 14.8565 15.6456 14.632 15.3159 14.183C15.0624 13.8539 14.9428 13.3347 14.9428 12.6354V10.331ZM11.7539 5.93514L12.6927 9.40292L13.5947 5.93514H14.932L13.3412 11.1896V14.7662H12.0192V11.1896C11.8993 10.5559 11.6347 9.62742 11.2104 8.3957C10.9318 7.57611 10.6414 6.75402 10.3629 5.93514H11.7539ZM26.9208 26.8761C26.6816 27.9141 25.8327 28.6803 24.8104 28.7945C22.3889 29.0649 19.9394 29.0663 17.4989 29.0649C15.0595 29.0663 12.6086 29.0649 10.1878 28.7945C9.16552 28.6803 8.31621 27.9144 8.07775 26.8761C7.73724 25.3976 7.73724 23.7832 7.73724 22.2607C7.73724 20.7383 7.74153 19.1241 8.08169 17.6454C8.32051 16.607 9.1691 15.8408 10.1914 15.7269C12.6125 15.4566 15.0631 15.4551 17.5032 15.4566C19.9427 15.4551 22.3932 15.4566 24.8144 15.7269C25.8366 15.8411 26.6859 16.607 26.9255 17.6454C27.2649 19.1241 27.2628 20.7383 27.2628 22.2607C27.2628 23.7832 27.2613 25.3976 26.9208 26.8761Z" fill="white"/>
<path d="M24.0506 19.7095C23.447 19.7095 22.9783 19.9311 22.6374 20.3769C22.3871 20.7063 22.2729 21.2155 22.2729 21.9112V24.1923C22.2729 24.8845 22.4007 25.3972 22.6521 25.7234C22.9926 26.1681 23.4627 26.3904 24.08 26.3904C24.6962 26.3904 25.1799 26.1573 25.5065 25.6844C25.6497 25.4753 25.7428 25.2386 25.7822 24.9772C25.7933 24.859 25.8073 24.5973 25.8073 24.2167V24.0452H24.6038C24.6038 24.5178 24.5884 24.7803 24.5781 24.8444C24.5107 25.1598 24.341 25.3173 24.0506 25.3173C23.6453 25.3173 23.447 25.0166 23.447 24.4143V23.2592H25.8073V21.9104C25.8073 21.2147 25.6895 20.7056 25.442 20.3762C25.1123 19.9315 24.6429 19.7095 24.0506 19.7095ZM24.6278 22.2775H23.4477V21.6748C23.4477 21.0726 23.6457 20.7715 24.0399 20.7715C24.4302 20.7715 24.6278 21.073 24.6278 21.6748V22.2775Z" fill="white"/>
</svg>
